<svg viewBox="0 0 80 80" xmlns="http://www.w3.org/2000/svg">
  <!-- Light mode migration icon -->
  <g transform="translate(40, 40)">
    <rect x="-28" y="-15" width="22" height="30" rx="3" fill="#1F54BF" opacity="0.2" stroke="#1F54BF" stroke-width="2"/>
    <rect x="-24" y="-10" width="14" height="3" rx="1" fill="#1F54BF"/>
    <rect x="-24" y="-4" width="10" height="2" rx="1" fill="#021373" opacity="0.5"/>
    <rect x="-24" y="1" width="12" height="2" rx="1" fill="#021373" opacity="0.5"/>
    <rect x="-24" y="6" width="8" height="2" rx="1" fill="#021373" opacity="0.5"/>
    
    <rect x="6" y="-15" width="22" height="30" rx="3" fill="#F29F05" opacity="0.2" stroke="#F29F05" stroke-width="2"/>
    <rect x="10" y="-10" width="14" height="3" rx="1" fill="#F29F05"/>
    <rect x="10" y="-4" width="10" height="2" rx="1" fill="#021373" opacity="0.5"/>
    <rect x="10" y="1" width="12" height="2" rx="1" fill="#021373" opacity="0.5"/>
    <rect x="10" y="6" width="8" height="2" rx="1" fill="#021373" opacity="0.5"/>
    
    <g>
      <path d="M -5,0 L 5,0" stroke="#1F54BF" stroke-width="2" stroke-linecap="round"/>
      <path d="M 2,-3 L 5,0 L 2,3" stroke="#1F54BF" stroke-width="2" stroke-linecap="round" fill="none"/>
      
      <circle cx="0" cy="0" r="2" fill="#F29F05">
        <animate attributeName="cx" values="-5;5;-5" dur="1.5s" repeatCount="indefinite"/>
      </circle>
    </g>
  </g>
</svg>
