<svg id="SvgjsSvg1011" width="288" height="288" xmlns="http://www.w3.org/2000/svg" version="1.1" xmlns:xlink="http://www.w3.org/1999/xlink" xmlns:svgjs="http://svgjs.com/svgjs"><defs id="SvgjsDefs1012"></defs><g id="SvgjsG1013"><svg xmlns="http://www.w3.org/2000/svg" viewBox="0 0 16 16" width="288" height="288"><g fill="#1f54bf" color="#000" font-family="sans-serif" font-weight="400" class="color249fe6 svgShape"><path d="M7.512 1038.361a6.492 6.492 0 0 0-4.068 11.566.501.501 0 1 0 .624-.783 5.483 5.483 0 0 1-1.757-6.11 5.496 5.496 0 0 1 5.199-3.673 5.492 5.492 0 0 1 3.406 9.797.5.5 0 0 0 .621.785 6.493 6.493 0 0 0 2.104-7.218 6.504 6.504 0 0 0-6.13-4.364z" overflow="visible" style="line-height:normal;text-indent:0;text-align:start;text-decoration-line:none;text-decoration-style:solid;text-decoration-color:#000;text-transform:none;block-progression:tb;isolation:auto;mix-blend-mode:normal" transform="translate(0 -1036.362)"></path><path fill-rule="evenodd" d="M7.492 1042.986a.5.5 0 0 0-.346.147l-2.12 2.12a.5.5 0 1 0 .706.708l1.768-1.768 1.768 1.768a.5.5 0 1 0 .707-.707l-2.121-2.121a.5.5 0 0 0-.362-.147z" overflow="visible" style="line-height:normal;text-indent:0;text-align:start;text-decoration-line:none;text-decoration-style:solid;text-decoration-color:#000;text-transform:none;block-progression:tb;isolation:auto;mix-blend-mode:normal" transform="translate(0 -1036.362)"></path><path fill-rule="evenodd" d="M7.492 1042.978a.5.5 0 0 0-.492.508v6.07a.5.5 0 1 0 1 0v-6.07a.5.5 0 0 0-.508-.508z" overflow="visible" style="line-height:normal;text-indent:0;text-align:start;text-decoration-line:none;text-decoration-style:solid;text-decoration-color:#000;text-transform:none;block-progression:tb;isolation:auto;mix-blend-mode:normal" transform="translate(0 -1036.362)"></path></g></svg></g></svg>