<svg xmlns="http://www.w3.org/2000/svg" id="astronaut-doing-earth-climbing" viewBox="0 0 2800 2900">
  <circle cx="1317.535" cy="1884.525" r="848.877" style="fill:#f4731c"></circle>
  <path d="M1318.78 2735.79a854.473 854.473 0 0 1-234.923-33.105c-218.537-62.417-399.69-206.201-510.083-404.868-110.395-198.667-136.818-428.43-74.399-646.97 62.417-218.538 206.201-399.69 404.868-510.083 198.662-110.396 428.43-136.822 646.97-74.4 218.538 62.417 399.69 206.204 510.083 404.868 110.396 198.665 136.817 428.43 74.4 646.97-62.417 218.538-206.204 399.69-404.868 510.084-128.18 71.228-269.346 107.497-412.049 107.505Zm-2.484-1698.527c-142.045 0-282.522 36.098-410.11 106.997-197.731 109.875-340.842 290.176-402.966 507.685-62.124 217.512-35.825 446.197 74.05 643.929 109.876 197.731 290.176 340.842 507.686 402.966 217.52 62.126 446.199 35.825 643.928-74.05 197.732-109.876 340.843-290.176 402.967-507.686 62.124-217.512 35.825-446.196-74.05-643.928s-290.176-340.843-507.686-402.967a850.783 850.783 0 0 0-233.819-32.946Z" style="fill:#371a45"></path>
  <path d="M1725.428 2627.666c-409.84 227.72-926.64 80.12-1154.36-329.72a848.145 848.145 0 0 1-85.16-220.68 834.375 834.375 0 0 1-16.84-98.88c-36.08-329.44 123.8-663.68 431.68-834.76 144.6-80.32 302.48-113.96 456.32-105.84 282.2 14.88 550.64 170.28 698.04 435.52a847.58 847.58 0 0 1 93.4 260.44c63.28 347.96-96.76 712.6-423.08 893.92Z" style="fill:#ffa726"></path>
  <g style="opacity:.35">
    <path d="M1716.828 2587.266c-410.56 228.12-928.24 80.2-1156.36-330.28a848.664 848.664 0 0 1-98.08-288.64c2.2 3.36 4.4 6.72 6.68 10.04 156.36 232.72 407.24 371.2 671.96 392.4a153.936 153.936 0 1 1 306.32-28.68 898.492 898.492 0 0 0 488.6-336.92c6.84-9.4-6.88-20.12-14.2-11.12-3.08 3.8-6.16 7.96-9.2 12.56-36.8 55.6-191.68 54.8-298.08-69.08-106.4-123.92 135.28-209.52 166.52-298.6 31.24-89.08 9.56-112.84-23.44-124.4-33.04-11.56-321.64 62.28-369.28-152.72-32.08-144.84 156.48-150.92 257.68-149.64 39.72 5.08 66.48 3.84 66.48 3.84s-27.6-3.32-66.48-3.84c-81.28-10.28-216.92-46.96-288.88-174.4 282.2 14.88 550.64 170.28 698.04 435.52a847.58 847.58 0 0 1 93.4 260.44l-1.12 1.68c43 335-117.32 677.72-430.56 851.84Z" style="fill:#371a45"></path>
  </g>
  <g style="opacity:.35">
    <path d="M1712.428 1216.026s-26.76 1.24-66.48-3.84c38.88.52 66.48 3.84 66.48 3.84Z" style="fill:#293856"></path>
    <path d="M1704.458 1218.151a473.664 473.664 0 0 1-58.765-3.982l.281-3.984c38.543.515 66.416 3.82 66.695 3.855l-.147 3.982c-.085.005-2.935.13-8.064.13Z" style="fill:#371a45"></path>
  </g>
  <g style="opacity:.4">
    <path d="M2170.454 1735.853a872.48 872.48 0 0 0-67.803-156.117c-166.456-299.525-484.478-461.615-805.126-443.63l.04.157c12.316 49.02-39.412 104.254-115.51 123.374-76.139 19.13-147.79-5.105-160.107-54.125a57.948 57.948 0 0 1-1.323-6.938 861.14 861.14 0 0 0-94.258 45.2c-332.937 185.022-496.041 557.22-430.91 912.127-123.83-384.96 36.822-816.263 403.764-1020.167 417.574-232.05 944.225-81.652 1176.284 335.961a863.091 863.091 0 0 1 94.95 264.158Z" style="fill:#fff"></path>
  </g>
  <path d="M1318.799 2749.797a868.568 868.568 0 0 1-238.787-33.65c-222.134-63.442-406.264-209.595-518.476-411.53-112.21-201.934-139.068-435.48-75.623-657.616 63.443-222.133 209.595-406.264 411.53-518.476 201.937-112.212 435.48-139.068 657.616-75.623 222.133 63.445 406.264 209.595 518.476 411.531 112.21 201.934 139.068 435.479 75.623 657.615-63.445 222.134-209.595 406.264-411.531 518.476-130.288 72.398-273.777 109.266-418.828 109.273Zm-2.483-1698.528c-139.697 0-277.85 35.5-403.33 105.23-194.463 108.056-335.208 285.375-396.304 499.292-61.096 213.916-35.234 438.82 72.827 633.283 108.057 194.463 285.376 335.208 499.292 396.304 213.916 61.101 438.819 35.237 633.284-72.827 194.463-108.057 335.205-285.376 396.304-499.292 61.096-213.916 35.234-438.821-72.827-633.284-108.057-194.463-285.376-335.205-499.292-396.304a836.684 836.684 0 0 0-229.954-32.402Z" style="fill:#371a45"></path>
  <path d="M1435.403 2391.396a150.194 150.194 0 0 1-20.823 49.592 159.354 159.354 0 0 1-16.816 21.6 239.735 239.735 0 0 1-19.495 18.598c-13.762 11.538-29.04 21.9-46.24 29.526a141.02 141.02 0 0 1-55.925 12.217 135.433 135.433 0 0 1-56.604-12.534 194.127 194.127 0 0 1-46.988-30.818 272.731 272.731 0 0 1-19.548-19.224 179.016 179.016 0 0 1-17.53-22.621 167.812 167.812 0 0 1-22.78-52.427c-8.838-37.217-5.35-77.305 10.827-111.88a169.03 169.03 0 0 1 77.425-80.01 164.526 164.526 0 0 1 108.423-13.76c35.861 7.696 68.344 28.098 89.934 56.062a5.984 5.984 0 0 1-8.77 8.077l-.027-.027c-24.145-22.046-54.226-36.17-85.327-39.449a143.874 143.874 0 0 0-88.618 18.201c-25.964 15.418-47.131 38.782-58.442 66.267a143.365 143.365 0 0 0-10.508 43.015 136.926 136.926 0 0 0 3.757 43.977c3.811 14.22 9.3 28.067 17.39 40.437a139.495 139.495 0 0 0 13.396 17.635c5.288 5.742 10.767 11.423 16.514 16.56a156.237 156.237 0 0 0 36.78 26.115 110.2 110.2 0 0 0 41.455 11.268c14.336.825 28.977-1.756 43.213-6.834 14.309-4.939 28.125-12.602 41.12-21.79a235.687 235.687 0 0 0 18.968-14.59 159.155 159.155 0 0 0 16.45-16.75 155.42 155.42 0 0 0 24.65-40.803l.054-.127a7.417 7.417 0 0 1 14.085 4.497Z" style="fill:#371a45"></path>
  <g style="opacity:.4">
    <path d="M1433.758 1838.78a130.43 130.43 0 0 1-123.369-4.308 118.334 118.334 0 1 0 8.125-227.188 118.641 118.641 0 0 0-10.882 3.312c3.5-2.158 7.087-4.132 10.83-5.98a130.505 130.505 0 1 1 115.296 234.164Z" style="fill:#fff"></path>
  </g>
  <g style="opacity:.35">
    <circle cx="797.633" cy="1852.586" r="178.515" style="fill:#293856"></circle>
    <path d="M797.312 2033.173a181.053 181.053 0 1 1 44.31-5.512 181.774 181.774 0 0 1-44.31 5.512Zm.635-357.173a177.54 177.54 0 0 0-43.325 5.394 176.514 176.514 0 1 0 214.204 128.18A176.707 176.707 0 0 0 797.946 1676Z" style="fill:#371a45"></path>
  </g>
  <g style="opacity:.4">
    <path d="M1045.62 1781.763c39.43 113.887-20.94 238.2-134.828 277.63-113.925 39.444-238.238-20.928-277.668-134.815a210.006 210.006 0 0 1-2.216-6.768c37.496 83.36 133.114 125.772 221.147 95.293a178.52 178.52 0 1 0-182.48-297.088 216.94 216.94 0 0 1 98.402-69.118c113.887-39.43 238.2 20.94 277.644 134.866Z" style="fill:#fff"></path>
  </g>
  <path d="M661.848 1713.947c28.106-31.938 68.543-53.679 111.78-60.315 43.337-7.138 89.258 1.521 128.157 23.294a202.147 202.147 0 0 1 51.736 42.187l5.468 6.397 2.727 3.205 2.437 3.433c3.2 4.61 6.504 9.167 9.582 13.865l8.257 14.714c2.71 4.932 4.69 10.22 6.963 15.369 8.2 20.915 13.594 43.007 14.805 65.571a205.46 205.46 0 0 1-7.486 66.921 198.631 198.631 0 0 1-28.942 60.67 203.962 203.962 0 0 1-46.817 48.053 207.503 207.503 0 0 1-59.927 29.632c-5.385 1.438-10.644 3.364-16.132 4.343l-16.446 2.869c-11.084.993-22.168 2.048-33.271 1.323-22.124-.928-44.15-5.07-64.607-13.242a203.458 203.458 0 0 1-55.925-33.675c-33.453-27.949-55.506-67.753-63.36-109.045a5.971 5.971 0 0 1 11.511-3.061l.054.156c12.859 37.339 35.828 70.542 67.249 92.395a182.909 182.909 0 0 0 50.354 25.54 178.813 178.813 0 0 0 55.175 8.01c9.295.173 18.499-1.287 27.642-2.522l13.53-3.074c4.524-.92 8.814-2.752 13.23-4.05a170.77 170.77 0 0 0 48.338-25.852c28.535-22.713 50.84-53.907 60.068-89.295a181.08 181.08 0 0 0 6.152-53.96c-.815-18.2-5.134-36.196-11.61-53.193-12.503-34.436-37.855-63.313-68.731-83.37a174.426 174.426 0 0 0-51.07-21.39c-18.022-4.5-36.96-6.488-55.747-4.586-37.815 2.41-74.807 17.99-104.78 43.245a7.418 7.418 0 0 1-10.364-10.562ZM1919.38 2071.345c28.982 4.404 56.694 20.256 76.528 43.393 20.061 23.106 31.958 53.665 33.05 84.986.827 31.235-8.645 63.327-27.979 88.65-9.646 12.556-20.967 23.937-34.24 32.807a146.21 146.21 0 0 1-43.297 19.651c-30.759 8.452-64.101 5.52-93.18-6.816a141.433 141.433 0 0 1-39.376-25.762 134.087 134.087 0 0 1-28.57-36.836 136.818 136.818 0 0 1-14.643-43.777 140.509 140.509 0 0 1 .826-45.474 128.314 128.314 0 0 1 43.86-75.22 5.985 5.985 0 0 1 8.547 8.282l-.122.156c-16.187 20.728-26.475 45.069-27.571 70.022a119.837 119.837 0 0 0 3.3 36.514 116.087 116.087 0 0 0 14.473 32.898c3.018 5.149 6.922 9.685 10.65 14.27l6.223 6.36c2.019 2.16 4.475 3.874 6.66 5.847a113.938 113.938 0 0 0 30.17 17.712c21.82 8.057 46.105 9.732 68.395 3.333a114.126 114.126 0 0 0 31.379-14.256 112.314 112.314 0 0 0 25.366-23.542c1.665-2.366 3.667-4.51 5.18-6.982l4.598-7.395a127.236 127.236 0 0 0 7.153-15.906 110.575 110.575 0 0 0 2.408-69.695 104.963 104.963 0 0 0-15.254-32.769c-13.426-20.647-34.087-36.701-58.287-46.137l-.068-.027a7.44 7.44 0 0 1 3.82-14.287Z" style="fill:#371a45"></path>
  <g style="opacity:.35">
    <circle cx="1347.353" cy="1722.051" r="118.328" style="fill:#293856" transform="rotate(-45 1347.353 1722.05)"></circle>
    <path d="M1347.36 1842.392a120.424 120.424 0 1 1 29.315-3.64 120.547 120.547 0 0 1-29.314 3.64Zm.199-236.716a116.35 116.35 0 1 0 28.14 229.197 116.362 116.362 0 0 0-28.14-229.197Z" style="fill:#371a45"></path>
  </g>
  <path d="M1246.633 1795.624c-17.3-20.744-26.648-48.715-26.076-76.87a127.399 127.399 0 0 1 29.707-78.97c18.747-22.043 45.173-38.29 74.201-43.752 14.434-2.663 29.292-3.484 43.946-1.35a135.312 135.312 0 0 1 42.016 13.36c26.426 13.29 47.547 36.027 59.864 62.59a130.744 130.744 0 0 1 11.035 42.178 124.022 124.022 0 0 1-3.301 43.037 126.142 126.142 0 0 1-17.19 39.094 129.577 129.577 0 0 1-28.83 30.581 117.704 117.704 0 0 1-76.614 23.955 5.99 5.99 0 0 1-.816-11.87l.21-.04c23.596-4.408 45.254-14.74 61.035-31.003a108.768 108.768 0 0 0 19.766-26.691 105.432 105.432 0 0 0 10.037-30.901c1.067-5.281 1.164-10.684 1.418-16.011l-.361-8.023c-.056-2.666-.679-5.295-.96-7.937a103.211 103.211 0 0 0-9.592-30.039c-9.79-18.518-25.027-34.255-43.787-43.398a103.215 103.215 0 0 0-29.555-9.387 101.512 101.512 0 0 0-31.148.415c-2.539.576-5.173.788-7.678 1.526l-7.537 2.155a115.814 115.814 0 0 0-14.394 6.287 100.126 100.126 0 0 0-43.916 45.064 94.876 94.876 0 0 0-9.798 31.193c-3.664 22.015.313 45.41 10.691 66.692l.04.083a7.446 7.446 0 0 1-12.413 8.032Z" style="fill:#371a45"></path>
  <g style="opacity:.4">
    <path d="M1432.817 1391.254a100.287 100.287 0 0 1-94.856-3.312 90.986 90.986 0 1 0 6.246-174.683 91.224 91.224 0 0 0-8.366 2.546c2.69-1.659 5.449-3.176 8.326-4.597a100.344 100.344 0 1 1 88.65 180.046Z" style="fill:#fff"></path>
  </g>
  <g style="opacity:.35">
    <circle cx="1366.381" cy="1301.502" r="90.981" style="fill:#293856" transform="rotate(-45 1366.381 1301.502)"></circle>
    <path d="M1366.39 1394.494a92.986 92.986 0 1 1 90.168-115.65 93.022 93.022 0 0 1-90.169 115.65Zm.148-182.01a89.535 89.535 0 0 0-21.838 2.718 88.985 88.985 0 1 0 107.978 64.62 89.08 89.08 0 0 0-86.14-67.337Z" style="fill:#371a45"></path>
  </g>
  <path d="M1287.507 1359.01c-14.099-15.888-21.909-37.924-21.826-60.282a100.658 100.658 0 0 1 23.006-63.206c14.834-17.764 35.986-30.898 59.267-35.371a104.382 104.382 0 0 1 69.016 9.585c21.201 10.7 38.123 28.99 47.884 50.344a103.784 103.784 0 0 1 8.654 33.833 101.042 101.042 0 0 1-16.953 65.376 101.967 101.967 0 0 1-23.215 23.96 91.067 91.067 0 0 1-60.708 17.605 6.013 6.013 0 0 1-.718-11.887l.112-.02c35.918-7.229 62.373-36.042 66.17-67.539 2.493-15.569-.733-31.538-7.503-44.997-7.236-13.31-18.271-24.602-31.811-31.153a75.79 75.79 0 0 0-21.284-6.758 74.257 74.257 0 0 0-22.471.21c-14.961 2.12-28.899 9.698-40.1 20.41a78.47 78.47 0 0 0-13.848 18.907 69.357 69.357 0 0 0-7.74 22.764c-3.173 16.218-.736 33.679 6.441 50.104l.071.16a7.477 7.477 0 0 1-12.444 7.956Z" style="fill:#371a45"></path>
  <path d="M2231.747 1041.87q-10.5 10.19-21.548 19.832a508.429 508.429 0 0 1-202.335 107.086c-8.818 2.333-17.636 4.46-26.454 6.279a507.423 507.423 0 0 1-307.775-31.018c-137.863-59.839-248.072-179.758-289.863-336.218a507.684 507.684 0 0 1 17.292-316.181q6.331-16.264 13.76-32.013a512.276 512.276 0 0 1 132.58-173.101q18.322-15.492 38.257-29.303c4.94-3.43 9.95-6.793 15.028-10.018a508.143 508.143 0 0 1 144.04-63.511c272.022-72.672 551.455 88.901 624.126 360.957 49.34 184.665-9.264 372.692-137.108 497.209Z" style="fill:#fff"></path>
  <g style="opacity:.35">
    <path d="M2231.747 1041.87q-10.5 10.19-21.548 19.832a508.429 508.429 0 0 1-202.335 107.086c-8.818 2.333-17.636 4.46-26.454 6.279a507.423 507.423 0 0 1-307.775-31.018c-137.863-59.839-248.072-179.758-289.863-336.218a507.533 507.533 0 0 1-10.088-217.364 510.423 510.423 0 0 0 233.867 204.257 506.955 506.955 0 0 0 253.631 39.492 510.856 510.856 0 0 0 54.144-8.475c8.818-1.818 17.636-3.946 26.454-6.279a508.43 508.43 0 0 0 202.335-107.086q11.065-9.624 21.548-19.832a512.146 512.146 0 0 0 147.23-279.776 509.023 509.023 0 0 1 55.962 131.893c49.34 184.665-9.264 372.692-137.108 497.209Z" style="fill:#371a45"></path>
  </g>
  <path d="M1876.228 1202.133a525.47 525.47 0 0 1-208.965-43.405c-148.318-64.378-257.28-190.77-298.95-346.768-29.038-108.716-22.869-221.484 17.84-326.11a526.406 526.406 0 0 1 14.194-33.026 528.323 528.323 0 0 1 136.73-178.513 521.085 521.085 0 0 1 39.476-30.232c5.554-3.857 10.65-7.256 15.559-10.371a523.8 523.8 0 0 1 148.486-65.461c135.706-36.253 277.385-17.493 398.96 52.812 121.585 70.313 208.506 183.77 244.756 319.473 49.05 183.581-5.132 380.075-141.404 512.8l-.02.017c-7.385 7.168-14.85 14.04-22.194 20.425a524.336 524.336 0 0 1-208.704 110.474c-9.848 2.602-18.782 4.721-27.35 6.489a528.355 528.355 0 0 1-55.738 8.72 519.211 519.211 0 0 1-52.676 2.676Zm.906-1019.917a498.125 498.125 0 0 0-267.788 78.452c-4.612 2.93-9.348 6.09-14.558 9.707a488.081 488.081 0 0 0-37.056 28.38 496.263 496.263 0 0 0-128.423 167.68 493.18 493.18 0 0 0-13.335 31.02c-38.227 98.245-44.016 204.144-16.743 306.248 39.13 146.504 141.47 265.205 280.774 325.67a491.458 491.458 0 0 0 298.071 30.045c8.089-1.667 16.463-3.657 25.698-6.098a492.434 492.434 0 0 0 195.945-103.709 524.027 524.027 0 0 0 20.862-19.204 494.792 494.792 0 0 0 132.817-481.616c-34.045-127.446-115.676-233.999-229.86-300.032-76.155-44.04-160.718-66.543-246.404-66.543Z" style="fill:#371a45"></path>
  <path d="M2132.106 1117.355c0 .034 0 .034-.034.034a510.395 510.395 0 0 1-124.208 51.399c-8.818 2.333-17.636 4.46-26.454 6.279a507.423 507.423 0 0 1-307.775-31.018c-137.863-59.839-248.072-179.758-289.863-336.218a507.417 507.417 0 0 1-1.888-256.17 461.99 461.99 0 0 1 51.605-51.056q16.933-14.308 35.34-27.072c4.564-3.156 9.196-6.279 13.897-9.23a469.527 469.527 0 0 1 133.06-58.672c251.263-67.148 509.355 82.107 576.502 333.405 35.856 134.261 9.95 270.375-60.182 378.32Z" style="fill:#293856"></path>
  <path d="M1876.22 1188.134a511.388 511.388 0 0 1-203.38-42.25c-144.376-62.664-250.44-185.692-291-337.537a511.96 511.96 0 0 1-1.894-257.176l.425-.815a465.406 465.406 0 0 1 51.826-51.28c11.187-9.45 23.13-18.598 35.493-27.184 5.433-3.76 9.874-6.707 13.973-9.283a471.475 471.475 0 0 1 133.608-58.908c122.044-32.62 249.468-15.75 358.811 47.485 109.346 63.235 187.524 165.278 220.137 287.334a473.956 473.956 0 0 1-60.113 379.426v1.409l-1.481.024a513.11 513.11 0 0 1-124.244 51.34c-9.565 2.53-18.254 4.593-26.57 6.307a514.768 514.768 0 0 1-54.34 8.506 505.285 505.285 0 0 1-51.25 2.602ZM1383.71 552.612a508.012 508.012 0 0 0 1.994 254.704c40.244 150.657 145.481 272.723 288.728 334.9a505.464 505.464 0 0 0 306.56 30.896c8.257-1.704 16.875-3.75 26.363-6.257a509.22 509.22 0 0 0 123.322-50.967 470.003 470.003 0 0 0 59.68-376.338c-32.338-121.02-109.855-222.2-218.276-284.902-108.425-62.703-234.77-79.419-355.779-47.085a467.59 467.59 0 0 0-132.492 58.423c-4.068 2.554-8.46 5.471-13.84 9.194-12.259 8.513-24.097 17.58-35.189 26.953a461.09 461.09 0 0 0-51.071 50.479Z" style="fill:#371a45"></path>
  <path d="M2132.106 1117.355c0 .034 0 .034-.034.034a510.395 510.395 0 0 1-124.208 51.399c-8.818 2.333-17.636 4.46-26.454 6.279a507.423 507.423 0 0 1-307.775-31.018c-137.863-59.839-248.072-179.758-289.863-336.218a507.417 507.417 0 0 1-1.888-256.17 461.99 461.99 0 0 1 51.605-51.056q16.933-14.308 35.34-27.072c4.564-3.156 9.196-6.279 13.897-9.23a469.527 469.527 0 0 1 133.06-58.672c251.263-67.148 509.355 82.107 576.502 333.405 35.856 134.261 9.95 270.375-60.182 378.32Z" style="fill:#293856"></path>
  <path d="M1876.22 1188.134a511.388 511.388 0 0 1-203.38-42.25c-144.376-62.664-250.44-185.692-291-337.537a511.96 511.96 0 0 1-1.894-257.176l.425-.815a465.406 465.406 0 0 1 51.826-51.28c11.187-9.45 23.13-18.598 35.493-27.184 5.433-3.76 9.874-6.707 13.973-9.283a471.475 471.475 0 0 1 133.608-58.908c122.044-32.62 249.468-15.75 358.811 47.485 109.346 63.235 187.524 165.278 220.137 287.334a473.956 473.956 0 0 1-60.113 379.426v1.409l-1.481.024a513.11 513.11 0 0 1-124.244 51.34c-9.565 2.53-18.254 4.593-26.57 6.307a514.768 514.768 0 0 1-54.34 8.506 505.285 505.285 0 0 1-51.25 2.602ZM1383.71 552.612a508.012 508.012 0 0 0 1.994 254.704c40.244 150.657 145.481 272.723 288.728 334.9a505.464 505.464 0 0 0 306.56 30.896c8.257-1.704 16.875-3.75 26.363-6.257a509.22 509.22 0 0 0 123.322-50.967 470.003 470.003 0 0 0 59.68-376.338c-32.338-121.02-109.855-222.2-218.276-284.902-108.425-62.703-234.77-79.419-355.779-47.085a467.59 467.59 0 0 0-132.492 58.423c-4.068 2.554-8.46 5.471-13.84 9.194-12.259 8.513-24.097 17.58-35.189 26.953a461.09 461.09 0 0 0-51.071 50.479Z" style="fill:#371a45"></path>
  <path d="M2132.106 1117.355c0 .034 0 .034-.034.034a510.395 510.395 0 0 1-124.208 51.399c-8.818 2.333-17.636 4.46-26.454 6.279a510.077 510.077 0 0 1-501.017-177.46c151.588 70.82 320.435 69.241 465.195 7.515a567.74 567.74 0 0 0 227.486-175.744c10.328-13.45 20.21-27.449 29.44-41.997a469.742 469.742 0 0 1-70.408 329.974Z" style="opacity:.35;fill:#111a28"></path>
  <g style="opacity:.7">
    <path d="M1526.18 488.463c.554-5.42-9.333 5.595-13.893 8.527-3.913 2.456-7.768 5.055-11.567 7.683q-15.293 10.624-29.416 22.533a384.537 384.537 0 0 0-42.954 42.497 422.355 422.355 0 0 0 1.571 213.227c34.786 130.231 107.061 203.84 215.054 252.89 0 0-45.318-53.554-89.376-185.461-24.644-73.78-49.396-166.24-29.419-361.896Z" style="fill:#fff"></path>
  </g>
  <path d="M1876.228 1202.133a525.427 525.427 0 0 1-208.965-43.405c-148.318-64.378-257.28-190.77-298.95-346.768a526.028 526.028 0 0 1-1.938-264.224l.927-3.664 2.469-2.862a479.612 479.612 0 0 1 53.39-52.827c11.524-9.736 23.819-19.153 36.544-27.99 5.63-3.894 10.234-6.954 14.516-9.642a485.272 485.272 0 0 1 137.434-60.578c125.65-33.58 256.848-16.216 369.436 48.894 112.583 65.107 193.076 170.17 226.653 295.837a487.988 487.988 0 0 1-59.636 387.149v11.303l-11.756.025a527.601 527.601 0 0 1-124.355 50.864c-9.853 2.605-18.787 4.724-27.356 6.494a529.005 529.005 0 0 1-55.737 8.718 519.872 519.872 0 0 1-52.676 2.676Zm-479.748-642.87a494.022 494.022 0 0 0 2.751 244.44c39.13 146.504 141.47 265.205 280.774 325.67a491.458 491.458 0 0 0 298.071 30.045c8.089-1.667 16.463-3.657 25.698-6.098a495.197 495.197 0 0 0 116.973-47.879 455.93 455.93 0 0 0 56.082-362.277c-31.37-117.408-106.575-215.567-211.758-276.397-105.18-60.83-227.761-77.056-345.154-45.679a453.547 453.547 0 0 0-128.535 56.673c-4.016 2.522-8.242 5.332-13.447 8.933-11.878 8.247-23.365 17.046-34.12 26.133a447.79 447.79 0 0 0-47.335 46.435Z" style="fill:#371a45"></path>
  <path d="M2210.199 1061.702a506.578 506.578 0 0 1-65.33 48.036 431.82 431.82 0 0 1-12.763 7.617c70.133-107.944 96.038-244.058 60.182-378.319-67.147-251.298-325.239-400.553-576.502-333.405a469.527 469.527 0 0 0-133.06 58.673c-4.7 2.95-9.333 6.073-13.896 9.23q-18.374 12.763-35.341 27.071a463.221 463.221 0 0 0-34.65 32.462 6.016 6.016 0 0 1-10.082-5.946q5.517-17.985 12.307-35.471 6.331-16.264 13.76-32.013a284.3 284.3 0 0 1 4.872-4.186q18.373-15.491 38.257-29.336c4.975-3.397 9.95-6.76 15.029-10.019a509.1 509.1 0 0 1 144.04-63.51c272.021-72.672 551.489 88.935 624.16 360.99a508.028 508.028 0 0 1-30.983 348.126Z" style="fill:#fcfcfc"></path>
  <path d="m2088.875 1158.2 31.491-48.472a457.945 457.945 0 0 0 58.396-367.08c-31.509-117.924-107.043-216.516-212.69-277.612-105.65-61.099-228.77-77.39-346.67-45.879A455.571 455.571 0 0 0 1490.3 476.08c-4.023 2.526-8.274 5.351-13.503 8.97-11.931 8.285-23.47 17.12-34.273 26.25a451.923 451.923 0 0 0-33.603 31.479 20.015 20.015 0 0 1-33.547-19.763 530.715 530.715 0 0 1 12.641-36.433 522.784 522.784 0 0 1 14.143-32.906l1.248-2.651 2.204-1.926a266.678 266.678 0 0 1 5.12-4.4c12.817-10.805 26.043-20.947 39.255-30.095 5.157-3.52 10.245-6.958 15.435-10.29a522.916 522.916 0 0 1 147.988-65.254c135.183-36.114 276.33-17.422 397.459 52.629 121.133 70.054 207.73 183.086 243.84 318.274a524.474 524.474 0 0 1-31.836 357.69l-1.262 2.686-2.241 1.94a522.019 522.019 0 0 1-67.134 49.366c-4.363 2.695-8.718 5.315-13.179 7.864Zm-350.72-782.742c84.14 0 167.15 22.09 241.935 65.34 112.12 64.841 192.283 169.472 225.723 294.624a486.019 486.019 0 0 1-32.974 338.369q13.323-9.932 25.94-20.732a496.44 496.44 0 0 0 28.877-335.872c-34.182-127.959-116.15-234.949-230.808-301.26-114.653-66.308-248.264-83.996-376.213-49.817a495.013 495.013 0 0 0-140.086 61.763c-4.973 3.191-9.836 6.482-14.7 9.805-12.411 8.593-24.929 18.193-37.13 28.476-.843.703-1.66 1.402-2.467 2.097a493.134 493.134 0 0 0-12.14 28.477q-.649 1.663-1.282 3.333 5.738-5.175 11.623-10.15c11.475-9.694 23.718-19.074 36.392-27.875 5.6-3.875 10.183-6.92 14.438-9.59a489.15 489.15 0 0 1 262.871-76.988Z" style="fill:#371a45"></path>
  <circle cx="2227.495" cy="640.474" r="149.048" style="fill:#fff"></circle>
  <path d="M2227.532 805.541c-72.92 0-139.802-48.757-159.495-122.473A165.049 165.049 0 0 1 2184.9 481.015c87.915-23.479 178.564 28.938 202.053 116.863 23.484 87.925-28.94 178.564-116.863 202.053a164.846 164.846 0 0 1-42.558 5.61Zm-.069-298.13a132.756 132.756 0 0 0-34.306 4.522c-70.877 18.933-113.137 92-94.202 162.878 18.933 70.877 91.987 113.133 162.879 94.202 70.874-18.933 113.134-92 94.201-162.878-15.871-59.417-69.795-98.723-128.572-98.723Z" style="fill:#371a45"></path>
  <circle cx="2256.692" cy="640.474" r="119.858" style="fill:#fff" transform="rotate(-45 2256.692 640.474)"></circle>
  <g style="opacity:.35">
    <path d="M2287.64 756.26a119.192 119.192 0 0 1-73.084-3.568 119.84 119.84 0 0 0 .035-224.432c3.602-1.372 7.343-2.539 11.151-3.568a119.85 119.85 0 1 1 61.898 231.568Z" style="fill:#371a45"></path>
  </g>
  <path d="M2256.724 774.348c-59.141 0-113.387-39.546-129.356-99.329a133.855 133.855 0 0 1 94.778-163.867c71.309-19.048 144.82 23.464 163.87 94.775 19.048 71.309-23.47 144.82-94.778 163.87a133.62 133.62 0 0 1-34.514 4.55Zm.141-239.778a106.47 106.47 0 0 0-27.492 3.633 105.215 105.215 0 1 0 27.492-3.633Z" style="fill:#371a45"></path>
  <path d="M2569.21 1450.228a408.732 408.732 0 0 0-26.24 61c-23.84 70.2-113.72 128.56-217.04 160.36a676.23 676.23 0 0 0-14.64 4.72c-102.92 34.28-247.64 107.76-309.2 145.08-64.6 39.12-98.68 165.72-238.16 175.4-98.96 6.88-158.72-75.64-172.88-150.92-5.8-30.84-3.96-60.44 6-82.16 34.24-74.8 129.28-46.24 129.28-46.24 9.28-28.56 37.76-45.28 75.08-93 8.16-10.4 16.72-22.24 25.56-36.04 49.52-77.04-30.16-139.12-30.16-139.12-.2.04-.36.08-.56.12-11.24 2.16-22.28 4.08-33.12 5.88-.12 0-.24.04-.4.04-59.12 8.44-128.2 8.52-201.16 4.16-69.36-4.12-118.44-35.64-142-73.84-11.04-17.8-16.48-37-15.92-55.6a94.968 94.968 0 0 1 6.08-28.84c.28-.68.56-1.4.88-2.08 7.68-17.28 21.8-32.72 42.84-44.12.88-.48 1.8-.96 2.72-1.4 16-7.84 33.96-12.72 51.48-15.96a.36.36 0 0 0 .2-.04c24.44-4.52 47.92-5.88 63.76-7.8 49.48-6.08 361.12-72.48 426.56-97.2 65.4-24.68 209.44-68.04 209.44-68.04s275.8 248.36 352.24 324c11 10.88 17.88 18.2 19.2 20.68 6.2 11.64.68 20.72-9.84 40.96Z" style="fill:#fff"></path>
  <path d="M1752.346 1999.196c-92.304 0-149.12-77.783-163.261-152.959-6.019-31.987-3.836-61.594 6.145-83.362 31.89-69.668 116.19-51.31 129.814-47.827 5.9-16.491 17.988-29.077 34.5-46.272 11.804-12.292 25.185-26.228 40.29-45.542 9.03-11.506 17.356-23.244 25.452-35.886 45.5-70.786-21.316-129.495-29.004-135.889-9.832 1.885-20.274 3.738-32.825 5.82l-.727.07c-53.624 7.677-119.556 9.04-201.28 4.157-63.347-3.765-117.021-31.721-143.581-74.788-11.184-18.032-16.795-37.644-16.219-56.711a97.602 97.602 0 0 1 6.214-29.5l.212-.52c.23-.561.464-1.137.723-1.69 8.169-18.385 23.286-33.969 43.699-45.026a55.165 55.165 0 0 1 2.81-1.448c14.355-7.033 31.362-12.31 51.977-16.123 17.459-3.23 34.478-4.878 48.152-6.201 5.867-.569 11.235-1.086 15.933-1.655 52.072-6.402 362.636-73.116 426.093-97.085 64.715-24.424 208.13-67.654 209.57-68.086l1.077-.325.838.752c2.759 2.485 276.711 249.26 352.307 324.067 15.698 15.523 18.682 19.51 19.56 21.16 6.326 11.878 1.536 21.047-8.005 39.321l-1.829 3.506a404.948 404.948 0 0 0-26.118 60.718c-22.424 66.025-104.048 126.448-218.344 161.628q-7.112 2.209-14.593 4.705c-101.076 33.665-244.282 105.779-308.799 144.893-21.352 12.932-39.775 36.125-59.28 60.68-40.395 50.863-86.183 108.512-179.777 115.006q-5.951.414-11.724.412Zm-66.435-284.931c-29.644 0-68.11 8.916-87.044 50.276-9.638 21.022-11.716 49.775-5.852 80.959 14.414 76.621 74.043 156.01 170.777 149.294 91.835-6.374 137.04-63.288 176.923-113.503 19.734-24.844 38.372-48.31 60.34-61.614 64.677-39.211 208.254-111.511 309.602-145.266 5.01-1.684 9.905-3.25 14.68-4.731 111.392-34.287 194.055-95.247 215.737-159.095a408.558 408.558 0 0 1 26.363-61.281l1.828-3.509c9.168-17.558 13.352-25.573 8.02-35.588-.657-1.233-3.982-5.5-18.843-20.198-73.447-72.678-334.453-307.97-351.333-323.18-13.383 4.042-146.618 44.418-208.234 67.67-63.616 24.03-374.847 90.9-427.022 97.314-4.726.574-10.13 1.097-16.03 1.668-13.528 1.309-30.347 2.937-47.344 6.067l-.83.12c-19.888 3.713-36.558 8.876-50.6 15.756-.904.432-1.793.896-2.64 1.36-19.636 10.637-34.148 25.567-41.97 43.176a29 29 0 0 0-.66 1.539l-.202.493a93.492 93.492 0 0 0-5.93 28.193c-.55 18.223 4.851 37.063 15.623 54.429 25.878 41.963 78.371 69.211 140.42 72.898 81.452 4.873 147.126 3.515 200.756-4.143l.684-.061c12.336-2.076 22.844-3.94 32.742-5.843l.89-.173 1.275.44c.813.632 80.545 64.101 30.615 141.777-8.164 12.746-16.562 24.587-25.671 36.194-15.225 19.47-29.27 34.094-40.554 45.844-16.736 17.43-28.828 30.022-34.195 46.538l-.603 1.86-1.875-.56a156.251 156.251 0 0 0-39.843-5.12Z" style="fill:#371a45"></path>
  <g style="opacity:.35">
    <path d="M2569.21 1450.228a408.732 408.732 0 0 0-26.24 61c-23.84 70.2-113.72 128.56-217.04 160.36a676.23 676.23 0 0 0-14.64 4.72c-102.92 34.28-247.64 107.76-309.2 145.08-64.6 39.12-98.68 165.72-238.16 175.4-98.96 6.88-158.72-75.64-172.88-150.92 15.92 29.12 50.16 77.64 103.24 83.16 76.4 7.92 106.36-26.32 173.64-114.36 67.24-88.04 181.6-213.4 355.24-214.64a525.33 525.33 0 0 0 69.4-5.08c48.36-7.84 34.28-43.04 5.2-43.52-135.36-2.12-156.244-20.539-195.347-89.077-31.918-55.944-89.58-345.034-89.58-345.034 104.263-13.865 474.446 280.8 547.007 271.27 11 10.881 17.88 18.2 19.2 20.68 6.2 11.641.68 20.72-9.84 40.96Z" style="fill:#371a45"></path>
  </g>
  <g style="opacity:.35">
    <path d="M1809.837 1638.946c8.16-10.4 8.293-36.718 17.132-50.518 49.52-77.04-30.16-139.12-30.16-139.12-.2.04-.36.08-.56.12-11.24 2.16-22.28 4.08-33.12 5.88-.12 0-.24.04-.4.04-59.12 8.44-128.2 8.52-201.16 4.16-69.36-4.12-118.44-35.64-142-73.84 18.44 14.2 59.56 35.64 140.8 37.68 122.28 3.04 239.686-66.62 279.846-55.02 40.16 11.64 90.08 159.867-30.378 270.618Z" style="fill:#371a45"></path>
  </g>
  <path d="M1453.45 1255.028c-21.04 11.4-35.16 26.84-42.84 44.12 8.6-20.48 24.24-34.44 42.84-44.12Z" style="fill:#fff"></path>
  <path d="m1412.439 1299.96-3.672-1.586c7.966-18.975 22.688-34.153 43.76-45.12l1.875 3.533c-19.63 10.634-34.14 25.564-41.963 43.173Z" style="fill:#371a45"></path>
  <path d="M1762.73 1455.348c-214.56 34.76-353.68-6.84-359.16-110.28a124.495 124.495 0 0 1 .08-15c-1.8 58.52 56.28 123.4 157.92 129.44 72.96 4.36 142.04 4.28 201.16-4.16Z" style="fill:#fff"></path>
  <path d="M1625.505 1469.45c-82.014 0-145.27-15.79-183.615-46.711-25.098-20.24-38.662-46.336-40.318-77.566a126.644 126.644 0 0 1 .083-15.24l3.994.196c-1.782 57.952 56.097 121.445 156.04 127.383 81.453 4.873 147.127 3.515 200.757-4.143l.603 3.955c-50.08 8.112-96.2 12.126-137.544 12.126Zm-68.86-8.276c32.256 4.39 68.985 5.434 109.564 3.074-31.717.459-66.51-.457-104.759-2.742q-2.417-.147-4.804-.332Zm-144.772-85.33c6.296 16.743 17.17 31.397 32.526 43.78a155.986 155.986 0 0 0 32.39 19.797c-30.88-15.918-52.978-38.765-64.916-63.577ZM1704.575 1824.304c-4.277-24.925-3.15-51.057 2.617-76.25 5.686-25.198 16.619-49.31 30.608-70.982 13.914-21.396 29.463-40.94 45.872-59.573 16.46-18.681 33.35-36.333 51.68-53.588l-5.406 10.063c1.294-10.344 2.412-20.737 1.739-31.125a155.584 155.584 0 0 0-15.306-60.384c-2.292-4.738-4.87-9.328-7.553-13.82-1.387-2.2-2.742-4.446-4.214-6.531-1.355-2.051-3.13-4.35-4.15-5.672l-.845-1.09a15.97 15.97 0 0 1 24.5-20.46c2.787 3.093 4.638 5.364 6.679 8.05 2.024 2.582 3.838 5.229 5.69 7.875a185.81 185.81 0 0 1 23.949 52.203 165.23 165.23 0 0 1 6.274 38.083c.964 12.913-.225 25.837-1.997 38.577l-.793 5.71-4.612 4.356c-17 16.057-33.875 33.357-49.866 50.788-15.857 17.622-31.22 35.686-44.35 54.636a255.666 255.666 0 0 0-17.235 29.239 259.63 259.63 0 0 0-13.083 31.42c-7.49 21.548-11.687 44.263-14.119 67.85l-.01.085a8.115 8.115 0 0 1-16.069.54Z" style="fill:#371a45"></path>
  <path d="M2052.46 1117.317s-346.448 101.08-530.382 118.568Z" style="fill:#fff"></path>
  <path d="m1522.268 1237.878-.38-3.984c181.642-17.27 526.55-117.488 530.014-118.497l1.118 3.838c-3.464 1.014-348.735 101.333-530.752 118.643Z" style="fill:#371a45"></path>
  <path d="M1409.73 1301.228a94.968 94.968 0 0 0-6.08 28.84 80.415 80.415 0 0 1 6.08-28.84Z" style="fill:#fff"></path>
  <path d="m1405.647 1330.185-3.997-.166a82.365 82.365 0 0 1 6.23-29.556l3.714 1.485a93.552 93.552 0 0 0-5.947 28.237Z" style="fill:#371a45"></path>
  <path d="M1507.65 1237.668c-17.52 3.24-35.48 8.12-51.48 15.96 14.12-7.28 31.24-12.8 51.48-15.96Z" style="fill:#fff"></path>
  <path d="m1457.048 1255.424-1.794-3.574c14.817-7.639 32.341-13.076 52.087-16.157l.672 3.943c-20.252 3.742-36.922 8.908-50.965 15.788Z" style="fill:#371a45"></path>
  <path d="M1796.25 1449.428q-15.96 3.42-33.12 5.88c10.84-1.8 21.88-3.72 33.12-5.88Z" style="fill:#fff"></path>
  <path d="m1763.413 1457.287-.61-3.953c12.663-2.102 23.171-3.967 33.069-5.869l.798 3.919c-10.647 2.282-21.836 4.267-33.257 5.903Z" style="fill:#371a45"></path>
  <path d="M1649.563 1478.322q-41.364 0-88.948-2.837c-110.879-6.582-171.904-77.566-173.03-141.01-.832-46.917 33.494-105.059 132.979-114.517 180.34-17.148 523.965-116.995 527.414-118a16 16 0 0 1 8.965 30.717c-14.206 4.146-350.012 101.704-533.352 119.138-64.946 6.175-104.8 37.632-104.01 82.093.87 49.087 51.259 104.194 142.929 109.636 156.826 9.304 260.85-5.137 318-44.16a16 16 0 1 1 18.047 26.426c-51.87 35.417-132.087 52.512-248.994 52.514ZM1782.405 2013.8c-29.268.003-63.499-7.301-102.63-27.001-63.857-32.149-112.404-103.613-112.924-166.238-.36-42.957 20.48-83.896 54.387-106.843 33.696-22.805 75.425-25.862 117.483-8.611a16 16 0 1 1-12.144 29.604c-31.828-13.051-62.868-11.096-87.402 5.508-25.144 17.017-40.596 47.698-40.327 80.073.422 50.647 42.29 111.228 95.317 137.923 129.88 65.39 193.72-24.124 205.364-43.02v-.344l2.502-3.931c91.477-143.76 241.714-194.387 362.432-235.068 28.408-9.576 55.242-18.616 80.08-28.326 125.13-48.989 246.395-178.005 224.649-320.605a16 16 0 1 1 31.636-4.824c24.25 159.028-107.937 301.716-244.627 355.232-25.556 9.987-52.74 19.148-81.518 28.847-121.985 41.106-260.244 87.698-345.655 221.922l-.175-.11c-7.608 15.52-30.74 43.366-60.35 61.611a162.333 162.333 0 0 1-86.098 24.202Zm133.074-94.196Z" style="fill:#371a45"></path>
  <path d="M1952.324 1884.108a14.065 14.065 0 0 1-1.462-.075c-190.4-19.759-227.857-159.998-229.358-165.957a14 14 0 0 1 27.144-6.875c1.376 5.315 34.938 127.321 205.104 144.98a14.001 14.001 0 0 1-1.428 27.927Z" style="fill:#371a45"></path>
  <path d="M1762.505 1245.11h76.433a48 48 0 0 1 48 48v26.292a48 48 0 0 1-48 48h-76.433a48 48 0 0 1-48-48v-26.293a48 48 0 0 1 48-48Z" style="fill:#22a7f0" transform="rotate(-14.633 1800.722 1306.256)"></path>
  <path d="M1767.058 1390.642a62.26 62.26 0 0 1-59.98-46.348l-6.643-25.44a62.07 62.07 0 0 1 44.323-75.651l73.955-19.31a62.136 62.136 0 0 1 75.652 44.324l6.643 25.44a62.072 62.072 0 0 1-44.326 75.652l-73.952 19.309a61.926 61.926 0 0 1-15.672 2.024Zm67.28-140.76a33.823 33.823 0 0 0-8.55 1.101l-73.954 19.31a34.042 34.042 0 0 0-24.31 41.486l6.644 25.44a34.058 34.058 0 0 0 41.486 24.309l73.953-19.31a34.042 34.042 0 0 0 24.309-41.489l-6.64-25.437a34.233 34.233 0 0 0-32.938-25.41Zm18.807 105.882ZM1630.244 1476.19a14.007 14.007 0 0 1-12.644-19.994c33.662-71.08-17.63-226.97-18.152-228.538a14 14 0 0 1 26.56-8.86c2.28 6.826 55.367 168.155 16.9 249.38a14.004 14.004 0 0 1-12.664 8.013Z" style="fill:#371a45"></path>
  <path d="M1847.33 1576.828c197.31-122.01 323.521-131.16 323.521-131.16Z" style="fill:#fff"></path>
  <path d="m1854.692 1588.735-14.726-23.814c197.956-122.41 324.58-132.832 329.873-133.215l2.026 27.925c-1.213.093-125.761 10.742-317.173 129.104Z" style="fill:#371a45"></path>
  <path d="M2141.526 1383.059s-150.384 15.069-297.241 126.072Z" style="fill:#fff"></path>
  <path d="m1852.727 1520.3-16.885-22.339c148.289-112.083 297.989-128.2 304.287-128.833l2.803 27.859c-1.467.151-148.476 16.186-290.205 123.313Z" style="fill:#371a45"></path>
  <path d="M2561.691 1416.616c-60.36 17.668-160.608 59.912-212.995 82.63 63.012-37.85 96.37-121.023 75.94-202.051l-70.254-278.291c-21.353-84.528-94.443-139.229-170.086-132.306a146.982 146.982 0 0 0-27.007 5.116c4.94-2.2 164.006-73.262 247.255-97.595a141.47 141.47 0 0 1 27.161-5.175c75.604-6.919 148.654 47.785 170.007 132.313l70.255 278.29c23.885 94.649-25.737 192.35-110.276 217.07Z" style="fill:#fff"></path>
  <path d="m2349.492 1501.081-1.826-3.55c63.115-37.91 94.67-121.958 75.032-199.848l-70.254-278.289c-20.913-82.786-91.585-137.773-167.966-130.803a145.442 145.442 0 0 0-26.639 5.046l-1.362-3.75c17.122-7.634 167.444-74.287 247.505-97.688a144.087 144.087 0 0 1 27.539-5.246c78.377-7.144 150.732 49.108 172.129 133.813l70.256 278.291c24.212 95.94-25.876 194.397-111.653 219.478-59.99 17.56-159.052 59.255-212.76 82.546Zm-151.936-617.09c73.098 0 138.596 54.58 158.765 134.422l70.254 278.29c18.574 73.668-6.02 149.954-60.193 192.742 55.854-23.92 140.913-58.991 194.748-74.748 83.738-24.485 132.588-120.781 108.9-214.66l-70.257-278.29c-20.913-82.785-91.536-137.807-167.886-130.81a140.09 140.09 0 0 0-26.777 5.1c-66.88 19.548-183.11 69.448-228.938 89.526q3.988-.593 7.94-.957 6.752-.618 13.444-.615Z" style="fill:#371a45"></path>
  <g style="opacity:.35">
    <path d="M2561.69 1416.628c-60.36 17.64-160.6 59.88-213 82.6a153.383 153.383 0 0 0 27.24-20.88h.04c41.44-16.64 84.76-32.96 116.8-42.36 84.52-24.72 134.16-122.4 110.24-217.08l-50.92-201.72c-18.8-6.12-36.08-22-45.44-44.24-11.84-28.2-7.44-58.4 9-76.36a49.189 49.189 0 0 1 17.2-12.12c20.44-8.6 44.12-2.12 61.84 14.6a83.585 83.585 0 0 1 19.68 28.64c8.04 19.12 8.6 39.12 3 55.6l54.6 216.24c23.88 94.64-25.72 192.36-110.28 217.08Z" style="fill:#293856"></path>
    <path d="m2349.485 1501.064-1.826-3.55a151.775 151.775 0 0 0 26.885-20.608l.58-.556h.46c49.543-19.888 88.774-34.112 116.62-42.28 83.746-24.493 132.584-120.794 108.868-214.671l-50.654-200.664c-19.563-6.753-36.56-23.499-45.61-45.01-11.754-27.988-7.99-59.529 9.367-78.486a51.083 51.083 0 0 1 17.9-12.615c20.528-8.638 45.044-2.888 63.987 14.988a86.241 86.241 0 0 1 20.154 29.321c7.795 18.543 8.965 39.08 3.237 56.453l54.456 215.671c24.211 95.952-25.88 194.414-111.658 219.49-59.936 17.517-159.03 59.216-212.766 82.517Zm27.522-20.977q-5.186 4.955-10.798 9.412c35.732-15.303 83.454-35.183 127.297-51.643l-.176.051c-27.734 8.137-66.87 22.33-116.323 42.18Zm174.856-597.412a46.833 46.833 0 0 0-34.744 15.269c-16.313 17.822-19.783 47.656-8.625 74.23 8.77 20.838 25.298 36.956 44.214 43.111l1.052.342.268 1.07 50.92 201.72c22.393 88.638-18.65 179.432-92.675 212.523 17.756-6.41 34.434-12.017 48.855-16.231 83.74-24.48 132.593-120.781 108.904-214.673l-54.746-216.811.19-.56c5.632-16.579 4.558-36.328-2.95-54.184a82.204 82.204 0 0 0-19.206-27.957c-12.358-11.66-27.177-17.849-41.457-17.849Z" style="fill:#371a45"></path>
  </g>
  <g style="opacity:.35">
    <path d="M2594.69 899.068c-17.72-16.72-41.4-23.2-61.84-14.6a49.189 49.189 0 0 0-17.2 12.12c-31.64-58.76-91.4-93.92-152.88-88.28-.64.04-1.28.12-1.92.2 15.84-5.64 30.68-10.6 43.68-14.4a144.398 144.398 0 0 1 27.16-5.16c68.76-6.28 135.44 38.4 163 110.12Z" style="fill:#293856"></path>
    <path d="m2599.71 906.552-6.392-6.03c-17.78-16.775-40.652-22.22-59.692-14.211a47.154 47.154 0 0 0-16.507 11.633l-1.902 2.063-1.328-2.47c-31.511-58.514-90.786-92.745-150.937-87.237-.655.041-1.253.117-1.853.193l-18.238 2.297 17.317-6.167c17.283-6.152 31.607-10.874 43.79-14.434a146.925 146.925 0 0 1 27.536-5.234c69.534-6.35 137.407 39.458 165.054 111.394Zm-224.041-100.837c56.309 0 110.173 33.242 140.432 87.536a50.854 50.854 0 0 1 15.974-10.63c18.308-7.695 39.788-3.957 57.656 9.62-28.715-65.91-92.578-107.295-157.858-101.302a142.925 142.925 0 0 0-26.783 5.088c-8.825 2.58-18.789 5.774-30.207 9.69l.786-.002Z" style="fill:#371a45"></path>
  </g>
  <g style="opacity:.35">
    <path d="M2561.69 1416.628c-60.36 17.64-160.6 59.88-213 82.6 63-37.84 96.36-121 75.96-202.04l-7.04-27.88c11.271-4.596 27.696-10.963 43.713-17.081a81.015 81.015 0 0 0 49.023-97.448c-1.765-6.37-3.91-13.148-6.496-20.351-28.48-79.36 79.2 4.56 79.2 4.56l16.92 55c23.2-18.84 41.08-44.48 52-73.64l20 79.2c23.88 94.64-25.72 192.36-110.28 217.08Z" style="fill:#371a45"></path>
  </g>
  <path d="M2424.637 1297.195c20.43 81.028-12.929 164.2-75.941 202.051-19.86 8.584-32.866 14.39-34.215 15.006a.138.138 0 0 1-.116.055c-84.578 24.724-173.282-32.49-197.207-127.134l-70.256-278.291c-23.89-94.692 25.737-192.349 110.272-217.113a.137.137 0 0 0 .115-.055 146.982 146.982 0 0 1 27.007-5.116c75.643-6.922 148.733 47.778 170.086 132.306Z" style="fill:#fff"></path>
  <path d="M2274.348 1522.07a150.913 150.913 0 0 1-74.966-20.359c-41.106-23.504-71.782-65.07-84.162-114.048l-70.257-278.29c-24.148-95.719 25.677-193.98 111.104-219.364l.027-.034.647-.185a149.584 149.584 0 0 1 27.37-5.184c78.345-7.197 150.81 49.1 172.21 133.807l70.254 278.293c20.383 80.84-11.219 164.832-76.848 204.253-19.021 8.24-31.226 13.677-33.924 14.89l-.237.34-1.076.114a142.353 142.353 0 0 1-40.142 5.767Zm-115.864-628.616-.11.147-.967.156c-83.396 24.458-132.246 120.774-108.567 214.636l70.257 278.289c12.116 47.93 42.104 88.591 82.273 111.557 35.036 20.032 74.904 25.071 112.287 14.19 1.15-.525 13.804-6.184 34.246-15.02 62.878-37.788 94.433-121.836 74.795-199.726l-70.254-278.289c-20.913-82.786-91.585-137.773-167.966-130.803a145.457 145.457 0 0 0-25.994 4.863Z" style="fill:#371a45"></path>
  <g style="opacity:.35">
    <path d="M2348.69 1499.228c-19.84 8.6-32.84 14.4-34.2 15.04a.147.147 0 0 1-.12.04c-84.6 24.72-173.28-32.48-197.2-127.12l-10.36-41.04c36.56 66.6 109.4 102.32 179.4 81.84.04 0 .08 0 .12-.08 1.36-.6 14.36-6.4 34.2-15 63.04-37.84 96.4-121 75.96-202.04l-59.92-237.28a190.332 190.332 0 0 1 17.8 45.32l70.28 278.28c20.4 81.04-12.96 164.2-75.96 202.04Z" style="fill:#371a45"></path>
  </g>
  <path d="M2274.324 1536.057a164.677 164.677 0 0 1-81.89-22.193c-44.39-25.378-77.48-70.127-90.788-122.77l-70.257-278.297c-25.54-101.228 26.409-205.26 116.187-234.797l.144-.193 5.176-1.48a163.737 163.737 0 0 1 29.94-5.661c85.34-7.788 163.963 52.89 187.059 144.319l70.256 278.298c21.878 86.773-12.34 177.107-83.217 219.678l-1.89.972a3298.004 3298.004 0 0 0-29.995 13.122l-1.88 2.686-6.025.412a158.455 158.455 0 0 1-42.82 5.904ZM2160.449 907.49c-75.844 23.015-119.778 111.284-98.034 197.478l70.256 278.288c11.189 44.258 38.762 81.739 75.647 102.827 31.428 17.972 67.082 22.637 100.51 13.167 3.47-1.555 15.12-6.733 32.512-14.255 57.369-35.064 85.857-112.203 67.781-183.89l-70.251-278.286c-19.214-76.062-83.626-126.62-153.118-120.288a129.512 129.512 0 0 0-18.99 3.218l-.802 1.07Z" style="fill:#371a45"></path>
  <path d="M2432.593 1295.583a206.68 206.68 0 0 1-3.958 120.273 193.654 193.654 0 0 1-29.25 54.4 169.587 169.587 0 0 1-46.54 42l-13.626-27.176c50.227-22.082 101.072-42.622 152.912-61.494q19.431-7.097 39.278-13.547c6.63-2.134 13.296-4.224 20.07-6.18 3.609-.99 6.087-2.014 9.05-3.003 2.848-1.042 5.777-1.87 8.568-3.049a142.698 142.698 0 0 0 56.963-44.858 171.705 171.705 0 0 0 30.351-67.427 183.007 183.007 0 0 0-.554-74.37l-.9-4.617-1.217-4.978-2.426-9.958-4.856-19.913-9.715-39.826-19.424-79.656-19.426-79.653-9.712-39.827-1.218-4.963-1.304-4.478-2.57-8.965c-1.019-2.932-2.198-5.803-3.274-8.71a72.846 72.846 0 0 0-3.577-8.572l-3.997-8.38c-1.401-2.753-3.069-5.358-4.572-8.053-2.867-5.496-6.741-10.318-10.147-15.457-1.873-2.441-3.906-4.753-5.84-7.144l-2.93-3.569-3.215-3.29-6.46-6.56-6.96-5.992c-9.505-7.647-19.673-14.607-30.782-19.5l-4.094-1.99-4.253-1.577c-2.849-1-5.63-2.236-8.523-3.08-5.825-1.558-11.609-3.311-17.585-4.06-5.896-1.307-11.931-1.253-17.903-1.788-5.986.31-12.002.064-17.974.94a123.56 123.56 0 0 0-17.636 3.523c-6.297 1.875-12.72 3.684-19.082 5.698-25.525 8.054-51.035 17.283-76.421 26.839-50.767 19.209-101.248 39.912-151.25 61.306l-11.008-31.294c12.158-3.242 24.897-5.53 37.69-5.554 3.19-.042 6.387-.296 9.573-.13l9.548.662 4.77.356 4.712.784 9.417 1.606c24.927 5.296 48.2 16.58 68.242 31.66 20.166 15.037 36.592 34.507 49.177 55.919l4.656 8.083 3.994 8.418a155.251 155.251 0 0 1 7.105 17.183c2.373 5.744 3.799 11.777 5.537 17.715l1.257 4.467 1.013 4.192 1.997 8.34 15.596 66.824c4.942 22.334 10.115 44.614 14.866 66.997q14.71 67.035 27.012 134.653Zm-18.047 4.356q-19.889-65.783-37.42-132.137c-5.988-22.085-11.552-44.27-17.35-66.396l-16.62-66.575-2.03-8.332-1.023-4.139-1.1-3.781c-1.52-5.02-2.692-10.162-4.76-14.983a125.726 125.726 0 0 0-6.057-14.468l-3.37-7.078-3.957-6.75c-10.63-17.888-24.365-34.043-41-46.275-16.524-12.29-35.418-21.308-55.3-25.444l-7.503-1.223-3.745-.635-3.787-.237-7.566-.51c-2.522-.134-5.046.132-7.568.164-10.105-.005-20.083 1.872-29.98 4.538l-11.01-31.296c50.406-21.831 100.997-42.85 152.389-62.559 25.722-9.81 51.587-19.311 78.151-27.83 6.658-2.136 13.38-4.07 20.174-6.115a158.099 158.099 0 0 1 22.507-4.602c7.573-1.113 15.276-.994 22.932-1.306 7.632.532 15.35.598 22.857 2.136 7.617.981 14.963 3.074 22.334 5.076 3.662 1.067 7.18 2.541 10.771 3.81l5.352 1.998 5.151 2.434c13.936 6.14 26.616 14.641 38.372 24.055l8.593 7.356c2.72 2.6 5.32 5.322 7.977 7.99l3.94 4.039 3.618 4.319c2.385 2.9 4.86 5.734 7.15 8.706 4.234 6.181 8.888 12.116 12.44 18.718 1.846 3.254 3.872 6.42 5.544 9.763l4.798 10.137a97.515 97.515 0 0 1 4.27 10.344c1.291 3.501 2.666 6.975 3.865 10.5l3.056 10.745 1.509 5.376 1.201 4.998 9.536 39.87 19.07 79.742 19.07 79.738 9.534 39.87 4.768 19.937 2.382 9.969 1.192 4.983 1.067 5.441a216.734 216.734 0 0 1 .234 88.382 205.003 205.003 0 0 1-36.819 80.679 175.7 175.7 0 0 1-70.72 54.995c-3.5 1.457-7.158 2.541-10.737 3.81-3.518 1.173-7.432 2.584-10.423 3.384-6.364 1.805-12.744 3.775-19.133 5.796-12.768 4.121-25.544 8.428-38.284 13.018-50.983 18.264-101.48 38.828-152.038 59.07l-13.623-27.173a149.16 149.16 0 0 0 39.905-33.452 166.663 166.663 0 0 0 27.128-45.657 184.086 184.086 0 0 0 12.486-52.395 188.083 188.083 0 0 0-3.225-54.338Z" style="fill:#371a45"></path>
  <path d="m2351.33 1513.87-33.998 14.667 6.242-4.912a16.438 16.438 0 0 1-6.511 5.046 14.994 14.994 0 0 1-5.1 1.26l3.061-.55a159.56 159.56 0 0 1-56.34 5.56 164.558 164.558 0 0 1-54.67-14.216c-34.397-15.584-62.998-42.22-82.054-74.129a204.82 204.82 0 0 1-21.843-51.006l-1.784-6.704-1.512-6.225-3.005-12.415-6.008-24.829-24.031-99.319-23.836-99.365-5.925-24.851-2.964-12.437c-.935-4.521-2.05-9.009-2.722-13.581a212.386 212.386 0 0 1-2.18-55.22c3.347-36.777 16.428-72.812 38.694-102.761 22.07-29.93 54.109-53.496 90.708-63.587l3.042-.547s-.471.025-1.353.169a15.884 15.884 0 0 0-9.973 6.045l8.504-5.75c2.473-.522 4.946-1.047 7.453-1.418a59.788 59.788 0 0 1 7.605-.615c2.559-.02 5.11-.008 7.659.124a56.054 56.054 0 0 1 7.668 1.306l1.817 22.393c-2.022 1.11-4.048 1.782-6.018 2.759-2 .727-3.982 1.445-5.938 2.241-1.94.87-3.935 1.382-5.881 2.134l-5.894 1.933 8.504-5.747a16.265 16.265 0 0 1-6.487 5.066 14.828 14.828 0 0 1-5.071 1.255l3.042-.547c-29.236 8.264-55.005 27.263-73.186 52.16-18.296 24.871-29.231 55.294-31.853 86.324a179.005 179.005 0 0 0 2.11 46.57c.573 3.857 1.564 7.634 2.355 11.448l3.03 12.397 6.067 24.815 24.14 99.287 23.946 99.338 5.986 24.834 2.993 12.417 1.497 6.187 1.501 5.64a170.95 170.95 0 0 0 18.208 42.648c15.857 26.467 39.087 48.616 66.795 61.375 27.595 12.851 59.245 15.903 88.457 7.73l3.064-.55a13.642 13.642 0 0 0-1.36.17 16.032 16.032 0 0 0-10.022 6.029l6.245-4.913 34.734-14.638Z" style="fill:#371a45"></path>
  <path d="m2112.668 1060.917 136.758-37.171Z" style="fill:#fff"></path>
  <path d="M2112.664 1070.92a10.002 10.002 0 0 1-2.618-19.653l136.758-37.173a10 10 0 0 1 5.244 19.301l-136.757 37.173a10.073 10.073 0 0 1-2.627.352Z" style="fill:#371a45"></path>
  <path d="m2125.471 1101.775 136.758-37.172Z" style="fill:#fff"></path>
  <path d="M2125.466 1111.777a10.002 10.002 0 0 1-2.617-19.653l136.758-37.17a10 10 0 0 1 5.244 19.3l-136.758 37.171a10.075 10.075 0 0 1-2.627.352Z" style="fill:#371a45"></path>
  <path d="m2139.234 1140.256 136.758-37.172Z" style="fill:#fff"></path>
  <path d="M2139.229 1150.258a10.002 10.002 0 0 1-2.618-19.653l136.758-37.173a10 10 0 1 1 5.244 19.302l-136.757 37.173a10.074 10.074 0 0 1-2.627.351Z" style="fill:#371a45"></path>
  <ellipse cx="2450.497" cy="974.44" rx="38.425" ry="49.078" style="fill:#fff" transform="rotate(-22.796 2450.497 974.44)"></ellipse>
  <path d="M2457.546 1024.07c-17.434.002-35.578-13.18-44.316-33.968-10.91-25.964-3.071-54.114 17.478-62.749 10.034-4.224 21.533-3.22 32.366 2.82 10.671 5.952 19.44 16.11 24.69 28.606 5.251 12.495 6.374 25.866 3.156 37.654-3.264 11.962-10.59 20.876-20.632 25.095a32.692 32.692 0 0 1-12.742 2.541Zm-14.006-95.281a28.994 28.994 0 0 0-11.284 2.25c-18.513 7.781-25.396 33.582-15.34 57.515 10.06 23.928 33.309 37.063 51.824 29.287 8.882-3.733 15.388-11.711 18.323-22.463 2.98-10.928 1.921-23.377-2.986-35.051-4.907-11.675-13.056-21.143-22.951-26.66a36.195 36.195 0 0 0-17.586-4.878Z" style="fill:#371a45"></path>
  <g style="opacity:.35">
    <ellipse cx="2437.643" cy="994.922" rx="58.411" ry="71.449" style="fill:#293856" transform="rotate(-22.796 2437.644 994.922)"></ellipse>
    <path d="M2446.399 1066.57c-25.679 0-52.002-18.629-64.448-48.243-7.574-18.017-8.95-37.388-3.877-54.546 5.115-17.302 16.164-30.288 31.113-36.57 14.946-6.284 31.96-5.087 47.896 3.365 15.805 8.381 28.681 22.922 36.252 40.94 7.573 18.017 8.95 37.387 3.88 54.545-5.118 17.303-16.165 30.289-31.114 36.57a50.58 50.58 0 0 1-19.702 3.938Zm-17.395-139.33a46.923 46.923 0 0 0-18.27 3.658c-13.817 5.808-24.057 17.888-28.825 34.018-4.812 16.275-3.486 34.693 3.728 51.863 14.837 35.3 50.232 54.22 78.916 42.166 13.819-5.808 24.055-17.888 28.824-34.019 4.812-16.274 3.488-34.692-3.729-51.863-7.216-17.168-19.448-31.003-34.44-38.952a55.97 55.97 0 0 0-26.204-6.87Z" style="fill:#371a45"></path>
  </g>
  <path d="m2265.085 1460.498-2.77-1.41c-2.737-1.39-67.088-34.494-76.558-72.05l-18.484-73.29a35.376 35.376 0 0 1 25.625-42.906l106.226-26.79a35.336 35.336 0 0 1 42.905 25.625l18.484 73.291a90.218 90.218 0 0 1-65.342 109.414c-9.312 2.349-26.914 7.234-27.09 7.283Zm42.713-201.526a19.474 19.474 0 0 0-4.763.593l-106.226 26.79a19.364 19.364 0 0 0-14.023 23.481l18.484 73.291c6.081 24.111 47.072 50.38 65.578 60.278 5.515-1.518 17.195-4.717 24.412-6.535a74.205 74.205 0 0 0 53.74-89.99l-18.484-73.292a19.355 19.355 0 0 0-18.718-14.616Z" style="fill:#371a45"></path>
  <path d="M2293.215 1444.625c-9.515 2.4-27.275 7.332-27.275 7.332s-63.736-32.414-72.427-66.874l-18.483-73.29a27.34 27.34 0 0 1 19.824-33.195l106.225-26.789a27.34 27.34 0 0 1 33.195 19.824l18.483 73.291a82.115 82.115 0 0 1-59.542 99.701Z" style="fill:#22a7f0"></path>
  <path d="m2273.467 1461.15-3.489-1.805c-6.948-3.594-68.174-36.22-77.81-74.424l-18.743-74.314a37.58 37.58 0 0 1 26.983-45.708l106.225-26.787a37.568 37.568 0 0 1 45.43 27.447l18.743 74.311c12.57 49.861-17.266 100.53-66.514 112.954h-.002c-9.288 2.34-26.86 7.224-27.037 7.273Zm42.21-204.16a16.898 16.898 0 0 0-4.154.517l-106.223 26.787a17.554 17.554 0 0 0-12.48 21.423l18.743 74.312c5.918 23.47 45.554 49.468 64.199 59.729 5.796-1.597 16.743-4.59 23.637-6.328 38.558-9.724 61.89-49.502 52.012-88.667l-18.742-74.314a17.68 17.68 0 0 0-16.993-13.46Z" style="fill:#371a45"></path>
  <path d="M2267.582 1454.899a85.009 85.009 0 0 1-103.215-61.641l-19.135-75.875a28.303 28.303 0 0 1 20.523-34.364l109.969-27.733a28.303 28.303 0 0 1 34.364 20.523l19.135 75.874a85.009 85.009 0 0 1-61.641 103.216Z" style="fill:#22a7f0"></path>
  <path d="M2246.804 1465.49a93.167 93.167 0 0 1-90.193-70.276l-19.135-75.876a36.299 36.299 0 0 1 26.323-44.075l109.968-27.734a36.33 36.33 0 0 1 44.077 26.325l19.136 75.874a93.113 93.113 0 0 1-67.441 112.928 92.916 92.916 0 0 1-22.735 2.834Zm18.821-18.347 1.956 7.756-1.954-7.756a77.103 77.103 0 0 0 55.84-93.503l-19.135-75.874a20.31 20.31 0 0 0-24.654-14.725l-109.968 27.735a20.304 20.304 0 0 0-14.722 24.65l19.136 75.877a77.086 77.086 0 0 0 93.501 55.84Z" style="fill:#371a45"></path>
  <g style="opacity:.35">
    <path d="M2266.1 1448.952a79.539 79.539 0 0 1-96.634-57.696l-4.08-16.14a79.577 79.577 0 0 0 132.926-76.242l-9.063-35.976a26.428 26.428 0 0 1 16.628 18.406l17.919 71.047a79.573 79.573 0 0 1-57.695 96.6Z" style="fill:#371a45"></path>
  </g>
  <path d="M2246.47 1459.414a87.673 87.673 0 0 1-84.761-66.197l-17.91-71.025a34.489 34.489 0 0 1 25.012-41.88l102.94-25.96a34.49 34.49 0 0 1 41.88 25.01l17.912 71.026a87.572 87.572 0 0 1-63.503 106.33 88.074 88.074 0 0 1-21.57 2.696Zm33.75-190.118a18.634 18.634 0 0 0-4.558.57l-102.94 25.959a18.498 18.498 0 0 0-13.41 22.453l17.91 71.028a71.579 71.579 0 0 0 86.906 51.9 71.575 71.575 0 0 0 51.902-86.907l-17.912-71.026a18.511 18.511 0 0 0-17.898-13.977Z" style="fill:#371a45"></path>
  <path d="M2582.981 1383.264c-30.351-8.408-41.81-35.057-35.553-59.22 13.85-67.58 4.099-124.752-31.37-183.92-13.911-20.723-11.935-49.663 13.913-67.656 32.633-18.097 74.466-2.42 88.67 21.248 46.79 76.095 59.88 152.777 40.954 240.109-8.326 26.96-37.9 55.902-76.614 49.439Z" style="fill:#fff"></path>
  <path d="M2593.547 1386.147a66.224 66.224 0 0 1-10.896-.91l-.205-.047c-32.414-8.98-43.127-37.81-36.953-61.645 13.767-67.193 4.168-123.475-31.15-182.393-13.67-20.357-13.122-51.108 14.485-70.325 33.198-18.423 76.404-3.337 91.528 21.858 47.186 76.738 60.276 153.501 41.194 241.565-8.369 27.122-35.234 51.897-68.003 51.897Zm-10.134-4.839c38.987 6.433 66.904-24.216 74.27-48.074 18.809-86.82 5.877-162.651-40.744-238.471-14.22-23.684-54.871-37.803-86-20.547-26.5 18.462-25.465 46.553-13.22 64.792 35.926 59.93 45.677 117.093 31.67 185.437-5.527 21.348 2.789 48.157 34.024 56.863Z" style="fill:#371a45"></path>
  <g style="opacity:.35">
    <path d="M2659.61 1333.828c-8.36 26.96-37.92 55.88-76.64 49.44-30.32-8.4-41.8-35.08-35.56-59.24a278.347 278.347 0 0 0 6.04-59.52c6.68 8.44 16.76 14.88 30.2 17.48 38.24 3.28 64.84-27.2 70.88-54.12a361.367 361.367 0 0 0 3.32-45.2c12.92 47.92 13.36 97.52 1.76 151.16Z" style="fill:#293856"></path>
    <path d="M2593.499 1386.145a65.958 65.958 0 0 1-10.857-.904c-32.61-9.023-43.328-37.864-37.168-61.714a274.374 274.374 0 0 0 5.976-58.994l-.073-5.867 3.64 4.603c6.817 8.608 16.848 14.404 29.011 16.755 38.38 3.262 63.203-28.777 68.55-52.593a362.052 362.052 0 0 0 3.272-44.78l.12-14.641 3.81 14.138c12.947 48.022 13.53 97.776 1.785 152.102l-.046.17c-8.36 26.964-35.254 51.725-68.02 51.725Zm-38.04-116.375a282.379 282.379 0 0 1-6.089 54.66c-5.696 22.056 4.216 48.621 34.133 56.912 38.765 6.44 66.731-24.17 74.17-48.025 10.425-48.264 11.009-92.859 1.721-135.81-.522 9.988-1.486 20.24-2.883 30.627-6.733 30.042-35.847 59.077-73.032 55.845-11.32-2.178-20.86-7.048-28.02-14.209Z" style="fill:#371a45"></path>
  </g>
  <path d="M2553.45 1264.508c-8.36-10.52-11.4-24.16-9.04-37.52.72-5.88 1.28-11.64 1.64-17.36a225.147 225.147 0 0 1 7.4 54.88Z" style="fill:#fff"></path>
  <path d="m2555.525 1270.334-3.64-4.58a49.054 49.054 0 0 1-9.446-39.116c.737-6.026 1.27-11.665 1.614-17.136l.781-12.344 3.15 11.96a225.836 225.836 0 0 1 7.465 55.366Zm-8.562-48.032q-.26 2.417-.569 4.929a45.914 45.914 0 0 0 4.87 30.437 221.046 221.046 0 0 0-4.301-35.366Z" style="fill:#371a45"></path>
  <path d="M2594.082 1394.196a77.386 77.386 0 0 1-12.747-1.069l-1.025-.227c-37.273-10.325-49.636-43.53-42.63-71.101 13.272-64.995 3.992-119.4-30.073-176.326-15.751-23.689-15.095-59.114 16.65-81.213l.865-.537c36.838-20.425 85.127-3.416 102.095 24.846 48.288 78.533 61.699 157.168 42.15 247.375l-.217.83c-9.099 29.466-37.727 57.422-75.068 57.422Zm-8.935-20.713c33.774 5.34 58.105-21.276 64.77-42.214 18.25-84.663 5.6-158.491-39.792-232.317-12.1-20.154-48.028-32.495-74.861-17.983-21.807 15.48-20.975 38.581-10.901 53.581l.273.432c36.978 61.687 47.029 120.616 32.59 191.07l-.117.5c-4.528 17.488 2.34 39.553 28.038 46.931Z" style="fill:#371a45"></path>
  <path d="M2524.097 1152.172a7.997 7.997 0 0 1-6.714-12.326c.405-.63 41.433-62.644 112.524-38.819a8 8 0 1 1-5.083 15.171c-59.175-19.826-92.617 30.196-94.009 32.337a8.008 8.008 0 0 1-6.718 3.637ZM2537.383 1191.05a8 8 0 0 1-3.894-14.993c8.242-4.585 81.513-44.451 115.757-34.002a8 8 0 1 1-4.678 15.303c-23.572-7.23-82.559 21.15-103.306 32.683a7.966 7.966 0 0 1-3.88 1.008ZM2550.996 1230.029l-3.994-15.493s103.4-26.658 111.594-28.733a8 8 0 0 1 3.93 15.508c-8.188 2.075-111.53 28.718-111.53 28.718ZM2564.846 1274.235c-7.373 0-11.638-.322-12.204-.368a8 8 0 0 1 1.281-15.948c.46.035 46.929 3.438 111.429-14.648a8 8 0 0 1 4.32 15.405c-48.246 13.528-86.322 15.56-104.826 15.56ZM2601.611 1327.365c-36.32 0-54.538-10.608-55.63-11.267a8 8 0 0 1 8.209-13.733c.539.31 35.32 19.69 106.499.4a8 8 0 0 1 4.184 15.445c-25.142 6.811-46.201 9.155-63.262 9.155Z" style="fill:#371a45"></path>
  <path d="M2457.509 971.493c2.096 4.987 12.004 48.191 12.004 48.191l-28.412 11.942c-19.564 8.222-43.938-5.369-54.44-30.356s-3.156-51.91 16.408-60.133l28.413-11.941s22.612 34.173 26.027 42.297Z" style="fill:#fff"></path>
  <path d="M2429.231 1043.989c-20.613 0-41.77-15.005-51.79-38.845-12.62-30.032-2.86-62.879 21.753-73.226l36.055-15.15 4.573 6.91c3.862 5.836 23.31 35.386 26.907 43.941v.003c2.192 5.22 9.494 36.584 12.531 49.826l1.88 8.198-36.164 15.198a40.432 40.432 0 0 1-15.745 3.145Zm-1.546-102.349-20.742 8.716c-14.448 6.072-19.411 27.175-11.064 47.039 8.347 19.863 26.902 31.088 41.348 25.012l20.647-8.677c-4.163-17.847-8.49-35.466-9.602-38.406-1.915-4.5-12.269-20.908-20.586-33.684Z" style="fill:#371a45"></path>
  <ellipse cx="2450.497" cy="974.44" rx="38.425" ry="49.078" style="fill:#ee346a" transform="rotate(-22.796 2450.497 974.44)"></ellipse>
  <path d="M2457.644 1032.048c-20.613 0-41.77-15.005-51.79-38.845-12.62-30.032-2.86-62.881 21.753-73.225 12.366-5.19 26.34-4.05 39.363 3.208 12.224 6.818 22.23 18.356 28.17 32.492 5.941 14.136 7.184 29.356 3.5 42.86-3.926 14.386-12.893 25.172-25.251 30.365a40.432 40.432 0 0 1-15.745 3.145Zm-14.114-95.25a20.999 20.999 0 0 0-8.174 1.617c-14.448 6.072-19.411 27.173-11.064 47.039 8.347 19.865 26.907 31.081 41.348 25.012 6.565-2.759 11.433-8.865 13.706-17.193 2.512-9.211 1.574-19.812-2.644-29.846-4.217-10.034-11.133-18.122-19.473-22.773a28.274 28.274 0 0 0-13.699-3.855Z" style="fill:#371a45"></path>
  <path d="M2589.818 924.968c2.096 4.987 12.004 48.191 12.004 48.191l-28.413 11.942c-19.564 8.222-43.937-5.369-54.439-30.356-10.502-24.988-3.156-51.91 16.408-60.133l28.413-11.941s22.612 34.173 26.027 42.297Z" style="fill:#fff"></path>
  <path d="M2561.536 997.465c-20.61 0-41.765-15.007-51.785-38.845-5.942-14.136-7.185-29.358-3.501-42.861 3.928-14.387 12.896-25.174 25.254-30.366l36.052-15.154 4.575 6.914c3.863 5.837 23.309 35.383 26.905 43.938 2.195 5.222 9.494 36.59 12.531 49.831l1.88 8.196-36.167 15.2a40.418 40.418 0 0 1-15.744 3.147Zm-1.54-102.35-20.745 8.715c-6.565 2.759-11.434 8.867-13.704 17.195-2.515 9.211-1.577 19.812 2.642 29.846 8.347 19.863 26.887 31.094 41.345 25.01l20.647-8.677c-4.16-17.847-8.49-35.466-9.6-38.406-1.91-4.49-12.266-20.903-20.586-33.684Z" style="fill:#371a45"></path>
  <ellipse cx="2582.806" cy="927.915" rx="38.425" ry="49.078" style="fill:#ee346a" transform="rotate(-22.796 2582.806 927.915)"></ellipse>
  <path d="M2589.744 985.588a48.096 48.096 0 0 1-23.411-6.419c-12.224-6.818-22.229-18.357-28.169-32.492-5.942-14.134-7.185-29.356-3.5-42.86 3.927-14.386 12.895-25.172 25.253-30.365 24.627-10.35 54.91 5.671 67.532 35.7 5.942 14.136 7.185 29.358 3.5 42.86-3.927 14.389-12.895 25.173-25.253 30.365a41.003 41.003 0 0 1-15.952 3.21Zm-13.772-95.35a21.302 21.302 0 0 0-8.306 1.651c-6.567 2.759-11.435 8.867-13.706 17.193-2.515 9.213-1.577 19.812 2.642 29.846 4.216 10.034 11.132 18.122 19.472 22.773 7.537 4.202 15.303 4.995 21.873 2.239 6.567-2.761 11.435-8.865 13.706-17.192 2.515-9.212 1.577-19.812-2.642-29.847-6.811-16.208-20.415-26.662-33.04-26.662Z" style="fill:#371a45"></path>
  <g style="opacity:.7">
    <ellipse cx="1917.36" cy="608.562" rx="76.276" ry="88.884" style="fill:#fff"></ellipse>
  </g>
  <g style="opacity:.7">
    <ellipse cx="1986.622" cy="760.361" rx="33.169" ry="38.652" style="fill:#fff"></ellipse>
  </g>
  <path d="m981.664 1280.985-3.597 3.6-55.527 13.763-150.476-607.01-97.85-394.751.003-.043-6.006-24.225a38.438 38.438 0 0 1 23.11-44.767 36.252 36.252 0 0 1 4.943-1.603 38.742 38.742 0 0 1 11.295-1.094c16.398.868 23.71 11.07 27.898 27.866Z" style="fill:#fff"></path>
  <path d="M921.08 1300.769 672.2 296.777l.002-.044-5.932-23.933a40.592 40.592 0 0 1 24.314-47.105 37.583 37.583 0 0 1 5.195-1.687 40.77 40.77 0 0 1 11.887-1.15c15.916.843 24.807 9.627 29.732 29.38l246.47 1029.37-4.781 4.783ZM676.227 296.399l247.771 999.526 53.047-13.147 2.412-2.415L733.511 253.188c-4.475-17.959-12.027-25.593-26.057-26.335a36.748 36.748 0 0 0-10.713 1.04 33.537 33.537 0 0 0-4.66 1.51 36.582 36.582 0 0 0-21.927 42.445l6.077 24.504Z" style="fill:#371a45"></path>
  <path d="M910.857 1317.727 661.57 311.909l-4.175-.232.718-13.599-7.759-31.333a44.625 44.625 0 0 1 32.566-53.965 51.41 51.41 0 0 1 6.934-1.16 45.79 45.79 0 0 1 6.169-.102 44.373 44.373 0 0 1 40.918 33.816l260.505 1050.93Zm-126.06-641.521 2.84 11.286 146.584 591.475 24.466-6.062L705.884 253.04a12.54 12.54 0 0 0-11.548-9.567 13.781 13.781 0 0 0-1.733.029 18.68 18.68 0 0 0-2.271.405 12.54 12.54 0 0 0-8.913 15.159l8.369 33.674Z" style="fill:#371a45"></path>
  <path d="M772.064 691.338c-3.919-1.379-192.574-65.948-299.344 72.443-68.172 88.333-131.409 126.16-171.98 142.337a46.086 46.086 0 0 1-60.189-27.05L125.147 565.604a46.17 46.17 0 0 1 21.087-56.414c129.96-71.306 147.043-120.642 208.955-181.423 160.04-157.047 316.03-33.596 319.028-31.224l-.002.043Z" style="fill:#fff"></path>
  <path d="M283.83 911.391a48.318 48.318 0 0 1-45.156-31.633L123.27 566.296a48.457 48.457 0 0 1 22.004-58.858c94.392-51.792 128.58-91.423 164.77-133.378 13.221-15.328 26.893-31.175 43.744-47.72 159.411-156.421 315.117-36.548 321.667-31.37l.813.645-.041.779 98.671 398.061-3.498-1.23c-1.9-.672-191.316-65.33-297.095 71.777-68.242 88.425-131.65 126.555-172.825 142.974a47.576 47.576 0 0 1-17.648 3.415Zm246.88-661.15c-51.718 0-112.614 18.596-174.12 78.955-16.734 16.426-30.35 32.212-43.519 47.476-36.433 42.239-70.847 82.134-165.874 134.272a44.43 44.43 0 0 0-20.173 53.97l115.405 313.462a43.965 43.965 0 0 0 23.55 25.176 43.413 43.413 0 0 0 34.021.708c40.71-16.233 103.447-53.992 171.135-141.702 99.536-129.009 271.568-82.405 298.123-74.224L672.424 297.68c-7.146-5.513-64.08-47.439-141.714-47.439Z" style="fill:#371a45"></path>
  <path d="M283.826 925.4a62.344 62.344 0 0 1-58.289-40.806L110.132 571.132a62.544 62.544 0 0 1 28.408-75.969c92.175-50.576 125.56-89.275 160.903-130.249 13.406-15.542 27.27-31.614 44.536-48.564 168.17-165.02 338.47-33.653 340.166-32.308l4.285 3.392 106.297 428.835-27.977-9.839c-1.804-.635-181.735-62.01-281.362 67.124-70.178 90.933-135.925 130.362-178.723 147.427a61.55 61.55 0 0 1-22.84 4.419Zm247.097-660.791c-48.823 0-106.394 17.532-164.529 74.58-16.316 16.018-29.739 31.58-42.72 46.628-35.644 41.319-72.5 84.046-169.743 137.403a30.342 30.342 0 0 0-13.77 36.858L255.566 873.54a30.095 30.095 0 0 0 16.111 17.226 29.538 29.538 0 0 0 23.135.49c39.09-15.585 99.485-52.048 165.242-137.25 88.579-114.812 230.652-98.318 289.96-85.117l-89.946-362.864c-14.592-10.293-64.106-41.416-129.145-41.416Z" style="fill:#371a45"></path>
  <path d="m771.218 707.316-.044-.002 1.778-31.953-1.734 31.955zM673.369 312.565l-.044-.002 1.778-31.953-1.734 31.955z" style="fill:#371a45"></path>
  <g style="opacity:.35">
    <path d="M632.386 271.705s73.318 274.137 47.687 307.268c-25.63 33.132-149.328-18.59-228.056 102.8C360.11 823.483 222.72 833.886 222.72 833.886l18.058 40.568a46.144 46.144 0 0 0 63.147 22.379c53.008-27.13 139.173-78.206 172.505-137.74 49.635-88.654 274.558-90.256 289.063-76.1 0 0-56.82-273.405-103.071-378.112-10.18-23.046-21.847-30.234-30.036-33.176Z" style="fill:#371a45"></path>
  </g>
  <path d="M589.016 408.86c.167-9.966.5-20.042-2.385-29.848-.988-1.014-1.896-2.023-2.843-3.035a87.351 87.351 0 0 0-8.893-2.273 188.01 188.01 0 0 0-64.075.493c-27.79 5.137-52.655 16.278-73.058 36.228-7.39 7.179-13.981 15.161-20.762 22.934-1.834 2.106-3.284 3.03-6.236 2.033a57.56 57.56 0 0 0-21.447-2.698c-19.52 1.01-36.246 8.976-51.447 20.71-16.457 12.747-29.127 28.86-40.765 45.908-4.95 7.268-2.05 14.512 6.578 16.491l16.271 3.625q19.48 4.276 38.924 8.51a3.49 3.49 0 0 1 .038.803 2.726 2.726 0 0 1-.322.784c-4.592 7.288-2.712 13.396 3.415 18.727.651.555 1.212 1.306 1.82 1.939 3.257 3.537 6.593 7.119 10.043 10.786-3.877 3.64-7.728 6.76-11.047 10.43a15.528 15.528 0 0 0-3.532 6.944 8.762 8.762 0 0 0 5.268 9.451 9.307 9.307 0 0 0 10.809-1.39c4.071-3.51 7.873-7.234 11.96-11.023 4.699 5.055 9.129 9.896 13.565 14.618 5.122 5.398 8.33 6.088 15.2 3.448 1.227-.496 2.45-.912 3.92-1.435.282 1.497.498 2.71.679 3.842 2.647 18.085 5.252 36.208 7.984 54.218 1.31 8.56 8.498 11.986 15.904 7.53a439.643 439.643 0 0 0 19.852-12.567c14.998-10.141 28.408-22.089 38.544-37.254 12.664-19.037 18.717-39.546 12.72-62.455a3.696 3.696 0 0 1 1.126-3.105c6.607-5.258 13.48-10.222 20.086-15.48a127.48 127.48 0 0 0 34.97-43.892c11.526-23.263 16.727-48.103 17.136-73.998ZM367.613 509.733c-15.045-3.32-30.604-6.787-46.56-10.316 11.654-15.085 24.08-28.847 40.266-38.004a86.056 86.056 0 0 1 7.696-3.878l.04.002c1.354-.61 2.666-1.181 4.056-1.708a56.316 56.316 0 0 1 10.847-2.87c6.423-1.023 12.665-.892 17.161.427-2.77 4.66-5.54 9.32-8.313 14.02-8.313 14.02-16.708 28.076-25.193 42.327Zm129.654 62.944a58.759 58.759 0 0 1-1.794 6.634 48.52 48.52 0 0 1-1.584 4.202c.038.042.038.042-.002.04a75.535 75.535 0 0 1-7.617 13.737 104.448 104.448 0 0 1-5.55 7.236c-8.548 10.122-18.677 18.358-29.732 25.905-1.581 1.117-3.158 2.156-4.777 3.231l.002-.04q-1.863-12.476-3.663-24.628c-1.21-8.155-2.386-16.228-3.607-24.184 19.797-10.007 39.18-19.756 58.607-29.583l-.003.04a20.444 20.444 0 0 1 .481 2.269 42.863 42.863 0 0 1-.761 15.14Zm65.077-119.286c-5.065 16.235-12.392 31.308-23.615 44.293-8.698 9.954-18.832 18.27-29.607 25.83-29.283 20.481-61.295 35.73-94.213 49.208-1.596.637-2.639.662-3.885-.766-2.68-3.106-5.645-6.107-8.486-9.182-.192-.17-.255-.494-.547-1.03q1.205-1.198 2.53-2.39l53.81-50.225c5.22-4.77 4.727-12.087-.846-15.787-3.907-2.61-8.659-2.14-12.532 1.42q-16.176 15.005-32.317 30.093c-8.005 7.467-15.97 14.897-24.312 22.666-3.487-3.75-6.833-7.13-9.886-10.737-.525-.669-.23-2.456.3-3.39 8.839-16.395 17.56-32.837 26.83-49.05a292.762 292.762 0 0 1 31.95-45.093c11.276-13.262 23.764-25.179 39.486-33.119a126.163 126.163 0 0 1 31.593-11.145c1.016-.266 2.571.617 3.407 1.462 12.74 13.573 25.359 27.18 38.017 40.788 3.792 4.046 7.577 8.211 11.452 12.182a3.464 3.464 0 0 1 .871 3.972Zm4.767-21.178a20343.665 20343.665 0 0 1-37.294-40.068 9.682 9.682 0 0 1 .057-1.078q19.322.482 38.887.897c.143 1.85.247 3.658.352 5.466a181.002 181.002 0 0 1-2.002 34.783Z" style="fill:#371a45"></path>
  <path d="M561.473 449.42c-3.875-3.97-7.66-8.136-11.452-12.182-12.658-13.609-25.276-27.215-38.016-40.788-.837-.845-2.392-1.728-3.408-1.462a126.163 126.163 0 0 0-31.593 11.145c-15.722 7.94-28.21 19.857-39.487 33.119a292.762 292.762 0 0 0-31.948 45.094c-9.27 16.212-17.992 32.654-26.831 49.05-.53.933-.825 2.72-.3 3.389 3.053 3.606 6.4 6.988 9.886 10.737 8.343-7.77 16.307-15.199 24.313-22.666q16.119-15.069 32.316-30.093c3.874-3.56 8.625-4.03 12.533-1.42 5.572 3.7 6.065 11.016.846 15.787q-26.87 25.195-53.811 50.225-1.324 1.192-2.53 2.39c.292.536.355.86.547 1.03 2.841 3.075 5.806 6.076 8.486 9.182 1.246 1.428 2.289 1.403 3.885.766 32.918-13.478 64.93-28.727 94.213-49.207 10.775-7.561 20.91-15.877 29.607-25.83 11.223-12.986 18.55-28.06 23.615-44.294a3.464 3.464 0 0 0-.87-3.972Zm-31.804 25.714a33.509 33.509 0 1 1 1.5-47.226c12.506 13.44 11.85 34.915-1.5 47.226Z" style="fill:#fff"></path>
  <path d="M567.096 432.215c-12.632-13.565-24.954-26.797-37.298-40.07.001-.342.043-.707.053-1.08 12.908.305 25.847.62 38.93.91a176.199 176.199 0 0 1-1.685 40.24ZM401.151 453.394c-11.103 18.66-22.215 37.351-33.526 56.36a28907.615 28907.615 0 0 0-46.576-10.327c14.376-18.595 29.87-35.103 52.088-43.572 9.587-3.683 20.998-4.55 28.014-2.461ZM480.7 604.526c-9.783 11.582-21.588 20.665-34.51 29.136q-3.67-24.933-7.237-48.84c19.798-9.99 39.145-19.74 58.625-29.588 1.316 5.51.911 11.492-.305 17.436-2.549 12.16-8.681 22.445-16.572 31.856Z" style="fill:#db2c2c"></path>
  <path d="M531.168 427.908a33.437 33.437 0 1 0-1.499 47.226c13.35-12.31 14.006-33.786 1.5-47.226Zm-12.674 35.86a17.622 17.622 0 1 1-23.483-26.279 12.722 12.722 0 0 1 1.382-1.128 15.949 15.949 0 0 1 4.531-2.364 18.293 18.293 0 0 1 14.785 1.424 17.093 17.093 0 0 1 3.994 3.255 17.649 17.649 0 0 1-1.209 25.092Z" style="fill:#371a45"></path>
  <path d="M518.494 463.768a17.622 17.622 0 1 1-23.483-26.279 12.722 12.722 0 0 1 1.382-1.128 16.806 16.806 0 0 1 4.531-2.364 18.293 18.293 0 0 1 14.785 1.424 17.093 17.093 0 0 1 3.994 3.255 17.649 17.649 0 0 1-1.209 25.092Z" style="fill:#1f9ee5"></path>
  <path d="M866.413 1341.812c-2.8-23.949 29.444-62.866 77.084-78.07 47.639-15.203 88.064-.078 95.433 23.012Z" style="fill:#ffa726"></path>
  <path d="M860.178 1342.541a38.023 38.023 0 0 1-.54-17.158 64.945 64.945 0 0 1 4.95-15.55 100.045 100.045 0 0 1 17.663-25.922 132.807 132.807 0 0 1 51.475-33.721c19.426-7.048 40.95-9.905 62.107-5.884a81.045 81.045 0 0 1 30.278 12.205 56.33 56.33 0 0 1 12.424 11.86 46.413 46.413 0 0 1 4.507 7.654 35.217 35.217 0 0 1 2.456 8.633 6.972 6.972 0 0 1-12.59 4.963l-.545-.771c-4.099-5.777-10.285-9.615-17.38-12.132-7.041-2.644-14.9-3.764-22.78-4.162-15.868-.628-32.164 2.326-47.747 7.714a153.465 153.465 0 0 0-43.467 23.67 114.038 114.038 0 0 0-17.75 17.034c-5.15 6.2-9.25 13.093-10.59 20.11l-.171.895a6.33 6.33 0 0 1-12.3.562Z" style="fill:#371a45"></path>
  <g style="opacity:.35">
    <ellipse cx="952.408" cy="1315.799" rx="98.31" ry="48.059" style="fill:#371a45" transform="rotate(-21.497 952.408 1315.799)"></ellipse>
  </g>
</svg>
