<svg xmlns="http://www.w3.org/2000/svg" viewBox="0 0 2890.12 3002.42" id="astronaut-sitting-on-a-gold-stacks">
  <polygon fill="#ffc648" points="227.51 2452.55 360.9 2531.93 360.9 2618.55 229.51 2530.55 227.51 2452.55"></polygon>
  <polygon fill="#fff" points="305.4 2578.05 270.4 2559.05 270.4 2478.05 305.4 2499.05 305.4 2578.05" opacity=".5"></polygon>
  <path fill="#ffc648" d="M414.9,2373.57v207.29c0,2.69-54,37.69-54,37.69v-86.62l-133.39-79.38,187.39-78.98Z"></path>
  <path fill="#15296f" d="M360.9,2631.05c-2.43,0-4.86-.71-6.96-2.11l-131.39-88c-3.37-2.26-5.44-6.01-5.54-10.07l-2-78c-.12-4.55,2.25-8.81,6.18-11.11,3.93-2.3,8.8-2.28,12.71.04l133.39,79.38c3.79,2.25,6.11,6.33,6.11,10.74v86.63c0,4.62-2.54,8.85-6.61,11.03-1.84.98-3.87,1.47-5.89,1.47ZM241.84,2523.76l106.56,71.37v-56.1l-107.81-64.16,1.25,48.89Z"></path>
  <path fill="#15296f" d="M360.9,2631.05c-2.05,0-4.1-.5-5.97-1.52-4.02-2.19-6.53-6.4-6.53-10.98v-79.52l-127.28-75.74c-4.05-2.41-6.4-6.9-6.08-11.6.32-4.71,3.27-8.83,7.62-10.66l187.39-78.98c3.86-1.63,8.28-1.21,11.77,1.1,3.49,2.32,5.59,6.23,5.59,10.42v207.29c0,7.31-5.12,11.02-13.61,17.16-4.59,3.32-10.95,7.72-18.91,13.07-13.43,9.04-27.05,17.87-27.18,17.96-2.06,1.34-4.43,2.01-6.8,2.01ZM255.16,2454.46l112.13,66.73c3.79,2.25,6.11,6.33,6.11,10.74v63.45c12.35-8.23,23.57-15.92,29-20.01v-182.97l-147.24,62.05Z"></path>
  <path fill="#15296f" d="M360.91,2544.43c-4.23,0-8.35-2.15-10.7-6.03-3.58-5.91-1.69-13.59,4.22-17.17l54-32.7c5.9-3.58,13.59-1.69,17.17,4.22,3.58,5.91,1.69,13.59-4.22,17.17l-54,32.7c-2.02,1.23-4.26,1.81-6.46,1.81Z"></path>
  <path fill="#15296f" d="M418.89,2495.05c-2.29,0-4.6-.63-6.68-1.94l-104.89-66.46c-5.83-3.69-7.56-11.42-3.87-17.25,3.7-5.83,11.42-7.56,17.25-3.87l104.89,66.46c5.83,3.69,7.56,11.42,3.87,17.25-2.38,3.76-6.43,5.81-10.57,5.81Z"></path>
  <polygon fill="#ffc648" points="863.9 1989.55 861.95 2439.03 860.75 2716.33 665.09 2796.43 659.9 2798.55 556.4 2746.59 469.4 2702.91 414.9 2675.55 414.9 2121.55 798.9 1964.55 863.9 1989.55"></polygon>
  <polygon fill="#fff" points="556.4 2199.05 556.4 2746.59 469.4 2702.91 469.4 2148.05 556.4 2199.05" opacity=".5"></polygon>
  <path fill="#15296f" d="M882.95,2408.82l-1.1,252.53c-.06,13.62-8.38,25.86-21.09,31.02l-127.84,51.91c-22.34,9.07-46.82-7.23-46.82-31.17v-463.54c0-12.13,6.58-23.33,17.23-29.31l127.88-71.79c22.58-12.68,50.57,3.42,50.69,29.16l1.07,231.2Z" opacity=".25"></path>
  <path fill="#15296f" d="M534.91,2193.05c-4.62,0-9.06-2.57-11.23-7-3.04-6.2-.47-13.69,5.73-16.72l343-168c6.2-3.04,13.69-.47,16.72,5.73,3.04,6.2.47,13.69-5.73,16.72l-343,168c-1.77.87-3.64,1.28-5.49,1.28Z"></path>
  <path fill="#15296f" d="M659.9,2811.05c-1.93,0-3.85-.45-5.61-1.33l-245-123c-4.22-2.12-6.89-6.44-6.89-11.17v-554c0-5.08,3.07-9.65,7.77-11.57l384-157c2.95-1.21,6.24-1.24,9.22-.1l65,25c4.85,1.86,8.04,6.53,8.01,11.72l-3.15,726.78c-.02,5.06-3.09,9.6-7.76,11.51l-200.85,82.22c-1.52.62-3.13.93-4.74.93ZM427.4,2667.84l233.03,116.99,187.86-76.9,3.08-709.81-52.32-20.12-371.64,151.95v537.9Z"></path>
  <path fill="#15296f" d="M655.9,2266.05c-2.07,0-4.14-.51-6-1.54l-241-132c-6.05-3.32-8.27-10.91-4.96-16.97,3.32-6.05,10.91-8.28,16.97-4.96l235.23,128.84,285.13-144.03c6.16-3.11,13.68-.64,16.79,5.52,3.11,6.16.64,13.68-5.52,16.79l-291,147c-1.77.9-3.71,1.34-5.64,1.34Z"></path>
  <path fill="#15296f" d="M659.9,2811.05h0c-6.9,0-12.5-5.6-12.49-12.51l.37-547.21c0-6.9,5.6-12.49,12.5-12.49h0c6.9,0,12.5,5.61,12.49,12.51l-.37,547.21c0,6.9-5.6,12.49-12.5,12.49Z"></path>
  <path fill="#15296f" d="M660.27 2697.73c-1.97 0-3.94-.47-5.73-1.39l-245.37-126.57c-6.14-3.17-8.54-10.7-5.38-16.84s10.7-8.54 16.84-5.38l240.14 123.87 194.93-83.37c6.35-2.71 13.69.23 16.41 6.58 2.71 6.35-.23 13.69-6.58 16.41l-200.34 85.68c-1.57.67-3.25 1.01-4.92 1.01ZM660.27 2547.73c-1.97 0-3.94-.47-5.73-1.39l-245.37-126.57c-6.14-3.17-8.54-10.7-5.38-16.84s10.7-8.54 16.84-5.38l240.14 123.87 194.93-83.37c6.35-2.71 13.69.23 16.41 6.58 2.71 6.35-.23 13.69-6.58 16.41l-200.34 85.68c-1.57.67-3.25 1.01-4.92 1.01ZM660.27 2397.73c-1.97 0-3.94-.47-5.73-1.39l-245.37-126.57c-6.14-3.17-8.54-10.7-5.38-16.84s10.7-8.54 16.84-5.38l240.14 123.87 194.93-83.37c6.35-2.71 13.69.23 16.41 6.58 2.71 6.35-.23 13.69-6.58 16.41l-200.34 85.68c-1.57.67-3.25 1.01-4.92 1.01ZM832.89 2177.05c-1.95 0-3.92-.46-5.77-1.42l-230-120c-6.12-3.19-8.49-10.74-5.3-16.86 3.19-6.12 10.75-8.49 16.86-5.3l230 120c6.12 3.19 8.49 10.74 5.3 16.86-2.23 4.27-6.58 6.72-11.09 6.72Z"></path>
  <path fill="#15296f" d="M523.53,2743.52c-6.9,0-12.5-5.6-12.5-12.5v-549.97c0-6.9,5.6-12.5,12.5-12.5s12.5,5.6,12.5,12.5v549.97c0,6.9-5.6,12.5-12.5,12.5Z"></path>
  <polygon fill="#e41918" points="2264.96 256.75 12.5 1602.64 2333.31 401.18 2264.96 256.75"></polygon>
  <polygon fill="#e9ac03" points="2282.51 293.84 971.17 1062.05 2317.4 367.05 2282.51 293.84"></polygon>
  <path fill="#15296f" d="M12.51,1615.14c-4.4,0-8.65-2.32-10.93-6.42-3.29-5.9-1.29-13.35,4.51-16.81L2258.55,246.02c3.03-1.81,6.67-2.25,10.05-1.23,3.37,1.03,6.16,3.43,7.66,6.61l68.35,144.43c2.88,6.08.42,13.35-5.55,16.45L18.25,1613.74c-1.83.95-3.8,1.4-5.74,1.4ZM2259.55,274.55L371.23,1402.86l1945.62-1007.23-57.3-121.08Z"></path>
  <path fill="#fff" d="M742.4 1421.05c40.16 93.07 86.99 259.09 53.37 356.85-10.08 29.36-31.76 55.45-63.59 62.61-95.44 20.77-195.26-126.77-238.94-196.79-56.93-92.69-101.66-192.16-138.48-294.26-43.38-122.46-76.65-249.4-88.42-379.36-4.91-64.77-7.91-151.57 24.18-209.87 16.84-30.08 46.24-48.33 81.46-42.19 19.12 3.25 36.11 12.25 51.56 23.09 79.28 57.61 143.43 179.84 178.22 270.39-11.92-17.82-23.68-35.6-35.75-53.11-24.02-34.83-48.77-68.94-76-101.22-26.43-30.9-54.3-61.24-88.47-83.05-16.25-9.78-37.21-20.05-54.41-11.45-23.26 12.98-29.9 54.78-32.57 80.03-15.62 207.62 104.07 529.7 203.54 712.86 36.13 66.16 114.68 197.87 184.87 224.13 10.12 3.39 20.14 3.23 27.65-4.85 3.94-3.88 7.77-10.18 10.96-17.67 6.78-16.4 10.18-35.5 12.2-53.84 3.25-30.51 3.23-60.73 2.3-91.76-1.96-63.14-9.03-127.36-13.67-190.53h0ZM1228.08 1163.4c34.86 80.8 75.51 224.92 46.33 309.78-8.75 25.49-27.57 48.14-55.21 54.35-82.85 18.03-169.51-110.05-207.42-170.83-49.42-80.47-88.25-166.81-120.21-255.45-37.66-106.31-66.54-216.5-76.75-329.32-4.26-56.23-6.87-131.58 20.99-182.19 14.62-26.11 40.14-41.96 70.72-36.63 16.6 2.82 31.35 10.64 44.76 20.04 68.82 50.01 124.51 156.12 154.72 234.73-10.34-15.47-20.56-30.91-31.04-46.11-20.85-30.23-42.34-59.84-65.98-87.87-22.94-26.83-47.14-53.16-76.8-72.1-14.11-8.49-32.3-17.41-47.24-9.94-20.19 11.27-25.96 47.56-28.28 69.48-13.56 180.23 90.34 459.83 176.69 618.84 31.37 57.43 99.55 171.77 160.49 194.57 8.78 2.95 17.48 2.81 24-4.21 3.42-3.37 6.74-8.83 9.51-15.34 5.88-14.23 8.83-30.82 10.59-46.74 2.82-26.49 2.81-52.72 1.99-79.65-1.7-54.81-7.84-110.56-11.87-165.4h0ZM2116.92 1232.12c-1.97 1.34-3.94 2.66-5.92 3.97-6.39 4.23-12.87 8.33-19.41 12.31-43.08 26.25-88.72 47.11-128.59 62.84-63.96 25.24-113.1 37.31-113.1 37.31l-122.19-215.95 92.19-71.54 94.15-45.91 92.06-44.9c-23.78 86.71 110.81 261.87 110.81 261.87Z"></path>
  <path fill="#e81718" d="M2091.59,1248.4c-43.08,26.25-88.72,47.11-128.59,62.84-19.33-36.75-10.03-80.74,22.14-100.43,33.69-20.61,79.69-6.77,102.75,30.92,1.34,2.19,2.58,4.42,3.7,6.67Z"></path>
  <path fill="#15296f" d="M1963,1323.74c-4.52,0-8.85-2.46-11.07-6.68-10.75-20.43-14.08-43.55-9.39-65.09,4.82-22.13,17.63-40.53,36.07-51.82,39.52-24.17,93.32-8.45,119.94,35.06,1.54,2.53,2.97,5.09,4.23,7.63,2.89,5.81.85,12.86-4.69,16.24-38.01,23.16-81.92,44.62-130.51,63.79-1.5.59-3.05.87-4.58.87ZM2019.47,1213.76c-9.7,0-19.26,2.48-27.8,7.71-23.35,14.29-32.03,45.14-22.08,73.66,38.41-15.68,73.6-32.81,104.88-51.07-13.63-19.36-34.63-30.29-55-30.29Z"></path>
  <path fill="#15296f" d="M2111,1236.09c-6.39,4.23-12.87,8.33-19.41,12.31-43.08,26.25-88.72,47.11-128.59,62.84-63.96,25.24-113.1,37.31-113.1,37.31l-122.19-215.95,92.19-71.54,94.15-45.91s-99.65,73.9-44.65,181.9,205.19,0,205.19,0l36.41,39.04Z" opacity=".25"></path>
  <path fill="#15296f" d="M1849.9,1361.05c-4.43,0-8.62-2.36-10.88-6.35l-122.19-215.95c-3.06-5.4-1.69-12.23,3.21-16.03l92.19-71.54c.68-.53,1.41-.98,2.18-1.36l186.21-90.81c4.42-2.15,9.68-1.52,13.46,1.61,3.78,3.14,5.37,8.19,4.08,12.93-8.83,32.17,6.8,85.34,45.19,153.77,29.88,53.26,63.14,96.74,63.47,97.18,2.09,2.73,2.97,6.2,2.43,9.6-.54,3.4-2.47,6.42-5.31,8.35-61.48,41.82-131.87,71.73-180.1,89.45-52.18,19.18-89.41,28.4-90.97,28.78-.99.24-1.99.36-2.98.36ZM1743.91,1135.85l112.11,198.14c32.75-9.01,147.55-43.29,243-105-11.91-16.39-35.24-49.82-57.33-89.17-34.24-60.99-51.28-110.67-50.88-148.2l-164.28,80.11-82.63,64.12Z"></path>
  <path fill="#fff" d="M2460.9,975.55c-17,157-157.24,124-157.24,124-.43.55-.86,1.09-1.29,1.63-59.74,75.44-125,114-156.81,129.66-12.04,5.93-26.35,4.61-37.13-3.37-55.98-41.45-84.27-90.43-97.86-135.1-12.62-41.41-12.59-79.12-10.3-103.69,1.36-14.6,9.65-27.61,22.28-35.05,72.46-42.71,344.86-263.14,384.35-258.08,59.42,7.61-40,154-40,154,0,0,47.66-13.31,75.73,21.68,14.78,18.41,24.13,50.19,18.27,104.32Z"></path>
  <path fill="#15296f" d="M2129.75,1247.04c-10.15,0-20.23-3.22-28.75-9.53-49.22-36.44-83.12-82.31-100.77-136.36-14.79-45.29-14.91-86.79-12.4-113.64,1.73-18.51,12.34-35.2,28.38-44.65,25.52-15.04,78.53-54.19,134.66-95.65,50.31-37.16,107.34-79.28,153.71-110.78,72.48-49.24,92.78-54.71,103.92-53.28,15.88,2.03,23.13,11.14,26.41,18.43,8.45,18.75,1.07,50.05-22.55,95.71-7.25,14.01-14.84,27.06-21.1,37.33,15.35.45,34.59,4.46,51.06,18.42,27.01,22.89,37.44,64.57,31.02,123.86-5.69,52.51-25.17,90.89-57.91,114.06-40.12,28.4-87.92,25-106.63,22.22-59.78,73.91-124.15,112.37-157.71,128.88-6.79,3.34-14.08,4.99-21.33,4.99ZM2012.71,989.84h0c-4.93,52.82,1.91,152.62,103.16,227.58,7.06,5.23,16.32,6.07,24.17,2.21,32.53-16.01,95.77-53.91,153.79-127.8,3-3.83,7.95-5.56,12.69-4.45.51.12,53.92,11.99,94.62-16.95,26.54-18.87,42.46-51.24,47.33-96.22,5.4-49.84-2.33-85.14-22.33-102.1-22.91-19.42-55.55-10.6-55.88-10.51-5.05,1.41-10.45-.48-13.51-4.74-3.06-4.26-3.14-9.98-.19-14.32.18-.26,18.05-26.68,33.69-56.92,27.32-52.85,23.64-69.81,21.86-73.75-.54-1.19-1.44-3.19-6.68-3.89-.02,0-.04,0-.06,0-3.59,0-20.24,3.84-88.64,50.44-45.59,31.06-101.6,72.43-151.01,108.92-59.12,43.67-110.18,81.38-136.82,97.08-9.15,5.39-15.19,14.9-16.18,25.44Z"></path>
  <path fill="#15296f" d="M2297.59,1110.48c-37.86-19.32-63.32-61.08-62.94-103.52-.14-26.2,7.6-54.15,26.89-72.65,6.71-6.44,14.51-11.88,23.37-14.75-28.73,21.08-35.12,59.02-28.29,91.98,4.79,23.73,18.27,44.72,35.34,61.61,5.5,5.52,11.63,10.73,17.79,15.49,13.13,9.07,2.3,28.4-12.15,21.85h0Z"></path>
  <path fill="#fff" d="M1280.07,1126.34l-267.64,243.85c-10.78-39.2-17.56-74.2-21.12-105.43-16.3-142.79,34.59-206.9,77.53-235.3,28.25-18.68,53.06-21.91,53.06-21.91l158.17,118.79Z"></path>
  <path fill="#15296f" d="M1280.07,1126.34l-267.64,243.85c-10.78-39.2-17.56-74.2-21.12-105.43,81.08-16.57,134.32-121.84,134.32-121.84-4.49-52.98-40.84-96.66-56.79-113.46,28.25-18.68,53.06-21.91,53.06-21.91l158.17,118.79Z" opacity=".25"></path>
  <path fill="#15296f" d="M1082.55,1075.74c10.34,5.56,18.67,14.2,25.71,23.53,14.28,19.29,22.17,42.72,26.07,66.23,1.99,11.9,2.94,23.96,3.17,36.01-.33,16.63-24.11,17.15-25.11.48,1.41-11.64,3.24-23.28,3.25-35.05.19-10.26-.48-20.68-2.14-30.82-3.94-22.33-13.06-45.58-30.94-60.39h0Z"></path>
  <path fill="#15296f" d="M1012.43,1382.69c-1.16,0-2.33-.16-3.48-.49-4.18-1.21-7.42-4.5-8.58-8.69-19.99-72.7-27.89-136.99-23.49-191.08,3.68-45.2,15.92-83.75,36.4-114.56,42.28-63.61,104.38-72.36,107-72.7,3.24-.42,6.51.44,9.12,2.4l158.17,118.79c2.98,2.24,4.8,5.68,4.98,9.4.18,3.72-1.31,7.32-4.07,9.83l-267.64,243.85c-2.33,2.13-5.35,3.26-8.42,3.26ZM1118.84,1020.88c-5.49,1.28-15.29,4.08-26.87,9.73-23.66,11.54-43.24,28.9-58.2,51.6-38.83,58.91-43.68,147.94-14.49,264.83l241.21-219.78-141.65-106.38Z"></path>
  <path fill="#fff" d="M2236.23 465.07c17.44 40.42 37.77 112.51 23.18 154.97-4.38 12.75-13.79 24.08-27.62 27.19-41.44 9.02-84.8-55.05-103.76-85.46-24.72-40.25-44.15-83.45-60.14-127.79-18.84-53.18-33.29-108.31-38.4-164.74-2.13-28.13-3.44-65.82 10.5-91.14 7.31-13.06 20.08-20.99 35.38-18.32 8.3 1.41 15.68 5.32 22.39 10.03 34.43 25.02 62.29 78.1 77.4 117.42-5.17-7.74-10.28-15.46-15.53-23.07-10.43-15.12-21.18-29.94-33-43.95-11.48-13.42-23.58-26.59-38.42-36.07-7.06-4.25-16.16-8.71-23.63-4.97-10.1 5.64-12.98 23.79-14.14 34.76-6.78 90.16 45.19 230.03 88.39 309.57 15.69 28.73 49.8 85.93 80.28 97.33 4.39 1.47 8.75 1.4 12.01-2.1 1.71-1.68 3.37-4.42 4.76-7.67 2.94-7.12 4.42-15.42 5.3-23.38 1.41-13.25 1.4-26.37 1-39.85-.85-27.42-3.92-55.31-5.94-82.74h0ZM2367.99 209.91l-63.23-15c-16.8-3.98-33.61 6.57-37.31 23.44-5.52 25.13-5.6 66.15 22.87 122.34 26.22 51.76 54.7 73.74 76.06 82.9 16.72 7.17 35.98-1.72 41.51-19.06l14.02-43.98-53.91-150.64Z"></path>
  <path fill="#fff" d="M2277.1,243.35c3.47-16.87,19.23-27.42,34.98-23.44l59.28,15,46.46,138.46,4.09-12.82-53.91-150.64-63.23-15c-16.8-3.98-33.61,6.57-37.31,23.44-4.96,22.58-5.51,57.99,15.07,105.7-10.25-35.26-9.21-62.26-5.42-80.7Z" opacity=".5"></path>
  <path fill="#15296f" d="M2357.99,201.23l-9.86-2.18,30.77,80.28-14.02,41.07c-5.53,16.19-24.79,24.49-41.51,17.79-16.72-6.7-37.81-20.74-58.77-49.72,3.85,10.83,8.97,22.45,15.71,34.88,26.22,48.33,54.7,68.85,76.06,77.41,16.72,6.7,35.98-1.61,41.51-17.79l14.02-41.07-53.91-140.66Z" opacity=".25"></path>
  <path fill="#15296f" d="M2378.45,438.56c-5.8,0-11.59-1.16-17.01-3.49-21.76-9.33-53.69-32.31-82.28-88.74-30.34-59.88-29.75-104.11-23.92-130.67,2.51-11.46,9.37-21.2,19.3-27.44,9.93-6.24,21.68-8.19,33.1-5.48l63.23,15c4.12.98,7.46,3.97,8.88,7.95l53.91,150.64c.92,2.58.97,5.4.14,8.01l-14.02,43.98c-3.71,11.65-12.22,21.25-23.35,26.33-5.7,2.6-11.84,3.91-17.99,3.91ZM2297.58,206.57c-3.42,0-6.78.96-9.75,2.83-4.21,2.64-7.11,6.78-8.18,11.63-4.96,22.59-5.2,60.7,21.81,114.01,25.2,49.74,51.88,69.36,69.84,77.06,4.77,2.05,10.01,1.98,14.75-.19,4.79-2.19,8.31-6.16,9.92-11.18l12.74-39.95-50.2-140.27-56.63-13.43c-1.42-.34-2.86-.5-4.29-.5Z"></path>
  <path fill="#e81718" d="M2478.9,109.55s331-169,389-61-156.1,226.15-315,298c-115,52-147,25-147,25-35.02-43-55.59-92.12-53.91-150.64,0,0,10.91-60.36,126.91-111.36Z"></path>
  <path fill="#fff" d="M2857.27,42.17c4.77-6.22-1.49,1.94,3.28-4.28-73.61-84.64-376.82,69.2-381.6,71.64-.04.02-.08.04-.12.06-111.52,49.05-125.86,106.75-126.79,111.07-.04.17-.05.34-.06.51-1.61,58.29,18.86,107.25,53.7,150.13.16.2.34.37.55.51.44.31,1.32.89,2.71,1.58-27-38.76-42.36-82.45-40.96-133.22,0-.17.02-.34.06-.51.93-4.33,15.28-62.02,126.79-111.07.04-.02.08-.04.12-.06,0,0,.02-.01.03-.02,2.94-1.49,5.53,2.49,2.98,4.58-13.32,10.92-19.89,20.44-17.37,27.03,6.73,17.59,73.38-23.07,151.81-53.06s138.92-37.97,132.2-55.57c-1.92-5.01-8.9-7.78-19.72-8.48-3.2-.21-3.46-4.85-.31-5.44,44.44-8.35,85.25-9.21,112.7,4.6Z" opacity=".5"></path>
  <path fill="#15296f" d="M2851.01,39.76c-7.27-13.38-18.97-22.3-33.83-27.71,7.26,4.47,13.19,10.22,17.51,17.46,54.21,90.91-145.9,190.36-294.42,250.83-14.08,5.73-26.83,10.33-38.35,13.98-67.05,21.25-138.08-21.8-147.88-90.74-.15-1.05-.29-2.11-.42-3.17-.88,2.59-1.14,4.02-1.14,4.02-1.62,55.91,18.25,102.84,52.1,143.92,0,0,30.92,25.8,142.05-23.89,153.54-68.65,360.43-181.53,304.38-284.71Z" opacity=".25"></path>
  <path fill="#15296f" d="M2488.2,364.19c-3.07,0-6.14-1.12-8.55-3.39-71.05-66.72-79.49-173.02-79.81-177.51-.5-6.89,4.68-12.87,11.57-13.37,6.91-.5,12.87,4.68,13.37,11.56.11,1.39,8.31,101.29,71.99,161.1,5.03,4.73,5.28,12.64.56,17.67-2.46,2.62-5.78,3.94-9.12,3.94Z"></path>
  <path fill="#15296f" d="M2437.59,391.06c-.49,0-.97,0-1.46,0-25.57-.29-36.39-8.33-38.3-9.95-.5-.42-.96-.88-1.39-1.37-45.6-52.62-64.2-105.11-56.86-160.47.03-.19.06-.39.09-.58.49-2.73,13.45-67.4,133.87-120.44,5.9-2.98,87.25-43.8,174.29-71.6,126.01-40.25,203.75-34.87,231.07,15.99,12.68,23.61,14.61,48.87,5.74,75.05-14.25,42.05-57.42,87.22-128.32,134.25-51.36,34.07-118.07,69.73-198.29,106-48.61,21.98-89.12,33.12-120.46,33.12ZM2414.18,362.01c5.09,2.6,38.93,15.95,133.57-26.85,182.97-82.73,291.28-160.71,313.23-225.49,6.65-19.64,5.32-37.69-4.09-55.2-10.83-20.16-35.71-30.08-73.92-29.45-33.41.54-76.23,9.08-127.26,25.36-88.02,28.09-170.3,69.89-171.12,70.3-.21.11-.43.21-.65.31-56.23,24.72-85.83,51.37-100.76,69.38-14.78,17.82-18.39,30.82-18.85,32.69-6.1,47.21,10.21,92.68,49.87,138.95ZM2478.9,109.55h0,0Z"></path>
  <g>
    <path fill="#ffc648" d="M1995.48,1886.95v890.76c0,9.84-4.51,18.91-11.9,24.86-2.67,2.16-5.73,3.91-9.08,5.13l-614.2,180.3c-1.21.44-2.45.81-3.69,1.1-1.07.25-2.14.44-3.22.58-6.17.79-12.49-.24-18.17-3.04l-125.82-54.86-45-19.62-153-66.7-46-20.06-24-10.46-76-33.14-44.98-19.61c-10.75-5.3-17.63-16.19-17.8-28.18l4.53-880.72c-.21-14.47,9.34-27.28,23.27-31.2l744.02-209.53c8.77-2.47,18.19-1.07,25.87,3.84l125.63,80.46,254.83,163.2c9.17,5.87,14.71,16.01,14.71,26.89Z"></path>
    <polygon fill="#fff" points="941.4 1890.05 941.4 2814.94 865.4 2781.8 865.4 1863.05 941.4 1890.05" opacity=".5"></polygon>
    <polygon fill="#fff" points="1011.4 1917.05 1011.4 2845.46 965.4 2825.4 965.4 1897.05 1011.4 1917.05" opacity=".5"></polygon>
    <polygon fill="#fff" points="1209.4 1997.05 1209.4 2931.78 1164.4 2912.16 1164.4 1977.05 1209.4 1997.05" opacity=".5"></polygon>
    <path fill="#15296f" d="M1959.4,1880.51v865.27c0,9.56-4.11,18.37-10.85,24.15l-568.25,180.12h0c-3.14.99-6.34-1.32-6.39-4.61l-13.58-911.36-356.93-145.93,519.79-226.19s92.78,16.59,190.47,33.89l232.33,158.53c8.36,5.7,13.41,15.55,13.41,26.12Z" opacity=".25"></path>
    <path fill="#15296f" d="M1083.55 2888.97h-.02c-6.9 0-12.49-5.62-12.48-12.52l1.35-913.92c.01-6.9 5.61-12.48 12.5-12.48h.02c6.9 0 12.49 5.62 12.48 12.52l-1.35 913.92c-.01 6.9-5.61 12.48-12.5 12.48ZM1495.9 2953.05c-6.86 0-12.45-5.53-12.5-12.41l-7-920c-.05-6.9 5.5-12.54 12.41-12.59h.1c6.86 0 12.45 5.53 12.5 12.41l7 920c.05 6.9-5.5 12.54-12.41 12.59h-.1ZM1842.55 2859.05h-.03c-6.9-.02-12.49-5.63-12.47-12.53l2.35-930c.02-6.89 5.61-12.47 12.5-12.47h.03c6.9.02 12.49 5.63 12.47 12.53l-2.35 930c-.02 6.89-5.61 12.47-12.5 12.47Z"></path>
    <path fill="#15296f" d="M1332.5,2160.48c-1.59,0-3.17-.3-4.67-.9l-520.6-209.43c-6.4-2.58-9.51-9.86-6.93-16.26,2.58-6.41,9.86-9.51,16.26-6.93l516.82,207.91,659.03-166.88c6.69-1.69,13.49,2.36,15.19,9.05,1.7,6.69-2.36,13.49-9.05,15.19l-662.98,167.88c-1.01.26-2.04.38-3.07.38Z"></path>
    <path fill="#15296f" d="M1332.5,2265.48c-1.59,0-3.17-.3-4.67-.9l-520.6-209.43c-6.4-2.58-9.51-9.86-6.93-16.26,2.58-6.41,9.86-9.51,16.26-6.93l516.82,207.91,659.03-166.88c6.69-1.7,13.49,2.36,15.19,9.05,1.7,6.69-2.36,13.49-9.05,15.19l-662.98,167.88c-1.01.26-2.04.38-3.07.38Z"></path>
    <path fill="#15296f" d="M1332.5,2370.48c-1.59,0-3.17-.3-4.67-.9l-520.6-209.43c-6.4-2.58-9.51-9.86-6.93-16.26,2.58-6.41,9.86-9.51,16.26-6.93l516.82,207.91,659.03-166.88c6.69-1.7,13.49,2.36,15.19,9.05,1.7,6.69-2.36,13.49-9.05,15.19l-662.98,167.88c-1.01.26-2.04.38-3.07.38Z"></path>
    <path fill="#15296f" d="M1332.5,2475.48c-1.59,0-3.17-.3-4.67-.9l-520.6-209.43c-6.4-2.58-9.51-9.86-6.93-16.26,2.58-6.41,9.86-9.51,16.26-6.93l516.82,207.91,659.03-166.88c6.69-1.7,13.49,2.36,15.19,9.05,1.7,6.69-2.36,13.49-9.05,15.19l-662.98,167.88c-1.01.26-2.04.38-3.07.38Z"></path>
    <path fill="#15296f" d="M1665.55,2909.97h-.02c-6.9,0-12.49-5.62-12.48-12.52l1.35-913.92c.01-6.9,5.61-12.48,12.5-12.48h.02c6.9,0,12.49,5.62,12.48,12.52l-1.35,913.92c0,6.9-5.61,12.48-12.5,12.48Z"></path>
    <path fill="#15296f" d="M1332.5,2580.48c-1.59,0-3.17-.3-4.67-.9l-520.6-209.43c-6.4-2.58-9.51-9.86-6.93-16.26,2.58-6.41,9.86-9.51,16.26-6.93l516.82,207.91,659.03-166.88c6.69-1.7,13.49,2.36,15.19,9.05,1.7,6.69-2.36,13.49-9.05,15.19l-662.98,167.88c-1.01.26-2.04.38-3.07.38Z"></path>
    <path fill="#15296f" d="M1332.5,2685.48c-1.59,0-3.17-.3-4.67-.9l-520.6-209.43c-6.4-2.58-9.51-9.86-6.93-16.26,2.58-6.41,9.86-9.51,16.26-6.93l516.82,207.91,659.03-166.88c6.69-1.7,13.49,2.36,15.19,9.05,1.7,6.69-2.36,13.49-9.05,15.19l-662.98,167.88c-1.01.26-2.04.38-3.07.38Z"></path>
    <path fill="#15296f" d="M1332.5,2790.48c-1.59,0-3.17-.3-4.67-.9l-520.6-209.43c-6.4-2.58-9.51-9.86-6.93-16.26,2.58-6.41,9.86-9.51,16.26-6.93l516.82,207.91,659.03-166.88c6.69-1.7,13.49,2.36,15.19,9.05,1.7,6.69-2.36,13.49-9.05,15.19l-662.98,167.88c-1.01.26-2.04.38-3.07.38Z"></path>
    <path fill="#15296f" d="M1332.5 2895.48c-1.59 0-3.17-.3-4.67-.9l-520.6-209.43c-6.4-2.58-9.51-9.86-6.93-16.26 2.58-6.41 9.86-9.51 16.26-6.93l516.82 207.91 659.03-166.88c6.69-1.7 13.49 2.36 15.19 9.05 1.7 6.69-2.36 13.49-9.05 15.19l-662.98 167.88c-1.01.26-2.04.38-3.07.38ZM1332.5 2055.88c-1.53 0-3.05-.28-4.49-.84l-523.37-201.64c-6.44-2.48-9.65-9.72-7.17-16.16 2.48-6.44 9.71-9.65 16.16-7.17l519.68 200.22 651.88-162.47c6.7-1.67 13.48 2.41 15.15 9.11 1.67 6.7-2.41 13.48-9.11 15.15l-655.71 163.42c-.99.25-2.01.37-3.02.37Z"></path>
    <path fill="#15296f" d="M1345.77,3002.23c-6.82,0-12.4-5.48-12.5-12.33l-13.27-946.35c-.1-6.9,5.42-12.58,12.32-12.67,6.95-.08,12.58,5.42,12.67,12.32l13.27,946.35c.1,6.9-5.42,12.58-12.32,12.67-.06,0-.12,0-.18,0Z"></path>
    <path fill="#15296f" d="M1349.37,3002.42c-6.66,0-13.31-1.49-19.39-4.42l-514.55-224.34c-.18-.08-.36-.16-.53-.25-15.04-7.42-24.53-22.44-24.78-39.21,0-.08,0-.16,0-.25l4.53-880.62c-.23-20.05,13.07-37.84,32.38-43.28h0l744.01-209.53c12.21-3.44,25.33-1.49,36.01,5.35l380.46,243.66c12.82,8.21,20.47,22.2,20.47,37.42v890.76c0,18.59-11.73,35.36-29.19,41.74-.25.09-.51.18-.77.25l-613.85,180.19c-4.78,1.69-9.79,2.53-14.8,2.53ZM825.72,2750.86l514.5,224.32c.18.08.36.16.53.25,4.74,2.34,10.3,2.64,15.26.83.25-.09.51-.18.77-.25l613.77-180.16c7.45-2.88,12.44-10.12,12.44-18.13v-890.76c0-6.66-3.35-12.77-8.95-16.36l-380.46-243.66c-4.67-2.99-10.41-3.84-15.75-2.34l-744.01,209.53c-8.47,2.38-14.29,10.19-14.16,18.99,0,.08,0,.16,0,.25l-4.53,880.59c.14,7.2,4.19,13.66,10.6,16.92Z"></path>
  </g>
  <path fill="#fff" d="M1779.75,1168.9s154.15,113.65,132.15,354.65l-184.19,318.19s-445.69,146.76-511.25,17.29-32.56-554.47-32.56-554.47l141-134s185.71,91.7,454.85-1.65Z"></path>
  <path fill="#15296f" d="M1877.16,1311.24s15.24,150.81-115.76,137.81-253,53-253,53l8.63-17.24s-52.34,115.41-151.69,77.04c-84.94-32.8-71.48-100.72-71.48-100.72l-31.88,103.47s133.29,99.4,341.85,58.92,310.21-112.05,310.21-112.05c0,0-3.12-151.05-36.88-200.24Z" opacity=".25"></path>
  <path fill="#15296f" d="M1360.21,1924.9c-82.68,0-134.59-20.12-154.9-60.22-28.08-55.46-42.29-166.98-42.21-331.44.05-121.51,8.26-228.58,8.34-229.65.24-3.08,1.61-5.96,3.85-8.09l141-134c3.8-3.61,9.45-4.47,14.15-2.15.44.22,46.36,22.43,123.87,33.17,23.81,3.3,52.32,5.71,84.78,5.71,64.97,0,145.79-9.65,236.58-41.13,3.89-1.35,8.2-.7,11.51,1.75,1.65,1.22,40.93,30.55,77.57,90.49,21.43,35.05,37.55,73.42,47.9,114.05,12.91,50.65,16.85,104.92,11.7,161.31-.17,1.81-.72,3.56-1.63,5.13l-184.19,318.19c-1.54,2.65-4,4.65-6.91,5.61-1.12.37-113.68,37.22-232.84,57.64-53.07,9.1-99.3,13.64-138.58,13.64ZM1196.02,1310.28c-3.33,46.97-27.97,425.45,31.6,543.1,12.87,25.42,45.67,40.6,97.48,45.12,44.06,3.84,101.08-.15,169.47-11.88,103.97-17.82,202.8-48.33,224.75-55.3l180.39-311.63c10.23-119.09-24.54-205.04-55.66-256.3-26.77-44.1-55.49-70.84-66.77-80.42-60.24,20.33-121.13,33.12-181.1,38.03-49.81,4.08-99.1,2.77-146.5-3.89-62.86-8.84-105.35-24.62-122.21-31.73l-131.43,124.9Z"></path>
  <path fill="#fff" d="M2223.3,1728.14s-132.94,41.07-193.46,175.04c-3.42,7.57-6.62,15.45-9.54,23.63,0,0-48.11-41.28-67.38-74.03,0,0-96.72,60.73-178.72,55.82-28.42-1.7-55.06-11.29-75.3-34.02l18.28-111.68,4.03-24.59,5.22-31.91c225.93-460.07,496.87,21.74,496.87,21.74Z"></path>
  <path fill="#15296f" d="M2042.47,1864.29l-12.63,38.89c-3.42,7.57-6.62,15.45-9.54,23.63,0,0-48.11-41.28-67.38-74.03,0,0-96.72,60.73-178.72,55.82l-57.02-145.7-8.47-21.64s4.65-.95,12.5-2.95c35.38-9.03,135.78-39.42,168.38-100.48-1.51,3.38-39.31,93.3,152.88,226.46Z" opacity=".25"></path>
  <path fill="#fff" d="M1763.9,1104.55s21.68,15.9,19.49,51.43c-.76,12.35-8.63,23.13-20.12,27.73-53.98,21.57-233.27,80.95-429.37,10.85l-9-54s198,81,439-36Z"></path>
  <path fill="#15296f" d="M1763.9,1104.55c-231.82,112.54-423.85,41.89-438.14,36.34l10.97,44.46c200.9,54.87,375.11-18.07,427.28-43.71,6.78-3.33,12.02-8.86,15.04-15.47-5.8-14.76-15.14-21.61-15.14-21.61Z" opacity=".25"></path>
  <path fill="#15296f" d="M1528.49,1240.28c-68.97,0-135.56-11.35-198.8-33.96-4.27-1.53-7.38-5.24-8.12-9.72l-9-54c-.75-4.47.99-9,4.53-11.82,3.54-2.83,8.34-3.52,12.53-1.8.47.19,49.34,19.76,126.34,25.05,70.89,4.87,180.9-1.71,302.46-60.73,4.17-2.02,9.11-1.58,12.85,1.17,1.11.81,27.15,20.41,24.58,62.27-1.05,17.06-12.02,32.2-27.96,38.57-28.4,11.35-87.55,31.72-164.59,40.61-25.2,2.91-50.17,4.36-74.82,4.36ZM1345.01,1185.2c190.21,65.11,364.33,6.6,413.62-13.1,7-2.8,11.82-9.43,12.28-16.89,1.11-17.95-5.03-29.49-9.68-35.53-53.55,25.13-109.19,42.67-165.52,52.19-47.38,8-95.35,10.37-142.57,7.03-51.37-3.63-90.37-13.14-112.48-19.79l4.35,26.1Z"></path>
  <path fill="#e81718" d="M2071.43,1552.91c-2.73,25.53-19.46,51.33-46.52,67.25-41.42,24.36-91.33,16.32-111.49-17.95-17.23-29.29-7.14-68.27,22.01-94.19,48.84-4.35,95.26,15.51,136,44.89Z"></path>
  <path fill="#15296f" d="M1726.43,1706.4c4.92-23.08,13.58-45.13,24.25-66.11,5.87-11.24,12.39-22.2,19.49-32.7,3.81-5.18,8.96-12.68,12.95-17.64,2.33-2.96,7.9-10.09,10.32-12.86,1.8-2.06,5.43-6.27,7.24-8.33,2.45-3.05,8.68-9.2,11.37-12.12,2.13-2.44,5.68-5.46,8.01-7.74,4.63-4.63,11.87-10.41,16.94-14.67,145.59-114,295.33,27.33,374.8,150.37,6.9,10.62,13.52,21.44,19.71,32.5,0,0,2.69,4.93,2.69,4.93l.28.51c3.8,6.75,0,15.62-7.49,17.57,0,0-1.81.61-1.81.61-54.43,20.04-103.58,54.83-140.94,99.13-16.81,20.29-31.18,42.8-42.17,66.77-3.48,7.54-7.21,16.97-10.12,24.76-2.9,7.96-13.5,10.58-19.79,4.95-4.75-4.11-9.8-8.74-14.37-13.01-10.94-10.28-21.58-20.94-31.54-32.22-8.84-10.09-17-20.15-24.1-31.94,0,0,17.42,4.25,17.42,4.25-1.44.89-2.64,1.61-3.95,2.39-68.04,39.25-181.79,85.29-251.99,30.39-5.06-4.03-9.75-8.48-14.05-13.25-10.67-12.88,7.15-28.7,18.67-16.62,17.1,19.49,42.02,28.76,67.57,29.88,53.71,2.12,109.36-20.73,156.25-45.76,3.51-1.87,7.37-4.15,10.83-6.15,1.15-.68,2.4-1.43,3.39-2.05,5.96-3.71,13.84-1.79,17.42,4.25,4.72,7.93,11.11,16.12,17.31,23.51,11.91,13.88,24.91,26.89,38.39,39.28,2.14,1.94,6.82,6.19,9.04,8.1,0,0-19.91,5.28-19.91,5.28,2.19-5.39,4.62-12.57,6.99-17.73.86-1.83,4.05-9.32,4.81-10.91,9.21-19.28,20.18-38.02,32.99-55.14,41.17-55.3,99.13-97.99,163.76-121.77.62-.22,1.92-.64,2.55-.85,0,0-7.21,18.07-7.21,18.07,0,0-2.67-4.25-2.67-4.25-52.13-79.99-139.29-187.62-237.4-205.32-45.7-8.59-91.12,8.61-126.23,37.9-2.67,2.01-5.13,4.32-7.66,6.54-2.21,1.99-5.44,4.7-7.49,6.8-2.61,2.6-8.46,8.11-10.81,10.78-2.55,2.75-6.18,6.64-8.69,9.38-1.02,1.1-7.13,8.49-8.3,9.81-3.88,4.5-9.02,11.49-12.79,16.21-2.09,2.74-7.21,9.88-9.28,12.5-9.37,12.61-18.6,25.4-28.02,37.99-8.59,11.48-17.02,22.94-26.63,33.8h0Z"></path>
  <path fill="#fff" d="M2262.29,2125.01l30.33,20.44c4.29,2.89,9.76,3.34,14.47,1.19l47.87-21.85c8.01-3.66,11.1-13.45,6.63-21.04h0c-3.79-6.44-2.2-14.69,3.71-19.27l14.37-11.13c5.43-4.21,13.03-4.14,18.39.16l4.99,4c6.13,4.92,15.03,4.21,20.3-1.61l47.94-52.94c5.57-6.15,5.02-15.67-1.22-21.13l-1.07-.93c-5.24-4.59-6.58-12.21-3.22-18.32l12.78-23.27c3.24-5.89,10.03-8.88,16.56-7.27l9.18,2.25c7.74,1.9,15.59-2.64,17.81-10.29l14.51-50.13c1.57-5.44-.08-11.3-4.27-15.11l-36.41-33.12c-8.85-8.05-23.11-2.88-24.7,8.97-6.51,48.39-41.76,146.74-208.2,245.32-9.38,5.56-9.77,19-.73,25.09Z"></path>
  <path fill="#15296f" d="M2300.95,2160.45c-5.39,0-10.75-1.57-15.32-4.64l-30.33-20.44c-7.82-5.27-12.33-14.05-12.05-23.47.27-9.43,5.28-17.93,13.4-22.73,71.48-42.34,125.39-88.75,160.25-137.95,29.3-41.36,38.98-76.27,41.94-98.28,1.36-10.09,8.15-18.53,17.72-22.02,9.59-3.5,20.24-1.4,27.79,5.47l36.41,33.12c7.66,6.96,10.75,17.89,7.87,27.83l-14.51,50.13c-4.09,14.14-18.5,22.47-32.79,18.96l-9.18-2.25c-1.03-.25-2.11.22-2.62,1.15l-12.78,23.27c-.53.96-.31,2.18.51,2.9l1.07.94c5.55,4.87,8.85,11.62,9.27,18.99.42,7.38-2.07,14.45-7.03,19.93l-47.95,52.94c-9.7,10.71-26.12,12.02-37.39,2.97l-4.99-4c-.85-.68-2.05-.69-2.91-.02l-14.37,11.13c-.93.72-1.18,2.03-.59,3.05,3.92,6.66,4.84,14.72,2.51,22.09-2.33,7.38-7.69,13.45-14.73,16.66l-47.87,21.85c-3.59,1.64-7.46,2.45-11.32,2.45ZM2485.99,1854.23c-.28,0-.57.05-.87.16-.87.32-1.38.94-1.5,1.86-6.96,51.75-44.05,153.62-214.22,254.41-.74.44-1.12,1.09-1.15,1.95-.03.86.32,1.54,1.03,2.01h0s30.33,20.44,30.33,20.44c.68.46,1.55.53,2.29.19l47.87-21.85c.79-.36,1.12-.98,1.27-1.43.14-.46.22-1.15-.21-1.9-6.96-11.83-4.02-27.09,6.82-35.49l14.37-11.13c10.04-7.78,23.97-7.66,33.87.29l4.99,4c.97.78,2.38.66,3.21-.26l47.95-52.94c.55-.6.63-1.26.6-1.71-.03-.45-.19-1.1-.8-1.63l-1.07-.93c-9.72-8.53-12.17-22.4-5.94-33.73l12.78-23.26c5.95-10.83,18.49-16.34,30.49-13.4l9.18,2.25c1.23.3,2.47-.41,2.82-1.63l14.51-50.13c.25-.85-.02-1.79-.68-2.39l-36.41-33.12c-.47-.42-.98-.64-1.53-.64Z"></path>
  <path fill="#fff" d="M2488.05,1899.37c-4.47,11.5-10.56,24.85-18.88,39.5-26.95,47.54-77.17,108.8-170.43,165.31-24.73,14.99-56.11,13.44-79.21-3.96l-187.28-141.06c-9.98-7.52-14.67-20.16-11.95-32.35,1.33-5.98,3.13-13.03,5.55-20.86,17.13-55.49,65.31-150.06,197.45-177.81,12.39-2.6,25.13,2.49,32.43,12.82l43.38,61.32s74.41-78.84,173.22,21.38c19.7,19.98,25.87,49.55,15.72,75.71Z"></path>
  <path fill="#15296f" d="M2262,2127.02c-17.63,0-35.17-5.65-50-16.81l-187.28-141.06c-13.87-10.45-20.4-28.13-16.63-45.05,6.27-28.17,20.26-70.22,51.29-110.5,38.91-50.51,93.2-83.38,161.34-97.68,17.23-3.62,34.98,3.38,45.21,17.84l35.49,50.17c13.13-9.74,36.97-23.25,68.47-23.59,37.73-.42,75.22,17.95,111.33,54.57,23.11,23.44,30.36,58.38,18.47,89.01-12.79,32.95-32.32,65.4-58.04,96.45-35.16,42.44-81.07,80.97-136.44,114.53-13.41,8.12-28.34,12.15-43.22,12.15ZM2229.77,1739.97c-1.3,0-2.6.13-3.9.41-143.23,30.07-182.94,142.3-193.37,189.15h0c-1.64,7.38,1.21,15.09,7.27,19.65l187.28,141.06c19.12,14.4,44.72,15.68,65.22,3.25,121.77-73.79,167.63-156.13,184.13-198.64,8.33-21.47,3.25-45.97-12.97-62.42-30.83-31.27-61.89-47.13-92.3-47.13-.19,0-.39,0-.58,0-37.62.25-62.14,25.33-62.38,25.58-2.57,2.72-6.21,4.12-9.95,3.87-3.74-.26-7.14-2.21-9.31-5.27l-43.38-61.31c-3.69-5.22-9.6-8.22-15.76-8.22ZM2020.3,1926.8h0,0Z"></path>
  <path fill="#15296f" d="M2307.4 1811.64c-15.49 16.81-28.21 36.48-36.29 57.96-4.12 10.98-7 22.51-8.85 34.51-.82 5.91-1.56 12.39-1.83 18.36-.48 6.32-.36 12.72-.52 19.08-1.42-2.9-2.84-5.85-4.03-8.88-18.67-47.14-3.08-104.52 33.72-138.69 5.26-5.42 13.76-5.75 18.89.02 4.57 5.17 4.09 13.07-1.08 17.64h0ZM2219.53 2112.72c-5.02 0-9.76-3.05-11.67-8.02-2.48-6.44.74-13.67 7.18-16.15.7-.27 53.34-20.89 108.94-64.91 73.82-58.44 117.68-128.25 130.38-207.5 1.09-6.82 7.5-11.46 14.32-10.37 6.82 1.09 11.46 7.5 10.37 14.32-7.58 47.32-25.79 92.17-54.14 133.29-22.54 32.69-51.48 63.09-86.02 90.35-58.62 46.25-112.6 67.28-114.87 68.15-1.48.57-2.99.84-4.48.84ZM1941.81 1858.51l-13.68-53.8 35.9 42.34c4.58 5.4 3.92 13.5-1.49 18.08-7.01 6.16-18.6 2.4-20.73-6.62h0Z"></path>
  <path fill="#fff" d="M1858.11,1565.7c0,21.02-4.09,41.58-11.74,60.46-15.11,37.42-44.15,68.24-82.8,82.9l-87.69,33.26c-1.96.75-3.93,1.44-5.91,2.08-71.31,23.39-147.9-16.72-174.15-92.41l-.48-1.37c-11.38-32.82-11.52-67.11-2.54-98.07,13.01-44.93,45.22-82.83,90.1-99.07l88.17-31.89c41.31-14.94,84.57-8.29,119.11,14.32,27.15,17.74,48.9,45.34,60.1,80.06,5.31,16.46,7.83,33.24,7.83,49.73Z"></path>
  <path fill="#15296f" d="M1628.6,1763.56c-21.07,0-42.08-4.64-61.83-13.87-38.71-18.09-68.1-51.33-82.76-93.61l-.48-1.37c-14.54-41.91-12.67-87.24,5.27-127.62,18.04-40.62,49.95-70.94,89.85-85.37l88.17-31.89c37.5-13.56,77.96-11.32,113.92,6.31,38.67,18.96,67.6,53.05,81.44,95.98,13.27,41.16,10.88,85.43-6.75,124.68-17.72,39.47-48.77,69.28-87.42,83.94l-87.69,33.25c-16.81,6.38-34.28,9.55-51.71,9.55ZM1587.15,1465.23h0c-68.82,24.89-105.45,107.91-80,181.29l.48,1.37c12.43,35.83,37.19,63.94,69.73,79.15,29.91,13.98,63.32,15.25,94.09,3.59l87.69-33.25c67.07-25.43,102.62-105.09,79.25-177.57-11.74-36.42-36.13-65.26-68.65-81.21-29.82-14.62-63.35-16.49-94.41-5.25l-88.17,31.89Z"></path>
  <path fill="#fff" d="M1905.11,1573.8c0,57.77-35.98,111.83-93.49,132.15l-86.73,30.66c-18.17,6.42-36.8,8.87-54.92,7.79-53.82-3.18-103.19-37.42-123.16-91.06l-.47-1.26c-7.65-20.55-10.17-41.73-8.21-62.14,5.09-53.26,40.6-101.32,94.8-119.58l87.2-29.39c23.37-7.88,47.38-9.25,70.05-5.06,46.29,8.51,86.97,40.15,105.19,86.64.7,1.78,1.37,3.59,2,5.41,5.25,15.17,7.74,30.63,7.74,45.84Z"></path>
  <path fill="#15296f" d="M1905.11,1573.8c0,57.77-35.98,111.83-93.49,132.15l-86.73,30.66c-18.17,6.42-36.8,8.87-54.92,7.79-71.31,23.39-147.9-16.72-174.15-92.41l-.48-1.37c-11.38-32.82-11.52-67.11-2.54-98.07h2.81c-.21,1.47-6.78,48.55,42.52,37.39,1.09-.24,2.2-.52,3.34-.82,0,0,16.93,115.93,179.93,89.93,61.64-9.83,100.68-29.39,124.97-52.89,39.95-38.62,40-87.91,35.03-122.11l13.97,18.5c.7,1.78,1.37,3.59,2,5.41,5.25,15.17,7.74,30.63,7.74,45.84Z" opacity=".25"></path>
  <path fill="#fff" d="M1529.2,1683.11c-1.92,9.79-6.52,20.43-17.3,29.13-40,32.31-224,26.31-291-68.69,0,0-7.31-6.75-13.14-17.1-11.33-20.04-17.17-53.54,46.14-77.52,0,0,31.87,74.32,228.57,77.65,8.52.14,16.48,2.47,23.35,6.41,17.05,9.75,27.46,29.38,23.38,50.12Z"></path>
  <path fill="#15296f" d="M1529.2,1683.11c-1.92,9.79-6.52,20.43-17.3,29.13-40,32.31-224,26.31-291-68.69,0,0-7.31-6.75-13.14-17.1l4.44-23.81,33.04-25.82s11.16,94.23,133.16,112.23c70.56,10.41,108.21-24.64,127.42-56.06,17.05,9.75,27.46,29.38,23.38,50.12Z" opacity=".25"></path>
  <path fill="#15296f" d="M1430.62,1742.47c-15.77,0-32.54-1.15-49.67-3.54-34.19-4.77-66.86-14.23-94.46-27.36-32.43-15.43-57.7-35.56-75.12-59.85-5.31-5.29-28.06-30-22.35-59.34,4.49-23.09,24.83-41.64,60.45-55.14,6.38-2.42,13.35.35,15.88,6.66.67,1.33,9.18,17.22,38.15,33.39,28.44,15.88,82.61,35.15,179.18,36.79,18.18.31,35.16,8.59,46.59,22.73,11.13,13.76,15.57,31.52,12.2,48.72-2.93,14.91-10.23,27.18-21.71,36.44-16.4,13.24-49.59,20.5-89.13,20.5ZM1248.99,1564.46c-20.84,9.35-33.02,20.52-35.41,32.6-3.71,18.73,15.65,37.16,15.84,37.34.62.58,1.21,1.25,1.7,1.94,28.06,39.78,83.93,68.15,153.29,77.82,58.28,8.13,105.14.07,119.64-11.65,6.88-5.56,11.09-12.69,12.89-21.81,1.98-10.06-.55-20.07-7.1-28.18-6.76-8.37-16.81-13.27-27.57-13.45-83.74-1.42-149.06-15.47-194.13-41.77-20.88-12.18-32.74-24.43-39.13-32.84Z"></path>
  <path fill="#15296f" d="M1678.09,1757.19c-22.06,0-44.03-4.83-64.58-14.44-36.51-17.07-64.36-47.27-78.42-85.05l-.47-1.26c-14.54-39.07-12.67-81.3,5.26-118.93s49.56-65.68,89.06-79l87.2-29.39c38.43-12.95,79.63-10.25,116.04,7.62,36.4,17.87,63.75,48.81,77.01,87.13,13.27,38.36,10.88,79.62-6.74,116.19s-48.39,64.15-86.66,77.68l-86.73,30.65c-16.62,5.87-33.82,8.8-50.97,8.8ZM1632.93,1470.36l3.99,11.84c-33.03,11.13-59.48,34.59-74.47,66.06-14.99,31.47-16.56,66.79-4.4,99.45l.47,1.26c19.02,51.11,68.2,83.07,120.12,83.07,14.01,0,28.21-2.32,42.08-7.23l86.73-30.65c65.94-23.3,100.97-96.03,78.11-162.12-22.83-66-95.26-101.54-161.43-79.24l-87.2,29.39-3.99-11.84Z"></path>
  <path fill="#fff" d="M1780.14,2021.21s-151.16-35.72-275.7,68.31c0,0-.71-2.06-1.86-5.65-5.04-15.81-18.68-61.36-18.68-92.32,0,0-197.06,5.71-228-101.76-.77-2.67-1.44-5.42-2-8.24l2.97-3.57,26.26-31.56,79.77-95.87c428-282,417.24,270.66,417.24,270.66Z"></path>
  <path fill="#e81718" d="M1738.09,1793.17c-15.3,20.62-42.8,34.38-74.19,34.38-48.05,0-87-32.24-87-72,0-33.98,28.46-62.47,66.73-70.03,44.3,21.01,74.24,61.67,94.46,107.65Z"></path>
  <path fill="#15296f" d="M1362.9,1750.55c15.94-17.4,34.59-32.01,54.42-44.69,10.76-6.71,21.93-12.85,33.38-18.3,5.91-2.53,14.16-6.39,20.11-8.64,3.51-1.37,11.92-4.69,15.41-5.85,2.6-.86,7.86-2.65,10.46-3.52,3.66-1.39,12.14-3.53,15.95-4.68,3.08-1.02,7.67-1.83,10.83-2.61,6.34-1.64,15.51-2.95,22.04-4.06,183.28-24.44,240.7,173.3,246.81,319.64.56,12.65.78,25.33.52,38.01,0,0-.18,5.61-.18,5.61,0,0-.02.58-.02.58-.15,7.75-7.92,13.46-15.36,11.34,0,0-1.87-.4-1.87-.4-57.07-10.33-117.08-5.26-171.74,13.98-24.78,8.96-48.58,21.08-70.2,36.17-6.83,4.73-14.82,10.97-21.28,16.21-6.53,5.39-17,2.28-19.57-5.76-2.01-5.95-4.02-12.51-5.79-18.5-4.21-14.41-7.98-28.99-10.85-43.77-2.51-13.18-4.43-25.99-4.58-39.75,0,0,12.86,12.49,12.86,12.49-1.69.04-3.1.05-4.62.06-78.55-.67-199.93-18.66-232.61-101.57-2.32-6.04-4.1-12.26-5.4-18.55-2.66-16.51,20.71-21.11,24.52-4.86,4.85,25.47,21.64,46.1,43.09,60.01,45.22,29.06,104.77,37.58,157.87,39.78,3.98.17,8.45.16,12.45.19,1.34,0,2.8-.02,3.96-.05,7.02-.18,12.84,5.48,12.86,12.49.05,9.23,1.41,19.53,3,29.04,3.23,18,7.84,35.81,13.18,53.32.86,2.76,2.74,8.79,3.69,11.56,0,0-19.84-5.54-19.84-5.54,4.62-3.53,10.35-8.49,15.01-11.74,1.67-1.14,8.22-5.98,9.67-6.96,17.71-11.95,36.67-22.54,56.39-30.81,63.52-26.79,135.13-34.2,202.89-21.93.64.13,1.98.42,2.63.56,0,0-15.37,11.92-15.37,11.92,0,0-.14-5.02-.14-5.02-4.11-87.92-20.61-197.13-73.83-268.91-38.12-51.21-92.42-69.74-154.71-59.76-3.32.37-6.62,1.12-9.92,1.75-2.92.6-7.07,1.29-9.91,2.07-3.57.92-11.41,2.7-14.79,3.81-3.59,1.07-8.69,2.59-12.25,3.68-1.44.44-10.45,3.7-12.13,4.24-5.62,1.91-13.6,5.33-19.24,7.48-3.19,1.3-11.22,4.86-14.33,6.07-14.47,6.12-28.91,12.47-43.41,18.53-13.22,5.54-26.3,11.14-40.09,15.63h0Z"></path>
  <path fill="#fff" d="M1612.53,2383.05l15.78,32.99c2.23,4.66,6.72,7.83,11.86,8.36l52.34,5.44c8.76.91,16.39-5.96,16.39-14.77h0c0-7.47,5.55-13.78,12.96-14.73l18.03-2.31c6.81-.87,13.33,3.04,15.77,9.46l2.27,5.98c2.79,7.35,10.82,11.25,18.32,8.9l68.17-21.32c7.92-2.48,12.27-10.96,9.67-18.83l-.44-1.35c-2.19-6.61.52-13.86,6.51-17.42l22.81-13.57c5.78-3.44,13.14-2.57,17.96,2.13l6.77,6.6c5.7,5.56,14.78,5.63,20.57.16l37.92-35.85c4.12-3.89,5.66-9.78,3.98-15.19l-14.59-47.01c-3.54-11.42-18.46-14.2-25.84-4.8-30.15,38.41-110.39,105.31-303.84,105.89-10.9.03-18.06,11.42-13.35,21.25Z"></path>
  <path fill="#15296f" d="M1694.04,2442.43c-.94,0-1.88-.05-2.82-.15l-52.34-5.44c-9.4-.98-17.77-6.88-21.85-15.4l-15.78-32.99s0,0,0,0c-4.07-8.51-3.5-18.36,1.51-26.34,5.02-7.99,13.64-12.77,23.08-12.8,83.08-.25,153.08-12.92,208.07-37.66,46.22-20.79,72.27-45.98,85.98-63.45,6.29-8.01,16.41-11.83,26.43-9.99,10.04,1.85,18.15,9.05,21.18,18.8l14.59,47.01c3.07,9.89.19,20.87-7.33,27.98l-37.92,35.85c-10.7,10.11-27.34,9.99-37.88-.29l-6.77-6.6c-.76-.74-1.93-.88-2.84-.34l-22.81,13.57c-.94.56-1.37,1.72-1.03,2.76l.44,1.34c2.32,7.02,1.74,14.5-1.64,21.08-3.38,6.57-9.12,11.41-16.17,13.61l-68.17,21.32c-13.78,4.32-28.61-2.89-33.73-16.39l-2.27-5.98c-.39-1.02-1.41-1.64-2.5-1.5l-18.03,2.31c-1.17.15-2.05,1.15-2.05,2.33,0,7.73-3.29,15.14-9.04,20.32-5.04,4.54-11.6,7.04-18.32,7.04ZM1623.81,2377.66l15.78,32.99c.35.73,1.07,1.24,1.88,1.32l52.34,5.44c.86.09,1.46-.27,1.82-.59.35-.32.78-.88.78-1.75,0-13.72,10.26-25.39,23.88-27.13l18.03-2.31c12.59-1.61,24.54,5.55,29.04,17.42l2.27,5.98c.44,1.16,1.72,1.78,2.9,1.41l68.17-21.32c.78-.24,1.18-.77,1.39-1.17.21-.4.4-1.04.14-1.81l-.44-1.34c-4.06-12.28.87-25.48,11.98-32.09l22.81-13.57c10.62-6.32,24.22-4.71,33.07,3.92l6.77,6.6c.91.88,2.34.89,3.26.02l37.92-35.85c.65-.61.89-1.56.63-2.41l-14.59-47.01c-.28-.91-.9-1.45-1.83-1.62-.92-.17-1.67.12-2.24.84-32.24,41.08-115.85,110.08-313.64,110.67-.86,0-1.52.37-1.98,1.1-.46.73-.5,1.49-.13,2.26h0Z"></path>
  <path fill="#fff" d="M1921.52 2303.04c-41.1 32.48-124.38 78.68-267.01 80.55-28.92.37-55.18-16.87-66.27-43.58l-89.9-216.54c-4.79-11.54-2.42-24.82 6.1-33.95 2.05-2.2 4.33-4.56 6.83-7.05 38.77-38.54 131.72-107.44 268.87-61.26 12 4.04 20.4 14.89 21.46 27.5l6.3 74.84s73.12-21.23 117.03 52.24c8.48 14.19 15.87 31.92 21.43 54.02 6.85 27.21-2.82 55.83-24.84 73.23ZM1339.7 1270.13l-38.22 170.77c-18.42 50.99-43.92 105.63-77.68 161.74 0 0-75.62-49.78-174.51-53.02-24.2-.78-49.79 1.21-76.01 7.41 0 0-11.3-49.33 18.39-135.71 13.93-40.52 36.87-89.2 74.23-144.77 117-174 198.16-157.73 236.81-139.27 26.7 12.76 41.53 61.73 36.99 132.85Z"></path>
  <path fill="#e81718" d="M1066.4,1498.55c0,19.56-6.45,37.44-17.11,51.07-24.2-.78-49.79,1.21-76.01,7.41,0,0-11.3-49.33,18.39-135.71,1.89-.18,3.8-.27,5.73-.27,38.11,0,69,34.7,69,77.5Z"></path>
  <path fill="#15296f" d="M1974.94 1646.67c-30.11 0-57.7-13.31-72.29-38.12-20.04-34.06-9.97-79.25 24.48-109.88 2-1.78 4.53-2.87 7.2-3.11 46.62-4.15 95.22 11.73 144.42 47.21 3.64 2.63 5.6 7 5.12 11.47-3.27 30.57-22.94 59.24-52.61 76.69-18.08 10.63-37.68 15.74-56.32 15.74ZM1940.73 1520.15c-23.01 22.4-29.87 53.04-16.53 75.71 16.63 28.28 58.97 34.34 94.38 13.51 20.17-11.86 34.69-30.85 39.24-50.77-40.45-27.72-79.8-40.64-117.09-38.46ZM1663.9 1840.05c-54.86 0-99.5-37.91-99.5-84.5 0-39.52 31.58-73.36 76.81-82.29 2.63-.52 5.36-.18 7.78.97 42.3 20.06 76.13 58.39 100.54 113.91 1.81 4.11 1.27 8.87-1.4 12.48-18.32 24.69-49.81 39.43-84.23 39.43ZM1642.04 1698.67c-31.19 7.64-52.64 30.57-52.64 56.88 0 32.81 33.42 59.5 74.5 59.5 23.4 0 45.55-9 59.56-23.86-20.81-44.4-48.17-75.48-81.43-92.52ZM973.28 1569.53c-2.32 0-4.61-.64-6.61-1.89-2.83-1.76-4.84-4.58-5.58-7.82-.49-2.16-11.75-53.83 18.75-142.56 1.59-4.64 5.75-7.92 10.64-8.38 2.27-.22 4.6-.33 6.92-.33 44.94 0 81.5 40.37 81.5 90 0 21.6-7.02 42.47-19.76 58.77-2.46 3.14-6.26 4.93-10.25 4.79-24.99-.8-49.45 1.58-72.73 7.08-.95.23-1.92.34-2.88.34ZM1000.74 1433.66c-17.01 52.87-17.81 90.25-16.67 108.32 19.11-3.55 38.83-5.22 58.87-5 7.1-11.09 10.96-24.52 10.96-38.43 0-34.55-23.56-62.9-53.16-64.89ZM2320.18 402.68c1.93 0 1.93-3 0-3s-1.93 3 0 3h0Z"></path>
  <path fill="#fff" d="M1253.9,1881.55c-26,96-170,81-170,81,0,0-91.57,91.6-167-23-10.95-16.64-14.64-33.42-13.64-49.55,3.75-60.45,73.37-111.69,73.37-111.69-27.26-47.24,19.27-87.76,19.27-87.76-46-37-38-131-38-131,177-32,277,51,277,51,0,0,26.25,102.08,27.07,193.08v.03c.25,28.14-1.93,55.22-8.07,77.89Z"></path>
  <path fill="#15296f" d="M1005.05,2009.72c-3.2,0-6.44-.16-9.73-.49-33.8-3.44-63.7-24.57-88.86-62.8-24.32-36.95-20.66-79.94,10.59-124.32,15.32-21.76,33.59-38.58,43.96-47.3-8.4-20.46-7.11-42.31,3.92-63.8,4.18-8.16,9.15-14.97,13.37-20.02-39.8-44.5-33.17-128.68-32.85-132.5.48-5.63,4.67-10.24,10.23-11.24,94.14-17.02,166.86-1.77,211.29,14.02,48.66,17.29,74.83,38.75,75.92,39.66,2.02,1.68,3.47,3.96,4.12,6.5,1.87,7.28,45.52,179.32,18.96,277.38-11.94,44.09-47.99,73.64-104.24,85.46-31.81,6.69-61.29,5.89-73.38,5.15-11.39,9.9-43.51,34.29-83.29,34.29ZM969.94,1570.18c-.5,23.65,1.55,84.69,33.79,110.62,2.88,2.32,4.59,5.8,4.66,9.5s-1.5,7.24-4.29,9.67c-1.55,1.37-38.34,34.5-16.65,72.08,3.18,5.52,1.71,12.54-3.42,16.32-.26.19-26.91,20.04-46.87,48.57-24.91,35.6-28.21,67.81-9.83,95.73,20.79,31.58,44.46,48.96,70.36,51.66,41.57,4.34,77.02-30.3,77.38-30.65,2.66-2.64,6.39-3.97,10.12-3.58.34.03,35,3.45,71.93-4.42,46.79-9.97,75.29-32.65,84.71-67.42,22.66-83.67-11.53-233.6-18.02-260.46-7.88-5.72-30.64-20.85-66.41-33.41-39.81-13.98-104.13-27.45-187.47-14.23Z"></path>
  <path fill="#15296f" d="M1081.06 1974.72c-15.11-2.52-28.69-11.07-37.38-23.99-6.72-10.56-10.7-23.61-7.6-35.84 7.3-25.94 40.49-39.3 64.62-43.35 3.03-.5 6.1-.85 9.2-.99-14.65 12.46-29.25 22.95-41.13 37.2-2 2.52-4.18 5.76-5.35 8.45-1.26 3.04-1.53 5-.69 7.76 2.91 12.27 12.73 20.67 23.67 26.16 0 0 .29.17.29.17.04.02.1.06.11.07 0 .01.1.05-.05.03 6.72 1.57 10.9 8.29 9.33 15.01-1.57 6.72-8.29 10.9-15.01 9.33h0ZM1301.48 1440.9c-3.02 52.71-36.79 125.02-66.96 168.19 0 0-1.39 1.95-1.39 1.95-3.71 5.27-11.29 6.23-16.2 2.05-.75-.49-2.29-1.43-3.06-1.9-7.81-4.69-15.88-8.96-24.11-12.94-63.37-30.47-136.45-45.06-205.99-30.67 0 0-7.62 1.61-7.62 1.61 0 0-.37.08-.37.08-6.67 1.41-13.21-2.82-14.69-9.45-.98-4.36-1.63-8.87-2.09-13.28-2.22-22.48-.49-45.03 3.03-67.23 6.17-37.63 18.31-74.09 33.72-108.82 17.7-39.87 40.06-77.65 64.94-113.41 7.65-11.05 16.53-22.87 24.78-33.45 26.45-33 55.94-64.47 92.42-86.8 33.35-20.63 72.8-30.88 111.16-18.88 7.31 2.27 14.53 5.22 21.29 8.82 17.6 9.77 27.39 29.2 32.92 47.4 4.86 16.23 6.33 32.68 5.65 48.79-.8 16.1-3.48 32.08-9.21 47.18-3.68-15.07-6.09-30.8-9.1-45.9-5.1-23.52-10.47-60.43-30.82-73.9-1.13-.75-2.37-1.29-3.61-1.85-10.85-4.88-22.68-7.95-34.54-8.47-14.47-.72-29.12 2.43-42.57 7.76-45.28 18.47-83.59 60.88-113.1 99.17-18.36 24.08-35.53 49.61-50.95 75.65-34.13 58.04-62.33 121.63-69.53 189.1-1.32 13.53-1.84 27.08-.3 40.52 0 0 .28 2.03.28 2.03 0 0-15.06-9.38-15.06-9.38 0 0 8.34-1.77 8.34-1.77 33.18-6.93 67.8-7.69 101.4-3.54 52.31 6.81 103.27 24.34 148.54 51.38 0 0 2 1.26 2 1.26 0 0-17.59 4-17.59 4 11.33-22.83 29.81-55.24 42.19-77.99 14.42-26.21 28.39-53.04 46.2-77.31h0ZM1653.55 2396.09c-33.8 0-63.88-20.03-76.86-51.29l-89.9-216.54c-6.66-16.04-3.32-34.59 8.51-47.27h0c19.69-21.11 53.06-50.25 100.24-69.24 59.15-23.81 122.6-24.61 188.6-2.39 16.69 5.62 28.43 20.65 29.92 38.29l5.16 61.24c16.26-1.73 43.65-1.3 70.98 14.38 32.76 18.79 55.74 53.61 68.29 103.48 8.04 31.92-3.43 65.71-29.21 86.09-27.73 21.91-61.01 39.98-98.93 53.7-51.83 18.75-110.93 28.69-175.67 29.54-.38 0-.75 0-1.12 0ZM1513.58 2098.05c-5.16 5.53-6.61 13.62-3.7 20.63l89.9 216.54c9.18 22.1 30.6 36.21 54.56 35.87 142.37-1.86 223.65-49.58 259.42-77.86 18.07-14.28 26.11-37.98 20.47-60.37-10.79-42.86-29.69-72.37-56.17-87.71-32.56-18.86-66.4-9.67-66.74-9.58-3.6 1.04-7.45.41-10.54-1.71-3.09-2.12-5.04-5.53-5.35-9.26l-6.3-74.84c-.65-7.71-5.75-14.26-12.98-16.7-138.7-46.7-229.83 29.89-262.58 64.99h0Z"></path>
  <path fill="#15296f" d="M1809.45 2135.95c-26.14 6.15-51.1 18.88-70.17 38.02-3.59 3.53-7.25 7.58-10.44 11.48-6.27 7.65-11.92 16.01-16.91 24.56-2.36 3.97-4.74 8.52-7.03 12.53.11-3.22.28-6.48.63-9.72 1.98-16.49 7.51-32.5 16.41-46.59 10.88-17.46 26.51-31.89 44.54-41.79 10.64-5.85 22.13-10.21 34.11-12.48 1.3-.27 2.76-.44 4.09-.64 7.25-1.49 14.37 3.15 15.2 10.66.6 5.46-2.47 10.47-7.25 12.57l-3.18 1.39h0ZM1649.6 2356.58c-37.27 0-61.86-3.98-63.41-4.24-6.81-1.13-11.41-7.57-10.28-14.38 1.13-6.81 7.57-11.42 14.38-10.28.95.15 56.69 9.02 126.81-.71 93.26-12.94 166.46-50.88 217.58-112.75 4.4-5.32 12.28-6.07 17.6-1.67 5.32 4.4 6.07 12.28 1.67 17.6-30.52 36.94-68.96 66.36-114.25 87.44-36 16.75-76.36 28.28-119.95 34.26-26.01 3.57-49.95 4.74-70.15 4.74ZM1471.42 1990.86l15.48-53.31 9.48 54.69c1.21 6.98-3.47 13.62-10.45 14.83-9.17 1.76-17.25-7.36-14.51-16.22h0ZM1794.63 1724.75c-5.39 0-10.37-3.52-11.98-8.95l-19.85-67.04-19.51 8.43c-3.26 1.41-6.98 1.36-10.21-.13-3.23-1.49-5.67-4.29-6.71-7.69l-39.17-128.23c-1.84-6.02 1.09-12.47 6.83-15.05l28.98-13.03-13.55-48.27c-1.87-6.65 2.01-13.55 8.66-15.41 6.64-1.87 13.55 2.01 15.41 8.66l16.46 58.64c1.67 5.96-1.27 12.24-6.91 14.78l-28.76 12.93 31.87 104.33 19.63-8.48c3.28-1.42 7.01-1.36 10.25.15 3.24 1.51 5.67 4.34 6.69 7.77l23.85 80.55c1.96 6.62-1.82 13.58-8.44 15.53-1.18.35-2.38.52-3.55.52Z"></path>
  <ellipse cx="1819.9" cy="1552.55" fill="#e81718" rx="38" ry="58" transform="rotate(-20.04 1819.617 1552.373)"></ellipse>
  <path fill="#15296f" d="M1830.84 1621.11c-23.11 0-47.03-20.13-58.38-51.25-13.54-37.14-3.32-73.83 23.29-83.54 26.61-9.7 58.05 11.79 71.6 48.93h0c13.54 37.14 3.32 73.83-23.29 83.54-4.31 1.57-8.75 2.33-13.22 2.33ZM1808.81 1509.05c-1.6 0-3.11.25-4.5.76-11.33 4.13-17.55 26.29-8.37 51.48 9.19 25.19 28.21 38.14 39.55 34.01 11.33-4.13 17.55-26.29 8.37-51.48-8.06-22.09-23.68-34.77-35.05-34.77ZM1246.59 1677.23c-6.05 0-11.37-4.4-12.33-10.57-6.09-38.96 7.43-63.02 19.85-76.34 13.36-14.33 28.03-19.37 29.66-19.89l7.69 23.79.09-.03c-.11.04-10.7 3.73-19.87 13.96-12.02 13.42-16.31 31.81-12.73 54.66 1.07 6.82-3.6 13.21-10.42 14.28-.65.1-1.3.15-1.95.15ZM1330.98 1727.78c-4.37 0-8.6-2.29-10.9-6.36-22.26-39.47-15.73-70.8-6.33-90.13 10.12-20.83 25.74-32.26 26.4-32.74 5.6-4.04 13.41-2.78 17.45 2.81 4.03 5.58 2.79 13.37-2.77 17.42-1.96 1.45-44.72 34.08-12.98 90.36 3.39 6.01 1.26 13.64-4.75 17.03-1.94 1.09-4.05 1.61-6.13 1.61ZM1391.9 1737.05c-5.01 0-9.73-3.03-11.65-7.97-2.5-6.43.69-13.68 7.12-16.18 16.26-6.32 26.05-15.22 29.93-27.2 8-24.7-11.32-55.07-11.51-55.37-3.74-5.79-2.09-13.53 3.69-17.28 5.78-3.75 13.5-2.13 17.27 3.65 1.07 1.63 25.99 40.47 14.39 76.57-6.23 19.38-21.27 33.82-44.7 42.93-1.49.58-3.02.85-4.53.85Z"></path>
  <path fill="#fff" d="M2205.74,85.13l111.65-55.82c3.51-1.76,7.6-1.96,11.26-.56l168.3,64.33c6.99,2.67,10.68,10.37,8.3,17.46-8.39,25.07-35.84,78.58-118.85,88.85-2.77.34-5.59-.15-8.09-1.42l-172.67-87.83c-10.25-5.21-10.2-19.87.09-25.01Z"></path>
  <path fill="#15296f" d="M2499.8,85.66l-16.49-6.02c-12.85,24.61-42.1,58.7-106.92,66.36-2.64.31-5.33-.14-7.7-1.29l-141.33-68.66-4.99,2.38c-9.8,4.68-9.85,18.02-.08,22.76l164.5,79.91c2.37,1.15,5.06,1.6,7.7,1.29,79.08-9.34,105.23-58.03,113.22-80.84,2.26-6.45-1.26-13.46-7.91-15.89Z" opacity=".25"></path>
  <path fill="#15296f" d="M2384.67,212c-4.16,0-8.26-.98-12.01-2.88l-172.67-87.83c-8.97-4.56-14.52-13.65-14.49-23.72.03-10.07,5.65-19.11,14.65-23.62l111.65-55.82c6.63-3.31,14.4-3.7,21.32-1.05l168.3,64.33c13.31,5.09,20.21,19.63,15.69,33.11-8.53,25.5-38.2,86.04-129.17,97.29-1.09.14-2.19.2-3.28.2ZM2323.65,40.33c-.23,0-.46.05-.67.16l-111.65,55.82c-.25.12-.83.42-.83,1.34,0,.93.58,1.22.82,1.35l172.67,87.83c.27.14.59.19.89.16,74.08-9.16,99.79-54.31,108.53-80.41.24-.72-.17-1.54-.91-1.82l-168.3-64.33c-.17-.07-.36-.1-.54-.1Z"></path>
  <path fill="#fff" d="M2449.27,372.2l113.8-59.93c11.7-6.16,25.23,4.26,22.27,17.15l-31.77,137.94c-1.05,4.55-4.1,8.39-8.3,10.43l-110.72,53.84c-11.61,5.64-24.61-4.58-21.86-17.19l28.7-131.85c.97-4.46,3.86-8.26,7.9-10.39Z"></path>
  <path fill="#15296f" d="M2473.27,396.32c1.09-4.4,3.78-8.05,7.34-9.98l100.52-54.12c2.59-1.39,5.22-1.74,7.65-1.28l1.56-6.04c3.29-12.72-7.64-23.8-17.97-18.23l-100.52,54.12c-3.57,1.92-6.26,5.57-7.34,9.98l-32.2,130.19c-.51,2.07-.65,4.09-.48,6,.71,7.84,11.95,8.56,13.85.92l27.6-111.55Z" opacity=".25"></path>
  <path fill="#15296f" d="M2427.73,545.71c-6.12,0-12.18-2.04-17.23-6.01-8.49-6.67-12.34-17.37-10.04-27.92l28.7-131.85c1.76-8.09,6.97-14.94,14.29-18.79l113.8-59.93c9.79-5.15,21.32-4.17,30.08,2.59,8.77,6.75,12.67,17.64,10.19,28.43l-31.77,137.94c-1.91,8.28-7.38,15.15-15.02,18.87l-110.72,53.84c-3.93,1.91-8.12,2.85-12.27,2.85ZM2570.31,322.94c-.46,0-.94.13-1.42.38l-113.8,59.93s0,0,0,0c-.77.41-1.32,1.13-1.51,1.99l-28.7,131.85c-.33,1.5.4,2.43,1.06,2.95.67.52,1.75,1,3.12.33l110.72-53.84c.81-.39,1.39-1.12,1.59-2l31.77-137.94c.28-1.23-.08-2.24-1.08-3.01-.57-.44-1.16-.65-1.76-.65ZM2449.27,372.2h0,0Z"></path>
  <path fill="#23a7f0" d="M2805.89,99.97c-.75,20.8-29.71,50.09-71.5,70.31-16.06,7.77-31.99,13.22-46.47,16.29-10.36,2.2-19.98,3.18-28.37,2.92h0c-4.87-.16-9.3-.73-13.25-1.72h-.01l-18.64-15.42c-5.47-20.82,24.97-53.98,70.88-76.2,20.37-9.86,40.54-16,57.8-18.26h.01l36.02,2.65c3.31,1.39,6.09,3.19,8.26,5.4,1.43,1.45,2.59,3.07,3.46,4.87,1.35,2.79,1.94,5.87,1.82,9.16Z"></path>
  <polygon fill="#fff" points="2804.35 95.69 2643.67 179.43 2643.66 179.43 2627.58 161.35 2769.14 87.58 2769.15 87.58 2804.35 95.69" opacity=".5"></polygon>
  <path fill="#15296f" d="M2662.32,202.03c-22.36,0-38.14-7.35-44.73-20.97-7.12-14.71-1.85-33.29,14.83-52.31,14.24-16.24,35.78-31.81,60.65-43.85,24.87-12.04,50.45-19.27,72.02-20.36,25.26-1.28,43.11,6.12,50.23,20.83,7.12,14.71,1.85,33.29-14.83,52.31-14.24,16.24-35.78,31.81-60.65,43.85-24.87,12.04-50.45,19.27-72.02,20.36-1.87.09-3.71.14-5.5.14ZM2770.59,89.39c-1.35,0-2.76.04-4.23.11-18.04.91-40.78,7.44-62.39,17.9-21.61,10.46-40.84,24.25-52.75,37.83-10.32,11.78-13.03,21.01-11.12,24.94,1.9,3.93,10.82,7.54,26.46,6.75,18.04-.91,40.78-7.44,62.39-17.9s40.84-24.25,52.75-37.83c10.33-11.78,13.03-21.01,11.12-24.94-1.72-3.56-9.21-6.86-22.23-6.86Z"></path>
  <circle cx="1495.9" cy="595.55" r="575" fill="#fff"></circle>
  <path fill="#15296f" d="M1303.4,750.55c0,63.78-51.72,115.5-115.5,115.5-1.13,0-2.26-.01-3.39-.05-62.22-1.8-112.11-52.8-112.11-115.45s49.89-113.65,112.11-115.45c1.13-.04,2.26-.05,3.39-.05,63.78,0,115.5,51.72,115.5,115.5Z" opacity=".25"></path>
  <path fill="#15296f" d="M2040.03,409.21c8.76,39.89,13.37,81.32,13.37,123.84,0,317.56-257.44,575-575,575-252.34,0-466.71-162.56-544.13-388.66,56.64,258.04,286.58,451.16,561.63,451.16,317.56,0,575-257.44,575-575,0-65.22-10.87-127.9-30.87-186.34Z" opacity=".25"></path>
  <path fill="#15296f" d="M1495.9,1183.05c-79.31,0-156.25-15.54-228.69-46.17-69.96-29.59-132.79-71.95-186.74-125.9-53.95-53.95-96.31-116.78-125.9-186.74-30.64-72.44-46.17-149.38-46.17-228.69s15.54-156.25,46.17-228.69c29.59-69.96,71.95-132.79,125.9-186.74,53.95-53.95,116.78-96.31,186.74-125.9,72.44-30.64,149.38-46.17,228.69-46.17s156.25,15.54,228.69,46.17c69.96,29.59,132.79,71.95,186.74,125.9,53.95,53.95,96.31,116.78,125.9,186.74,30.64,72.44,46.17,149.38,46.17,228.69s-15.54,156.25-46.17,228.69c-29.59,69.96-71.95,132.79-125.9,186.74-53.95,53.95-116.78,96.31-186.74,125.9-72.44,30.64-149.38,46.17-228.69,46.17ZM1495.9,33.05c-310.16,0-562.5,252.34-562.5,562.5s252.34,562.5,562.5,562.5,562.5-252.34,562.5-562.5S1806.06,33.05,1495.9,33.05Z"></path>
  <path fill="#fff" d="M1245.9,728.55c0,54.12-43.88,98-98,98-.96,0-1.92-.01-2.88-.04-52.79-1.53-95.12-44.8-95.12-97.96s42.33-96.43,95.12-97.96c.96-.03,1.92-.04,2.88-.04,54.12,0,98,43.88,98,98Z"></path>
  <path fill="#15296f" d="M1221.93,664.34c6.04,11.76,9.47,25.08,9.47,39.21,0,47.49-38.51,86-86,86-.84,0-1.68,0-2.53-.04-46.33-1.34-83.47-39.31-83.47-85.96,0-8.09,1.14-15.9,3.23-23.32-8.1,14.26-12.73,30.75-12.73,48.32,0,53.16,42.33,96.43,95.12,97.96.96.03,1.92.04,2.88.04,54.12,0,98-43.88,98-98,0-24.56-9.04-47.01-23.97-64.21Z" opacity=".25"></path>
  <path fill="#15296f" d="M1147.9,839.05c-1.09,0-2.18-.01-3.27-.05-28.8-.83-55.77-12.69-75.92-33.39-20.19-20.74-31.31-48.11-31.31-77.06s11.12-56.32,31.31-77.06c20.15-20.7,47.12-32.56,75.95-33.4,1.06-.03,2.15-.05,3.24-.05,60.93,0,110.5,49.57,110.5,110.5s-49.57,110.5-110.5,110.5ZM1147.9,643.05c-.83,0-1.66,0-2.49.03-46.56,1.35-83.01,38.89-83.01,85.47s36.45,84.12,82.98,85.47c.86.03,1.69.03,2.52.03,47.15,0,85.5-38.35,85.5-85.5s-38.35-85.5-85.5-85.5Z"></path>
  <path fill="#fff" d="M1287.9,728.55c0,57.99-47.01,105-105,105-5.02,0-9.95-.35-14.78-1.03-8.03-1.13-15.76-3.17-23.1-6.01.96.03,1.92.04,2.88.04,6.26,0,12.39-.59,18.32-1.72,45.37-8.57,79.68-48.42,79.68-96.28,0-3.14-.15-6.25-.45-9.32-4.68-49.75-46.57-88.68-97.55-88.68-.96,0-1.92.01-2.88.04,11.75-4.55,24.52-7.04,37.88-7.04,53.21,0,97.18,39.58,104.06,90.91.62,4.61.94,9.31.94,14.09Z"></path>
  <path fill="#15296f" d="M1182.9 846.05c-14.62 0-28.88-2.65-42.39-7.88-5.68-2.2-8.95-8.18-7.74-14.15 1.21-5.97 6.54-10.21 12.64-10 .83.03 1.66.03 2.49.03 47.15 0 85.5-38.35 85.5-85.5s-38.35-85.5-85.5-85.5c-.83 0-1.66 0-2.49.03-6.1.2-11.43-4.03-12.64-10-1.21-5.97 2.05-11.95 7.74-14.15 13.51-5.23 27.77-7.88 42.39-7.88 64.79 0 117.5 52.71 117.5 117.5s-52.71 117.5-117.5 117.5ZM1217.45 642.74c24.97 20.28 40.95 51.21 40.95 85.81s-15.98 65.53-40.95 85.81c33.94-13.71 57.95-47.01 57.95-85.81s-24.01-72.09-57.95-85.81ZM2155.9 561.05c0 75.4-23.09 138.7-62.29 189.49-51.98 67.34-132.3 112.67-224.71 135.01-182 44-442 18-464-222-23.61-257.55 282.21-420 449-420 55.91 0 108.26 15.97 153.17 43.81 89.07 55.21 148.83 157.11 148.83 273.69Z"></path>
  <path fill="#15296f" d="M1723.17,915.7c-15.65,0-31.11-.63-46.28-1.89-73.28-6.09-134.42-26.35-181.73-60.2-60.64-43.39-95.19-106.95-102.71-188.92-4.47-48.79,2.28-96.7,20.07-142.4,16.05-41.24,41.03-80.59,74.22-116.97,47.41-51.95,110.14-96.43,181.41-128.63,65.16-29.43,131.12-45.64,185.74-45.64s111.54,15.8,159.76,45.69c46.3,28.7,85.08,69.64,112.16,118.39,27.86,50.17,42.59,107.54,42.59,165.93,0,75.01-21.83,141.34-64.89,197.13-51.85,67.17-131.96,115.42-231.67,139.52-49.27,11.91-99.89,18-148.67,18ZM1853.9,256.05c-95.55,0-250.23,58.22-348.69,166.12-65.33,71.59-95.71,154.66-87.86,240.24,6.82,74.41,37.9,131.9,92.36,170.88,58.49,41.85,136.3,57.36,212.61,57.36,50.55,0,100.42-6.8,143.64-17.25,94.12-22.75,169.42-67.88,217.75-130.5,39.6-51.31,59.69-112.5,59.69-181.85,0-107.62-54.76-208.42-142.92-263.07-44.25-27.43-94.94-41.93-146.58-41.93Z"></path>
  <path fill="#fff" d="M1893.9,922.55c-256,76-451.98-11.58-508-144-44-104-58.7-264.71,101-428,178-182,400-158,476-135,51.8,15.68,44.17,71.81,44.17,71.81-44.91-27.84-97.26-43.81-153.17-43.81-166.79,0-472.61,162.45-449,420,22,240,282,266,464,222,92.41-22.34,172.73-67.67,224.71-135.01,18.72,28.99-2.59,113.49-199.71,172.01Z"></path>
  <path fill="#15296f" d="M1710.2,963.33c-52.9,0-103.06-7.57-149.2-22.75-44.82-14.74-83.91-36.09-116.18-63.44-31.86-27-55.55-58.54-70.44-93.72-27.13-64.12-36.38-132.74-26.74-198.45,12.58-85.79,56.42-167.6,130.32-243.16,42.38-43.33,90.23-78.19,142.23-103.6,44.2-21.6,91.63-36.53,140.99-44.38,105.29-16.74,183.78,3.23,205.33,9.76,25.45,7.7,42.71,25.1,49.91,50.32,5.23,18.3,3.12,34.46,3.03,35.14-.57,4.2-3.23,7.82-7.06,9.62-3.83,1.8-8.32,1.55-11.91-.68-44.25-27.43-94.94-41.93-146.58-41.93-95.55,0-250.23,58.22-348.69,166.12-65.33,71.59-95.71,154.66-87.86,240.24,6.82,74.41,37.9,131.9,92.36,170.88,97.23,69.57,247.78,66.34,356.25,40.12,94.12-22.75,169.42-67.88,217.75-130.5,2.48-3.21,6.37-5.02,10.42-4.85,4.06.17,7.78,2.3,9.98,5.71,8.96,13.88,9.86,33.31,2.45,53.31-11.7,31.63-54.43,91.54-209.11,137.46l-3.56-11.98,3.56,11.98c-64.63,19.19-127.68,28.8-187.26,28.8ZM1842.99,212.42c-24.56,0-50.83,1.79-77.88,6.1-103.41,16.44-194,63.81-269.28,140.77-166.26,170-133.03,332.6-98.42,414.39,27.1,64.06,89.57,116.24,171.4,143.15,93.23,30.67,204.41,28.5,321.53-6.27,149.63-44.42,184.66-100.24,192.78-122.17,1.15-3.1,2-6.14,2.58-9.09-51.6,56.2-124.94,96.89-213.86,118.39-65.08,15.73-132.49,21.3-194.95,16.11-73.28-6.09-134.42-26.35-181.73-60.2-60.64-43.39-95.19-106.95-102.71-188.92-4.47-48.79,2.28-96.7,20.07-142.4,16.05-41.24,41.03-80.59,74.22-116.97,47.41-51.95,110.14-96.43,181.41-128.63,65.16-29.43,131.12-45.64,185.74-45.64,48.62,0,96.45,11.78,139.65,34.25-2.92-13.84-11.33-30.84-34.27-37.78-27.54-8.34-68.67-15.09-116.29-15.09Z"></path>
  <path fill="#fff" d="M2077.02,462.24c50.3,121.82,4.35,256.44-43.93,276.37-48.28,19.93.33-113.22-49.97-235.03-50.3-121.82-180.45-186.17-132.17-206.1,48.28-19.93,175.77,42.94,226.07,164.76Z" opacity=".5"></path>
  <path fill="#15296f" d="M2302.37,1101.18c-59.74,75.44-125,114-156.81,129.66-12.04,5.93-26.35,4.61-37.13-3.37-55.98-41.45-84.27-90.43-97.86-135.1l7.83-8.32s23.09,49.25,67.01,78.57c23.32,15.57,53.73,15.64,77.26.41,34.29-22.19,85.23-61.11,93.72-100.97l45.97,39.13Z" opacity=".25"></path>
  <path fill="#15296f" d="M2460.9 975.55c-17 157-157.24 124-157.24 124-.43.55-.86 1.09-1.29 1.63 0 0-72.97-49.13-46.97-120.13 0 0 34 82 87 77s125-83 103-172c-1.46-5.89-2.36-10.8-2.77-14.82 14.78 18.41 24.13 50.19 18.27 104.32ZM1253.9 1881.55c-26 96-170 81-170 81 0 0-91.57 91.6-167-23-10.95-16.64-14.64-33.42-13.64-49.55 3.52-10.97 6.14-18.95 6.14-18.95 0 0 4.82 82.05 81.91 76.03 77.09-6.03 61.44-37.86 61.44-37.86 0 0 41.67 36.17 120.16 0s76.89-164.57 76.89-164.57l12.17 58.98v.03c.25 28.14-1.93 55.22-8.07 77.89ZM1266.42 1760.94l-.54 6.67c.2-3.9.49-6.27.54-6.67Z" opacity=".25"></path>
  <path fill="#15296f" d="m1544.82 2054.04-42.24 29.83c-5.04-15.81-18.68-61.36-18.68-92.32 0 0-197.06 5.71-228-101.76l.97-11.81 9.01-110.36c-.67 13.83-.04 46.79 17.25 78.8 22.73 42.07 74.22 82.5 189.35 75.77 9.55-.56 18.18 5.65 20.75 14.86 9.43 33.88 32.55 109.99 51.6 116.98ZM1921.52 2303.04c-41.1 32.48-124.38 78.68-267.01 80.55-28.92.37-55.18-16.87-66.27-43.58l-89.9-216.54c-4.79-11.54-2.42-24.82 6.1-33.95 2.05-2.2 4.33-4.56 6.83-7.05l18.81-4.24s43.32 211.82 114.32 236.82 274-51 277-126c.26-6.49 1.49-10.8 3.53-13.26 8.48 14.19 15.87 31.92 21.43 54.02 6.85 27.21-2.82 55.83-24.84 73.23ZM2469.17 1938.87c-26.95 47.54-77.17 108.8-170.43 165.31-24.73 14.99-56.11 13.44-79.21-3.96l-187.28-141.06c-9.98-7.52-14.67-20.16-11.95-32.35 1.33-5.98 3.13-13.03 5.55-20.86 11.06-17.68 19.55-30.9 19.55-30.9 0 0-1 65 121 128s230 13 286-53c7.56-8.91 13.01-12.19 16.77-11.18ZM1287.9 728.55c0 57.99-47.01 105-105 105-5.02 0-9.95-.35-14.78-1.03l-1.9-7.69c45.37-8.57 79.68-48.42 79.68-96.28 0-3.14-.15-6.25-.45-9.32l2.95-2.18s18 20 38-2c.19-.21.37-.4.56-.59.62 4.61.94 9.31.94 14.09ZM414.9 2505.91v74.95c0 2.69-54 37.69-54 37.69v-80.8l54-31.84ZM991.31 1465.55s-51.24 56.63 118.09 72.5c113.22 10.61 185.09-91.34 204.58-155.96.66-2.2 3.95-1.39 3.51.86-5.86 30.3-16 74.16-33.09 127.99 0 0-36.67 119.64-117.83 71.37s-192.17-20.27-192.17-20.27l16.91-96.5Z" opacity=".25"></path>
</svg>
