<svg xmlns="http://www.w3.org/2000/svg" viewBox="0 0 2778.62 3283.87" id="astronaut-floating-holding-tools">
  <path fill="#fff" d="M1765.72,2679.55c-138.95,56.42-258.45-61.35-258.45-61.35l479.03-938.01,115.47-226.09s119.78,92.17,148.89,207.52c.57,2.26.98,4.79,1.25,7.59,13.29,140.54-349.95,955.02-486.19,1010.34Z"></path>
  <path fill="#15296f" d="M1765.72,2679.55c-138.95,56.42-258.45-61.35-258.45-61.35l479.03-938.01,53.47-14.92s85.94-31.4,212.14,3.94c13.29,140.54-349.95,955.02-486.19,1010.34Z" opacity=".25"></path>
  <path fill="#15296f" d="M1688,2707.35c-7.48,0-14.99-.38-22.54-1.14-28.62-2.89-57.7-11.26-86.43-24.88-48.6-23.03-79.26-52.96-80.54-54.22-3.88-3.83-4.84-9.73-2.36-14.59l594.5-1164.1c1.69-3.31,4.76-5.69,8.39-6.51,3.62-.81,7.42.02,10.37,2.29,1.26.97,31.25,24.18,65.21,62.07,45.93,51.24,75.6,102.48,88.17,152.3,7.59,30.09-7.29,99.71-44.25,206.91-33.2,96.3-81.48,214.37-135.96,332.45-56.68,122.86-116.23,237.04-167.68,321.5-60.71,99.67-109.31,157.44-144.46,171.71-26.56,10.79-54.2,16.21-82.42,16.21ZM1522.76,2615.35c11.1,9.52,35.28,28.48,67.68,43.73,59.16,27.84,116.55,30.83,170.58,8.9,16.92-6.87,56.64-37,132.51-161.55,50.96-83.67,110.04-196.95,166.33-318.97,54.14-117.35,102.09-234.58,135.03-330.12,48.08-139.47,46.54-181.19,43.65-192.65-22.42-88.85-102.51-164.85-132.74-190.99l-583.03,1141.65Z"></path>
  <path fill="#fff" d="M2049.9,1682.99c-9.26-17.98-22.93-32.77-42.13-43.02-148-79-739.54-132.94-739.54-132.94,0,0-116.11,24.7-239.96,90.79-21.58,11.51-43.4,24.29-64.88,38.4-1.03.68-2.06,1.37-3.09,2.05,0,0-51.86-85.91-95.39-150.26-8.35-12.35-16.4-23.91-23.72-33.91,0,0-172.3,29.66-279.36,124.77,0,0,132.72,252.47,289.68,330.46.54.27,1.08.53,1.62.79-77.15-19.56-196.05-7.48-357.06,127.23,0,0-19.3,69.62,64.7,211.62,70.36,118.94,118.13,114.42,131.79,109.82,2.65-.89,4.02-1.79,4.02-1.79l112.19-67.03s64.29,94.92,196.69,156.8c2.71,1.27,5.44,2.52,8.2,3.75,4.91,2.2,9.91,4.35,15.01,6.45,101.74,41.9,215.48,103.63,276.72,138.17,27.91,15.74,44.92,25.83,44.92,25.83,0,0,15.43,5.57,41.52,10.26,75.53,13.61,240.38,19.89,378.63-137.51.06-.07.12-.13.17-.2,18.98-21.62,37.46-46.35,55.14-74.55,33.73-53.84,59.86-101.14,80.1-142.15,1.17-2.37,2.32-4.71,3.45-7.03,66.9-137.71,66.15-201.94,66.15-201.94,0,0,.52-1.01,1.48-2.92,4.8-9.58,20.62-41.88,37.64-84.96,34.74-88.01,74.45-220.99,35.31-296.98ZM960.3,1973.6s-20.65-26.27-62.06-46.83c1.75.43,3.49.82,5.21,1.17,41.18,8.65,72.29.15,83.19-3.65,2.61-.9,4.06-1.54,4.22-1.61l-30.56,50.92Z"></path>
  <path fill="#15296f" d="M1975.47 2067.85s.75 64.23-66.15 201.94l-8.76 10.07-53.25 30.5-17.19 9.84-5.18 11.93-54.23 124.84-.24 34.86v1.89c-138.26 157.4-303.11 151.12-378.64 137.51l30.94-39.26 76.32-96.23c15.65-6.11 32.78-18.88 36.1-45.52.4-3.22.6-6.64.57-10.28-.14-16.7-5.1-37.95-17.49-64.98l-26.42-32.04-56.4-68.43-.02-.02 128.74-42.5 191.7 84.58s155.11-209.27 182.39-382.21c.91-5.76 3.94-10.27 8-13.22l2.21 58.85c8 29.43 18.02 58.33 28.48 84.96-.96 1.91-1.48 2.92-1.48 2.92ZM1128.92 2310.88s-60.48 83.2-123.46 135.89c-132.4-61.88-196.69-156.8-196.69-156.8l-112.19 67.03s-1.37.9-4.02 1.79l-118-126.71s123.92-3.23 207.25-42.48c12.72-5.99 27.81-3.59 38.04 6.06 42.11 39.76 158.53 132.94 309.07 115.22Z" opacity=".25"></path>
  <path fill="#e81718" d="M996.77,1899.97c0,32-33.13,31-74,31s-73-20-74-31c0-40.87,33.13-74,74-74s74,33.13,74,74Z"></path>
  <path fill="#15296f" d="M1286.5,1650.72c-112.87,77.12-211.76,169.48-299.86,273.57l-26.34,24.03-56.85-20.38-11.09-3.97-37.05-13.28-3.8-1.36c-156.96-77.99-289.68-330.46-289.68-330.46,107.06-95.11,279.36-124.77,279.36-124.77,7.32,10,15.37,21.56,23.72,33.91-44.58,19.54-131.09,67.64-124.07,144.41,8.75,95.61,181.14,153.91,222.55,3.8,21.48-14.11,43.3-26.89,64.88-38.4,0,0-.54,140.15,258.23,52.9Z" opacity=".25"></path>
  <path fill="#15296f" d="M1463.72,2650.16c-68.41,0-115.24-16.55-117.66-17.42-.74-.27-1.46-.61-2.14-1.01-1.73-1.03-174.48-103.25-320.02-163.19-78.25-32.23-135.24-76.96-169.27-108.81-24.36-22.8-40.65-42.24-49.18-53.21l-102.46,61.21c-2.77,1.67-15.65,8.43-36.29,3.64-36.97-8.58-76.23-47.62-116.7-116.02-85.72-144.91-66.84-218.27-65.99-221.32.68-2.44,2.08-4.62,4.02-6.25,65.14-54.5,128.65-93.32,188.77-115.39,41.47-15.22,81.67-22.62,119.81-22.09-14.38-10.42-28.91-22.32-43.54-35.67-34.36-31.36-69.43-70.83-104.25-117.3-59.08-78.85-97.68-151.9-98.07-152.63-2.67-5.09-1.53-11.34,2.76-15.16,56.86-50.51,131.49-82.55,184.09-100.53,56.75-19.4,99.66-26.9,101.46-27.21,4.68-.8,9.41,1.11,12.21,4.94,37.2,50.88,93.7,142.45,112.99,174.04,72.97-46.71,148.68-77.92,200.41-96.16,58.88-20.75,99.25-29.44,100.94-29.79,1.23-.26,2.49-.34,3.74-.22,1.48.13,150.09,13.78,314.87,36.91,222.27,31.21,366.74,63.99,429.42,97.45,37.72,20.13,59.23,57.17,63.96,110.1,3.59,40.25-2.61,89.98-18.43,147.79-24.39,89.13-63.49,168.72-71.29,184.17-.95,20.51-12.68,133-151.53,354.6-44.57,71.13-98.01,126.34-158.84,164.1-48.88,30.34-102.53,49.49-159.46,56.93-19.2,2.51-37.43,3.52-54.34,3.52ZM1355.56,2609.56c8.88,2.94,75.22,23.52,160.38,12.14,121.71-16.26,222.38-86.7,299.24-209.36,76.5-122.1,112.62-209.26,129.44-260.88,18.21-55.88,18.35-83.24,18.35-83.51-.02-2.05.46-4.01,1.39-5.83.45-.86,44.9-87.45,70.79-182.2,14.99-54.86,20.89-101.56,17.55-138.79-4-44.53-20.62-74.01-50.81-90.13-139.92-74.69-695.43-127.83-732.85-131.34-18.08,4.13-168.19,40.23-301.81,129.02-2.84,1.89-6.33,2.53-9.65,1.79-3.33-.75-6.2-2.82-7.97-5.74-.71-1.17-69.04-114.21-113.86-176.85-14.65,2.99-49.08,10.73-90.47,24.91-47.98,16.44-115,44.99-167.64,88.95,11.88,21.39,45.27,79.31,91.42,140.86,64.67,86.25,129.19,146.28,188.5,175.72,16.99,4.39,32.03,10.23,45.14,16.64,48.4,11.12,82.71-3.56,83.09-3.72,4.98-2.24,10.82-.98,14.45,3.1,3.63,4.08,4.16,10.06,1.35,14.75l-30.57,50.93c-2.12,3.53-5.83,5.79-9.93,6.04-4.09.26-8.07-1.52-10.61-4.75-.09-.11-11.41-14.2-33.47-29.17-6.42-4.35-14.19-9.07-23.28-13.62-4.51-1.13-9.13-2.45-13.83-3.99-10.17-3.33-20.47-7.52-30.88-12.54-9.83-2.45-20.41-4.38-31.74-5.53-92.14-9.36-196.34,33.57-309.75,127.59-.9,6.48-2.05,21.94,2.14,46.29,5.27,30.65,20.28,81.95,61.86,152.24,72.14,121.95,115.2,105.26,118.37,103.8.07-.05-.03.03.26-.14l112.19-67.03c5.69-3.4,13.04-1.77,16.76,3.72.17.25,17.97,26.2,53.21,59.08,32.42,30.24,86.68,72.72,161.1,103.38,141.02,58.08,306.84,155.14,322.13,164.14ZM947.85,1944c3.92,3.25,7.32,6.3,10.21,9.05l6.4-10.67c-5.03.74-10.59,1.33-16.61,1.62Z"></path>
  <path fill="#fff" d="M840.74,1284.56s54.03,45.41,41.03,112.41-81.06,68.96-81.06,68.96c0,0-16-122.79,40.03-181.37Z"></path>
  <path fill="#15296f" d="M840.74,1284.56s54.03,45.41,41.03,112.41-81.06,68.96-81.06,68.96c0,0-16-122.79,40.03-181.37Z" opacity=".25"></path>
  <path fill="#15296f" d="M800.71,1478.43c-6.26,0-11.58-4.64-12.39-10.88-.69-5.26-16.09-129.44,43.39-191.63,4.56-4.76,12.03-5.17,17.08-.93,2.44,2.05,59.49,50.99,45.26,124.36-7.71,39.73-32.7,59.19-52.3,68.51-20.78,9.88-39.86,10.54-40.66,10.56-.12,0-.24,0-.37,0ZM841.51,1303.11c-32.76,44.98-31.51,119.3-29.52,148.7,17.57-3.78,49.56-16.26,57.51-57.21,4.73-24.4.14-48.56-13.66-71.81-4.85-8.18-10.07-14.84-14.32-19.67Z"></path>
  <path fill="#1a7be5" d="M687.77,1528.97s-62,76-110,58c-29.64-11.11-38.75-32.01-40.06-51.1-.34-5.06-.14-9.99.37-14.58,1.68-15.01,6.69-26.32,6.69-26.32,0,0,134.11-343.01,255.06-298.86,4.43,1.61,8.84,3.75,13.23,6.44,1.24.76,2.47,1.57,3.71,2.42,125,86-129,324-129,324Z"></path>
  <path fill="#fff" d="M799.83,1196.11l-.91,11.36s-65.65-50-261.21,328.4c-.34-5.06-.14-9.99.37-14.58,1.68-15.01,6.69-26.32,6.69-26.32,0,0,134.11-343.01,255.06-298.86Z" opacity=".5"></path>
  <path fill="#15296f" d="M687.77,1528.97s-62,76-110,58c-37.51-14.06-42.13-43.8-39.69-65.68,32.57,10.73,90.74,20.17,129.19-66.82,0,0,199-223,145.79-251.92,1.24.76,2.47,1.57,3.71,2.42,125,86-129,324-129,324Z" opacity=".25"></path>
  <path fill="#15296f" d="M593.55,1602.29c-7.02,0-13.75-1.2-20.17-3.61-20.91-7.84-35.3-20.82-42.75-38.57-13.17-31.37.97-66.14,2.59-69.91,1.72-4.35,27.86-70.04,66.17-138.67,54.02-96.79,105.64-153.29,153.42-167.95,25.2-7.73,49.11-4,71.06,11.1,24.21,16.65,37.57,39.5,39.7,67.9,3.52,46.77-23.84,107.59-81.33,180.78-39.78,50.64-79.81,88.98-85.32,94.2-3.07,3.67-18.12,21.2-38.45,37.04-23.67,18.44-45.41,27.7-64.9,27.7ZM556.21,1500.01c-.23.53-11.96,28.17-2.49,50.53,4.77,11.25,14.07,19.34,28.43,24.73,32.39,12.15,80.23-35.01,95.93-54.2.35-.43.73-.84,1.13-1.21.42-.4,42.78-40.27,83.54-92.2,52.63-67.05,78.86-123.49,75.86-163.22-1.57-20.76-11.03-36.84-28.94-49.17-15.56-10.7-31.76-13.25-49.54-7.8-40.79,12.51-88.78,66.46-138.79,156-38.65,69.2-64.68,135.39-64.93,136.05-.06.16-.13.32-.2.48ZM544.77,1494.97h0,0Z"></path>
  <path fill="#fff" d="M830.77 1411.97c-25 136-143 117-143 117 1.3-71.05-47.1-96.64-80.97-105.84-17.53-4.77-35.82 4.58-42.42 21.51l-19.61 50.33c-50.9-39.15-25.57-126.85 20.68-187.23 24.62-32.15 55.18-56.56 83.32-61.77 50.86-9.42 119.46 4.82 157.29 50.39 22.41 27 34.01 65 24.71 115.61ZM1573.97 2187.03c-54.89 95.88-203.61 135.95-371.62 8.11-119.01-90.55-107.68-182.59-84.61-236.56h0c12.7-29.72 28.96-47.89 28.96-47.89 75.87-95.04 230.1-65.64 325.42-3.96 52.03 33.66 85.48 70.85 104.66 108.2 31.9 62.09 24.37 124.62-2.81 172.1Z"></path>
  <path fill="#15296f" d="M1573.97,2187.03c-54.89,95.88-203.61,135.95-371.62,8.11-119.01-90.55-107.68-182.59-84.61-236.56-5.56,44.36,3.67,117.1,96.57,181.58,145.96,101.31,347.97,144.19,362.47-125.23,31.9,62.09,24.37,124.62-2.81,172.1Z" opacity=".25"></path>
  <path fill="#e81718" d="M1474.77,2046.97l-3.32,20.88c-8.78,26.78-33.97,46.12-63.68,46.12-37,0-67-30-67-67,0-3.27.23-6.48.69-9.62l4.08-15.26v-.02c9.89-24.67,34.03-42.1,62.23-42.1,37,0,67,30,67,67Z"></path>
  <path fill="#fff" d="M1461.27,2015.05l-2.65,9.68c-7.01,12.42-27.45-3.47-51.17-3.47-29.54,0-53.18,10.94-53.18-6.21,0-1.52.18-3.01.55-4.46l3.26-7.08h0c7.89-11.45,27.17-19.53,49.68-19.53,29.54,0,53.5,13.91,53.5,31.07Z" opacity=".5"></path>
  <path fill="#e81718" d="M1471.45,2067.85l-5.55,34.88c-5.27,33.15-36.82,55.69-69.8,49.46-3.01-.57-6.12-1.3-9.33-2.22-9.41-2.69-17.36-5.81-24.09-9.18-25.21-12.62-37.8-41.48-30.51-68.71l9.29-34.73c-.46,3.14-.69,6.35-.69,9.62,0,37,30,67,67,67,29.71,0,54.9-19.34,63.68-46.12Z"></path>
  <path fill="#15296f" d="M1471.45,2067.85l-5.55,34.88c-5.27,33.15-36.82,55.69-69.8,49.46-3.01-.57-6.12-1.3-9.33-2.22-9.41-2.69-17.36-5.81-24.09-9.18-25.21-12.62-37.8-41.48-30.51-68.71l9.29-34.73c-.46,3.14-.69,6.35-.69,9.62,0,37,30,67,67,67,29.71,0,54.9-19.34,63.68-46.12Z" opacity=".25"></path>
  <path fill="#15296f" d="M1409.56,2288.47c-24.47,0-49.8-3.66-75.74-10.97-46.24-13.03-93.02-37.39-139.04-72.41-63.16-48.06-98.01-102.05-103.59-160.46-7.54-78.98,41.44-136.86,45.94-141.99,37.2-46.42,94.47-68.95,165.65-65.18,59.05,3.13,123.24,24.56,176.13,58.78,34.21,22.14,62.3,46.92,83.48,73.65,19.61,24.76,33.4,51.26,40.97,78.78,13.45,48.86,6.86,100.2-18.55,144.59-26.93,47.04-72.78,79.23-129.12,90.67-14.98,3.04-30.38,4.56-46.14,4.56ZM1156.03,1919.01c-.71.81-46.72,53.72-39.92,123.53,4.98,51.08,36.54,99.08,93.81,142.65,82.35,62.66,167.88,89.01,240.81,74.22,49.18-9.98,89.09-37.89,112.39-78.59,40.46-70.67,36.01-177.03-97.79-263.6-48.61-31.45-109.87-51.94-163.88-54.8-43.86-2.33-104.63,5.51-144.98,56.06-.14.18-.29.35-.44.53ZM1146.7,1910.69h0,0Z"></path>
  <path fill="#15296f" d="M1547.66,2142.75c-19.86,47.32-66.29,80.73-116.22,90.04-36.08,6.89-73.73,1.89-107.98-10.67-70.53-26.28-128.05-80.06-172.01-139.95-6.2-8.52-12.1-17.26-17.68-26.2,6.56,6.03,16.25,15.4,22.91,21.59,18.88,17.66,38.31,35.07,58.48,51.25,43.17,34.38,91.11,65.49,145.33,78.43,70.77,17.55,142.68-5.94,187.17-64.49h0Z"></path>
  <path fill="#fff" d="M1287.77,1351.97s-40.06,83.45-19.54,155.06c3.7,12.93,11.28,24.43,21.53,33.13,50.29,42.71,245.06,172.6,725.37,139.4,16.25-1.12,31.64-7.84,43.36-19.14,29.97-28.89,73.74-92.39,12.28-182.45,0,0-400,133-783-126Z"></path>
  <path fill="#15296f" d="M2070.77,1477.97s-91.1,30.29-227.97,33.81c.73,53-30.01,85.94-51.09,103.32-17.44,14.37-95.74,6.42-109.44,5.37-251.32-19.31-331.41-75.98-418.09-132.42.93,6.38,2.26,12.72,4.05,18.98,3.7,12.93,11.28,24.43,21.53,33.13,50.29,42.71,245.06,172.6,725.37,139.4,16.25-1.12,31.64-7.84,43.36-19.14,29.97-28.89,73.74-92.39,12.28-182.45Z" opacity=".25"></path>
  <path fill="#15296f" d="M1864.55,1697.46c-143.39,0-269.69-15.76-376.88-47.13-116.18-34-178.94-77.65-206.01-100.64-12.29-10.44-21.09-24-25.45-39.21-21.58-75.31,18.57-160.33,20.29-163.91,1.57-3.28,4.49-5.71,8-6.66,3.51-.95,7.26-.33,10.27,1.71,192.55,130.21,389.5,158,522.38,158,1.59,0,3.15,0,4.73-.01,144.42-.72,243.97-33.17,244.96-33.49,5.29-1.76,11.12.21,14.26,4.82,28.99,42.47,39.09,84.19,30.02,123.99-7.76,34.05-28.18,59.31-43.94,74.51-13.75,13.25-31.92,21.28-51.18,22.62-52.38,3.62-102.89,5.43-151.44,5.43ZM1293.47,1370.77c-9.74,25.51-27.51,82.95-13.23,132.82,3,10.46,9.08,19.81,17.6,27.05,47.5,40.35,239.56,169.41,716.42,136.46,13.4-.93,26.03-6.49,35.55-15.67,33.04-31.86,61.8-84.9,15.63-158.75-28.26,8.21-118.23,31.19-242.48,31.92-2.01.01-4.02.02-6.02.02-84.88,0-168.42-10.62-248.42-31.6-97.53-25.57-189.99-66.67-275.05-122.25ZM1299.04,1357.38h0Z"></path>
  <ellipse cx="1783.89" cy="779.72" fill="#fff" rx="766.2" ry="824.35" transform="rotate(-82.98 1783.964 779.7)"></ellipse>
  <path fill="#15296f" d="M1635.56,22.65s0,0,0,0c-350.78,90.55-353.38,250.16-127.16,254.34,226.22,4.18,602.64,318.04,602.64,318.04,0,0,191.72,226.97,339.01,63.76,111.82-123.9-40.29-344.9-120.05-444.18,193.95,163.51,303.78,408.18,272.07,665.82-51.69,419.99-459.91,715.37-911.78,659.75-451.87-55.62-776.27-441.18-724.58-861.17C1007.94,335.94,1288.07,76.02,1635.56,22.65Z" opacity=".25"></path>
  <path fill="#15296f" d="M1799.89,1559.45c-36.88,0-73.95-2.28-111.12-6.86-112.01-13.79-218.18-47.56-315.55-100.38-94.09-51.04-176.06-117.63-243.61-197.92-67.61-80.36-117.39-170.39-147.95-267.6-31.66-100.72-41.2-204.75-28.34-309.19,12.86-104.45,47.33-203.06,102.48-293.09,53.22-86.9,123.35-162.17,208.43-223.74,85.01-61.51,180.67-106.24,284.34-132.94C1655.82.09,1767-6.93,1879.02,6.86c112.01,13.79,218.18,47.56,315.55,100.38,94.09,51.04,176.06,117.63,243.61,197.92,67.61,80.36,117.39,170.39,147.95,267.6,31.66,100.72,41.2,204.75,28.34,309.19-12.86,104.45-47.33,203.06-102.48,293.09-53.22,86.9-123.35,162.17-208.43,223.74-85.01,61.51-180.67,106.24-284.34,132.94-71.67,18.46-145.1,27.72-219.35,27.72ZM965.71,679.02l12.41,1.53c-50.77,412.48,269.39,792.54,713.7,847.23,36.27,4.46,72.49,6.67,108.38,6.68,177.27,0,347.64-53.84,488.72-155.92,169.37-122.55,276.17-299.99,300.75-499.63,50.77-412.48-269.39-792.54-713.7-847.23-36.07-4.44-71.92-6.6-107.27-6.6-400.16,0-743.93,276.48-790.58,655.48l-12.41-1.53Z"></path>
  <path fill="#e81718" d="M990.01,518.43c-92.15,303.95,41,633.78,457.81,748.97,357.46,98.79,717.31-51.57,809.46-355.52,92.15-303.95-127.13-618.61-475.75-745.17-487.51-176.98-699.37,47.77-791.52,351.72Z"></path>
  <path fill="#fff" d="M1767.6,195.39c-363.12-131.68-573.99-42.96-696.44,135.26,119.09-196.36,331.47-301.48,710.37-163.93,348.62,126.56,567.9,441.22,475.75,745.17-2.66,8.78-5.56,17.42-8.66,25.94,89.04-302.72-131.67-615.75-481.02-742.44Z" opacity=".5"></path>
  <path fill="#e81718" d="M2716.99,451.17c-4.22,22.42-25.01,37.93-49.08,38.39l-57.18,221.6-30.63,118.71-75.84-48.75,50.22-118.02,78.45-184.34c-15.26-11.01-23.73-28.98-20.3-47.22,4.9-26.07,32.24-42.82,61.06-37.4,28.82,5.42,48.2,30.95,43.3,57.02Z"></path>
  <path fill="#15296f" d="M2598.14,681.55l-29.87,118.85-68.02-47.27,47.65-118.51c5.35,20.64,18.43,44.58,50.24,46.93Z" opacity=".25"></path>
  <path fill="#15296f" d="M2580.09,842.37c-2.37,0-4.72-.67-6.76-1.99l-75.83-48.75c-5.12-3.29-7.13-9.8-4.74-15.41l125.06-293.89c-14.49-14.2-21.11-33.78-17.47-53.1,6.17-32.81,40.11-54.05,75.65-47.37,35.55,6.69,59.45,38.81,53.28,71.62h0c-4.7,25.01-25.25,43.61-51.46,47.73l-85.62,331.78c-1,3.88-3.81,7.05-7.54,8.51-1.47.58-3.02.86-4.56.86ZM2519.89,776.31l52.42,33.7,83.5-323.57c1.4-5.43,6.25-9.27,11.86-9.37,18.75-.37,33.99-11.96,37.04-28.2,3.62-19.26-11.33-38.29-33.33-42.43-22-4.14-42.84,8.16-46.46,27.42-2.42,12.88,3.45,26.2,15.33,34.77,4.74,3.42,6.47,9.66,4.19,15.03l-124.54,292.66ZM2716.99,451.17h0,0Z"></path>
  <path fill="#15296f" d="M1467.9,1160.61c357.05,98.68,716.48-51.23,809.14-354.48-2.6,35.19-9.09,70.55-19.76,105.76-92.15,303.95-452,454.32-809.46,355.52-409.44-113.16-545.15-433.42-462.48-732.82-26.63,265.5,121.59,526.25,482.57,626.01Z" opacity=".25"></path>
  <path fill="#15296f" d="M1026.19,530.36c-81.65,269.32,42,563.28,422.31,668.68,326.15,90.39,652.64-40.52,734.3-309.84,81.65-269.32-120.3-550.45-438.61-665.44-445.13-160.8-636.34,37.28-717.99,306.59Z"></path>
  <path fill="#15296f" d="M1666.79,1310.09c-74.02,0-148.59-10.26-222.3-30.63-198.18-54.77-345.77-161.51-426.82-308.69-73.97-134.32-88.05-296.25-39.63-455.96,26.33-86.86,60.75-161.32,102.29-221.33,47.33-68.35,105.28-120.01,172.25-153.53,66.13-33.1,142.61-49.3,227.36-48.15,90.87,1.23,193.78,22.49,305.85,63.17,173.86,63.12,319.24,173.55,409.35,310.96,45.22,68.95,74.83,141.94,88.01,216.93,13.79,78.45,9.11,156.72-13.92,232.65-45.35,149.59-156.24,269.14-312.24,336.63-75.19,32.53-157.33,51.58-244.14,56.61-15.32.89-30.7,1.33-46.08,1.33ZM1471.41,116.94c-77.85,0-147.21,15.11-207.63,45.36-119.48,59.81-207.57,180.85-261.81,359.76-46.45,153.21-33.1,308.28,37.6,436.65,77.72,141.13,220.05,243.71,411.58,296.65,73.25,20.25,146.22,29.89,216.64,29.9,272.25.01,506.91-144.09,577.52-377,87.18-287.54-114.04-601.28-468.06-729.8-112.95-41-215.16-61.52-305.85-61.52Z"></path>
  <path fill="#e81718" d="M2315.38,1208.82c6.45,2.6,13.12,4.35,19.95,5.29,11.36,1.58,23.15.93,35.19-1.73-1.26-.44-2.5-.9-3.74-1.4-8.05-3.23-15.39-7.74-21.98-13.37-38.28-32.55-51.96-102.7-37.27-182.17,4.68-25.34,12.25-51.65,22.83-77.98,2.86-7.13,5.9-14.14,9.09-20.97,30.18-64.91,73.4-114.76,117.2-139.6,30.93-17.53,62.13-22.61,89.25-11.71,1.23.5,2.46,1.02,3.66,1.59-10.95-16.42-25.09-28.68-42.26-35.58-56.64-22.76-129.94,19.48-185.12,98.96,0,.01-.01,0-.01.02-6.63,9.54-12.99,19.62-19.04,30.18h0c-4.41,7.7-8.64,15.65-12.68,23.85-5.01,10.17-9.71,20.69-14.09,31.57-52.99,131.89-35.52,263.09,39.02,293.05Z"></path>
  <path fill="#fff" d="M2322.17,830.15c53.9-57.43,100.22-63.45,134.47-53.26,30.93-17.53,62.13-22.61,89.25-11.71,1.23.5,2.46,1.02,3.66,1.59-10.95-16.42-25.09-28.68-42.26-35.58-56.64-22.76-129.94,19.48-185.12,98.96Z" opacity=".5"></path>
  <path fill="#15296f" d="M2347.74,1227.47c-12.94,0-25.32-2.35-37.02-7.06-40.42-16.24-67.08-58.23-75.07-118.25-7.65-57.45,2.69-125.31,29.11-191.06h0c26.42-65.76,65.91-121.9,111.18-158.09,47.29-37.8,95.6-49.67,136.01-33.43,19.19,7.71,35.34,21.25,48,40.24,3.11,4.66,2.73,10.83-.92,15.08-3.65,4.25-9.69,5.55-14.77,3.18-.88-.41-1.87-.84-3.03-1.3-29.29-11.77-65.82-1.94-102.85,27.66-39.06,31.22-73.3,80.11-96.43,137.68s-32.23,116.56-25.63,166.12c6.26,47,25.83,79.37,55.12,91.13,1.16.47,2.17.85,3.09,1.16,5.31,1.8,8.77,6.92,8.47,12.52s-4.3,10.31-9.77,11.52c-8.7,1.93-17.21,2.9-25.48,2.9ZM2276.36,915.77l11.6,4.66c-24.84,61.82-34.62,125.2-27.52,178.44,6.75,50.69,27.92,85.62,59.61,98.35,3,1.2,6.07,2.2,9.2,2.99-19.61-20.39-32.66-50.69-37.71-88.67-7.16-53.76,2.51-117.24,27.22-178.75,24.71-61.5,61.65-114.02,104.02-147.88,29.93-23.92,60.31-36.77,88.58-37.92-2.81-1.6-5.72-3-8.71-4.21-31.69-12.73-71.14-2.16-111.09,29.76-41.96,33.54-78.75,86.06-103.59,147.88l-11.6-4.66Z"></path>
  <path fill="#e81718" d="M2330.35,937.46c-49.46,123.09-33.15,245.56,36.42,273.52,1.23.5,2.48.97,3.74,1.4,69.26,23.79,163.22-52.76,211.8-173.67,48.58-120.91,33.71-241.19-32.76-271.94-1.21-.56-2.43-1.08-3.67-1.58-69.57-27.95-166.08,49.18-215.54,172.28Z"></path>
  <path fill="#fff" d="M2542.11,806.39c-1.21-.56-2.43-1.08-3.67-1.58-69.57-27.95-166.08,49.18-215.54,172.28-7.67,19.1-13.76,38.17-18.31,56.89,4.07-30.94,12.58-63.71,25.77-96.51,49.46-123.09,145.97-200.23,215.54-172.28,1.23.5,2.46,1.01,3.67,1.58,55.98,25.9,75.36,115.3,51.06,215.1,10.96-83.1-10.07-153.07-58.51-175.48Z" opacity=".5"></path>
  <path fill="#15296f" d="M2419.84,803.8c-18.51,23.63-35.09,52.16-48.01,84.29-43.4,108.02-29.09,215.49,31.96,240.02,1.08.44,2.17.85,3.28,1.23,60.78,20.87,143.23-46.3,185.87-152.41,7.39-18.39,13.07-36.75,17.16-54.7-2.62,36.62-11.74,76.51-27.8,116.47-48.58,120.91-142.54,197.46-211.8,173.67-1.26-.43-2.5-.9-3.74-1.4-69.57-27.95-85.88-150.42-36.42-273.52,22.45-55.86,54.58-102.26,89.49-133.66Z" opacity=".25"></path>
  <path fill="#15296f" d="M2396.87,1229.19c-10.43,0-20.62-1.62-30.42-4.99-1.32-.45-2.75-.98-4.34-1.62-38.01-15.27-63.07-54.7-70.58-111.03-7.16-53.76,2.51-117.25,27.22-178.74h0c24.71-61.5,61.65-114.02,104.02-147.89,44.39-35.48,89.77-46.6,127.78-31.33,1.59.64,2.99,1.24,4.3,1.85,73.16,33.84,90.33,160.32,39.06,287.92-44.68,111.2-126.31,185.82-197.04,185.82ZM2515.5,771.94c-23.73,0-50.29,11.06-77.12,32.51-39.06,31.22-73.3,80.11-96.43,137.68h0c-23.13,57.57-32.23,116.56-25.63,166.12,6.26,47,25.83,79.37,55.12,91.13,1.16.47,2.17.85,3.09,1.16,7.26,2.49,14.86,3.7,22.7,3.7,59.79,0,133.24-70,173.49-170.19,45.53-113.32,33.69-228.13-26.41-255.93-.92-.43-1.92-.86-3.08-1.32-8.07-3.24-16.7-4.85-25.73-4.85ZM2330.35,937.46h0,0Z"></path>
  <path fill="#fff" d="M1519.64,247.83c-10.33-2.85-22.35-3.01-31.51-4.05-170.25-19.37-328.18,104.23-386.4,259.18-8.06,21.46-9.35,72.11,28.78,54.64,84.18-38.57,253.24-125.81,402.96-263.03,10.53-9.65,11.69-26.34,2.47-37.32-4.03-4.79-9.83-7.64-16.31-9.43Z" opacity=".5"></path>
  <path fill="#15296f" d="M2315.38,1208.82c6.45,2.6,13.12,4.35,19.95,5.29,11.36,1.58,23.15.93,35.19-1.73-1.26-.44-2.5-.9-3.74-1.4-8.05-3.23-15.39-7.74-21.98-13.37-38.28-32.55-51.96-102.7-37.27-182.17-11.35-22.49-20.23-67.21-4.41-155.08-4.41,7.69-8.64,15.64-12.68,23.84-5.01,10.17-9.71,20.69-14.09,31.57-52.99,131.89-35.52,263.09,39.02,293.05Z" opacity=".25"></path>
  <path fill="#15296f" d="m1375.4 1868.67-86.4 94.73c-4.52 4.96-12.13 5.42-17.24 1.18 0 0-30-25-30-25l17.09-1.02-50 53s-.1-17.26-.1-17.26l28 29c4.64 4.78 4.58 12.26.27 17.08-15.9 19.72-33.08 38.34-50.58 56.63-2.92 3.05-5.86 6.07-8.82 9.09l-2.21 2.27c-2.48 2.62-5.63 4.2-9.46 4.24-9.39.11-15.45-10.45-10.92-18.44.83-1.62 2.71-3.61 3.87-5.03 13.56-16.16 27.47-32.03 41.9-47.41 5.8-6.13 11.61-12.25 17.7-18.12l.27 17.08-28-29c-4.65-4.82-4.64-12.43-.1-17.26 0 0 50-53 50-53 4.55-4.82 12.06-5.2 17.09-1.03 0 0 30 25 30 25 0 0-17.24 1.18-17.24 1.18l86.4-94.73c11.54-11.75 29.2 4.02 18.47 16.85h0ZM1341.47 2049.86c-.83 0-1.67-.08-2.51-.25-6.48-1.33-10.81-7.47-9.87-14.02.89-6.2 2.52-12.3 4.85-18.13 2.45-6.14 9.27-9.31 15.55-7.22 6.28 2.08 9.84 8.7 8.14 15.09l-4.08 15.26c-1.49 5.56-6.52 9.27-12.07 9.27ZM1471.45 2080.36c-.97 0-1.96-.11-2.95-.35-6.33-1.53-10.42-7.68-9.4-14.11l3.32-20.88c1.02-6.44 6.83-11.01 13.33-10.5 6.5.51 11.52 5.94 11.52 12.46 0 8.48-1.33 16.82-3.95 24.78-1.72 5.23-6.58 8.6-11.87 8.6Z"></path>
  <path fill="#15296f" d="M1407.77,2126.47c-43.84,0-79.5-35.66-79.5-79.5,0-3.86.28-7.71.82-11.43.07-.48.17-.95.29-1.42l4.08-15.26c.15-.56.34-1.12.57-1.65,12.2-30.22,41.12-49.74,73.74-49.74,43.84,0,79.5,35.66,79.5,79.5,0,.66-.05,1.31-.16,1.96l-3.32,20.88c-.1.66-.26,1.3-.47,1.93-10.73,32.73-41.1,54.73-75.56,54.73ZM1353.73,2039.84c-.31,2.32-.46,4.71-.46,7.13,0,30.05,24.45,54.5,54.5,54.5,23.31,0,43.89-14.67,51.5-36.62l2.99-18.82c-.5-29.62-24.75-53.56-54.49-53.56-22.19,0-41.88,13.18-50.36,33.62l-3.68,13.75ZM1474.77,2046.97h0,0Z"></path>
  <path fill="#15296f" d="M1407.22,2165.75c-4.46,0-8.96-.42-13.45-1.27-3.44-.65-6.95-1.49-10.45-2.48-9.63-2.75-18.46-6.12-26.25-10.02-30.27-15.15-45.83-50.11-36.99-83.12l9.29-34.73c1.71-6.4,8.12-10.35,14.6-9.01,6.49,1.34,10.8,7.5,9.84,14.05-.37,2.53-.56,5.16-.56,7.81,0,30.05,24.45,54.5,54.5,54.5,23.63,0,44.45-15.08,51.8-37.51,2.03-6.19,8.49-9.79,14.82-8.25,6.34,1.53,10.43,7.68,9.41,14.11l-5.55,34.88c-3.11,19.53-13.72,36.54-29.89,47.92-12.27,8.63-26.51,13.12-41.12,13.12ZM1342.92,2092.92c1.74,15.45,11,29.51,25.35,36.7,6.41,3.21,13.78,6.01,21.93,8.34,2.77.79,5.53,1.45,8.22,1.96,12.47,2.36,25.1-.39,35.54-7.74,6.41-4.51,11.48-10.36,14.94-17.12-12.11,7.31-26.24,11.42-41.14,11.42-26.73,0-50.43-13.27-64.85-33.56Z"></path>
  <path fill="#fff" d="M2766.12,3126.12c-3.2,6.16-6.57,12.29-10.13,18.35-6.87,11.73-14.44,23.23-22.88,34.36-26.67,35.14-61.65,65.61-104.35,81.26-67.88,26.23-147.78,5.14-196.31-48.98-27.76-30.1-45.63-68.4-51.95-108.82-.68-4.04-1.2-8.72-1.64-12.84-1.67-19.49-3.12-38.88-5.06-57.77-16-176.95-76.48-326.55-247.41-398.19-11.25-4.79-23.16-9.27-34.75-13.19-111.98-36.4-220.86-90.55-310.09-169.38-28.13-24.33-54.71-50.86-80.82-76.51-24.4-23.78-48.34-46.72-75.8-65.55-24.13-16.11-53.41-29.57-81.17-39.83l-2.78-1-2.38-.82-1.1-.38c-19.71-7.66-28.98-23.04-30.11-38.87-2.04-28.45,22.18-58.31,59.19-47.23,19.12,6.78,37.5,14.16,55.41,22.7,17.92,8.53,35.37,18.22,52.64,29.62,17.11,11.63,32.06,23.82,47.22,37.13,10.61,9.41,20.88,19.05,31,28.79,29.02,27.93,56.73,56.64,87.14,82.84,81.1,71.45,177.22,118.57,280.07,152.17,4.21,1.4,9.7,3.33,13.77,4.83,17.75,6.49,35.13,13.78,52.12,22.05,9.54,4.63,18.95,9.57,28.24,14.83,107.73,60.03,180.92,158.9,216.78,276.88,17.09,54.47,25.96,110.1,31.8,166.12,2.15,20.55,3.89,41.15,5.48,61.76,3.31,37.73,25.63,74.59,59.64,90.88,34.66,17.38,74.64,8.21,104.09-16.53.13-.11.26-.21.39-.32,10.6-8.66,20.5-19.24,29.51-31.11,9.15-12.05,17.38-25.45,24.75-39.65l79.49,42.4Z"></path>
  <path fill="#15296f" d="M2755.99,3144.47c-6.87,11.73-14.44,23.23-22.88,34.36-26.67,35.14-61.65,65.61-104.35,81.26-67.88,26.23-147.78,5.14-196.31-48.98-27.76-30.1-45.63-68.4-51.95-108.82-.68-4.04-1.2-8.72-1.64-12.84-1.67-19.49-3.12-38.88-5.06-57.77-16-176.95-76.48-326.55-247.41-398.19-11.25-4.79-23.16-9.27-34.75-13.19-111.98-36.4-220.86-90.55-310.09-169.38-28.13-24.33-54.71-50.86-80.82-76.51-24.4-23.78-48.34-46.72-75.8-65.55-24.13-16.11-53.41-29.57-81.17-39.83l-2.78-1-2.38-.82-1.1-.38c-19.71-7.66-28.98-23.04-30.11-38.87,36.79,12.53,130.93,46.43,194.88,85.51,21.31,13.02,37.86,4.28,50.58-14.5,29.02,27.93,56.73,56.64,87.14,82.84,81.1,71.45,177.22,118.57,280.07,152.17,4.21,1.4,9.7,3.33,13.77,4.83,17.75,6.49,35.13,13.78,52.12,22.05,5.84,34.96,25.56,82.36,83.32,124.61,108,79,134,248,143,295,4.57,23.83,28.25,33.99,50.5,38.22,2.15,20.55,3.89,41.15,5.48,61.76,3.31,37.73,25.63,74.59,59.64,90.88,34.66,17.38,74.64,8.21,104.09-16.53.13-.11.26-.21.39-.32,24.24,12.66,65.81,21.76,123.62-10.01Z" opacity=".25"></path>
  <path fill="#15296f" d="M2567.85,3283.87c-15.78,0-31.74-2-47.58-6.02-37.88-9.61-71.45-29.79-97.07-58.34-29.15-31.63-48.19-71.47-55.04-115.23-.73-4.41-1.28-9.28-1.73-13.5,0-.09-.02-.17-.02-.26-.49-5.75-.97-11.49-1.44-17.21-1.1-13.34-2.24-27.14-3.59-40.36,0-.05,0-.1-.01-.15-18.42-203.72-94.62-326.94-239.8-387.79-10.54-4.49-22.22-8.92-33.85-12.85-125.84-40.92-231.61-98.73-314.39-171.84-25.52-22.08-49.79-45.96-73.28-69.06l-8.08-7.94c-26.14-25.47-48.22-46.4-74.05-64.12-20.76-13.85-47.88-27.14-78.45-38.44l-6.07-2.14c-.14-.05-.28-.1-.42-.15-34.87-13.54-43.94-47.35-34.88-73.75,4.71-13.73,13.93-25.04,25.95-31.84,13.56-7.67,29.51-9.1,46.11-4.13.2.06.4.12.59.19,43.47,15.42,78.66,32.47,110.75,53.67.04.03.09.06.13.09,15.53,10.54,30.47,22.29,48.45,38.08,19.59,17.38,38.19,35.66,56.18,53.34,19.9,19.55,40.47,39.78,61.87,58.21.03.03.07.06.1.09,72.36,63.75,162.54,112.71,275.69,149.66,4.47,1.49,10.03,3.44,14.22,4.99,29.58,10.81,56.48,23.16,82.19,37.72,54.12,30.16,100.94,70.53,139.08,119.95,36.78,47.65,64.87,102.87,83.49,164.13,24.47,78.02,32.34,159.9,37.79,230.54,3.1,35.17,23.73,66.81,52.58,80.63.07.03.14.07.2.1,28.07,14.08,62.73,8.36,90.44-14.93.06-.05.11-.09.17-.14,9.66-7.83,19.02-17.68,27.82-29.28,8.3-10.94,16.25-23.67,23.61-37.85,3.18-6.13,10.72-8.51,16.85-5.33,6.13,3.18,8.51,10.73,5.33,16.85-8.02,15.44-16.73,29.38-25.89,41.44-9.98,13.15-20.72,24.42-31.9,33.51-35.44,29.73-80.46,36.67-117.55,18.12-36.62-17.59-62.75-57.23-66.59-101.01,0-.04,0-.08-.01-.13-5.35-69.29-13.04-149.55-36.74-225.1-.01-.04-.02-.07-.03-.11-36.41-119.77-109.34-213-210.91-269.6-24.57-13.92-50.25-25.7-78.57-36.05-3.95-1.46-9.33-3.35-13.43-4.71-116.34-38-209.37-88.58-284.32-154.59-22.01-18.96-42.87-39.46-63.04-59.29-17.76-17.46-36.13-35.51-55.2-52.43-17.1-15.01-31.27-26.16-45.88-36.09-30.27-19.99-63.63-36.14-104.96-50.82-22.81-6.68-36.32,6.69-40.96,20.22-5.18,15.08-.96,33.97,20.08,42.25l3.25,1.13s.08.03.12.04l2.78,1s.07.03.1.04c22.61,8.35,55.5,22.27,83.78,41.16.04.03.08.06.13.09,27.45,18.82,51.31,41.44,77.45,66.9l8.13,7.99c23.22,22.84,47.22,46.46,72.15,68.02.03.03.07.06.1.09,80.21,70.86,183.06,127,305.67,166.86.04.01.09.03.13.04,12.43,4.2,24.42,8.75,35.65,13.53,42.57,17.84,80.26,41.32,111.97,69.75,29.85,26.77,55.37,58.81,75.84,95.23,36.18,64.38,58.15,144.04,67.15,243.52,1.37,13.43,2.52,27.33,3.63,40.76.47,5.65.94,11.32,1.42,17.01.41,3.86.9,8.26,1.52,11.98l.02.13c6.09,38.91,22.96,74.27,48.79,102.27.04.04.08.09.12.13,45.56,50.81,120.6,69.59,182.49,45.67.07-.03.14-.05.2-.08,36.43-13.35,70.55-40.01,98.69-77.08,11.58-15.26,22-31.92,31.88-50.92,3.18-6.12,10.73-8.51,16.86-5.33,6.12,3.18,8.51,10.73,5.33,16.86-10.54,20.27-21.71,38.1-34.15,54.5-31.01,40.86-69.02,70.39-109.9,85.41-20.84,8.04-42.89,12.08-65.31,12.08Z"></path>
  <path fill="#fff" d="M1537.77,2446.97l-2.58,3.25-36.1,45.52-76.32,96.23-30.94,39.26-71.64,90.91c-70.03-14.24-125.02-37.71-168.08-64.77-125.77-79.04-149.8-188.74-149.8-188.74,0,0,3.98-6.79,11.35-18.11,39.04-59.9,173.19-246.67,316.45-226.16,42.51,6.09,77.26,25.32,105.32,50.11l.02.02c23.15,20.46,41.76,44.69,56.4,68.43,25.57,41.4,39.13,81.3,43.91,97.02,1.36,4.51,2.01,7.03,2.01,7.03Z"></path>
  <path fill="#fff" d="M1491.85,2342.92l-56.4-68.43c23.15,20.46,41.76,44.69,56.4,68.43Z"></path>
  <path fill="#15296f" d="M1499.09,2495.74l-76.32,96.23-30.94,39.26-71.64,90.91c-70.03-14.24-125.02-37.71-168.08-64.77l3.46-18.78s69.23-12.57,149.82-43.45c45-17.25,93.54-40.21,135.55-69.89,17.32-12.24,36.42-21.62,56.36-28.83.59-.22,1.19-.44,1.79-.67Z" opacity=".25"></path>
  <path fill="#fff" d="M1537.77,2446.97l-2.58,3.25c.4-3.22.6-6.64.57-10.28,1.36,4.51,2.01,7.03,2.01,7.03Z"></path>
  <path fill="#15296f" d="M1537.77,2446.97c-21.79-40.48-42.64-82.57-69.89-119.57-30.81-41.43-73.73-76.16-124.61-86.97-15.89-3.51-32.06-4.86-48.2-3.22-64.71,6.64-121.44,50.23-167.04,94.39-43.65,43.07-81.79,91.79-114.94,143.35-.02.05,1.43-9,1.42-8.99.94,3.87,2.14,7.69,3.4,11.5,30.02,85.69,100.4,152.87,181.25,191.59,39.13,18.89,80.8,32.14,123.51,40.85.02,0-12.31,4.51-12.3,4.51,26.05-32.31,53.66-63.34,82.35-93.36,9.73-9.98,19.59-19.79,30.04-29.08-19.9,36.63-43.98,70.71-67.99,104.67-8.13,11.27-16.33,22.49-24.9,33.41-2.97,3.79-7.76,5.32-12.17,4.34-53.36-10.84-106.06-28.87-153.81-55.52-48.01-27.05-91.23-63.35-124-107.86-19.14-26.12-35.14-54.86-45.67-85.59-1.31-3.99-2.59-7.99-3.64-12.09-1.13-3.6-1.1-7.9.94-11.04,24.06-41.3,52.4-80.01,83.66-116.14,41.07-46.77,88.34-90.27,145.3-116.75,28.27-13.05,59.83-21.22,91.27-20.2,37.66,1.23,74.67,14.42,105.69,35.59,62.03,42.24,115.32,126.82,120.33,202.17h0Z"></path>
  <path fill="#fff" d="M2318.77,2292.97c-1.92,5.37-3.93,10.6-6.02,15.69-72.39,176.8-236.98,182.31-236.98,182.31,0,0,3,170-172,139-86.43-15.31-126.99-72.22-133.14-136.45-.06-.56-.11-1.12-.16-1.69-.85-9.79-.9-19.74-.19-29.74.12-1.71.27-3.41.43-5.12,4.29-44.82,23.58-90.05,54.23-124.84,6.89-7.83,14.36-15.13,22.37-21.77.15-.14.31-.26.46-.39,12.39-10.22,35.52-24.85,61.55-40.18,58.02-34.17,130.45-71.82,130.45-71.82,0,0-33.14-57.42-62.82-133.04-10.46-26.63-20.48-55.53-28.48-84.96l-3.23-86.01-5.47-145.99s38.94-61.62,110.13-64.98c9.4-.45,19.36.12,29.87,1.98,105.53,18.69,227.42,280.33,248.06,471.17,1.43,13.17,2.37,26.01,2.79,38.4,1.3,37.92-2.29,71.71-11.85,98.43Z"></path>
  <path fill="#15296f" d="M2077.79,2178.37l-35.74,20.47-2.28-.87s-33.14-57.42-62.82-133.04c-10.46-26.63-20.48-55.53-28.48-84.96l-2.21-58.85c7.95-5.8,19.82-5.59,27.32,3.04,13.15,15.13,28.3,34.48,41.01,55.81,27.9,46.81,55.08,112.62,63.2,198.4Z" opacity=".25"></path>
  <path fill="#e81718" d="M2318.77,2292.97c-1.92,5.37-3.93,10.6-6.02,15.69-2.3.21-4.63.31-6.98.31-32.45,0-60.27-19.81-72.02-48h0c-3.85-9.24-5.98-19.37-5.98-30,0-43.08,34.92-78,78-78,7.66,0,15.07,1.1,22.06,3.17.62,5.67,1.14,11.29,1.57,16.83,3.64,46.67.71,88.31-10.63,120Z"></path>
  <path fill="#fff" d="M2329.4,2172.97s-86.16-4.5-95.65,87.99c-3.85-9.23-5.98-19.36-5.98-29.99,0-43.08,34.92-78,78-78,7.66,0,15.07,1.1,22.06,3.17.62,5.67,1.14,11.29,1.57,16.83Z" opacity=".5"></path>
  <path fill="#fff" d="M1330.11,2724.84s-190.49,258.98-313.75,378.66c-3.58,3.47-8.6,4.97-13.5,4.06-13.77-2.56-43-9.21-67.41-22.89-6.34-3.55-9.26-11.13-7.03-18.05l1.65-5.15c2.17-6.75-.56-14.1-6.61-17.8l-14.42-8.81c-6.48-3.96-14.88-2.59-19.77,3.22l-3.78,4.51c-4.98,5.93-13.6,7.22-20.1,3.02l-80.83-52.3c-5.78-3.75-8.37-10.89-6.31-17.48l3.39-10.84c1.89-6.04-.12-12.62-5.06-16.58l-22.77-18.21c-5.35-4.28-12.89-4.5-18.48-.53l-11.3,8.02c-5.97,4.23-14.09,3.67-19.42-1.35l-105.81-99.74c-4.37-4.12-5.94-10.41-4.01-16.1,9.76-28.7,43.91-115.84,113.34-166.82,41.3-30.33,95.09-47.87,163.64-32.71l125-164s41.61,99.62,152.14,181.62c47.15,34.99,106.85,66.78,181.2,86.25Z"></path>
  <path fill="#15296f" d="M1005.66,3120.32c-1.69,0-3.4-.15-5.09-.47-15.61-2.9-45.61-9.91-71.24-24.27-11.47-6.43-16.86-20.21-12.82-32.78l1.65-5.15c.4-1.26-.1-2.62-1.23-3.31l-14.42-8.81c-1.21-.74-2.76-.49-3.68.6l-3.79,4.51c-9.02,10.74-24.69,13.09-36.46,5.47l-80.82-52.3c-10.46-6.77-15.17-19.8-11.45-31.7l3.39-10.85c.35-1.13-.02-2.34-.94-3.08l-22.77-18.21c-.99-.79-2.4-.83-3.44-.1l-11.3,8.02c-10.79,7.66-25.6,6.63-35.23-2.45l-105.81-99.74c-7.92-7.46-10.77-18.93-7.27-29.22,8.2-24.12,32.22-85.71,77.94-136.51,26.27-29.19,55.75-50.39,87.63-63.03,36.44-14.44,76.12-17.73,118.06-9.79l120.24-157.75c2.71-3.55,7.1-5.39,11.53-4.82,4.43.57,8.22,3.46,9.94,7.58.37.88,21.57,50.34,71.92,106.8,46.46,52.1,128.08,121.07,253.06,153.8,4.01,1.05,7.23,4.02,8.62,7.92,1.38,3.9.74,8.24-1.71,11.58-1.91,2.6-192.53,261.19-315.12,380.21-5.23,5.08-12.22,7.85-19.4,7.85ZM900.98,3020.06c4.98,0,10.02,1.35,14.58,4.14l14.42,8.81c11.01,6.73,15.94,20.01,11.99,32.29l-1.65,5.15c-.41,1.29.11,2.69,1.24,3.32,23.33,13.08,52.24,19.39,63.58,21.5.92.17,1.85-.11,2.51-.74,104.4-101.36,259.55-306.28,301.58-362.54-51.34-15.23-99.35-37.4-142.96-66.03-38.88-25.52-74.35-56.2-105.42-91.18-34.29-38.6-55.47-73.63-66.41-94.14l-112.73,147.9c-2.95,3.87-7.89,5.68-12.64,4.63-170.32-37.67-243.94,136.94-262.44,191.35-.36,1.04-.06,2.21.75,2.98l105.81,99.74c.99.93,2.5,1.04,3.61.25l11.3-8.02c10.08-7.16,23.87-6.76,33.52.96l22.77,18.21c9.03,7.22,12.64,19.02,9.19,30.06l-3.39,10.85c-.38,1.22.1,2.56,1.17,3.25l80.82,52.3c1.21.78,2.81.54,3.74-.56l3.79-4.51c5.49-6.54,13.31-9.99,21.28-9.99Z"></path>
  <path fill="#15296f" d="M875.83 2609.15c23.2 9.8 44.59 23.85 63.84 39.96 34.31 28.87 60.67 67.18 72.61 110.46 7.58 27.74 9.33 57.14 6.48 85.4 1.25-74.4-29.73-138.13-90.6-181.05-18.15-12.72-37.8-23.35-58.74-30.59 0 0-.93-.3-.93-.3 0 0-.46-.14-.46-.14 0 0-.34-.1-.34-.1-6.65-1.89-10.51-8.81-8.62-15.46 1.98-7.13 9.92-10.99 16.75-8.18h0ZM1093.93 3033.37c-1.61 0-3.25-.31-4.83-.98-75.3-31.59-144.84-68.76-206.69-110.47-49.58-33.44-94.37-69.87-133.12-108.28-66.41-65.83-91.96-114.36-93.01-116.4-3.18-6.13-.79-13.67 5.34-16.85 6.12-3.17 13.66-.79 16.84 5.33h0c.25.47 25.35 47.87 89.41 111.14 59.16 58.42 164.58 142.71 330.89 212.47 6.37 2.67 9.36 10 6.69 16.36-2.01 4.79-6.65 7.67-11.53 7.67Z"></path>
  <path fill="#15296f" d="M1058.93,3072.2c-1.6,0-3.22-.31-4.79-.96-83.28-34.59-157.56-73.48-220.77-115.59-50.79-33.84-94.62-69.84-130.29-107.01-61.54-64.15-77.6-109.7-78.26-111.61-2.24-6.53,1.24-13.64,7.77-15.88,6.52-2.23,13.61,1.23,15.86,7.74.24.68,15.86,43.71,74.24,104.08,54.23,56.08,157.41,138.93,341.02,215.18,6.38,2.65,9.4,9.96,6.75,16.34-2,4.81-6.65,7.71-11.55,7.71Z"></path>
  <path fill="#fff" d="M714.57,2369.44s-253.74,176.64-403.07,247.35c-4.33,2.05-9.37,1.85-13.54-.49-11.74-6.6-36.29-21.72-54.27-41.74-4.67-5.21-4.97-13.01-.8-18.62l3.11-4.17c4.06-5.47,3.86-13.02-.5-18.26l-10.39-12.49c-4.67-5.62-12.75-6.98-19-3.2l-4.84,2.93c-6.37,3.85-14.62,2.36-19.23-3.49l-57.35-72.68c-4.11-5.2-4.24-12.51-.33-17.86l6.45-8.82c3.59-4.92,3.8-11.53.53-16.66l-15.07-23.64c-3.54-5.56-10.34-8.09-16.66-6.22l-12.77,3.8c-6.74,2-13.97-1.04-17.26-7.26l-65.37-123.61c-2.7-5.11-2.19-11.32,1.34-15.9,17.27-22.43,72.59-87.9,148.15-114.44,48.51-17.04,105.38-18.03,165.87,18.73l164.66-110.5s6.86,101.92,80.33,209.88c32.2,47.32,77.19,95.79,140.01,137.36Z"></path>
  <path fill="#15296f" d="M305.22,2630.7c-4.63,0-9.25-1.17-13.39-3.5-13.33-7.5-38.52-23.22-57.44-44.29-8.6-9.58-9.24-24.05-1.53-34.42l3.1-4.17c.63-.84.6-2-.08-2.8l-10.39-12.5c-.72-.87-1.95-1.08-2.92-.49l-4.84,2.93c-11.74,7.1-27.01,4.33-35.51-6.44l-57.35-72.68c-7.56-9.58-7.8-23.14-.61-32.99l6.45-8.82c.56-.76.59-1.76.08-2.56l-15.07-23.64c-.54-.85-1.59-1.24-2.56-.96l-12.77,3.79c-12.41,3.69-25.81-1.94-31.87-13.39l-65.38-123.61c-4.98-9.41-4-20.94,2.49-29.37,14.97-19.44,55.99-68.11,113.44-100.21,33.03-18.45,66.52-28.63,99.53-30.25,37.65-1.84,74.79,7.45,110.51,27.62l158.14-106.14c3.71-2.49,8.46-2.81,12.47-.84,4.01,1.97,6.66,5.92,6.96,10.38.07.92,4.02,52.47,32.32,119.41,26.11,61.76,78.96,149.76,182.45,218.25,3.45,2.29,5.55,6.13,5.6,10.28.05,4.14-1.96,8.04-5.36,10.41-2.55,1.77-256.31,178.05-404.86,248.39-3.68,1.74-7.66,2.61-11.63,2.61ZM223.8,2503.15c7.84,0,15.53,3.41,20.91,9.88l10.39,12.5c8.08,9.71,8.45,23.57.92,33.71l-3.1,4.17c-.64.86-.61,2.04.07,2.8,17.13,19.08,41.43,33.77,51.09,39.2.65.36,1.42.4,2.07.09,126.03-59.68,329.84-197.33,386.34-236.03-41.81-29.73-78.49-64.7-109.19-104.15-27.5-35.33-50.29-74.29-67.74-115.81-19.04-45.3-27.49-83.46-31.15-105.67l-147.88,99.25c-4.04,2.71-9.3,2.83-13.46.3-143.03-86.92-263.96,48.94-297.63,92.65-.53.69-.61,1.65-.2,2.43l65.38,123.61c.5.95,1.62,1.42,2.65,1.11l12.77-3.79c11.6-3.45,24.25,1.27,30.76,11.48l15.07,23.64c6.08,9.54,5.7,21.62-.98,30.75l-6.45,8.82c-.6.82-.58,1.95.05,2.74l57.35,72.68c.71.9,1.98,1.13,2.95.54l4.84-2.93c4.44-2.68,9.32-3.98,14.16-3.98Z"></path>
  <path fill="#15296f" d="M335.83 2121.89c15.78 11.15 26.91 28.28 33.84 45.92 10.6 27.74 10.65 56.93 5.26 85.35-4.37 23.08-12.48 45.62-22.17 66.8 10.03-31.78 16.54-65.68 13.19-98.77-2.58-23.93-10.57-46.83-26.52-64.41-4.71-5.13-10.24-10.12-16.14-13.27-14-8.84-2.18-29.38 12.52-21.64h0ZM407.75 2578.14c-2.95 0-5.91-1.04-8.29-3.15-58.77-52.13-110.56-107.56-153.94-164.74-34.78-45.85-64.26-92.93-87.63-139.93-40.07-80.59-48.27-132.76-48.6-134.95-1.03-6.83 3.67-13.2 10.49-14.23 6.82-1.03 13.19 3.66 14.23 10.47.08.54 8.24 51.43 46.89 128.81 35.71 71.48 105.49 180.84 235.15 295.86 5.16 4.58 5.64 12.48 1.06 17.65-2.47 2.78-5.91 4.21-9.36 4.21Z"></path>
  <path fill="#15296f" d="M363.84,2602.62c-2.94,0-5.88-1.03-8.26-3.12-65.1-57.34-120.67-115.8-165.17-173.77-35.76-46.58-64.51-92.99-85.45-137.92-36.17-77.58-36.66-124.13-36.66-126.07-.01-6.9,5.58-12.51,12.48-12.52h.02c6.88,0,12.47,5.57,12.5,12.45.01.92.98,44.85,35.28,117.64,31.96,67.81,100.14,175.15,243.52,301.43,5.18,4.56,5.68,12.46,1.12,17.64-2.47,2.81-5.92,4.24-9.39,4.24Z"></path>
  <ellipse cx="1262.84" cy="2357" fill="#e81718" rx="62.1" ry="74" transform="rotate(-56.66 1262.881 2357.024)"></ellipse>
  <path fill="#fff" d="M1334.27,2360.55c-4.08,12.48-9.01,17.24-14.79,4.92-18.75-40-38.61-55-72.81-52-34.2,3-51.85,42-51.85,42l-4.55-6.26c.22-20.98,10.2-40.12,28.97-50.83,32.01-18.28,77.44-5.06,101.47,29.52,7.25,10.43,11.73,21.61,13.56,32.65Z" opacity=".5"></path>
  <path fill="#15296f" d="M1273.97,2435.36c-17.41,0-35.7-5.22-52.13-16.03-18.96-12.48-32.75-30.52-38.82-50.81-6.31-21.08-3.62-42.05,7.56-59.05,11.18-17,29.38-27.77,51.23-30.32,21.04-2.46,43.07,3.06,62.03,15.54,18.96,12.48,32.75,30.52,38.82,50.81,6.31,21.08,3.62,42.05-7.56,59.05h0c-13.29,20.2-36.32,30.82-61.14,30.82ZM1251.71,2303.57c-2.35,0-4.68.13-7,.41-14.39,1.68-26.2,8.51-33.25,19.23-7.05,10.72-8.65,24.26-4.49,38.14,4.39,14.67,14.55,27.84,28.61,37.09,28.33,18.64,63.61,15.21,78.64-7.64,7.05-10.72,8.65-24.27,4.49-38.15-4.39-14.67-14.55-27.84-28.61-37.09-11.92-7.84-25.32-12-38.39-12ZM1324.66,2397.67h.01-.01Z"></path>
  <path fill="#e81718" d="M780.28,2054.61c-29.02,18.28-70.2,5.07-91.98-29.51-9.02-14.32-13.3-30.07-13.15-44.89.2-20.98,9.25-40.12,26.26-50.83,29.02-18.28,70.2-5.06,91.98,29.52,6.57,10.43,10.63,21.61,12.29,32.65,3.84,25.55-5.13,50.29-25.4,63.06Z"></path>
  <path fill="#fff" d="M805.68,1991.55c-3.7,12.48-8.17,17.24-13.41,4.92-17-40-35-55-66-52s-47,42-47,42l-4.12-6.26c.2-20.98,9.25-40.12,26.26-50.83,29.02-18.28,70.2-5.06,91.98,29.52,6.57,10.43,10.63,21.61,12.29,32.65Z" opacity=".5"></path>
  <path fill="#15296f" d="M751.35 2075.28c-27.5 0-56.15-15.76-73.63-43.52-25.42-40.36-17.78-91.03 17.02-112.95 34.81-21.92 83.81-6.92 109.22 33.43 25.42 40.36 17.78 91.03-17.02 112.95h0c-10.86 6.84-23.11 10.09-35.59 10.09ZM780.28 2054.62h.01-.01ZM730.54 1933.64c-7.95 0-15.67 2.03-22.48 6.32-23.14 14.58-27.27 49.78-9.19 78.47 18.07 28.69 51.6 40.18 74.75 25.6h0c23.14-14.58 27.27-49.78 9.19-78.47-12.75-20.25-33.2-31.93-52.27-31.93ZM702.44 1542.38c-9.8 0-16.08-.97-16.66-1.06-6.14-.99-10.62-6.35-10.51-12.57 1.12-60.9-38.4-84.48-71.75-93.55-11.37-3.09-23.19 2.92-27.5 13.99l-19.61 50.33c-1.43 3.67-4.5 6.45-8.29 7.5-3.79 1.06-7.86.27-10.98-2.13-29.79-22.92-39.82-62.04-28.24-110.15 8.36-34.7 27.74-72.18 53.18-102.83 26.94-32.45 56.92-53.13 84.4-58.22 48.39-8.96 116.84 1.6 160.68 45.38 23.41 23.38 48.64 65.81 35.89 135.17-13.97 76-55.99 106.63-88.77 118.94-20.05 7.53-38.98 9.2-51.85 9.2ZM687.77 1528.97h0 0ZM700.05 1517.34c10.6.21 28.08-.87 46.36-7.91 38.37-14.8 62.62-48.35 72.06-99.71 8.66-47.11-1.09-85.12-28.97-112.96-37.22-37.17-97.87-46.01-138.46-38.49-44.96 8.33-102.22 77.49-117.83 142.32-5.3 22-7.54 50.45 6.99 71.67l12.52-32.14c8.96-23 33.62-35.49 57.35-29.04 32.59 8.86 85.95 34.33 89.98 106.27Z"></path>
  <polygon fill="#b9c5d3" points="798.92 1195.79 913.47 1037.66 903.77 990.97 974.77 918.97 1046.77 973.97 997.77 1062.97 943.77 1064.97 833.99 1220.4 798.92 1195.79"></polygon>
  <path fill="#15296f" d="M833.98 1232.9c-2.48 0-4.98-.74-7.17-2.27l-35.08-24.61c-2.74-1.92-4.6-4.86-5.15-8.17-.55-3.3.24-6.69 2.21-9.4l111.31-153.66-8.58-41.28c-.85-4.09.4-8.34 3.34-11.32l71-72c4.42-4.48 11.49-4.98 16.49-1.16l72 55c4.92 3.76 6.35 10.54 3.36 15.96l-49 89c-2.12 3.85-6.1 6.3-10.49 6.46l-47.82 1.77-106.21 150.38c-2.44 3.45-6.3 5.29-10.22 5.29ZM816.48 1192.85l14.49 10.17 102.59-145.25c2.25-3.18 5.85-5.14 9.75-5.28l46.93-1.74 40.4-73.37-54.69-41.78-58.57 59.39 8.34 40.13c.72 3.44-.05 7.03-2.12 9.88l-107.11 147.85ZM1948.47 1979.97c7.15 10.55 12.81 21.63 18.67 32.83 9.82 19.16 18.81 40.32 27.71 59.94 16.11 35.39 33.09 70.66 49.67 105.86 2.39 5.13 4.78 10.23 7.04 15.28 2.58 5.74.02 12.49-5.72 15.07-53.35 28.02-106.68 56.78-157.93 88.47-7.61 4.83-15.33 9.86-22.68 15.05-46.24 33.07-76.02 88.22-81.95 144.63-7.86 74.62 29.83 136.82 103.86 156.32 25.15 6.7 52.2 9.79 78.06 6.45 56.48-7.31 86.71-49.43 95.69-103.13 1.33-8 2.21-16.1 2.38-24.19-.62-7.09 4.14-13.36 11.27-13.99 2.99-.29 6-.5 8.99-.97 66.74-9.7 129.39-45.67 171.09-98.7 20.02-25.24 35.79-54.19 47.03-84.49 5.34-13.25 8.68-27.31 10.69-41.44 17.57-141.76-59.29-361.97-141.78-477.47-22.04-30.21-55.54-69.89-93.32-77.61-2.45-.35-5.88-1-8.31-1.25 0 0-4.17-.4-4.17-.4 0 0-2.08-.21-2.08-.21-3.23-.13-7.21-.33-10.43-.18-5.37.02-11.25.72-16.57 1.52-1.4.31-4.78.93-6.13 1.22 0 0-2.02.52-2.02.52 0 0-4.04 1.03-4.04 1.03-19.21 5.75-37.01 15.11-53.81 26.14-9.96 6.55-19.74 13.75-29.89 21.71 3.65-12.55 10.71-23.74 18.94-33.8 17.19-20.74 41.11-34.98 67.45-40.72 0 0 4.98-1.09 4.98-1.09 0 0 5.04-.81 5.04-.81 3-.58 7.11-.84 10.13-1.19 5.77-.46 12.01-.45 17.81-.27 2.27.15 6.57.52 8.86.69 2.11.27 6.56.91 8.77 1.21 46.79 8.46 84.47 50.39 111.82 86.62 86.37 118.4 154.89 312.88 152.89 460.05-.8 27.78-4.09 55.83-14.14 82.25-15.09 40.92-37.42 79.37-67.21 111.47-22.2 23.67-48.33 43.83-77.12 58.82-34.15 17.84-71.8 29.66-110.34 32.21 0 0-1.48.06-1.48.06 0 0 12.08-12.71 12.08-12.71 0 .01 0 1.15 0 1.16 0 0-.01 1-.01 1 0 0-.05 1.94-.05 1.94-2.33 59.86-30.07 121.49-89.94 142.56-38.01 13.39-79.44 10.08-117.77.08-60.78-15.92-107.31-60.93-119.42-123.54-15.89-82.25 21.15-171.35 88.12-220.83 8.28-5.83 16.88-11.53 25.4-16.9 51.87-32.11 105.49-60.95 159.4-89.36 0 0-5.06 17.34-5.06 17.34-2.81-4.15-5.66-8.52-8.23-12.79-20.72-34.22-37.42-70.82-51.22-108.34-12.02-32.95-22.3-67.69-21.02-103.11h0Z"></path>
  <path fill="#15296f" d="m2035.09 2186.38 66.67-13.41-57.33 36.59c-5.92 3.78-13.78 2.04-17.56-3.88-4.87-7.3-.37-17.75 8.21-19.31h0ZM2063.61 2493.9l-.85-56.93 25.15 51.07c3.13 6.35.51 14.03-5.83 17.16-8.24 4.23-18.49-2.1-18.47-11.3h0ZM2305.77 2321.47c-49.9 0-90.5-40.6-90.5-90.5s40.6-90.5 90.5-90.5c8.73 0 17.35 1.24 25.61 3.68 4.83 1.43 8.34 5.63 8.88 10.64 6.36 58.71 3.09 106.61-9.72 142.39-1.95 5.45-4.04 10.91-6.23 16.23-1.77 4.31-5.79 7.28-10.43 7.7-2.63.24-5.36.36-8.12.36ZM2312.75 2308.66h0 0ZM2305.77 2165.47c-36.12 0-65.5 29.38-65.5 65.5s28.51 64.62 63.88 65.48c.98-2.55 1.93-5.12 2.85-7.69 0 0 0 0 0 0 10.74-29.99 13.92-72.19 9.29-122.45-3.45-.56-6.97-.84-10.52-.84ZM1303.77 1641.97c-16.53 17.25-35.36 31.78-54.8 45.27-14.31 9.74-28.69 19.85-42.39 30.45-46 35.06-88.96 74.66-128.21 117.11-3.99 4.48-13.66 14.98-17.37 19.44-8.85 10.17-19.37 22.78-27.86 33.36-5.17 6.63-10.75 13.99-15.95 20.65-3.44 4.7-11.87 16.33-15.36 21.12-2.96 4.38-11.76 17.27-14.72 21.59-4.47 6.97-12.02 18.67-16.34 25.76-8.19 13.71-16.07 27.76-25.3 40.92-5.18 7.19-10.35 14.68-16.26 21.4-2 2.31-4.08 4.59-6.37 6.79.21-3.13.63-6.18 1.14-9.21 3.44-20.83 11.08-40.74 21.05-59.24 59.22-114.26 146.95-213.58 252.97-286.56 32.12-21.76 66.01-45.28 105.77-48.88h0ZM797.9 2296.16l-22.14-64.18 43.86 51.82c4.54 5.36 3.87 13.39-1.49 17.92-6.58 5.81-17.54 2.74-20.24-5.56h0Z"></path>
  <path fill="#15296f" d="M947.46 1944.84c-8.59 0-17.37-.61-25.88-1.42-20.66-1.97-40.65-6.91-56.3-13.91-18.25-8.17-28-17.73-28.97-28.4-.03-.38-.05-.75-.05-1.13 0-47.7 38.8-86.5 86.5-86.5s86.5 38.8 86.5 86.5c0 12.96-4.26 23.41-12.67 31.05-11.83 10.76-29.99 13.82-49.14 13.82ZM861.3 1897.89c4.38 5.14 26.73 17.22 62.65 20.64 11.02 1.05 44.56 4.24 55.83-6 1.93-1.75 4.49-4.96 4.49-12.56 0-33.91-27.59-61.5-61.5-61.5s-60.36 26.46-61.46 59.41ZM860.78 1897.17h0ZM971.75 1633.26l9.02 51.72-31.92-41.68c-4.32-5.64-3.25-13.72 2.39-18.04 7.44-5.92 19.05-1.32 20.5 8.01h0ZM1592.19 2302.48c-5.85 0-11.08-4.13-12.25-10.09-5.01-25.47-1.54-46.86 10.29-63.57 17.29-24.42 46.12-28.85 47.34-29.03 6.84-1 13.17 3.74 14.17 10.58.99 6.81-3.71 13.13-10.51 14.16-.42.07-19.84 3.37-30.73 18.94-7.61 10.88-9.64 25.72-6.02 44.1 1.33 6.77-3.08 13.34-9.86 14.68-.81.16-1.62.24-2.42.24ZM1673.82 2361.23c-5.76 0-10.94-4-12.21-9.86-5.65-26.15-.03-51.92 16.26-74.54 12.03-16.7 25.82-25.9 26.4-26.28 5.76-3.8 13.52-2.21 17.32 3.55 3.79 5.75 2.22 13.49-3.52 17.3-1.81 1.21-41.94 28.78-32.02 74.7 1.46 6.75-2.83 13.4-9.58 14.86-.89.19-1.78.29-2.65.29ZM1744.62 2429.73c-6.39 0-11.85-4.88-12.43-11.37-3.58-39.5 10.11-63.77 22.23-77.18 13.22-14.63 27.3-19.76 28.87-20.3l8.12 23.64.1-.04c-1.62.59-39.54 15.07-34.42 71.62.62 6.88-4.45 12.95-11.32 13.58-.38.03-.76.05-1.14.05ZM2126.38 2646c-5.54 0-10.59-3.7-12.08-9.31-10.77-40.7-.68-65.88 9.69-79.84 11.5-15.5 25.71-20.86 27.29-21.42l8.35 23.57.13-.05c-.09.04-9.31 3.63-16.4 13.79-9.68 13.85-11.32 33.22-4.88 57.57 1.77 6.67-2.21 13.52-8.89 15.28-1.07.28-2.15.42-3.2.42ZM2208.46 2692.06c-5.58 0-10.67-3.76-12.1-9.42-1.7-6.69 2.34-13.49 9.03-15.2 41.06-10.46 31.96-67.14 31.87-67.72-1.15-6.81 3.43-13.26 10.24-14.41 6.81-1.15 13.26 3.43 14.41 10.24.13.79 3.23 19.61-.85 40.42-5.82 29.67-22.94 48.93-49.5 55.7-1.03.26-2.07.39-3.09.39ZM2279.31 2761.64c-5.95 0-11.23-4.27-12.3-10.33-1.2-6.8 3.34-13.28 10.14-14.48 20.68-3.64 33.43-15.03 38.99-34.81 4.35-15.49 2.38-30.28 2.36-30.43-1-6.83 3.73-13.18 10.56-14.17 6.84-.99 13.18 3.73 14.17 10.56.12.81 2.82 20-3.03 40.8-5.71 20.32-20.53 45.95-58.73 52.67-.73.13-1.46.19-2.18.19ZM2349.65 2846.45c-8.23 0-16.94-1.24-26.08-3.73-6.66-1.81-10.59-8.68-8.78-15.34 1.81-6.66 8.68-10.59 15.34-8.78 16.73 4.55 30.86 3.59 41.98-2.85 17.18-9.94 22.65-30.18 22.7-30.39 1.67-6.7 8.46-10.73 15.15-9.06 6.7 1.68 10.76 8.5 9.08 15.19-.31 1.23-7.84 30.32-34.11 45.71-10.5 6.16-22.31 9.24-35.29 9.24ZM2389.11 2941.06c-10.77 0-23.02-1.98-36.72-7.07-6.47-2.41-9.77-9.6-7.36-16.07 2.41-6.47 9.6-9.77 16.07-7.36 49.17 18.28 71.37-15.21 72.29-16.65l10.58 6.66 10.63 6.58c-.87 1.4-8.95 13.96-25.52 23.47-9.44 5.42-22.82 10.43-39.96 10.43ZM2410.46 3050.85c-12.25 0-25.8-2.43-40.56-7.29-6.56-2.16-10.12-9.23-7.96-15.78 2.16-6.56 9.23-10.12 15.78-7.96 23.19 7.63 42.25 7.97 55.13.97 12.79-6.96 16.09-19.03 16.22-19.54l-.03.14 24.33 5.77c-.22.92-5.62 22.76-27.94 35.25-10.08 5.64-21.77 8.46-34.96 8.46ZM2400.36 3177.02c-1.44 0-2.89-.25-4.32-.77-6.48-2.39-9.8-9.57-7.41-16.05 8.92-24.22 27.16-41.85 52.73-50.99 18.75-6.7 35.05-6.43 35.74-6.42 6.9.15 12.38 5.86 12.23 12.76-.15 6.89-5.88 12.37-12.72 12.23h0c-2.03-.03-49.32-.2-64.52 41.06-1.86 5.05-6.64 8.18-11.73 8.18ZM2486.41 3264.54c-6.14 0-11.5-4.53-12.37-10.78-5.09-36.57 11.59-59.38 26.47-72.08 15.6-13.31 32.44-18.21 33.15-18.41 6.64-1.89 13.56 1.96 15.45 8.59 1.89 6.62-1.94 13.52-8.55 15.44-2.09.62-48.45 14.9-41.75 63.02.95 6.84-3.82 13.15-10.66 14.1-.58.08-1.17.12-1.74.12ZM2667.45 3253.29c-1.43 0-2.89-.25-4.31-.77-28.46-10.45-47.17-25.91-55.61-45.95-10.29-24.44-.76-46.25-.35-47.17l22.81 10.23.05-.11c-.23.54-5.53 13.38.67 27.69 5.73 13.23 19.54 23.95 41.04 31.84 6.48 2.38 9.8 9.56 7.42 16.04-1.86 5.06-6.64 8.19-11.73 8.19ZM2112.77 1652.97c18.41-14.78 46.48-17.25 68.71-11.31 12.36 3.53 24.45 9.83 32.29 20.31-5.06 1.12-9.42 1.21-13.85 1.75-28.14 1.91-60.82.36-87.15-10.75h0Z"></path>
  <path fill="#15296f" d="M830.77 1411.97c-25 136-143 117-143 117 1.3-71.05-47.1-96.64-80.97-105.84-17.53-4.77-35.82 4.58-42.42 21.51l-19.61 50.33c-50.9-39.15-25.57-126.85 20.68-187.23-.02.15-.04.3-.07.45-3.21 22.09-8.43 69.74 13.89 70.28 32.05.78 80-8 128 39 11.04 10.81 50.67 3.81 64-4 29-17 43.2-39.58 35-102-.8-6.11-.84-11.11-.21-15.11 22.41 27 34.01 65 24.71 115.61ZM714.57 2369.44s-253.74 176.64-403.07 247.35c-4.33 2.05-9.37 1.85-13.54-.49-11.74-6.6-36.29-21.72-54.27-41.74-4.67-5.21-4.97-13.01-.8-18.62l3.11-4.17c4.06-5.47 3.86-13.02-.5-18.26l-10.39-12.49c-4.67-5.62-12.75-6.98-19-3.2l-4.84 2.93c-6.37 3.85-14.62 2.36-19.23-3.49l-57.35-72.68c-4.11-5.2-4.24-12.51-.33-17.86l6.45-8.82c3.59-4.92 3.8-11.53.53-16.66l-15.07-23.64c-3.54-5.56-10.34-8.09-16.66-6.22l-12.77 3.8c-6.74 2-13.97-1.04-17.26-7.26l-65.37-123.61c-2.7-5.11-2.19-11.32 1.34-15.9 17.27-22.43 72.59-87.9 148.15-114.44 0 0-21.06 135.83 103.12 245.37 30.31 26.73 72.15 36.18 111.09 25.38 64.58-17.91 162.4-58.24 192.35-142.25 1.34-3.77 2.78-7.23 4.29-10.39 32.2 47.32 77.19 95.79 140.01 137.36ZM1330.11 2724.84s-190.49 258.98-313.75 378.66c-3.58 3.47-8.6 4.97-13.5 4.06-13.77-2.56-43-9.21-67.41-22.89-6.34-3.55-9.26-11.13-7.03-18.05l1.65-5.15c2.17-6.75-.56-14.1-6.61-17.8l-14.42-8.81c-6.48-3.96-14.88-2.59-19.77 3.22l-3.78 4.51c-4.98 5.93-13.6 7.22-20.1 3.02l-80.83-52.3c-5.78-3.75-8.37-10.89-6.31-17.48l3.39-10.84c1.89-6.04-.12-12.62-5.06-16.58l-22.77-18.21c-5.35-4.28-12.89-4.5-18.48-.53l-11.3 8.02c-5.97 4.23-14.09 3.67-19.42-1.35l-105.81-99.74c-4.37-4.12-5.94-10.41-4.01-16.1 9.76-28.7 43.91-115.84 113.34-166.82 0 0-19.96 81.79 158.09 191.29 178.05 109.5 261.32-85.25 282.69-206.38 47.15 34.99 106.85 66.78 181.2 86.25ZM2318.77 2292.97c-1.92 5.37-3.93 10.6-6.02 15.69-72.39 176.8-236.98 182.31-236.98 182.31 0 0 3 170-172 139-86.43-15.31-126.99-72.22-133.14-136.45-.06-.56-.11-1.12-.16-1.69-.85-9.79-.9-19.74-.19-29.74l20.96-62.52c-1.07 3.71-29.19 106.73 126.03 121.9 91.15 8.91 114.9-60.9 120.82-105.71 2.45-18.56 19.18-31.76 37.83-30.13 66.56 5.8 206.11-5.68 254.7-191.09 1.3 37.92-2.29 71.71-11.85 98.43Z" opacity=".25"></path>
</svg>
