<svg xmlns="http://www.w3.org/2000/svg" viewBox="0 0 2908.75 2821.04" id="astronaut-playing-rugby">
  <path fill="#fff" d="M2730.84,1484.17c-8.89,13.11-19.94,25.66-30.9,36.62-37.86,37.86-22.08,180.88-119.89,176.68s-107.27,62.05-168.26,51.53c-61-10.52-38.91-61-38.91-61-1.88.47-3.78.94-5.7,1.4-49.12,11.88-111.01,21.96-174.57,30.29-36.23,4.76-73.02,8.95-108.27,12.59-12.7,1.31-25.2,2.56-37.41,3.72-105.31,10.09-188.83,14.91-188.83,14.91-50.48,62.82-128.33,122.28-195.39,166.98-71.93,47.98-131.46,78.98-131.46,78.98,4.42,6.57,8.62,13.53,12.61,20.82,10.93,19.92,20.28,42.19,28.25,65.09,31.93,91.67,41.78,193.29,41.78,193.29-138.53,143.01-326.34,81.67-344.91,75.13-.99-.35-1.49-.54-1.49-.54-21.14-141.86-66.15-230.44-229.15-373.46-163.01-143.02-506.9-52.58-629.74-121.89-35.24-19.89-62.17-48.39-82.66-78.92-31.97-47.6-48.26-100.16-55.97-132.71-4.57-19.33-6.12-31.6-6.12-31.6l3.61-12.91,25.16-89.96,592.48-338.11,408.9-54.48,970.57,333.69,102.97-4.06,58.63-2.31,51.89-2.04c58.48-64.26,144.08-78.82,203.69-65.94,16.49,3.55,31,9.22,42.39,16.51,8.19,5.25,14.17,11.04,18.26,17.25,14.61,22.11,5.49,49.31-11.55,74.44Z"></path>
  <path fill="red" d="M355.81,1716.93c0,24.36-11.74,45.97-29.88,59.48-31.97-47.6-48.26-100.16-55.97-132.71,3.82-.6,7.72-.92,11.7-.92,40.95,0,74.14,33.19,74.14,74.14Z"></path>
  <path fill="#15296f" d="M1325.38,2355.48l-56.4-4.27c-.99-.35-1.49-.54-1.49-.54-21.14-141.86-66.15-230.44-229.15-373.46-163.01-143.02-506.9-52.58-629.74-121.89-35.24-19.89-62.17-48.39-82.66-78.92-31.97-47.6-48.26-100.16-55.97-132.71-4.57-19.33-6.12-31.6-6.12-31.6l3.61-12.91c29.98-24.86,69.55-49.85,115.94-60.83,0,0-15.22,163.97,168.16,238.05,183.38,74.08,461.12-20.76,482.62-74.3l156.17-37.24s-25.47,312.43,353.51,352.83c10.93,19.92,20.28,42.19,28.25,65.09-84.93,8.76-261.6,53.28-246.73,272.69Z" opacity=".25"></path>
  <ellipse cx="1519.56" cy="2232.07" fill="red" rx="80.61" ry="56.08" transform="rotate(-14.56 1519.277 2231.765)"></ellipse>
  <ellipse cx="1519.99" cy="2200.69" fill="#fff" opacity=".5" rx="45.75" ry="15.77" transform="rotate(-6.15 1520.733 2201.7)"></ellipse>
  <path fill="#15296f" d="M1594.07,2202.95c-9.33,19.64-31.64,37.02-60.42,44.49-38.6,10.02-75.7-1.16-88.61-25.15-4.64,9.77-6.09,20.09-3.51,30.05,7.78,29.98,49.03,45.21,92.11,34.02,43.09-11.19,71.71-44.56,63.92-74.54-.81-3.12-2-6.07-3.51-8.86Z" opacity=".25"></path>
  <path fill="red" d="M2192.61,1719.69c-49.28,6.48-99.57,11.89-145.67,16.31,1.58-39.55,34.14-71.13,74.08-71.13,34.26,0,63.1,23.24,71.6,54.82Z"></path>
  <path fill="#15296f" d="M1386.94,2382.35c-.33,0-.66,0-.99,0-69.83-.18-120.76-19.18-122.89-19.99-4.23-1.6-7.27-5.37-7.93-9.85-19.57-131.31-58.23-219.55-225.04-365.91-92.91-81.52-249.47-84.44-387.61-87.01-100.36-1.87-187.04-3.49-240.03-33.38-33.44-18.87-62.67-46.74-86.9-82.84-32.37-48.19-49.27-100.99-57.75-136.79-4.68-19.76-6.29-32.39-6.36-32.92-.21-1.65-.08-3.33.36-4.93l28.76-102.87c.89-3.17,2.99-5.86,5.84-7.49l592.48-338.11c1.4-.8,2.94-1.32,4.54-1.53l408.9-54.48c1.92-.26,3.88-.06,5.71.57l968.35,332.93,206.01-8.12c35.19-36.81,83-60.96,135.24-68.19,46.93-6.49,92.99,1.18,123.21,20.52,18.53,11.86,28.95,27.3,30.97,45.88,3.94,36.34-26.68,75.41-53.06,101.79h0c-10.75,10.75-17.09,35.3-23.8,61.3-6.81,26.38-14.53,56.28-29.14,79.15-17.8,27.87-43.49,41.29-76.33,39.88-48.54-2.08-72.38,13.91-95.44,29.37-20.31,13.62-41.3,27.7-74.41,21.99-23.2-4-39.13-13.77-47.35-29.04-5.04-9.36-6.16-19.18-5.71-27.57-42.95,9.68-97.44,18.87-162.38,27.38-43.94,5.78-93.09,11.28-146.11,16.36-89.09,8.53-163.44,13.36-183.8,14.61-44.32,53.76-112.26,110.96-202.01,170.1-49.76,32.78-93.16,57.31-113.31,68.35,24.46,40.74,44.67,97.32,60.12,168.47,12.56,57.8,17.02,102.99,17.21,104.88.35,3.65-.91,7.27-3.46,9.9-34.62,35.74-75.14,62.07-120.44,78.26-35.86,12.82-74.71,19.31-115.49,19.31ZM1278.69,2341.25c15.63,4.91,56.85,16.09,108.2,16.1h.05c84.77,0,156.69-28.86,213.88-85.82-3.66-31.51-23.9-184.43-79.93-267.68-1.99-2.95-2.62-6.61-1.74-10.06.88-3.45,3.18-6.36,6.34-8.01,2.2-1.15,221.11-116.08,322.88-242.7,2.21-2.76,5.49-4.45,9.02-4.65.83-.05,84.52-4.93,188.37-14.88,52.72-5.05,101.58-10.52,145.24-16.26,74.16-9.72,134.34-20.29,178.87-31.42,4.62-1.15,9.5.42,12.58,4.06,3.08,3.64,3.82,8.71,1.91,13.08-.04.09-6.46,15.59.06,27.53,4.42,8.09,14.35,13.52,29.52,16.14,23.25,4.01,37.08-5.27,56.24-18.12,23.93-16.05,53.72-36.02,110.44-33.58,49.99,2.11,64.18-38.32,80.18-100.3,7.59-29.39,14.76-57.15,30.33-72.73h0c31.83-31.83,48.12-60.74,45.88-81.42-1.17-10.83-7.58-19.83-19.59-27.52-24.98-15.99-65.72-22.43-106.31-16.81-48.27,6.68-92.23,29.45-123.79,64.13-2.25,2.48-5.41,3.94-8.75,4.08l-213.49,8.41c-1.54.06-3.09-.17-4.56-.67l-967.78-332.73-403.56,53.76-585.9,334.35-26.67,95.39c.66,4.35,2.33,14.35,5.54,27.89,8,33.79,23.9,83.53,54.18,128.62,22.03,32.83,48.42,58.06,78.43,75,47.48,26.79,135.27,28.42,228.21,30.16,142.42,2.66,303.84,5.67,403.63,93.22,82.86,72.7,135.38,131.36,170.28,190.19,31.3,52.75,49.96,107.91,61.83,183.25ZM2699.94,1520.79h0,0Z"></path>
  <path fill="#fff" d="M1493.28,1031.93l-189.35,93.44-153.96-110.48,59.92-38.46,67.38-43.23c9.8-6.28,20.75-10.35,32.1-12.01,7.37-1.1,14.91-1.18,22.42-.2l126.89,16.57,34.6,94.36Z"></path>
  <path fill="#15296f" d="M1303.93,1137.87c-2.57,0-5.13-.79-7.29-2.34l-153.96-110.48c-3.37-2.41-5.32-6.34-5.21-10.48s2.26-7.96,5.74-10.2l127.3-81.69c18.62-11.95,40.95-16.95,62.89-14.09l126.89,16.57c4.62.6,8.51,3.72,10.12,8.09l34.6,94.36c2.2,6-.48,12.69-6.2,15.51l-189.35,93.44c-1.75.86-3.64,1.29-5.53,1.29ZM1172.22,1015.47l132.91,95.37,172.56-85.15-28.13-76.71-119.38-15.59c-16.1-2.1-32.49,1.57-46.15,10.34l-111.8,71.75Z"></path>
  <path fill="#fff" d="M551.56,1207.23l-.8,10.51-3.04,39.99-4.91,64.6-15.47,203.27v.05s-.23-.05-.68-.14c-9.82-1.98-123.86-23-217.19,43.82-20.74,14.84-40.45,34.02-57.77,58.71l-4.2-17.56-24.2-101.27s-213.77-19.02-210.77-209.05c.03-1.94.08-3.9.16-5.88.56-14.73,2.41-30.48,5.74-47.28,2.17-11.01,4.98-22.48,8.48-34.43,2.4-8.22,7.18-15.56,13.7-21.13,19.62-16.74,67.45-49.53,141.73-50.31l10.46,13.67,36.81-3.15,7.36-26.29,141.97,10.52,8.41,19.98,21.23,5.67,10.32-19.34,127.83,38.6,4.82,26.44Z"></path>
  <path fill="#15296f" d="M542.81,1322.34l-15.47,203.27h0c-45.32-5.73-127.19-5.69-217.87,43.74-20.32,11.06-41.08,24.62-61.96,41.15l-24.2-101.27s-213.77-19.02-210.77-209.05c17.79,39.89,55.86,75.25,136.82,58.63,27.17-5.58,54.52,8.88,64.87,34.62,18.99,47.23,55.02,110.6,110.1,104.37,95.25-10.76,168.13-92.4,218.49-175.46Z" opacity=".25"></path>
  <path fill="#15296f" d="M12.69,1306.8c-2.19,0-4.39-.58-6.35-1.73-3.96-2.33-6.32-6.65-6.14-11.24.59-15.69,2.6-32.26,5.97-49.24.69-3.46,2.81-6.48,5.84-8.29,69.63-41.73,261.93-128.23,542.86-30.36,5.35,1.86,8.78,7.1,8.35,12.75l-3.04,39.99c-.3,3.98-2.49,7.58-5.88,9.68-3.39,2.1-7.58,2.46-11.28.96-103.88-42.12-310.06-93.5-523.87,35.68-1.99,1.2-4.23,1.8-6.46,1.8ZM29.66,1254.91c-1.01,5.61-1.87,11.15-2.55,16.61,93.38-51.66,194.46-76.22,300.84-73.06,85.74,2.55,158.57,22.76,208.59,41.5l1.03-13.52c-259.79-87.34-438.35-11.87-507.9,28.48Z"></path>
  <path fill="#15296f" d="M251.7,1640.56c-.78,0-1.56-.07-2.34-.22-4.83-.92-8.67-4.59-9.81-9.37l-26.38-110.42c-18.24-2.69-61.17-11.1-103.99-34.5C57.17,1457.63-3.95,1401.21.2,1293.82c.59-15.68,2.6-32.25,5.97-49.23,2.24-11.37,5.18-23.32,8.74-35.51,3.08-10.56,9.16-19.94,17.59-27.13,22.93-19.56,72.86-52.5,149.71-53.3.04,0,.09,0,.13,0,3.89,0,7.56,1.81,9.93,4.9l6.3,8.23,21.35-1.83,5.03-17.95c1.6-5.73,7.02-9.54,12.96-9.1l141.97,10.52c4.68.35,8.78,3.29,10.6,7.62l6.04,14.33,5.73,1.53,5.65-10.59c2.8-5.26,8.93-7.81,14.64-6.08l127.83,38.6c4.49,1.36,7.84,5.11,8.68,9.73l4.82,26.44c.19,1.05.25,2.12.17,3.19l-24.22,318.43c-.27,3.61-2.1,6.92-5,9.08-2.9,2.16-6.59,2.96-10.13,2.19-.41-.09-43.34-9.12-97.17-1.36-71.09,10.24-126.8,43.46-165.57,98.73-2.37,3.37-6.21,5.32-10.23,5.32ZM176.28,1153.79c-65.43,2.34-107.82,30.34-127.55,47.18-4.71,4.02-8.1,9.25-9.82,15.12-3.35,11.47-6.12,22.69-8.21,33.35-3.12,15.72-4.97,30.96-5.52,45.34-2.92,75.7,29.15,132.55,95.32,168.98,50.71,27.92,103.39,32.98,103.92,33.03,5.34.49,9.79,4.33,11.04,9.54l22.35,93.54c20.65-23.98,45.05-43.53,72.79-58.28,28.25-15.02,59.96-25.09,94.24-29.93,39.53-5.58,73.07-2.92,91.07-.52l23.06-303.23-3.16-17.34-110.7-33.42-5.49,10.29c-2.73,5.13-8.64,7.69-14.25,6.19l-21.23-5.67c-3.73-1-6.8-3.66-8.3-7.23l-5.44-12.93-124.14-9.2-4.6,16.44c-1.41,5.02-5.78,8.64-10.97,9.08l-36.81,3.16c-4.25.36-8.4-1.47-10.99-4.86l-6.6-8.63Z"></path>
  <path fill="#fff" d="M1465,1010.09s-79.84-32.33-124.32,59.39c0,0,45.71,319.22,473.77,484.96,299.14,115.82,199.47-152.04,199.47-152.04,0,0-277.53,19.81-548.93-392.32Z"></path>
  <path fill="#15296f" d="M1465,1010.09s-79.84-32.33-124.32,59.39c0,0,45.71,319.22,473.77,484.96,299.14,115.82,199.47-152.04,199.47-152.04,0,0-277.53,19.81-548.93-392.32Z" opacity=".25"></path>
  <path fill="#15296f" d="M1939,1596c-34.4,0-77.81-10.06-129.06-29.9-98.89-38.29-185.71-87.99-258.06-147.71-58.04-47.92-106.94-102.35-145.33-161.79-65.67-101.65-77.75-181.97-78.24-185.34-.35-2.47.04-4.98,1.13-7.23,25.4-52.38,62.11-67.54,88.44-71.03,28.46-3.77,50.88,5.12,51.82,5.5,2.35.95,4.35,2.59,5.75,4.71,138.55,210.39,278.19,304.38,370.93,346.19,99.28,44.75,166,40.59,166.66,40.54,5.53-.4,10.67,2.91,12.61,8.11,1.78,4.8,43.09,118.1-11.26,171.73-17.43,17.2-42.43,26.03-74.31,26.22-.35,0-.71,0-1.07,0ZM1353.71,1071.39c3.17,16.61,19.21,87.49,74.61,172.84,58.28,89.77,173.36,214.43,390.65,298.56,48.35,18.72,88.72,28.21,120.01,28.21.3,0,.6,0,.9,0,25.13-.15,44.28-6.54,56.91-18.99,35.69-35.18,16-111.66,8.16-136.95-23.17-.3-85.14-5.13-168.85-42.87-61.1-27.54-121.35-67.08-179.06-117.52-70.93-62-138.25-140.75-200.13-234.14-14.33-4.34-68.92-15.61-103.21,50.86Z"></path>
  <path fill="#fff" d="M1602.02,1985.62c-47.32,63.1-167.21,88.34-308.03,0-137.5-86.26-172.58-200.87-122.1-276.58,44.32-66.46,103.59-98.06,172.54-96.91,56.49.93,119.49,23.81,186.07,67.46,32.99,21.63,57.6,44.51,75.41,67.78,67.96,88.75,37.19,183.46-3.9,238.25Z"></path>
  <path fill="#15296f" d="M1602.02,1985.62c-47.32,63.1-167.21,88.34-308.03,0-137.5-86.26-172.58-200.87-122.1-276.58,44.32-66.46,103.59-98.06,172.54-96.91l30.95,5.35s-100.01,32.85-139.4,116.63l29.6-32s-102.67,187.19,148.6,265.26c209.38,65.05,216.75-196.81,156.8-243.08l34.93,23.08c67.96,88.75,37.19,183.46-3.9,238.25Z" opacity=".25"></path>
  <path fill="red" d="M1579.51,1943.68c-17.42,29.81-53.28,41.59-80.09,26.31-1.42-.82-2.8-1.69-4.11-2.62-23.44-16.54-29.37-50.82-12.87-79.05,16.63-28.46,50.06-40.49,76.38-28.23,1.25.58,2.49,1.22,3.72,1.92,26.81,15.29,34.41,51.86,16.98,81.67Z"></path>
  <path fill="#fff" d="M1475.07,1912.51c16.63-28.46,50.06-40.49,76.38-28.23,1.25.58,2.49,1.22,3.72,1.92,18.98,10.82,28.32,32.31,25.97,54.52,15.27-29.23,7.32-63.92-18.61-78.71-1.22-.7-2.46-1.34-3.72-1.92-26.32-12.26-59.75-.23-76.38,28.23-5.1,8.72-8.05,18.01-9.01,27.18.52-1,1.07-2,1.65-2.99Z" opacity=".5"></path>
  <path fill="red" d="M1482.44,1888.32c-16.5,28.23-10.57,62.51,12.87,79.05l-39.52-23.47c-24.53-14.56-34.69-44.77-23.5-70.78,3.65-8.48,8.18-15.95,13.6-22.4,17.51-20.81,47.63-26.2,71.61-13.14l41.31,22.51c-26.32-12.26-59.75-.23-76.38,28.23Z"></path>
  <path fill="#15296f" d="M1482.44,1888.32c-16.5,28.23-10.57,62.51,12.87,79.05l-39.52-23.47c-24.53-14.56-34.69-44.77-23.5-70.78,3.65-8.48,8.18-15.95,13.6-22.4,17.51-20.81,47.63-26.2,71.61-13.14l41.31,22.51c-26.32-12.26-59.75-.23-76.38,28.23Z" opacity=".25"></path>
  <path fill="#15296f" d="M1469.64,2055.3c-57.72,0-120.41-20.27-182.29-59.09-80.21-50.32-132.1-114.04-146.13-179.42-8.95-41.71-1.94-81.37,20.27-114.68l10.4,6.93-10.4-6.93c20.87-31.3,45.45-55.84,73.07-72.94,27.32-16.91,57.78-26.67,90.53-29.01,64.05-4.57,135.47,18.64,212.27,68.99,67.76,44.43,107.53,97.79,118.18,158.61,13.76,78.53-25.85,141.81-43.53,165.38-27.03,36.04-73.77,58.56-128.22,61.77-4.68.28-9.41.41-14.17.41ZM1341.1,1624.58c-4.79,0-9.53.17-14.23.5-58.52,4.18-107.16,34.76-144.58,90.89-18.38,27.56-24.13,60.61-16.63,95.57,12.59,58.73,60.53,116.79,134.97,163.49,62.07,38.94,120.49,55.31,169.61,55.32,54.64,0,97.79-20.25,121.78-52.23,15.72-20.96,50.98-77.15,38.9-146.06-9.42-53.74-45.51-101.53-107.27-142.02-66.32-43.48-127.65-65.46-182.55-65.46Z"></path>
  <path fill="#e55c00" d="M1284.91,1638.54c-38.43,25.06-98.1,58.57-171.99,82.46-14.87,4.82-30.32,9.23-46.29,13.11-112.38,27.32-250.47,28.04-394.27-49.26-88.08-47.35-147.71-107.49-188.06-165.74-13.79-19.91-25.31-39.59-34.96-58.47-19.09-37.39-30.75-71.61-37.82-98.1-4.88-18.29-3.55-37.21,3.09-54.1,3.98-10.13,9.86-19.53,17.48-27.63,3.09-3.31,6.49-6.4,10.16-9.24,23.68-18.33,57.43-40.75,100.84-60.56,24.85-11.35,52.87-21.83,83.96-30.21,103.68-27.89,241.69-32.29,411.27,33.44,68.04,26.38,120.4,62.85,160.68,102.98,13.67,13.62,25.95,27.67,36.98,41.88.9,1.16,1.8,2.32,2.67,3.49,11.13,14.64,20.95,29.43,29.6,44.1,29.94,50.7,46.07,100.01,54.72,136.64,8.64,36.61-6.56,74.68-38.07,95.22Z"></path>
  <path fill="#fff" d="M1268.27,1406.68l-6.65,15.51c-415.59-432.5-838.4-116.57-838.4-116.57l8.88-24.81c3.09-3.31,6.49-6.4,10.16-9.24,23.68-18.33,57.43-40.75,100.84-60.56,24.85-11.35,52.87-21.83,83.96-30.21,103.68-27.89,241.69-32.29,411.27,33.44,68.04,26.38,120.4,62.85,160.68,102.98,13.67,13.62,25.95,27.67,36.98,41.88.9,1.16,1.8,2.32,2.67,3.49,11.13,14.64,20.95,29.43,29.6,44.1Z" opacity=".5"></path>
  <path fill="#15296f" d="M514,1378.94c9.67,10.66,20.48,20.58,31.43,29.94,10.73,9.33,23.31,19.06,34.89,27.42,61.53,44.79,131.42,78.33,203.2,103.31,47.59,16.24,96.91,28.78,146.44,37.82,0,0,5.52,1.05,5.52,1.05,0,0,2.76.53,2.76.53,4.18.66,10.16,1.58,13.88,2.17,30.27,5.16,64.4,8.85,94.95,11.57,0,0,2.81.27,2.81.27,0,0,2.81.18,2.81.18,12.74.69,32.29,2.29,45.04,2.6,11.34.35,22.57,1.22,33.86,2.77,15.44,1.82,30.58,4.23,45.57,9.51-7.5,3.04-15.08,5.07-22.68,6.85-29.6,7.35-61.63,6.12-91.9,5.02-2.97-.11-11.9-.37-14.39-.46-18.19-1.27-36.45-2.03-54.58-4.1-109.23-10.42-218-37.47-316.74-85.92-29.42-14.5-58.38-31.12-85.42-49.69-15.61-10.56-32.12-23-46.52-35.16-14.97-12.58-29.37-26.04-42.45-40.59-2.73-3.09-5.37-6.11-7.97-9.44-4.24-5.45-3.25-13.3,2.19-17.53,5.36-4.18,13.04-3.24,17.31,1.89h0Z"></path>
  <path fill="#fff" d="M1112.93 1721c-14.87 4.82-30.32 9.23-46.29 13.11-26.52-41.09-48.74-96.84-45.13-165.99 8.21-156.95 121.4-226.12 177.51-250.9 13.67 13.62 25.95 27.67 36.98 41.88-232.77 101.42-157.06 296.24-123.06 361.9ZM627.07 1180.79c-113.12 107.26-139.81 244.35-142.76 338.32-13.79-19.91-25.31-39.59-34.96-58.47 1.96-110.12 50.24-195.09 93.75-249.63 24.85-11.35 52.87-21.83 83.96-30.21ZM876.38 1500.81s-66.25 153.54 3.15 163.01 26.29-82.66 63.1-146.49c36.81-63.84-44.17-72.25-66.25-16.51ZM721.45 1453.14s-84.88 144.09-17.19 162.13 36.39-78.74 80.87-137.49c44.48-58.75-34.82-77.19-63.68-24.64ZM608.06 1386.55s-78.37 110.73-24.87 129.89c53.49 19.17 34.75-61.18 74.68-105.66 39.93-44.48-22.92-64.76-49.81-24.23Z"></path>
  <path fill="#15296f" d="M1284.91,1638.54c-38.43,25.06-98.1,58.57-171.99,82.46-14.87,4.82-30.32,9.23-46.29,13.11-112.38,27.32-250.47,28.04-394.27-49.26-88.08-47.35-147.71-107.49-188.06-165.74-13.79-19.91-25.31-39.59-34.96-58.47-19.09-37.39-30.75-71.61-37.82-98.1-4.88-18.29-3.55-37.21,3.09-54.1l8.6-2.82s139.24,206.23,406.36,249.35c267.12,43.12,504.79,10.52,421.71-157.75-8.7-17.6-12.6-28.76-12.63-34.64,49.59,65.19,73.17,133.51,84.32,180.74,8.64,36.61-6.56,74.68-38.07,95.22Z" opacity=".25"></path>
  <path fill="#15296f" d="M888.84 1677c-3.46 0-7.12-.26-10.99-.79-15.14-2.06-26.93-9.87-34.1-22.58-11.43-20.24-11.14-53.33.85-98.34 8.26-30.99 19.13-56.69 20.23-59.26 9.86-24.71 31.69-42.19 55.65-44.54 16.45-1.62 30.81 4.46 38.42 16.25 5.27 8.18 11.58 26.31-5.43 55.81-13.54 23.48-15.14 52.4-16.56 77.92-1.57 28.24-2.92 52.63-19.55 66.35-7.43 6.13-16.82 9.16-28.51 9.16ZM887.86 1505.76c-.17.41-11.17 26.09-19.18 56.25-9.89 37.25-11.01 65.43-3.16 79.33 3.32 5.88 8.31 9.08 15.7 10.09 9.53 1.3 16.33.33 20.22-2.88 8.19-6.76 9.31-27.01 10.5-48.45 1.49-26.91 3.35-60.39 19.86-89.03 7.47-12.96 9.75-24.09 6.08-29.78-2.43-3.76-8.03-5.61-14.97-4.92-11.24 1.1-27.12 9.37-34.92 29.04-.05.12-.09.23-.14.35h0ZM876.38 1500.81h.01-.01ZM719.27 1629.99c-5.57 0-11.63-.88-18.23-2.64-14.76-3.93-25.49-13.15-31.02-26.65-8.81-21.51-4.41-54.3 13.1-97.46 12.05-29.71 26.05-53.86 27.46-56.27 12.86-23.29 36.68-37.92 60.77-37.25 16.52.45 30.02 8.27 36.09 20.92 4.21 8.77 8.21 27.54-12.35 54.7-16.36 21.61-21.56 50.11-26.14 75.25-5.08 27.82-9.46 51.85-27.67 63.4-6.33 4.01-13.62 6.01-22.01 6.01ZM732.22 1459.49c-.22.38-14.33 24.49-26.04 53.42-14.46 35.73-19.08 63.54-13.02 78.32 2.56 6.24 7.11 10.04 14.32 11.97 9.29 2.48 16.16 2.37 20.42-.33 8.97-5.68 12.61-25.64 16.46-46.77 4.84-26.51 10.85-59.5 30.81-85.85 9.03-11.93 12.67-22.69 9.74-28.79-1.94-4.04-7.26-6.56-14.24-6.75-11.31-.35-28.08 5.91-38.26 24.46-.06.11-.12.22-.19.33h0ZM721.45 1453.14h.01-.01ZM597.69 1531.87c-5.71 0-11.92-1.22-18.72-3.66-12.39-4.44-20.94-13.14-24.73-25.16-5.86-18.59-.03-45.4 17.34-79.68 11.77-23.24 24.74-41.87 26.17-43.9 12.46-18.67 33.58-29.27 53.85-27.01 14.22 1.58 25.33 9.38 29.7 20.86 3 7.88 5.16 24.31-14.14 45.8-14.31 15.94-20.37 38.34-25.71 58.1-5.88 21.74-11.43 42.27-27.85 50.85-4.84 2.53-10.12 3.79-15.92 3.79ZM618.26 1393.77h0c-19.32 27.34-47.32 79.15-40.18 101.78 1.43 4.52 4.3 7.33 9.31 9.13 4.61 1.65 10.88 3.2 14.64 1.24 6.72-3.51 11.07-19.63 15.29-35.21 5.77-21.34 12.95-47.91 31.24-68.28 8.85-9.85 10.58-17.04 9.38-20.19-.96-2.51-4.45-4.4-9.11-4.92-8.44-.94-21.46 2.73-30.36 16.14-.07.1-.14.21-.21.31ZM608.06 1386.55h0 0Z"></path>
  <path fill="#15296f" d="M929.69,1763.4c-16.63,0-33.15-.75-49.55-2.24-73.69-6.72-145.6-28.69-213.7-65.3-79.21-42.58-143.95-99.65-192.41-169.63-13.18-19.03-25.23-39.18-35.81-59.9-16.59-32.49-29.63-66.32-38.76-100.56-10.33-38.71,3.47-79.56,35.16-104.08,31.14-24.1,65.9-44.98,103.3-62.05,27.52-12.57,56.42-22.97,85.9-30.91,58.91-15.85,121.09-22.17,184.84-18.8,75.57,4,154.37,21.71,234.2,52.66,63.89,24.76,119.4,60.35,164.99,105.78,13.49,13.44,26.28,27.93,38.03,43.07,53.05,68.34,77.83,140.51,89.28,189.02,9.82,41.6-7.62,85.23-43.41,108.56h0c-37.88,24.71-98.99,59.31-174.97,83.88-15.6,5.05-31.48,9.55-47.19,13.37-46.93,11.41-93.8,17.15-139.89,17.15ZM775.47,1173.96c-49.83,0-98.27,6.3-145.16,18.91-28.15,7.59-55.75,17.52-82.02,29.51-35.66,16.28-68.76,36.15-98.38,59.08-23.71,18.34-34.03,48.9-26.3,77.86,8.68,32.54,21.09,64.72,36.87,95.64,10.08,19.73,21.55,38.92,34.1,57.04,46.19,66.7,108,121.16,183.7,161.85,120.55,64.8,250.22,80.99,385.4,48.12,15.11-3.67,30.38-8,45.4-12.86,73.37-23.72,132.4-57.16,169.01-81.04,0,0,0,0,0,0,26.99-17.59,40.14-50.49,32.73-81.87-10.88-46.09-34.41-114.64-84.7-179.44-11.1-14.31-23.18-28-35.92-40.69-43.13-42.97-95.74-76.67-156.38-100.18-89.26-34.6-175.69-51.94-258.35-51.94Z"></path>
  <path fill="#fff" d="M1375.91,1214.76l-65.74,51.13-9.98,7.76c-184.04-11.57-261.86-72.56-261.86-72.56,0,0-69.41,72.56-21.19,155.12,42.9,73.45-32.44,57.31-77.66,81.5-45.22,24.19-36.81,67.31-52.58,109.37s-157.75,73.62-245.03-35.76c-73.14-91.65-36.69-174.41,2.85-225.02,25.28-32.35,51.84-51.56,51.84-51.56,17.15-87.64,49.21-157.19,94.82-206.9,41.74-45.49,94.84-74.38,158.25-85.31,58.55-10.11,125.9-4.89,201.24,16.68,246.09,70.46,225.05,255.55,225.05,255.55Z"></path>
  <path fill="#15296f" d="M1309.28,1288.85c-14.75,22.13-39.26,52.08-72.69,69.91-26.88-33.84-85.83-93.94-200.33-155.34,1.3-1.54,2.07-2.33,2.07-2.33,0,0,77.82,61,261.86,72.56l9.98-7.76c3.83,6.87,3.98,15.64-.89,22.96Z" opacity=".25"></path>
  <ellipse cx="2124.84" cy="744.32" fill="#fff" rx="725.68" ry="732.8" transform="rotate(-24.35 2125.046 744.334)"></ellipse>
  <path fill="#15296f" d="M2507.08,124.67s0,0,0,0c255.15,200.9,202.22,343.19,16.09,269.07-186.13-74.12-601.71,74.42-601.71,74.42,0,0-234.81,135.11-298.77-60.15-48.55-148.23,151.86-291.68,251.22-352.19-214.75,78.12-388.81,257.08-451.79,496.23-102.66,389.85,128.74,791.96,516.84,898.15,388.1,106.19,785.95-123.76,888.61-513.6,83.86-318.45-55.2-645.09-320.49-811.92Z" opacity=".25"></path>
  <path fill="#15296f" d="M2130.33,1488.64c-65.3,0-130.45-8.81-194.68-26.38-96.49-26.4-185.09-70.99-263.35-132.54-75.58-59.44-138.37-132.11-186.64-215.98-48.26-83.87-79.57-174.74-93.06-270.06-13.96-98.71-8.1-197.89,17.42-294.8,25.56-97.04,69.29-186,130-264.4,58.64-75.73,130.54-138.44,213.71-186.41,82.96-47.85,172.97-78.6,267.52-91.42,97.89-13.27,196.39-6.62,292.77,19.75,96.49,26.4,185.09,70.99,263.35,132.54,75.58,59.44,138.37,132.11,186.64,215.98,48.26,83.87,79.57,174.74,93.06,270.06,13.96,98.71,8.1,197.89-17.42,294.8-25.55,97.04-69.29,186-130,264.4-58.64,75.73-130.54,138.44-213.71,186.41-82.96,47.85-172.97,78.6-267.52,91.42-32.66,4.43-65.4,6.64-98.09,6.64ZM2118.39,24.91c-122.55,0-243.33,32.03-352.16,94.8-165.25,95.3-283.16,249.97-332.02,435.52-100.76,382.62,127.15,778.69,508.05,882.91,62.55,17.11,126.03,25.58,189.04,25.58,122.55,0,243.33-32.03,352.16-94.8,165.25-95.3,283.16-249.97,332.02-435.52,100.76-382.62-127.15-778.69-508.05-882.91-62.55-17.11-126.03-25.58-189.04-25.58Z"></path>
  <path fill="red" d="M2895.94,825.75c-7.35,280.62-214.18,512.9-602.27,479.3-332.82-28.82-597.22-265.01-589.87-545.62,7.35-280.62,283.36-473.64,616.49-470.59,465.85,4.27,583,256.29,575.64,536.91Z"></path>
  <path fill="#15296f" d="M2309.72,1207.32c-333.72-28.93-598.95-265.28-592.25-546.21-7.76,30.07-12.24,61.48-13.08,94.08-7.33,281.35,258.13,518.21,592.23,547.17,382.69,33.17,589.76-190.91,603.91-465.53-52.53,229.02-253.42,399.74-590.81,370.49Z" opacity=".25"></path>
  <path fill="#fff" d="M2324.06,316.94c346.95,3.3,501.72,142.21,555.76,327.94-46.05-199.74-197.47-352.72-559.53-356.04-333.14-3.05-609.14,189.97-616.49,470.59-.21,8.11-.19,16.17.05,24.2,9.66-278.63,286.42-469.86,620.22-466.69Z" opacity=".5"></path>
  <path fill="#15296f" d="M2861.7,824.43c-6.51,248.64-195.1,454.12-549.28,423.71-303.74-26.08-545.19-235.81-538.68-484.45,6.51-248.64,258.26-419.22,562.27-415.97,425.13,4.55,532.2,228.06,525.69,476.71Z"></path>
  <path fill="#15296f" d="M2366.76,1320.78c-24.16,0-48.9-1.09-74.17-3.28-164.82-14.27-317.48-78.77-429.86-181.62-114.17-104.49-175.06-238.3-171.43-376.79,1.84-70.4,20.07-137.05,54.16-198.11,32.59-58.36,78.67-109.92,136.95-153.26,116-86.25,271.59-132.89,437.99-131.38,108.07.99,202.59,15.49,280.93,43.08,73.01,25.72,133.89,63.48,180.94,112.22,46.9,48.59,81.18,109.24,101.89,180.28,18.19,62.4,26.36,134.45,24.27,214.15l-12.5-.33,12.5.33c-3.83,146.13-60.63,275.46-159.93,364.18-96.26,85.99-227.18,130.52-381.73,130.52ZM2312.36,301.3c-333.55,0-589.19,196.05-596.06,458.45-7.08,270.09,247.01,504.15,578.45,532.84,24.53,2.12,48.55,3.18,71.97,3.18,148.34,0,273.55-42.36,365.13-124.17,94.11-84.07,147.95-207.02,151.6-346.19,4.28-163.43-35.8-290.07-119.15-376.42-92.79-96.14-242.22-145.82-444.11-147.67-2.59-.02-5.24-.04-7.82-.04Z"></path>
  <path fill="#fff" d="M2520.73,437.25c9.62.83,19.91,4.43,28.02,6.4,150.69,36.69,250.44,188.12,256.28,334.66.81,20.3-12.42,62.7-39.99,36.4-60.89-58.07-180.42-182.8-269.32-342.98-6.25-11.27-2.53-25.47,8.44-31.71,4.79-2.73,10.55-3.29,16.57-2.77Z" opacity=".5"></path>
  <path fill="red" d="M1345.88,657.07c-46.41,109.07-10.22,238.43,80.71,292.18,1.65.98,3.32,1.92,5,2.84,94.59,51.89,209.61,3.93,256.87-107.12,16.01-37.63,22.2-77.66,19.69-116.17-.1-1.51-.21-3.04-.34-4.55h-.01c-6.08-73.41-43.77-140.69-105.05-174.29-1.68-.91-3.37-1.82-5.06-2.67-44.86-22.75-93.9-23.54-137.91-6.16-26.66,10.52-51.47,27.69-72.39,50.68-16.64,18.23-30.81,40.13-41.51,65.27Z"></path>
  <path fill="#fff" d="M1387.39,591.8c10.59-2.5,24.29-7.3,41.65-14.91,169-74.15,262.35,139.31,262.35,139.31l16.76,12.61c-.1-1.51-.21-3.04-.34-4.55h-.01c-6.08-73.41-43.77-140.69-105.05-174.29-1.68-.91-3.37-1.82-5.06-2.67-44.86-22.75-93.9-23.54-137.91-6.16-26.66,10.52-51.47,27.69-72.39,50.68Z" opacity=".5"></path>
  <path fill="#15296f" d="M1512.09,985.5c-29.82,0-59.34-7.54-86.52-22.45-2-1.1-3.76-2.1-5.38-3.06-46.81-27.67-81.45-74.82-97.52-132.75-15.98-57.62-11.83-119.8,11.7-175.07,12.83-30.13,30.53-56.38,52.62-78.01,21.48-21.03,46-36.66,72.88-46.46,47.59-17.35,98.54-14.35,143.45,8.42,1.63.82,3.41,1.76,5.43,2.87,48.68,26.7,84.92,73.86,102.04,132.8,16.99,58.48,13.14,121.73-10.85,178.07-25.71,60.4-72.51,106.15-128.4,125.5-19.54,6.77-39.57,10.12-59.46,10.12ZM1522.2,541.59c-18.02,0-36.15,3.19-53.75,9.6-48.08,17.52-88.56,57.9-111.06,110.77-43.48,102.14-9.58,226.19,75.56,276.52,1.39.83,2.9,1.69,4.65,2.64,39.04,21.41,83.71,25.19,125.78,10.62,49.23-17.05,90.63-57.75,113.58-111.67,44.75-105.13,8.76-230.36-80.21-279.16-1.75-.96-3.29-1.77-4.68-2.47-22.1-11.21-45.89-16.85-69.86-16.85Z"></path>
  <path fill="#15296f" d="M1563.3,593.44c42.3,13.77,72.43,53.64,84.79,95.4,19.43,64.16,3.56,138.21-40.96,188.27-14.59,16.45-32.6,30.18-52.74,38.96-8.01,3.42-16.27,6.1-24.68,7.72,88.35-49.46,123.42-165.67,88.54-258.01-11.18-29.03-29.69-53.96-54.96-72.33h0Z"></path>
  <path fill="#15296f" d="M1345.88,657.07c-46.41,109.07-10.22,238.43,80.71,292.18,1.65.98,3.32,1.92,5,2.84,94.59,51.89,209.61,3.93,256.87-107.12,16.64-39.11,22.67-80.82,19.35-120.73h-.01s-25.63,109.93-76.44,90.26c0,0,31.59-68.42,9.78-105.8,0,0-45.69,174.19-173.75,106.87-128.07-67.32-68.69-222.45-13.25-265.85,5-3.92,6.7-6.74,5.64-8.6-47.83,18.87-89.72,59.15-113.9,115.95Z" opacity=".25"></path>
  <path fill="#15296f" d="M1300.2,1273.66c-20,5.69-40.73,6.84-61.36,5.82-10.07-.49-24.74-2.58-34.75-3.79-49.24-7.54-98.6-20.46-142.67-44.41-9.26-4.99-18.39-10.7-26.82-17.11-1.17-.94-2.85-2.26-3.97-3.23,0,0,16.74-1.2,16.74-1.2-13.04,14.8-23.06,32.43-29.16,51.19-9.34,28.52-6.94,58.21,7.4,84.69,8.68,15.7,19.79,34.58,16,53.84-4.51,22.66-29.11,30.04-48.09,34.53-20.14,5.05-39.63,7.89-56.31,19.86-16.05,11.24-22.1,28.56-26.14,47.75-3.41,15.93-6.43,34.01-12.51,49.97-4.88,12.64-15.76,21.87-27.09,28.43-56.09,30.39-130.49,21.48-183.59-11.18-39.11-24.17-70.09-61.04-87.92-103.4-37.98-90.51,15.06-181.58,85.61-238.02.92-.72,2.7-2.09,3.64-2.78,0,0-4.94,7.73-4.94,7.73,7.29-41.21,18.55-82.12,35.82-121.01,24.54-55.3,61.97-105.63,112.71-139.5,101.61-68.54,232.91-57.58,344.08-20.28,73.87,25.31,142.86,68.65,181.4,138.69,18.06,32.85,31.1,71.35,22.84,109-1.18,5.29-2.73,10.57-5.22,15.52-5.78-19.07-11.29-39.51-17.52-58.21-4.17-12.73-8.42-25.35-14.18-37.43-.92-1.92-3.9-7.64-4.94-9.73-3.79-6.91-7.96-13.59-12.32-20.16-1.83-2.55-5.61-7.65-7.51-10.28-1.6-1.93-5.39-6.57-6.93-8.44-.56-.73-1.75-2.09-2.39-2.75-32.46-37.02-76.04-62.49-121.68-80.23-103.83-37.6-230.41-54.7-329.13,4.49-66.2,39.36-108.51,108.04-132.51,179.81-5.67,16.57-10.45,33.58-14.59,50.59,0,0-3.4,14.72-3.4,14.72,0,0-.14.62-.14.62-.69,3-2.47,5.48-4.81,7.12-54.38,42.72-102.62,110.33-89.25,182.44,8.73,44.46,37.73,84.56,73.72,111.7,36.57,27.06,83.93,39.32,128.99,32.74,16.8-2.59,33.52-7.34,47.33-17.11,4.12-3.02,7.91-6.52,10.12-10.96,2.09-5.2,3.65-10.56,5.12-16.15,5.48-21.08,7.53-44.93,17.92-65.12,8.48-17.08,23.62-30.39,40.83-38.25,15.5-7.18,33.25-10.7,48.97-14.49,8.59-2.34,27.75-6.12,29.53-15.31,1.68-11.58-7.87-26.23-13.59-37.01-18.32-33.93-20.64-72-7.76-108.26,5.39-15.13,12.94-29.47,22.22-42.56,2.99-4.18,6.17-8.32,9.58-12.2.54-.61.98-1.11,1.71-1.89,3.69-4.28,9.84-5.2,14.56-2.47,7.21,4.29,15.41,8.7,23,12.37,37.35,18.07,77.27,30.58,117.5,41.03,9.02,2.05,23.72,5.76,32.82,7.49,15.94,3.41,34.07,6.55,49.7,11.25,11.08,2.99,22.19,6.28,33.32,11.53h0Z"></path>
  <path fill="#15296f" d="m1027.68 1194.55 47.46-53.4s-26.16 66.48-26.16 66.48c-2.57 6.52-9.94 9.73-16.46 7.17-8.13-3.01-10.68-13.91-4.84-20.25h0ZM690.19 1223.98l75.77-30.25-63.05 51.78c-5.4 4.43-13.37 3.65-17.8-1.75-5.46-6.41-2.74-16.78 5.09-19.78h0Z"></path>
  <path fill="red" d="M952.1,963.94c0,51.4-41.67,93.07-93.07,93.07-26.66,0-50.7-11.21-67.66-29.17,41.74-45.49,94.84-74.38,158.25-85.31,1.63,6.88,2.48,14.04,2.48,21.41Z"></path>
  <path fill="#fff" d="M951.78,971.66c.21-2.54.32-5.12.32-7.71,0-7.37-.85-14.53-2.48-21.41-63.41,10.93-116.51,39.82-158.25,85.31,6.3,6.67,13.57,12.4,21.59,16.98,37.94-37.39,84.44-62.08,138.83-73.16Z" opacity=".5"></path>
  <path fill="#15296f" d="M859.03 1069.52c-28.92 0-56.89-12.06-76.75-33.09-4.5-4.77-4.56-12.2-.12-17.03 43.88-47.83 99.51-77.83 165.34-89.18 6.5-1.12 12.76 3.01 14.29 9.44 1.87 7.89 2.82 16.07 2.82 24.29 0 58.21-47.36 105.57-105.57 105.57ZM809.21 1027.3c14.12 11.18 31.43 17.22 49.81 17.22 44.43 0 80.57-36.14 80.57-80.57 0-2.24-.09-4.47-.27-6.68-50.69 10.96-94.36 34.47-130.11 70.04ZM1066.63 1746.61c-4.18 0-8.16-2.1-10.5-5.72-34.48-53.42-50.33-111.77-47.11-173.42 3.73-71.3 28.64-132.79 74.02-182.76 37.51-41.3 81.02-65.71 110.92-78.92 4.71-2.08 10.22-1.06 13.87 2.58 13.49 13.44 26.29 27.93 38.03 43.07 2.36 3.05 3.19 7.02 2.23 10.75s-3.58 6.83-7.12 8.37c-75.1 32.72-123.48 78.33-143.79 135.54-28.83 81.22 4.44 165.9 26.83 209.16 1.69 3.26 1.86 7.1.46 10.5-1.4 3.4-4.22 6.01-7.71 7.14-15.6 5.05-31.48 9.55-47.19 13.37-.98.24-1.97.35-2.95.35ZM1196.25 1332.23c-60.83 28.78-154.89 95.79-162.26 236.55-2.79 53.41 10.13 104.17 38.42 151 7.61-1.97 15.23-4.09 22.83-6.36-9.91-21.05-21.07-49.54-27.86-81.99-10.14-48.46-8.03-93.44 6.25-133.69 21.31-60.04 69.23-108.2 142.53-143.32-6.39-7.63-13.05-15.05-19.92-22.18ZM484.3 1531.61c-4.03 0-7.9-1.95-10.28-5.38-13.18-19.03-25.23-39.19-35.81-59.9-.93-1.83-1.4-3.86-1.37-5.91 2.05-115.21 53.6-203.46 96.48-257.2 1.22-1.53 2.79-2.76 4.58-3.57 27.52-12.57 56.42-22.97 85.9-30.91 5.52-1.49 11.36.96 14.16 5.96s1.85 11.25-2.3 15.18c-109.47 103.8-135.94 236.55-138.87 329.64-.17 5.39-3.78 10.07-8.95 11.6-1.17.35-2.36.51-3.54.51ZM461.91 1457.74c3.92 7.55 8.04 15.02 12.35 22.38 7.92-82.38 35.19-184.15 110.41-272.72-11.41 4.21-22.64 8.79-33.65 13.75-39.69 50.42-86.36 131.58-89.1 236.59ZM1280.2 1989.71c-1.94 0-3.92-.46-5.76-1.41-6.12-3.19-8.5-10.74-5.32-16.86l48.02-92.27-27.23-15.13c-2.98-1.65-5.15-4.45-6.02-7.74s-.36-6.79 1.42-9.7l62.36-102.2c3.48-5.7 10.83-7.66 16.69-4.45l28.79 15.81 66.64-113.02c3.51-5.95 11.17-7.93 17.12-4.42 5.95 3.51 7.93 11.17 4.42 17.12l-72.8 123.46c-3.43 5.82-10.87 7.86-16.78 4.61l-28.95-15.9-49.36 80.89 26.48 14.71c5.92 3.29 8.14 10.69 5.02 16.7l-53.63 103.06c-2.23 4.28-6.59 6.73-11.1 6.73Z"></path>
  <path fill="#15296f" d="M1414.19 1664.49c-41.23-5.26-84.6-1.09-119.82 21.87-1.92 1.39-3.89 2.77-5.84 4.11-2.19 1.62-4.54 3.62-6.7 5.3-2.12 1.9-4.18 3.88-6.31 5.76-1.35 1.4-4.64 4.82-5.95 6.16-1.24 1.42-4.3 5.05-5.57 6.53-1.72 2.15-3.51 4.67-5.2 6.88-1.21 1.51-3.72 5.54-4.84 7.19 0 0-1.6 2.41-1.6 2.41l-1.44 2.53c-10.88 18.39-19.26 38.55-23.59 59.5-5.25 25.17-4.33 50.88 2.4 75.99 4.2 15.56 10.33 30.91 18.94 45.4-26.11-23.13-41.01-57.06-44.35-91.73-2.55-28.96 3.66-58.07 15.81-84.33 3.25-6.89 7.08-13.99 11.01-20.52 1.17-1.76 4.39-6.56 5.61-8.38 1-1.64 2.92-3.82 4.07-5.39 1.4-1.76 2.72-3.59 4.21-5.29 2.68-2.84 6.38-7.33 9.3-9.89 8.43-8.33 18.24-15.54 28.52-21.39 3.37-1.69 7.18-3.81 10.66-5.24 5.89-2.67 12.81-5.06 19.06-6.74 33.17-8.9 70.72-5.5 101.64 9.27h0ZM1524.87 1989.14c-10.92 0-21.78-2.67-31.65-8.29-1.89-1.09-3.58-2.16-5.18-3.31-14.08-9.93-23.5-25.31-26.48-43.27-2.92-17.59.67-36.15 10.09-52.26 9.48-16.22 24.06-28.58 41.04-34.81 17.34-6.36 35.6-5.8 51.4 1.56 1.55.72 3.12 1.53 4.64 2.39 14.86 8.47 25.58 22.6 30.18 39.77 5.17 19.32 2.03 40.84-8.62 59.06h0c-14.55 24.89-40.17 39.16-65.43 39.16ZM1536.97 1867.83c-16.68 0-33.9 9.95-43.74 26.8-12.99 22.22-8.92 49.69 9.28 62.53.99.7 1.99 1.34 3.13 2 20.81 11.86 49.12 2.1 63.08-21.78 0 0 0 0 0 0 7.3-12.49 9.51-27.06 6.05-39.97-2.86-10.67-9.4-19.38-18.43-24.53-.9-.52-1.83-.99-2.76-1.42-5.26-2.45-10.9-3.61-16.6-3.61Z"></path>
  <path fill="#15296f" d="M1495.29,1979.87c-2.17,0-4.37-.57-6.37-1.75l-39.52-23.47c-29.88-17.74-42.17-54.91-28.6-86.47,4.11-9.57,9.33-18.15,15.52-25.5,21.25-25.25,57.91-32.01,87.16-16.07l41.32,22.51c5.93,3.23,8.22,10.58,5.18,16.61-3.04,6.03-10.32,8.55-16.44,5.7-20.6-9.6-47.09.6-60.31,23.2h0c-12.99,22.22-8.92,49.69,9.28,62.53,5.49,3.87,6.93,11.38,3.28,17.01-2.39,3.68-6.4,5.7-10.5,5.7ZM1489.7,1843c-12.93,0-25.6,5.48-34.25,15.77-4.6,5.48-8.54,11.97-11.68,19.29-8.5,19.76-.95,43.03,17.54,54.57-2.43-17.09,1.21-35,10.34-50.61,9.08-15.53,22.82-27.52,38.88-33.98-6.61-3.39-13.76-5.03-20.83-5.03ZM1482.44,1888.32h0,0Z"></path>
  <path fill="#fff" d="M1626.64,2265.44c-117.52,93.8-242.2,95.15-368.83,85.23,20.52,155.4,43.75,324.25,88.58,449.99,1.76,4.94,7.04,8.11,13.16,7.87,17.86-.72,55.14-3.58,79.76-14.94,4.8-2.22,7.92-6.54,8.14-11.11l.31-6.23c.31-6.34,6.14-11.8,13.45-12.61l38.38-4.26c6.14-.68,11.79,2.12,13.98,6.94l2.56,5.63c2.38,5.23,8.79,8.03,15.39,6.72l69.61-13.78c7.71-1.53,13.03-8.07,11.91-14.66h0c-1.06-6.28,3.73-12.58,10.99-14.45l23.58-6.07c5.26-1.35,10.72-.06,14.1,3.33l6.87,6.89c3.35,3.36,8.73,4.66,13.95,3.37l81.12-20.07c22.68-5.61,39.33-23.47,40.57-43.52,2.75-44.36-9.37-100.89-46.57-152.69-30.66-42.7-95.25-39.24-95.25-39.24-11.1-118.83-36.18-222.35-35.76-222.34Z"></path>
  <path fill="#15296f" d="M1346.39,2800.65c1.76,4.94,7.04,8.12,13.16,7.87,17.85-.72,55.14-3.59,79.76-14.94,4.8-2.22,7.91-6.54,8.13-11.11l.3-6.23c.32-6.34,6.15-11.81,13.46-12.61l38.38-4.26c6.15-.69,11.79,2.11,13.98,6.93l2.56,5.63c2.37,5.23,8.79,8.03,15.39,6.72l69.61-13.78c7.71-1.53,13.04-8.08,11.92-14.66-.53-3.14.4-6.29,2.37-8.88,1.98-2.6,4.99-4.64,8.62-5.57l23.58-6.07c5.26-1.35,10.73-.06,14.11,3.33l6.87,6.9c3.35,3.36,8.73,4.66,13.96,3.36l81.11-20.07c22.68-5.6,39.33-23.46,40.58-43.52,2.74-44.36-5.54-103.8-46.57-152.68-4.81-5.73-9.72-10.97-14.68-15.79l-12.23,2.8s32.29,78.78-187.09,117.83c-219.39,39.04-232.76-146.04-227.39-243.27.21-3.72,2.52-20.63,2.34-23.85-21.99.56-38.85-12.35-60.79-14.07,20.52,155.4,43.75,324.25,88.58,449.99Z" opacity=".25"></path>
  <path fill="#15296f" d="M1358.88,2821.04c-11.11,0-20.77-6.39-24.26-16.18-46.74-131.12-70.28-309.34-89.19-452.55-.49-3.74.73-7.5,3.32-10.24,2.6-2.74,6.29-4.15,10.05-3.86l6.85.54c121.28,9.54,235.85,18.55,352.72-82.67,2.37-2.09,5.47-3.24,8.66-3.13,5.15.16,9.67,3.45,11.4,8.3.3.85.51,1.72.62,2.59.17.85.62,2.92,1.1,5.08,15.77,72.25,27.07,141.65,33.63,206.49,21.84,1.14,67.97,8.01,94.04,44.32,34.43,47.95,52.25,106.54,48.89,160.75-1.58,25.41-22.16,47.98-50.05,54.88l-81.12,20.07c-9.48,2.35-19.37-.21-25.81-6.68l-6.87-6.89c-.16-.1-1.01-.33-2.13-.05l-23.58,6.07c-.9.23-1.43.65-1.68.91,1.86,13.16-7.65,25.54-21.91,28.36l-69.61,13.78c-12.37,2.45-24.38-3.23-29.19-13.81l-2.36-5.19c-.25-.1-.74-.21-1.43-.13l-38.38,4.26c-1.29.14-2.1.79-2.36,1.12l-.29,5.92c-.46,9.31-6.36,17.68-15.39,21.85-26.19,12.08-64.18,15.26-84.49,16.08-.39.02-.78.02-1.17.02ZM1357.96,2795.9c.21.07.56.16,1.08.13,14.86-.6,51.92-3.14,75.03-13.8.5-.23.79-.51.9-.66l.29-5.94c.61-12.44,11.17-22.94,24.56-24.42l38.38-4.26c11.56-1.28,22.3,4.42,26.74,14.18l2.36,5.19c.3.11.92.25,1.79.08l69.61-13.78c1.02-.2,1.64-.67,1.92-.97-1.77-12.57,6.85-24.53,20.3-27.99l23.58-6.07c9.57-2.46,19.56.07,26.07,6.61l6.87,6.89c.15.09.99.33,2.09.06l81.12-20.07c17.4-4.3,30.19-17.53,31.1-32.16,3.01-48.56-13.12-101.27-44.25-144.62-26.21-36.5-83.87-34.08-84.45-34.05-6.73.34-12.47-4.66-13.09-11.32-5.87-62.86-16.37-130.32-31.25-200.71-24.83,19.61-50.16,35.24-76.96,47.53-29.27,13.42-59.66,22.53-92.92,27.84-58.6,9.36-116.09,5.47-176.61.73,18.4,139.05,41.65,307.58,85.74,431.56ZM1639.11,2264.49c.09,1.17.01,2.34-.22,3.48.26-1.24.31-2.43.22-3.48Z"></path>
  <path fill="#15296f" d="M1663 2501.63c-38.56.95-77.89 23.26-106.79 49.56-10.44 9.49-20.22 19.95-29.28 31.16 10.96-18.91 24.04-36.82 39.05-52.55 20.67-21.48 45.24-39.23 72.88-49.64 7.41-2.73 15.08-5.17 22.95-6.23 7.25-.35 13.4 5.57 13.73 13.22.33 7.65-5.28 14.13-12.54 14.48h0ZM1683.27 2650.51c-6.72 2.21-13.72 4.43-21.02 6.66-75.55 23.04-197.59 50.29-349.92 49.32-7.26-.05-13.11-6.29-13.07-13.95.04-7.66 5.96-13.83 13.23-13.78 148.76.95 267.86-25.56 341.58-47.96 79.94-24.29 125.26-49.14 125.71-49.39 6.42-3.55 14.37-.95 17.75 5.83 3.38 6.78.91 15.15-5.51 18.72-1.73.96-39.79 21.89-108.75 44.56Z"></path>
  <path fill="#15296f" d="M1687.01 2698.31c-2.96.97-5.97 1.95-9.03 2.92-75.36 23.99-197.19 52.38-349.59 51.4-7.26-.05-13.11-6.29-13.07-13.95.04-7.66 5.97-13.83 13.23-13.78 148.68.95 267.47-26.63 340.94-49.93 79.67-25.27 124.74-51.11 125.18-51.37 6.36-3.68 14.35-1.23 17.85 5.47 3.5 6.71 1.18 15.13-5.18 18.82-1.82 1.06-44 25.31-120.34 50.42ZM211.06 1511.76l-13.1-125 37.59 119.93c2.07 6.62-1.61 13.67-8.23 15.74-7.45 2.43-15.51-2.89-16.25-10.68h0ZM2487.97 1449.52c-14.02 22.31-26.82 45.66-32.53 71.72-2.07 8.93-3.13 18.2-3.69 27.94-2.59-5.55-4.58-11.44-5.92-17.42-6.22-28.38-.44-58.94 13.48-84.29 2.56-4.59 5.45-9.07 8.8-13.15 10.63-12.11 28.7 1.81 19.85 15.2h0ZM2360.88 1684.51c6-33.09 42.78-56.44 75.14-48.22 5.57 1.31 10.9 3.43 15.74 6.5-2.13 1-4.2 1.83-6.22 2.61-18.41 7.18-36.85 15.55-49.37 30.9-3.93 4.56-7.43 9.63-10.76 14.66 0 0-.3.42-.3.42-.08.12-.12.14-.2.23-.03.04 0-.06-.02-.08-5.26 15.72-28.01 9.12-24-7h0ZM1848.37 1743.06c13.35-13.48 25.91-27.87 37.84-42.67 12.08-15 23.31-30.62 33.4-47.09-12.09 34.64-28.82 67.63-47.77 99.04-1.32 2.17-2.62 4.26-4.09 6.52-3.78 5.83-11.57 7.49-17.4 3.71-6.71-4.24-7.68-14.02-1.99-19.51h0ZM2046.93 1748.5c-3.18 0-6.26-1.21-8.59-3.42-2.62-2.48-4.04-5.97-3.9-9.58.89-22.4 10.29-43.32 26.47-58.9 16.22-15.63 37.57-24.23 60.1-24.23 39.11 0 73.52 26.35 83.67 64.07.94 3.48.33 7.19-1.67 10.19s-5.2 4.98-8.77 5.45c-43.94 5.78-93.1 11.28-146.11 16.36-.4.04-.8.06-1.19.06ZM2121.01 1677.37c-28.19 0-51.94 18.71-59.29 44.63 40.42-4 78.41-8.24 113.34-12.66-10.64-19.36-31.22-31.98-54.06-31.98ZM1505.45 2302.53c-12.52 0-24.56-2.02-35.42-6.03-21.35-7.88-35.76-22.46-40.59-41.03-4.82-18.57.68-38.32 15.49-55.59 13.72-16 34.1-28.14 57.39-34.18 23.29-6.05 47-5.36 66.77 1.94 21.35 7.88 35.76 22.46 40.59 41.03 4.82 18.57-.68 38.32-15.49 55.59-13.72 16-34.1 28.14-57.39 34.18-10.49 2.73-21.08 4.08-31.34 4.08ZM1533.7 2186.6c-8.15 0-16.62 1.1-25.1 3.3-18.39 4.78-34.26 14.1-44.69 26.26-9.33 10.88-12.98 22.61-10.27 33.03 2.71 10.42 11.6 18.9 25.05 23.86 15.02 5.55 33.43 5.97 51.82 1.2 18.39-4.78 34.27-14.1 44.69-26.26 9.33-10.88 12.98-22.61 10.27-33.03h0c-2.71-10.42-11.6-18.9-25.05-23.86-8.1-2.99-17.19-4.5-26.73-4.5ZM325.94 1788.91c-.7 0-1.41-.06-2.11-.18-3.37-.58-6.36-2.51-8.27-5.35-32.37-48.2-49.28-100.99-57.76-136.8-.8-3.39-.16-6.96 1.79-9.85 1.94-2.89 5-4.84 8.44-5.38 4.5-.71 9.1-1.07 13.64-1.07 47.77 0 86.64 38.87 86.64 86.64 0 27.24-13.05 53.22-34.91 69.51-2.17 1.62-4.8 2.48-7.47 2.48ZM285.85 1655.42c7.94 29.21 21.14 66.28 42.6 101.69 9.56-11.06 14.86-25.14 14.86-40.19 0-32.59-25.42-59.35-57.47-61.5ZM877.9 1892.9c28.08.94 56.01 5.57 83.29 11.88 63.83 15.03 124.9 42.15 177.16 81.86 13.62 10.28 26.52 21.65 38.8 33.43-18.3-15.11-37.81-29.04-58.4-40.82-14.43-8.49-29.93-16.1-45.22-22.83-59.96-25.57-125.19-39.41-190.35-38.71 0 0-2.4.08-2.4.08l-1.17.05c-7.26 1-14.06-4.29-14.44-11.7-.45-7.24 5.49-13.4 12.73-13.23h0Z"></path>
  <path fill="#15296f" d="M2431.67 1441.92s-1.93.68-5.51 2.04c-41.36 15.67-302.64 120.75-341.82 288.32-12.7 1.31-25.2 2.56-37.41 3.72-105.31 10.09-188.83 14.91-188.83 14.91-50.48 62.82-128.33 122.28-195.39 166.98-15.97-.96-25.32-1.89-25.32-1.89 0 0 38.5-62.03-13.28-137.56 0 0 225.13-72.24 276.63-198.59 0 0 137.72 32.43 128.26-110.59 105.2.47 219.14-8.35 338.54-22.99l64.14-4.35ZM1359.19 1040.12l-33.81 24.73-115.49-88.41 67.38-43.23c9.8-6.28 20.75-10.35 32.1-12.01l49.83 118.92ZM1310.18 1265.89l-9.98 7.76c-184.04-11.57-261.86-72.56-261.86-72.56 0 0-69.41 72.56-21.19 155.12 42.9 73.45-32.44 57.31-77.66 81.5-45.22 24.19-36.81 67.31-52.58 109.37s-157.75 73.62-245.03-35.76c-73.14-91.65-36.69-174.41 2.85-225.02h.01s-57.36 142.47 153.67 130.37c200.92-11.52 90.41-244.7 270.01-305.11 16.17-5.44 34.03-.21 44.51 13.25 27.95 35.92 93.13 107.51 183.19 130.29 6.35 1.61 11.24 5.67 14.08 10.79ZM644.71 1286.31h.01-.01s0 0 0 0ZM2688.9 1489.77c15.96-3.48 29.86-5.03 41.94-5.59-8.89 13.11-19.94 25.66-30.9 36.62-37.86 37.86-22.08 180.88-119.89 176.68s-107.27 62.05-168.26 51.53c-61-10.52-38.91-61-38.91-61-1.88.47-3.78.94-5.7 1.4 10.28-16.54 23.84-31.29 41.68-40.31 0 0-1.9 67.02 110.73 9.99 67.43-34.15-30.97-69.65 43.12-128.3 50.48-39.96 109.4-37.35 126.2-41.01Z" opacity=".25"></path>
</svg>
