<svg xmlns="http://www.w3.org/2000/svg" id="astronaut-hanging-on-earth-balloon" viewBox="0 0 1800 3300">
  <path d="M797.667 1957.623a13.998 13.998 0 0 1-14-13.999v-523.398a13.999 13.999 0 1 1 27.999 0v523.398a13.998 13.998 0 0 1-14 14Z" style="fill:#371a45"></path>
  <path d="m768.53 1428.2-36.457 63.145c-12.95 22.43 3.238 50.467 29.138 50.467h72.913c25.9 0 42.087-28.037 29.137-50.467l-36.457-63.145c-12.95-22.43-45.324-22.43-58.274 0Z" style="fill:#b5b5b5"></path>
  <path d="M834.124 1543.578h-72.913a35.41 35.41 0 0 1-30.666-53.115l36.457-63.147a35.411 35.411 0 0 1 61.331 0l36.455 63.144a35.41 35.41 0 0 1-30.664 53.118Zm-36.455-130.435a31.554 31.554 0 0 0-27.61 15.938v.002l-36.457 63.145a31.882 31.882 0 0 0 27.61 47.82h72.912a31.88 31.88 0 0 0 27.607-47.82l-36.455-63.147a31.553 31.553 0 0 0-27.607-15.938Z" style="fill:#371a45"></path>
  <path d="m768.53 1428.2-36.457 63.145c-12.95 22.43 3.238 50.467 29.138 50.467h72.913c25.9 0 42.087-28.037 29.137-50.467l-36.457-63.145c-12.95-22.43-45.324-22.43-58.274 0Z" style="fill:#ffa726"></path>
  <path d="M834.124 1543.812h-72.913a35.645 35.645 0 0 1-30.869-53.469l36.458-63.145a35.645 35.645 0 0 1 61.736 0l36.455 63.145a35.644 35.644 0 0 1-30.867 53.47Zm-36.455-130.434a31.327 31.327 0 0 0-27.407 15.822l-36.458 63.145a31.648 31.648 0 0 0 27.407 47.468h72.913a31.646 31.646 0 0 0 27.405-47.468l-36.455-63.145a31.326 31.326 0 0 0-27.405-15.822Z" style="fill:#371a45"></path>
  <path d="M834.124 1555.812h-72.913a47.644 47.644 0 0 1-41.262-71.468l36.458-63.144a47.643 47.643 0 0 1 82.522 0l36.455 63.144a47.642 47.642 0 0 1-41.26 71.468Zm-36.458-130.435a19.445 19.445 0 0 0-17.011 9.822l-36.458 63.145a19.646 19.646 0 0 0 17.014 29.47h72.913a19.647 19.647 0 0 0 17.012-29.47l-36.455-63.145a19.446 19.446 0 0 0-17.014-9.822Zm-29.135 2.822Z" style="fill:#371a45"></path>
  <path d="M1129.12 1378.083c-327.957 182.223-741.505 64.112-923.728-263.845a678.688 678.688 0 0 1-68.145-176.59 667.68 667.68 0 0 1-13.476-79.124c-28.872-263.62 99.066-531.082 345.433-667.981a676.34 676.34 0 0 1 365.151-84.694c225.819 11.907 440.627 136.259 558.577 348.506a678.237 678.237 0 0 1 74.74 208.406c50.637 278.44-77.429 570.228-338.552 715.322Z" style="fill:#ffa726"></path>
  <g style="opacity:.35">
    <path d="M1129.133 1378.077c-327.957 182.223-741.504 64.113-923.728-263.844a678.69 678.69 0 0 1-68.145-176.59c-3.585-15.396-6.626-30.888-9.059-46.38C256.62 1049.8 441.5 1145.536 636.685 1165.318l-3.105-3.265a112.903 112.903 0 0 1 2.721-64.72c21.638-62.161 72.115-105.084 170.124-70.931 55.887 19.46 92.504 67.698 95.257 118.43a752.55 752.55 0 0 0 175.405-70.481 787.063 787.063 0 0 0 8.867-5.026c-9.923-39.37.928-86.55 32.488-124.32 44.972-53.774 116.094-69.586 164.651-38.667a753.022 753.022 0 0 0 163.338-328.629 679.625 679.625 0 0 1 21.254 85.047c50.637 278.44-77.428 570.227-338.552 715.321Z" style="fill:#371a45"></path>
  </g>
  <g style="opacity:.4">
    <path d="M1485.233 664.448a698.158 698.158 0 0 0-54.257-124.927c-133.2-239.682-387.683-369.387-644.268-354.996l.032.126c9.856 39.226-31.537 83.425-92.432 98.725-60.926 15.308-118.263-4.085-128.118-43.311a46.375 46.375 0 0 1-1.059-5.552 689.11 689.11 0 0 0-75.426 36.17c-266.419 148.055-396.936 445.891-344.818 729.89-99.089-308.048 29.466-653.18 323.096-816.345 334.146-185.688 755.576-65.34 941.271 268.838a690.651 690.651 0 0 1 75.979 211.382Z" style="fill:#fff"></path>
  </g>
  <path d="M803.89 1478.578c-244.5 0-481.978-129-608.921-357.449C8.753 786.014 129.893 361.881 465.008 175.665c162.341-90.202 350.088-111.79 528.657-60.793 178.574 51 326.6 168.493 416.807 330.83 90.205 162.336 111.797 350.083 60.793 528.66-51.003 178.574-168.496 326.599-330.832 416.806a691.092 691.092 0 0 1-336.543 87.41Zm-2.14-1358.743c-111.25 0-221.271 28.274-321.2 83.804-319.69 177.644-435.254 582.256-257.608 901.948 121.09 217.915 347.671 340.984 580.894 340.996a659.099 659.099 0 0 0 321.055-83.388c154.865-86.055 266.948-227.266 315.605-397.622 48.655-170.357 28.06-349.463-57.998-504.329-86.055-154.863-227.266-266.948-397.62-315.603a666.257 666.257 0 0 0-183.127-25.806Z" style="fill:#371a45"></path>
  <path d="M899.571 1101.504a114.563 114.563 0 0 1 11.637 67.015 174.092 174.092 0 0 1-4.386 22.357 138.064 138.064 0 0 1-19.223 42.56 111.416 111.416 0 0 1-35.606 32.691c-14.166 8.17-29.944 12.913-45.54 15.034-15.65 2.268-31.198 1.985-46.378.571-7.61-.88-14.957-1.932-22.559-3.439a155.32 155.32 0 0 1-22.764-6.24 157.816 157.816 0 0 1-41.792-22.12 152.708 152.708 0 0 1-33.338-33.902 132.005 132.005 0 0 1-20.623-43.248c-8.601-31.144-4.538-65.715 11.457-93.428 15.607-28.053 41.984-48.306 70.664-58.72a148.168 148.168 0 0 1 88.773-3.585 4.785 4.785 0 0 1-1.785 9.37c-27.585-2.94-55.37 1.202-79.353 12.671-24.008 11.226-43.934 29.942-54.992 52.616-10.986 22.657-13.211 49.09-5.687 72.772 7.26 23.777 23.098 45.014 43.721 59.781a136.152 136.152 0 0 0 33.67 17.735 140.249 140.249 0 0 0 18.44 5.275c6.382 1.37 13.161 2.446 19.717 3.303 13.173 1.61 26.378 2.27 39.063.82a106.192 106.192 0 0 0 35.815-10.086c21.936-10.914 38.016-32.053 46.835-57.127a186.095 186.095 0 0 0 5.75-19.219 103.497 103.497 0 0 0 2.72-19.373 114.55 114.55 0 0 0-5.18-39.572l-.023-.077a5.939 5.939 0 0 1 10.967-4.435Z" style="fill:#371a45"></path>
  <g style="opacity:.4">
    <path d="M962.749 746.81a104.371 104.371 0 0 1-98.72-3.447 94.691 94.691 0 1 0 6.5-181.797 94.945 94.945 0 0 0-8.707 2.65c2.8-1.727 5.671-3.307 8.666-4.785a104.43 104.43 0 1 1 92.26 187.38Z" style="fill:#fff"></path>
  </g>
  <g style="opacity:.35">
    <circle cx="435.294" cy="796.697" r="142.849" style="fill:#371a45" transform="rotate(-45 435.294 796.697)"></circle>
  </g>
  <g style="opacity:.4">
    <path d="M633.736 740.024a174.648 174.648 0 0 1-107.89 222.162c-91.165 31.563-190.64-16.747-222.193-107.88a168.108 168.108 0 0 1-1.774-5.416 142.803 142.803 0 1 0 30.942-161.478 173.597 173.597 0 0 1 78.743-55.309c91.133-31.552 190.61 16.757 222.172 107.921Z" style="fill:#fff"></path>
  </g>
  <path d="M326.64 685.758c22.49-25.556 54.847-42.953 89.446-48.261 34.678-5.712 71.423 1.216 102.549 18.638a161.753 161.753 0 0 1 41.398 33.759c6.088 6.621 11.16 14.057 16.177 21.524l6.607 11.775c2.167 3.946 3.753 8.178 5.571 12.298a168.937 168.937 0 0 1 11.846 52.469 164.407 164.407 0 0 1-5.989 53.55 158.987 158.987 0 0 1-23.16 48.547 163.184 163.184 0 0 1-37.462 38.452 166.079 166.079 0 0 1-47.953 23.71 151.332 151.332 0 0 1-52.691 6.83 157.2 157.2 0 0 1-51.698-10.594 162.831 162.831 0 0 1-44.752-26.947c-26.767-22.365-44.416-54.215-50.7-87.258a4.777 4.777 0 0 1 9.209-2.448l.042.124c10.29 29.88 28.67 56.45 53.812 73.937a146.307 146.307 0 0 0 40.295 20.438 143.123 143.123 0 0 0 44.152 6.411c7.44.139 14.804-1.03 22.12-2.017l10.827-2.46c3.621-.738 7.053-2.202 10.587-3.241a136.664 136.664 0 0 0 38.681-20.688c22.837-18.176 40.686-43.138 48.07-71.456a144.872 144.872 0 0 0 4.922-43.181 137.44 137.44 0 0 0-9.29-42.567c-10.006-27.556-30.293-50.664-55.002-66.714a139.557 139.557 0 0 0-40.866-17.118 130.501 130.501 0 0 0-44.61-3.669c-30.26 1.93-59.862 14.399-83.847 34.607a5.935 5.935 0 0 1-8.291-8.45ZM1249.471 888.561a102.618 102.618 0 0 1 74.57 42.969 115.939 115.939 0 0 1 18.103 41.388 128.187 128.187 0 0 1 1.608 44.993 153.171 153.171 0 0 1-12.322 43.024 186.727 186.727 0 0 1-23.612 37.844 192.376 192.376 0 0 1-32.622 30.381 174.532 174.532 0 0 1-39.67 20.932 154.173 154.173 0 0 1-44.41 8.808c-15.196.678-30.805-.848-45.526-5.98-29.55-9.705-55.102-32.211-67.115-60.715-12.227-28.416-11.906-60.068-3.275-87.733a160.788 160.788 0 0 1 18.633-38.852 169.153 169.153 0 0 1 28.18-31.558 4.779 4.779 0 0 1 6.856 6.608l-.116.142a192.846 192.846 0 0 0-21.667 32.611 155.572 155.572 0 0 0-12.595 36.095c-5.262 24.682-2.669 50.403 7.845 71.535a86.16 86.16 0 0 0 52.295 43.049c22.383 6.507 47.328 4.5 69.944-3.889a158.277 158.277 0 0 0 32.114-17.054 170.786 170.786 0 0 0 27.172-24.643 160.037 160.037 0 0 0 20.442-30.41 143.78 143.78 0 0 0 11.588-34.531 103.951 103.951 0 0 0 .975-36.037 91.96 91.96 0 0 0-11.48-33.85c-11.662-21.277-33.122-36.72-57.99-43.472l-.043-.01a5.939 5.939 0 0 1 2.118-11.645Z" style="fill:#371a45"></path>
  <g style="opacity:.35">
    <circle cx="893.606" cy="653.403" r="94.687" style="fill:#371a45"></circle>
  </g>
  <path d="M813.01 712.277c-13.841-16.602-21.322-38.983-20.864-61.513.29-22.654 8.93-45.342 23.808-63.157a102.917 102.917 0 0 1 26.604-22.428 101.31 101.31 0 0 1 32.734-12.613 108.086 108.086 0 0 1 35.164-1.081 106.92 106.92 0 0 1 33.607 10.72 107.144 107.144 0 0 1 47.876 50.073c9.442 21.45 12.117 45.799 6.15 68.15a99.864 99.864 0 0 1-13.676 31.301 103.65 103.65 0 0 1-23.07 24.47 94.182 94.182 0 0 1-61.306 19.17 4.792 4.792 0 0 1-.65-9.497l.166-.03c18.883-3.528 36.216-11.796 48.843-24.809a87.093 87.093 0 0 0 15.82-21.36 85.808 85.808 0 0 0 8.108-24.71 82.322 82.322 0 0 0-7.635-49.658c-7.916-14.75-19.922-27.565-35.065-34.742-29.742-15.35-68.896-8.97-92.67 15.86a81.57 81.57 0 0 0-14.76 21.03 75.889 75.889 0 0 0-7.84 24.962c-2.933 17.617.25 36.34 8.555 53.369l.033.066a5.958 5.958 0 0 1-9.932 6.427Z" style="fill:#371a45"></path>
  <g style="opacity:.3">
    <path d="M1316.913 594.364c-12.74 15.37-31.815 17.872-50.291 9.051 9.474 1.996 18.806.58 26.833-4.793 22.574-15.108 26.424-55.776 8.615-90.831-17.799-35.034-50.531-51.217-73.105-36.109a35.35 35.35 0 0 0-3.77 2.927 47.273 47.273 0 0 1 3.269-4.46c20.222-24.401 56.41-16.394 80.836 17.911 24.437 34.328 27.835 81.902 7.613 106.304Z" style="fill:#fff"></path>
    <path d="M1287.564 610.272a50.424 50.424 0 0 1-21.702-5.266l-13.342-6.367 14.465 3.05c9.312 1.965 18.123.395 25.489-4.534 21.816-14.6 25.415-54.331 8.02-88.562-10.367-20.408-26.472-35.181-43.084-39.52-10.063-2.626-19.55-1.215-27.463 4.078a33.356 33.356 0 0 0-3.584 2.78l-9.644 8.526 6.992-10.808a48.584 48.584 0 0 1 3.394-4.624c8.374-10.108 19.495-15.24 32.3-14.737 18.281.672 36.992 12.608 51.333 32.75 24.82 34.865 28.198 83.518 7.534 108.452-8.088 9.758-18.857 14.782-30.708 14.782Zm-8.61-4.472c14.186 2.968 27.338-1.387 36.598-12.561 19.71-23.785 16.26-70.508-7.69-104.156-13.699-19.24-31.409-30.637-48.587-31.267a34.958 34.958 0 0 0-25.393 9.204c7.415-3.15 15.74-3.63 24.42-1.362 17.575 4.59 34.523 20.041 45.341 41.335 18.174 35.772 14.045 77.535-9.206 93.096a34.85 34.85 0 0 1-15.484 5.71Z" style="fill:#371a45"></path>
  </g>
  <g style="opacity:.35">
    <ellipse cx="1261.21" cy="535.148" rx="48.517" ry="71.635" style="fill:#371a45" transform="rotate(-20.972 1261.21 535.148)"></ellipse>
  </g>
  <g style="opacity:.4">
    <path d="M1319.983 595.25c-9.89 6.626-21.542 7.842-33.257 4.514.64-.353 1.249-.737 1.889-1.153 22.566-15.108 26.407-55.759 8.61-90.807-14.915-29.384-40.33-45.485-61.456-41.035a42.358 42.358 0 0 1 12.356-12.963c25.158-16.805 61.615 1.184 81.46 40.266 19.846 39.05 15.524 84.342-9.602 101.178Z" style="fill:#fff"></path>
  </g>
  <path d="M1231.3 587.925c-10.927-9.083-19.167-21.285-24.812-34.6-5.502-13.389-8.732-28.268-7.398-43.863a69.48 69.48 0 0 1 5.87-23.53 54.185 54.185 0 0 1 16.666-21.11 48.005 48.005 0 0 1 26.96-9.365 56.205 56.205 0 0 1 26.141 5.762c15.329 7.453 26.44 19.111 34.549 31.872a109.046 109.046 0 0 1 15.53 41.66c2.13 14.667 1.221 30.01-4.238 44.303-2.839 7.051-6.794 13.935-12.52 19.389a37.595 37.595 0 0 1-20.431 10.561 4.829 4.829 0 0 1-3.07-8.98l.22-.122c9.96-5.608 15.024-15.628 16.682-26.51 1.859-10.863.488-22.387-2.587-33.24a97.014 97.014 0 0 0-14.68-30.094c-6.438-8.803-14.612-16.13-22.94-19.941-8.46-3.834-15.621-3.597-21.31.188-5.869 3.661-10.854 12.468-12.791 22.837a72.693 72.693 0 0 0-1.376 16.301 81.976 81.976 0 0 0 1.94 17.123c2.076 11.614 6.538 22.856 12.57 33.637l.098.178a6 6 0 0 1-9.072 7.544Z" style="fill:#371a45"></path>
  <g style="opacity:.4">
    <path d="M894.97 388.697a80.25 80.25 0 0 1-75.905-2.65 72.807 72.807 0 1 0 4.999-139.783 73.008 73.008 0 0 0-6.695 2.037 80.787 80.787 0 0 1 6.663-3.679 80.296 80.296 0 1 1 70.938 144.075Z" style="fill:#fff"></path>
  </g>
  <g style="opacity:.35">
    <circle cx="841.808" cy="316.877" r="72.804" style="fill:#371a45" transform="rotate(-45 841.808 316.877)"></circle>
  </g>
  <path d="M778.695 362.895c-11.283-12.716-17.531-30.347-17.466-48.238a80.543 80.543 0 0 1 18.41-50.576 83.063 83.063 0 0 1 47.424-28.302 83.516 83.516 0 0 1 55.224 7.669 84.719 84.719 0 0 1 38.316 40.284c7.631 17.218 9.385 36.778 4.518 54.556a78.494 78.494 0 0 1-11.159 24.828 81.588 81.588 0 0 1-18.576 19.174 72.872 72.872 0 0 1-48.577 14.088 4.81 4.81 0 0 1-.57-9.51l.085-.016c28.778-5.776 49.836-28.858 53.032-54.03a60.76 60.76 0 0 0-6.082-36.025c-5.79-10.652-14.623-19.688-25.456-24.93a60.648 60.648 0 0 0-17.035-5.408 59.395 59.395 0 0 0-17.981.168c-11.974 1.696-23.128 7.76-32.091 16.333a62.775 62.775 0 0 0-11.081 15.13 55.51 55.51 0 0 0-6.193 18.217c-2.54 12.979-.59 26.951 5.156 40.095l.055.127a5.981 5.981 0 0 1-9.953 6.366Z" style="fill:#371a45"></path>
  <path d="M461.504 327.875c-3.251-19.019 20.868-51.481 58.293-65.646s70.368-3.789 77.234 14.35Z" style="fill:#ffa726"></path>
  <path d="M456.09 328.8a30.87 30.87 0 0 1-1.336-13.932 52.548 52.548 0 0 1 3.22-12.848 82.083 82.083 0 0 1 12.995-21.795 106.06 106.06 0 0 1 39.987-29.514c15.364-6.523 32.64-9.724 49.92-7.289a65.349 65.349 0 0 1 25.007 8.756 45.776 45.776 0 0 1 10.541 9.21 29.145 29.145 0 0 1 6.248 13.057 6.095 6.095 0 0 1-10.593 5.064l-.69-.794c-7.21-8.288-20.072-10.586-32.38-10.442-12.5.287-25.201 3.33-37.286 8.226a124.534 124.534 0 0 0-33.453 20.361 88.861 88.861 0 0 0-13.483 14.03c-3.897 5.047-6.915 10.563-7.868 16.059l-.161.924a5.539 5.539 0 0 1-10.669.927Z" style="fill:#371a45"></path>
  <g style="opacity:.35">
    <ellipse cx="529.121" cy="303.45" rx="78.669" ry="38.457" style="fill:#371a45" transform="rotate(-24.528 529.12 303.45)"></ellipse>
  </g>
  <path d="m822.887 2873.532-196.796-45.97a101.55 101.55 0 0 1-75.789-121.989l75.641-323.816a101.55 101.55 0 0 1 121.988-75.788l196.797 45.97a101.55 101.55 0 0 1 75.788 121.988l-75.64 323.816a101.55 101.55 0 0 1-121.989 75.789Z" style="fill:#fff"></path>
  <path d="M845.99 2877.97a103.253 103.253 0 0 1-23.504-2.72l-196.795-45.969a103.437 103.437 0 0 1-77.109-124.109l75.642-323.816a103.424 103.424 0 0 1 124.107-77.107l196.796 45.972a103.313 103.313 0 0 1 77.107 124.106l-75.64 323.816a103.502 103.502 0 0 1-100.605 79.827Zm-22.703-6.157a99.902 99.902 0 0 0 119.87-74.47l75.64-323.816a99.783 99.783 0 0 0-74.47-119.869l-196.797-45.971a99.896 99.896 0 0 0-119.868 74.47l-75.642 323.816a99.903 99.903 0 0 0 74.472 119.87Z" style="fill:#371a45"></path>
  <path d="M845.992 2890.206a115.52 115.52 0 0 1-26.29-3.042l-196.794-45.969a115.685 115.685 0 0 1-86.24-138.806l75.642-323.816a115.68 115.68 0 0 1 138.804-86.238l196.797 45.972a115.546 115.546 0 0 1 86.237 138.806l-75.64 323.814a115.76 115.76 0 0 1-112.516 89.28ZM826.07 2859.9a87.645 87.645 0 0 0 105.173-65.342l75.64-323.814a87.551 87.551 0 0 0-65.34-105.17L744.747 2319.6a87.635 87.635 0 0 0-105.171 65.342l-75.642 323.813a87.655 87.655 0 0 0 65.341 105.173Z" style="fill:#371a45"></path>
  <path d="M1285.73 2593.672c-.385 39.242-2.978 126.064-17.869 193.09a294.311 294.311 0 0 1-12.263 42.15c-32.9 85.07-75.54 76.907-108.265 50.069 0 0-.315 1.26-.875 3.609-4.625 18.674-26.734 106.512-53.117 179.95-15.626 43.377-32.725 81.742-48.631 97.859-46.18 46.81-106.794 63.173-137.136-13.7-30.342-76.87-9.11-235.134-22.74-237.937-13.629-2.803-44.742-22.389-66.745 19.13-22.003 41.52-28.31 207.98-91.447 217.336-63.137 9.355-91.797 30.447-123.646-54.728-10.827-29.011-15.627-79.289-15.417-139.273.316-116.148 19.236-268.56 48.772-372.305 44.813-157.247 31.183-159.56 31.183-159.56s43.376-74.98 39.767-228.862c0 0-15.451-191.023 44.708-241.372 60.159-50.383 91.447 25.683 91.342 30.483-.105 4.1 21.302 123.821 40.223 182.719 3.468 10.756 6.832 19.48 9.985 25.121 0 0 11.632 208.787 141.06 291.72 0 0 128.691 111.068 251.111 93.62 0 0 .14 7.778 0 20.881Z" style="fill:#fff"></path>
  <path d="M969.231 3201.678a56.024 56.024 0 0 1-11.22-1.108c-22.425-4.578-39.947-22.483-52.08-53.223-18.33-46.442-17.972-121.198-17.708-175.78.137-28.24.29-60.245-3.743-61.075a74.08 74.08 0 0 1-7.905-2.346c-15.571-5.186-39.111-13.04-56.926 20.573-6.882 12.986-12.22 38.482-18.401 68.006-13.4 64.016-30.078 143.689-74.348 150.249-9.197 1.362-17.503 2.947-25.535 4.477-46.616 8.89-72.307 13.785-100.022-60.334-10.383-27.817-15.752-76.194-15.53-139.898.325-119.621 20.408-272.915 48.84-372.78 39.139-137.342 33.18-155.5 32.098-157.42l-2.014-.342 1.27-2.2c.431-.746 43.083-76.42 39.528-227.936-.627-7.737-14.824-192.412 45.342-242.766 20.916-17.52 40.674-22.005 58.71-13.335 24.076 11.56 35.597 42.107 35.528 45.21.042 4.536 21.15 123.025 40.14 182.14 3.632 11.265 6.943 19.61 9.846 24.798l.222.764c.115 2.078 13.078 208.848 140.249 290.332 1.484 1.258 129.712 110.484 249.91 93.357l1.977-.28.037 1.997c0 .078.136 7.956 0 20.935-.435 44.087-3.338 127.849-17.91 193.452a296.588 296.588 0 0 1-12.342 42.405c-15.283 39.516-34.104 62.468-55.945 68.22-16.372 4.304-34.15-.965-52.907-15.679-.069.28-.14.584-.218.906-6.018 24.3-27.631 109.048-53.173 180.139-18.375 51.01-34.871 84.15-49.034 98.503-25.569 25.916-52.9 40.037-76.736 40.04Zm-114.88-301.745c8.745 0 16.926 2.727 23.34 4.863a72.197 72.197 0 0 0 7.5 2.239c6.59 1.352 6.775 20.767 6.562 64.546-.26 54.3-.62 128.66 17.464 174.472 11.665 29.556 28.32 46.734 49.5 51.058 24.997 5.09 55.9-8.726 84.736-37.952 13.8-13.984 30.027-46.694 48.227-97.217 25.483-70.932 47.058-155.537 53.064-179.778.56-2.346.879-3.615.879-3.615l.679-2.698 2.15 1.765c18.629 15.278 36.116 20.898 51.946 16.738 20.684-5.444 38.704-27.678 53.555-66.079a293.27 293.27 0 0 0 12.185-41.894c14.505-65.29 17.395-148.772 17.827-192.725v-.002c.098-9.146.059-15.743.027-18.846-121.265 15.918-249.238-93.19-250.525-94.301-125.771-80.567-140.947-282.059-141.643-292.55-3.005-5.47-6.255-13.683-9.929-25.085-19.155-59.626-40.425-178.789-40.31-183.308-.169-3.213-12.188-32.678-34.942-42.593-16.315-7.104-34.311-2.56-53.5 13.509-58.772 49.19-44.236 237.976-44.083 239.878 3.345 142.5-33.999 218.57-39.362 228.72 2.903 4.756 5.507 29.94-31.65 160.328-28.353 99.59-48.38 252.49-48.704 371.826-.222 63.283 5.07 111.228 15.305 138.65 26.67 71.323 49.853 66.911 96.057 58.1 8.066-1.535 16.406-3.127 25.676-4.5 41.836-6.198 58.235-84.535 71.411-147.48 6.236-29.785 11.62-55.508 18.736-68.938 11.357-21.428 25.18-27.131 37.822-27.131Z" style="fill:#371a45"></path>
  <g style="opacity:.35">
    <path d="M775.463 2114.327s38.312 24.37 95.747 13.523l-25.316-100.826s-46.865 81.411-70.431 87.303Z"></path>
    <path d="M842.12 2132.367c-41.011 0-67.288-16.348-67.605-16.55l-3.467-2.205 3.987-.996c22.573-5.647 68.864-85.666 69.328-86.475l2.18-3.784 26.834 106.88-1.84.347a158.214 158.214 0 0 1-29.417 2.783Zm-62.5-17.742c10.16 5.279 43.63 19.925 89.419 11.829l-23.804-94.81c-9.114 15.388-43.811 72.185-65.615 82.981Z" style="fill:#371a45"></path>
  </g>
  <g style="opacity:.35">
    <path d="M1093.341 3062.54c-15.626 43.377-32.725 81.742-48.631 97.859-46.18 46.81-106.794 63.173-137.136-13.7-30.342-76.87-9.11-235.134-22.74-237.937-13.629-2.803-44.742-22.389-66.745 19.13-22.003 41.52-28.31 207.98-91.447 217.336-63.137 9.355-91.797 30.447-123.646-54.728-10.827-29.011-15.627-79.289-15.417-139.273 17.519 24.07 44.918 45.443 87.453 49.157 104.972 9.215 101.223-126.308 80.06-172.663-10.09-22.108-38.296-75.926-30.763-104.69l33.846-60.93a64.423 64.423 0 0 1 78.624-46.075l174.59 45.584a64.462 64.462 0 0 1 46.074 78.623l3.75 69.024c-6.553 25.156-41.87 48.982-73.123 77.362-31.254 28.38-38.647 55.323-43.376 79.184-10.301 52.17 18.149 134.507 144.037 97.964a81.278 81.278 0 0 1 4.59-1.227Z" style="fill:#371a45"></path>
  </g>
  <g style="opacity:.35">
    <path d="M1159.65 2825.475 617.76 2683.994a9.26 9.26 0 0 1-6.62-11.3l11.345-43.456a9.26 9.26 0 0 1 11.3-6.621l541.891 141.481a9.26 9.26 0 0 1 6.62 11.3l-11.345 43.456a9.26 9.26 0 0 1-11.3 6.62Z" style="fill:#371a45"></path>
  </g>
  <g style="opacity:.35">
    <path d="M1267.861 2786.763a294.311 294.311 0 0 1-12.263 42.15c-32.9 85.07-75.54 76.906-108.265 50.068 0 0-.315 1.26-.875 3.609-4.135-52.241 66.688-219.329 59.342-255.426 13.408 65.879-24.905 177.894 9.257 183.175 27.717 4.285 40.261-8.616 52.804-23.576Z" style="fill:#371a45"></path>
  </g>
  <g style="opacity:.35">
    <path d="M1285.73 2593.672c-53.046 35.423-150.368 21.249-233.362-20.855-160.508-81.428-202.457-286.295-177.712-436.936 3.469 10.757 15.75 45.93 18.903 51.57 0 0 11.632 208.787 141.06 291.72 0 0 128.691 111.068 251.111 93.62 0 0 .14 7.778 0 20.881Z" style="fill:#371a45"></path>
  </g>
  <path d="M1482.269 2529.196a7.95 7.95 0 0 1-.431-11.234l155.578-167.994a7.949 7.949 0 0 1 11.233-.43 83.394 83.394 0 0 1 4.522 117.85l-53.053 57.286a83.394 83.394 0 0 1-117.85 4.522Z" style="fill:#fff"></path>
  <path d="M1538.853 2553.17a84.546 84.546 0 0 1-57.783-22.68 9.726 9.726 0 0 1-.53-13.726l155.581-167.993a9.715 9.715 0 0 1 13.728-.53 85.155 85.155 0 0 1 4.617 120.344l-53.054 57.288a84.603 84.603 0 0 1-59.214 27.234q-1.677.062-3.345.063Zm-55.386-25.268a81.631 81.631 0 0 0 115.357-4.427l53.054-57.287a81.631 81.631 0 0 0-4.426-115.357 6.192 6.192 0 0 0-8.74.337l-155.582 167.993a6.197 6.197 0 0 0 .337 8.74Z" style="fill:#371a45"></path>
  <g style="opacity:.35">
    <path d="m1624.996 2497.81-24.877 26.874a83.43 83.43 0 0 1-117.865 4.52 7.967 7.967 0 0 1-.42-11.247l41.343-44.672a7.964 7.964 0 0 0 2.103 8.374l3.994 3.678a83.328 83.328 0 0 0 95.722 12.474Z" style="fill:#371a45"></path>
  </g>
  <path d="M1538.897 2565.372a97.047 97.047 0 0 1-66.152-25.893v-.003a21.994 21.994 0 0 1-1.194-31.035l155.58-167.995a21.969 21.969 0 0 1 31.04-1.194 97.416 97.416 0 0 1 5.284 137.658l-53.054 57.288a97.177 97.177 0 0 1-71.504 31.174Zm-42.478-42.531a69.465 69.465 0 0 0 93.415-7.69l53.055-57.288a69.468 69.468 0 0 0 .51-93.728Zm-4.626-3.929a.019.019 0 0 0 .01.01l-.01-.007Z" style="fill:#371a45"></path>
  <path d="M1094.142 1836.01a7.95 7.95 0 0 1 .43 11.233l-155.578 167.993a7.949 7.949 0 0 1-11.233.431 83.394 83.394 0 0 1-4.522-117.85l53.053-57.286a83.394 83.394 0 0 1 117.85-4.522Z" style="fill:#fff"></path>
  <path d="M933.152 2019.55a9.634 9.634 0 0 1-6.589-2.588 85.152 85.152 0 0 1-4.617-120.342l53.05-57.288a85.155 85.155 0 0 1 120.344-4.616 9.709 9.709 0 0 1 .527 13.725L940.29 2016.434a9.647 9.647 0 0 1-6.753 3.108c-.13.005-.257.008-.384.008Zm104.402-203.985q-1.6 0-3.205.061a81.109 81.109 0 0 0-56.763 26.104l-53.052 57.287a81.628 81.628 0 0 0 4.426 115.354 5.976 5.976 0 0 0 4.439 1.643 6.143 6.143 0 0 0 4.3-1.977l155.58-167.993a6.185 6.185 0 0 0-.337-8.738v-.003a81.058 81.058 0 0 0-55.388-21.738Z" style="fill:#371a45"></path>
  <g style="opacity:.35">
    <path d="m982.168 1968.644-43.166 46.6a7.968 7.968 0 0 1-11.247.42 83.359 83.359 0 0 1-4.52-117.83l22.354-24.14a83.425 83.425 0 0 0 22.46 87.557l6.13 5.676a8.04 8.04 0 0 0 7.99 1.717Z" style="fill:#371a45"></path>
  </g>
  <path d="M933.14 2031.8a21.801 21.801 0 0 1-14.902-5.852 97.406 97.406 0 0 1-5.281-137.653l53.052-57.285a97.518 97.518 0 0 1 137.656-5.284h-.002a21.96 21.96 0 0 1 1.191 31.04L949.278 2024.76a21.814 21.814 0 0 1-15.274 7.023c-.288.013-.576.018-.864.018Zm104.363-203.952a69.196 69.196 0 0 0-50.928 22.207l-53.052 57.285a69.384 69.384 0 0 0-.512 93.733l146.98-158.708a69.153 69.153 0 0 0-42.488-14.517Zm47.1 18.43a.058.058 0 0 1 .017.017l-.003-.002a.085.085 0 0 0-.014-.015ZM681.595 3174.432a79.262 79.262 0 0 1-11.006-.764c-29.458-4.116-81.27-28.716-97.324-147.195-8.128-59.99-6.062-137.758 6.135-231.145 19.958-152.807 67.007-311.853 93.276-393.059a297.16 297.16 0 0 0 14.297-101.819c-1.17-34.445-2.134-88.527-.09-150.551 4.177-126.739 21.108-213.88 90.159-227.21 19.213-3.716 35.71-.91 49.03 8.335 15.887 11.02 26.333 30.803 31.055 58.797 31.992 189.704 75.842 261.623 76.28 262.329l-23.721 14.931c-1.907-3.02-47.08-76.216-80.2-272.6-3.416-20.27-9.942-33.872-19.39-40.427-6.98-4.844-16.06-6.094-27.742-3.845-43.494 8.398-63.037 66.518-67.458 200.613-2.017 61.25-1.065 114.66.09 148.679a325.158 325.158 0 0 1-15.64 111.396c-25.974 80.29-72.483 237.471-92.153 388.06-11.71 89.653-13.838 167.026-6.152 223.752 9.914 73.156 36.677 118.061 73.427 123.2 29.973 4.19 63.299-19.299 79.292-55.847 16.223-37.075 28.01-81.535 38.408-120.764 7.383-27.844 14.356-54.148 21.858-73.464l26.128 10.146c-6.936 17.862-13.713 43.43-20.89 70.5-10.658 40.203-22.738 85.77-39.825 124.818-19.448 44.443-58.55 73.132-97.844 73.134ZM1213.685 2569.772c-1.882 42.762-6.248 85.15-11.931 127.521-3.054 21.145-6.17 42.323-10.197 63.396-3.878 21.115-8.618 42.183-13.67 62.929q-30.803 124.683-73.77 245.505c-7.214 20.174-14.558 40.253-22.927 60.344l-3.21 7.542-3.842 8.054a153.979 153.979 0 0 1-9.148 15.443 130.277 130.277 0 0 1-24.306 26.99 109.096 109.096 0 0 1-32.096 18.779 94.12 94.12 0 0 1-37.9 5.741 83.507 83.507 0 0 1-37.286-11.5 93.215 93.215 0 0 1-28.068-25.832 124.828 124.828 0 0 1-16.536-32.357 166.992 166.992 0 0 1-8.024-33.966c-2.92-22.284-3.746-43.833-4.02-65.505A1204.507 1204.507 0 0 1 882.928 2914a14.014 14.014 0 0 1 27.927 2.336l-.02.3c-2.914 41.66-4.542 84.013-3.564 125.674.567 20.772 1.772 41.735 4.699 61.526 2.93 19.225 8.811 37.785 19.192 52.016 10.314 14.193 25.187 23.044 41.531 23.945 16.345.942 33.515-5.69 47.108-17.33a97.607 97.607 0 0 0 18.046-20.296 120.963 120.963 0 0 0 7.016-11.976l2.988-6.333 2.99-7.129c7.988-19.105 15.45-38.851 22.633-58.628 28.573-79.313 53.652-160.247 74.373-241.923 4.998-20.517 10.027-40.79 14.318-61.358 4.221-20.591 8.546-41.232 12.394-61.992l23.355-124.825.01-.048a7.952 7.952 0 0 1 15.762 1.812Z" style="fill:#371a45"></path>
  <path d="M1186.902 2916.395a55.157 55.157 0 0 1-17.485-2.766c-23.169-7.754-35.24-29.673-30.752-55.842l27.627 4.736c-2.144 12.503 2.124 21.214 12.019 24.524 14.17 4.744 35.84-3.035 48.088-26.787 78.836-152.92 21.57-340.505 20.984-342.383l26.741-8.396c2.546 8.1 61.399 200.279-22.812 363.623-15.479 30.025-41.44 43.289-64.41 43.291ZM788.31 2881.434c13.554 3.689 28.071 6.226 42.274 8.531 14.342 2.051 28.78 3.909 43.285 5.31 14.357 1.395 28.752 2.25 43.243 2.409 14.4.057 29.232-.414 43.583-1.724l.492-.045a4.788 4.788 0 0 1 2.72 8.976c-14.401 7.818-29.623 11.668-45.22 14.124a208.384 208.384 0 0 1-47.064 1.514 227.14 227.14 0 0 1-46.04-8.238c-15.076-4.526-29.872-10.208-43.075-20.514a5.986 5.986 0 0 1 5.25-10.496ZM706.539 2175.739c-4.17 0-6.69-.086-7.256-.105l.888-23.985c.848.034 87.278 2.732 166.277-31.413l9.522 22.03c-71.367 30.85-146.118 33.473-169.431 33.473Z" style="fill:#371a45"></path>
  <path d="M1265.347 2766.713c-11.977-9.888-55.847-14.707-83.171-14.971l.23-23.999c12.409.12 75.458 1.67 98.22 20.464ZM796.844 2997.142c-61.182-30.05-213.592-39.814-215.122-39.91l1.484-23.954c6.45.4 158.738 10.158 224.219 42.321ZM1094.395 3046.437c-66.621-55.073-198.616-26.77-199.944-26.48l-5.185-23.432c5.874-1.302 144.731-31.16 220.422 31.416ZM767.813 2291.783a13.928 13.928 0 0 1-7.483-2.177c-23.54-14.922-36.968-38.655-35.918-63.484 1.02-24.173 15.322-45.742 38.26-57.7 33.832-17.64 33.747-33.128 33.517-74.522q-.029-4.91-.036-10.166a14 14 0 0 1 27.998 0c0 3.452.02 6.787.037 10.01.239 42.942.41 73.97-48.572 99.507-13.953 7.273-22.637 20.002-23.23 34.052-.63 14.927 7.73 29.017 22.934 38.655a14 14 0 0 1-7.507 25.825Z" style="fill:#371a45"></path>
  <circle cx="1288.24" cy="2182.635" r="390.181" style="fill:#fff"></circle>
  <path d="M1288.362 2574.398c-104.69 0-209.116-41.557-286.167-123.808a391.941 391.941 0 0 1 18.091-554c157.727-147.748 406.25-139.63 554 18.089a391.944 391.944 0 0 1-18.092 554.001 390.551 390.551 0 0 1-267.832 105.718Zm-.241-779.997a388.324 388.324 0 0 0-12.557 776.443c103.667 3.405 202.498-33.812 278.218-104.742 156.304-146.418 164.346-392.705 17.925-549.01-76.348-81.5-179.851-122.691-283.586-122.691Z" style="fill:#371a45"></path>
  <g style="opacity:.35">
    <path d="M1591.85 2427.736a387.787 387.787 0 0 1-36.859 39.663c-157.282 147.295-404.189 139.238-551.52-18.01-147.297-157.281-139.238-404.188 18.009-551.52 4.52-4.24 9.145-8.374 13.805-12.333-120.633 149.048-115.939 367.96 18.85 511.858 143.091 152.727 380.083 164.71 537.715 30.342Z"></path>
    <path d="M1288.357 2574.384c-104.694 0-209.126-41.553-286.176-123.79-147.718-157.731-139.602-406.262 18.093-554.013a383.138 383.138 0 0 1 13.867-12.39l2.515 2.456c-121.167 149.71-113.098 368.762 18.767 509.54 142.097 151.663 377.22 164.935 535.283 30.206l2.52 2.451a391.47 391.47 0 0 1-304.869 145.54Zm-266.076-674.844c-155.889 146.467-163.787 392.463-17.522 548.642 146.42 156.277 392.712 164.312 549.026 17.928a392.518 392.518 0 0 0 24.428-25.027c-159.074 123.008-386.342 105.903-525.368-42.483-128.694-137.39-140.542-348.66-30.564-499.06Z" style="fill:#371a45"></path>
  </g>
  <path d="M1288.367 2586.644c-107.964 0-215.652-42.856-295.11-127.678-73.81-78.794-112.522-181.614-108.996-289.521 3.523-107.906 48.857-207.984 127.651-281.792 162.654-152.373 418.943-144 571.311 18.65 73.811 78.796 112.522 181.616 108.997 289.523-3.523 107.906-48.858 207.984-127.652 281.792a402.746 402.746 0 0 1-276.2 109.026Zm-.244-780a376.038 376.038 0 0 0-274.412 633.157c141.807 151.377 380.323 159.16 531.695 17.363h.002c151.375-141.804 159.163-380.322 17.361-531.696-73.94-78.931-174.18-118.824-274.646-118.824Z" style="fill:#371a45"></path>
  <path d="M1546.822 2473.331c-54.927 53.035-123.138 84.442-194.773 94.687-53.706 7.68-199.805-32.847-312.896-147.887-104.859-106.667-142.016-259.96-132.458-313.363 12.75-71.233 46.529-138.3 101.457-191.335 145.354-140.345 326.191-73.643 474.947 80.423 148.757 154.066 209.078 337.13 63.723 477.475Z" style="fill:#293856"></path>
  <g style="opacity:.7">
    <ellipse cx="1479.033" cy="2363.606" rx="69.05" ry="50.035" style="fill:#fff" transform="rotate(-33.725 1479.033 2363.606)"></ellipse>
  </g>
  <g style="opacity:.7">
    <ellipse cx="1338.059" cy="2414.52" rx="31.693" ry="27.198" style="fill:#fff" transform="rotate(-25.783 1338.06 2414.52)"></ellipse>
  </g>
  <g style="opacity:.35">
    <path d="M1630.04 2288.148c.386 65.52-24.84 128.797-83.212 185.172-54.939 53.046-123.156 84.44-194.772 94.706-53.712 7.672-199.817-32.866-312.917-147.892-39.943-40.609-70.04-87.979-91.482-134.053 142.04 138.432 320.52 187.31 387.125 177.78 90.922-13 177.499-52.872 247.188-120.179a395.006 395.006 0 0 0 48.07-55.534Z" style="fill:#111a28"></path>
    <path d="M1338.917 2570.614c-59.41 0-193.755-40.134-301.038-149.243-36.785-37.4-67.678-82.666-91.824-134.546l-4.06-8.728 6.895 6.719a685.298 685.298 0 0 0 221.274 144.001c77.024 30.867 135.396 37.434 164.37 33.296 93.89-13.425 179.029-54.817 246.211-119.7a395.438 395.438 0 0 0 47.859-55.288l3.171-4.465.032 5.478c.408 69.651-27.77 132.383-83.755 186.45-53.405 51.57-121.093 84.483-195.744 95.186a95.972 95.972 0 0 1-13.391.84ZM953.41 2294.056c23.325 47.876 52.559 89.837 86.985 124.84 115.471 117.433 262.07 154.438 311.411 147.382 73.911-10.596 140.925-43.179 193.794-94.228 53.784-51.944 81.57-111.941 82.647-178.401a401.859 401.859 0 0 1-45.052 51.303c-67.72 65.403-153.532 107.127-248.164 120.657-61.528 8.801-235.176-32.81-381.62-171.553Z" style="fill:#371a45"></path>
  </g>
  <path d="m1658.987 2327.66-7.734-1.436-8.106.613-.073-1.02.18-1.077c19.9-107.292-30.797-230.242-142.753-346.199-114.084-118.15-237.197-172.8-346.68-153.889l-.793.095-1.172-15.957.488 7.31-1.247-7.214c114.86-19.84 243.04 36.462 360.913 158.542 115.65 119.78 167.846 247.712 146.977 360.232Z" style="fill:#371a45"></path>
  <circle cx="991.3" cy="2710.579" r="36.864" style="fill:#fff" transform="rotate(-76.717 991.3 2710.579)"></circle>
  <path d="M991.3 2749.208a38.63 38.63 0 1 1 38.63-38.628 38.673 38.673 0 0 1-38.63 38.628Zm0-73.728a35.099 35.099 0 1 0 35.1 35.1 35.138 35.138 0 0 0-35.1-35.1Z" style="fill:#371a45"></path>
  <path d="m1155.306 2788.105-536.755-140.14a31.717 31.717 0 0 1-22.676-38.7 31.717 31.717 0 0 1 38.7-22.677l536.756 140.14a31.717 31.717 0 0 1 22.676 38.701 31.717 31.717 0 0 1-38.701 22.676Z" style="fill:#fff"></path>
  <path d="M1163.377 2790.912a33.755 33.755 0 0 1-8.518-1.099l-536.755-140.139a33.484 33.484 0 1 1 16.918-64.795l536.756 140.142a33.492 33.492 0 0 1-8.401 65.89ZM626.57 2587.32a29.954 29.954 0 0 0-7.573 58.935l536.755 140.14a29.95 29.95 0 1 0 15.132-57.957L634.13 2588.297a29.892 29.892 0 0 0-7.559-.976Z" style="fill:#371a45"></path>
  <g style="opacity:.35">
    <path d="M1194.003 2765.425a31.6 31.6 0 0 1-38.681 22.67l-536.77-140.115a31.72 31.72 0 0 1-12.999-54.447 31.763 31.763 0 0 0 23.3 25.471l536.77 140.149a31.796 31.796 0 0 0 29.01-6.938 31.906 31.906 0 0 1-.63 13.21Z" style="fill:#371a45"></path>
  </g>
  <path d="M1163.392 2799.662a42.53 42.53 0 0 1-10.743-1.387l-536.755-140.139a42.229 42.229 0 0 1 21.335-81.719l536.758 140.142a42.24 42.24 0 0 1-10.595 83.103Zm-536.824-203.594a21.207 21.207 0 0 0-5.364 41.726l536.758 140.14a21.204 21.204 0 0 0 10.715-41.033L631.92 2596.759a21.185 21.185 0 0 0-5.351-.69Z" style="fill:#371a45"></path>
  <path d="M842.531 1987.934c.908 8.53 10.05 76.715-65.564 122.097Z" style="fill:#fff"></path>
  <path d="M856.468 1986.45a131.784 131.784 0 0 1-3.515 40.382 126.908 126.908 0 0 1-15.57 36.95 128.731 128.731 0 0 1-25.466 29.971c-4.69 4.53-10.082 8.113-15.239 11.936-5.244 3.693-10.913 6.671-16.316 9.998a6.57 6.57 0 0 1-7.483-10.777l.694-.534c4.674-3.609 9.611-6.845 14.013-10.677 4.298-3.945 8.825-7.61 12.526-12.042a109.937 109.937 0 0 0 19.258-27.892 105.442 105.442 0 0 0 9.225-64.348 14.043 14.043 0 1 1 27.665-4.841q.123.7.174 1.396Z" style="fill:#371a45"></path>
  <g style="opacity:.7">
    <path d="M982.168 2061.57s99.926-183.47 231.684-161.363 238.877 133.512 229.237 137.797c0 0-148.644-94.316-292.452-48.522-110.895 35.312-168.469 72.088-168.469 72.088Z" style="fill:#fff"></path>
  </g>
  <path d="m1011.365 2830.799-237.687-56.905a44.817 44.817 0 0 1-33.15-54.02l37.158-155.206a44.817 44.817 0 0 1 54.02-33.15l237.686 56.904a44.817 44.817 0 0 1 33.15 54.02l-37.157 155.206a44.817 44.817 0 0 1-54.02 33.15Z" style="fill:#fff"></path>
  <path d="M1021.8 2833.802a46.521 46.521 0 0 1-10.845-1.286l-237.688-56.904a46.634 46.634 0 0 1-34.455-56.148l37.158-155.205a46.582 46.582 0 0 1 56.145-34.458l237.688 56.904a46.58 46.58 0 0 1 34.455 56.148l-37.158 155.205a46.668 46.668 0 0 1-45.3 35.744Zm-10.025-4.719a43.103 43.103 0 0 0 51.893-31.845l37.158-155.206a43.052 43.052 0 0 0-31.844-51.894l-237.688-56.904a43.052 43.052 0 0 0-51.892 31.845l-37.158 155.205a43.103 43.103 0 0 0 31.843 51.895Z" style="fill:#371a45"></path>
  <path d="M867.41 2793.67a7.017 7.017 0 0 1-6.819-8.64l21.426-89.497a8.035 8.035 0 0 0-5.935-9.67l-30.669-7.341a22.037 22.037 0 0 1-16.301-26.565l27.53-121.695 66.798 15.994a7.006 7.006 0 1 1-3.261 13.628l-53-12.688-24.417 107.94a8.024 8.024 0 0 0 5.915 9.758l30.667 7.341a22.063 22.063 0 0 1 16.301 26.56l-21.426 89.497a7.009 7.009 0 0 1-6.809 5.379Z" style="fill:#371a45"></path>
  <g style="opacity:.35">
    <path d="m1065.837 2748.432-10.02 38.47a64.487 64.487 0 0 1-78.66 46.074l-191.828-50.103a64.423 64.423 0 0 1-46.074-78.623l29.116-111.488a63.607 63.607 0 0 1 14.54-26.91l-19.06 72.984a64.407 64.407 0 0 0 46.074 78.623l191.864 50.103a64.256 64.256 0 0 0 64.048-19.13Z" style="fill:#371a45"></path>
  </g>
  <g style="opacity:.35">
    <circle cx="994.553" cy="2717.773" r="45.84" style="fill:#371a45"></circle>
  </g>
  <circle cx="1002.762" cy="2695.688" r="38.616" style="fill:#22a7f0" transform="rotate(-45 1002.762 2695.688)"></circle>
  <path d="M1002.747 2748.32a52.69 52.69 0 1 1 1.089-.013 53.61 53.61 0 0 1-1.089.012Zm.022-77.235c-.168 0-.337.003-.508.005a24.602 24.602 0 0 0 .496 49.2c.168 0 .337-.003.508-.006a24.602 24.602 0 0 0-.496-49.199Z" style="fill:#371a45"></path>
  <path d="M1007.051 2842.206a70.197 70.197 0 0 1-16.335-1.939h-.003l-216.726-51.887a69.614 69.614 0 0 1-51.489-83.904l32.141-134.245a69.61 69.61 0 0 1 83.902-51.49l216.728 51.888a69.614 69.614 0 0 1 51.49 83.903l-32.142 134.246a69.683 69.683 0 0 1-67.566 53.428Zm-9.812-29.2a41.575 41.575 0 0 0 50.117-30.754l32.142-134.248a41.577 41.577 0 0 0-30.755-50.115l-216.728-51.887a41.574 41.574 0 0 0-50.115 30.755l-32.141 134.248a41.577 41.577 0 0 0 30.754 50.114l216.729 51.888Z" style="fill:#371a45"></path>
</svg>
