<svg xmlns="http://www.w3.org/2000/svg" id="astronaut-doing-fishing" viewBox="0 0 2700 3000">
  <path d="M1289.809 2842.14c-361.815 201.034-818.056 70.73-1019.091-291.084a748.744 748.744 0 0 1-75.181-194.82 736.596 736.596 0 0 1-14.867-87.294c-30.651-279.747 98.805-563.45 350.62-719.038q14.938-9.27 30.475-17.904a749.948 749.948 0 0 1 1101.547 520.97c55.865 307.185-85.422 629.097-373.503 789.17Z" style="fill:#ffa726"></path>
  <g style="opacity:.4">
    <path d="M318.006 2585.734a748.75 748.75 0 0 1-75.181-194.82 736.584 736.584 0 0 1-14.867-87.296c-30.651-279.746 98.805-563.449 350.62-719.038q14.938-9.27 30.476-17.903a749.381 749.381 0 0 1 783.744 34.035q-8.441-6.72-17.038-13.2a749.567 749.567 0 0 0-813.995-55.513q-15.52 8.635-30.475 17.904c-251.815 155.588-381.271 439.292-350.62 719.038a736.565 736.565 0 0 0 14.866 87.295 752.055 752.055 0 0 0 310.915 452.107 747.112 747.112 0 0 1-188.445-222.61Z" style="fill:#fff"></path>
  </g>
  <g style="opacity:.35">
    <path d="M1359.15 1575.412c-3.602 82.526-40.566 159.277-106.883 167.612-107.987 13.596-124.697-93.927-132.242-68.286-19.044 64.72-82.911 121.452-160.493 103.477-117.345-27.156-113.746-137.204-226.288-134.803-119.357 2.578-188.451-39.919-214.83-85.367 9.958-6.18 33.005-20.289 43.351-26.045a746.176 746.176 0 0 1 402.848-93.438c147.926 7.804 274.968 47.261 394.537 136.85Z" style="fill:#371a45"></path>
  </g>
  <g style="opacity:.35">
    <path d="M1289.806 2842.119c-361.814 201.035-818.055 70.731-1019.09-291.083a748.756 748.756 0 0 1-75.181-194.821c-3.956-16.985-7.31-34.077-9.994-51.169 141.675 174.905 345.641 280.525 560.978 302.349l-3.425-3.602a124.56 124.56 0 0 1 3.002-71.403c23.871-68.578 79.56-115.932 187.687-78.253 61.656 21.47 102.054 74.687 105.09 130.657a830.246 830.246 0 0 0 193.515-77.758 870.662 870.662 0 0 0 9.781-5.544c-10.947-43.435 1.024-95.486 35.843-137.155 49.614-59.326 128.08-76.77 181.649-42.658a830.763 830.763 0 0 0 180.201-362.556 749.81 749.81 0 0 1 23.447 93.826c55.865 307.186-85.421 629.097-373.503 789.17Z" style="fill:#371a45"></path>
  </g>
  <path d="M930.812 2949.819a766.672 766.672 0 0 1-210.771-29.702c-196.072-56.001-358.601-185.005-457.644-363.247-204.463-367.95-71.458-833.643 296.494-1038.106 367.951-204.463 833.645-71.452 1038.105 296.497 204.466 367.949 71.455 833.642-296.496 1038.108-115.003 63.904-241.653 96.45-369.688 96.45Zm-2.356-1499.036a730.857 730.857 0 0 0-355.967 92.454C218.036 1740.202 89.906 2188.816 286.87 2543.27c95.413 171.704 251.98 295.977 440.862 349.922 188.884 53.95 387.464 31.11 559.17-64.302 354.456-196.963 482.586-645.576 285.623-1000.032-134.26-241.608-385.481-378.076-644.068-378.076Z" style="fill:#371a45"></path>
  <path d="M1320.072 1381.886c-18.751-20.977-52.228-41.281-104.385-41.916 8.546-78.395 16.385-164.452 15.891-198.953-.636-46.436-16.42-108.727-26.802-144.889l-.005.002c-5.157-17.894-8.947-29.383-8.947-29.383-13.955 13.653-122.673 7.546-122.673 7.546-169.543-3.792-306.247-128.246-343.788-165.864l-3.679-23.473c-6.825 6.447-13.651 13.082-20.439 19.985-.282.287-.561.587-.843.876-26.257 26.767-51.703 57.038-74.518 92.955-39.98 62.9-79.703 151.198-92.426 190.544-.234.722-.478 1.464-.694 2.153l-.06.201a991.674 991.674 0 0 0-5.892 19.624q-.506 1.75-1.003 3.492a858.856 858.856 0 0 0-22.303 98.701q-.226 1.392-.445 2.779-4.166 26.336-6.207 51.436c-.046.558-.088 1.114-.132 1.67q-.518 6.582-.887 13.068c-.05.86-.103 1.724-.148 2.583q-.333 6.32-.523 12.546c-.023.737-.058 1.483-.078 2.218-.13 4.854-.213 9.676-.213 14.439 0 2.861.036 5.756.07 8.616.02 1.081.061 2.162.094 3.243.023.973.036 1.944.072 2.918.028 1.55.098 3.089.166 4.625.024.567.029 1.153.057 1.715a6.506 6.506 0 0 0 .036.848c.214 4.414.483 8.732.797 13.054.047.656.07 1.325.12 1.98.01.153.027.304.038.458.177 2.57.434 5.138.634 7.709.353 3.248.706 6.462 1.06 9.71.705 5.792 1.482 11.477 2.436 17.092.152.932.337 1.842.495 2.77.43 2.514.858 5.036 1.328 7.499.856 4.388 1.814 8.694 2.816 12.96.371 1.594.733 3.198 1.117 4.773.353 1.413.741 2.827 1.06 4.203.885 3.182 1.78 6.352 2.722 9.449.073.241.137.494.21.734.235.796.493 1.591.741 2.386.272.871.535 1.75.811 2.615.53 1.66 1.06 3.32 1.624 4.944.495 1.449.99 2.86 1.519 4.308 2.005 5.564 4.22 10.96 6.538 16.263 1.106 2.534 2.19 5.09 3.367 7.556a93.403 93.403 0 0 0 2.161 4.362 171.445 171.445 0 0 0 4.55 8.682 253.242 253.242 0 0 0 4.843 8.26l.046.077.002.003.002.003a202.444 202.444 0 0 0 21.349 28.744l1.803 1.993c.123.135.238.267.362.404.376.39.737.762 1.098 1.142.489.518.977 1.043 1.477 1.542a71.76 71.76 0 0 0 2.92 2.96 181.008 181.008 0 0 0 17.974 15.66 96.96 96.96 0 0 0 3.147 2.351c3.763 2.752 7.702 5.3 11.711 7.762 2.006 1.232 3.999 2.481 6.061 3.648 1.448.848 2.896 1.625 4.38 2.4 1.624.85 3.319 1.732 5.049 2.579 1.66.812 3.39 1.625 5.156 2.437 1.518.67 3.037 1.342 4.59 2.047.88.34 1.75.69 2.619 1.04.662.27 1.325.54 1.995.802.409.162.829.314 1.239.476.728.292 1.45.59 2.199.862 1.412.53 2.86 1.023 4.272 1.517 1.59.566 3.179 1.095 4.803 1.59.527.176 1.064.312 1.592.477.956.3 1.906.61 2.884.88 3.014.896 6.078 1.703 9.169 2.47 1.613.403 3.222.812 4.86 1.187.84.18 1.695.348 2.543.521.644.134 1.278.279 1.933.41 1.116.24 2.232.44 3.347.633.288.051.573.116.863.166.321.065.637.109.955.17 1.085.21 2.17.41 3.254.585 2.42.411 4.894.713 7.35 1.05 1.623.224 3.217.506 4.861.703 1.73.176 3.461.389 5.227.53 2.154.175 4.378.388 6.603.529.457.03.938.05 1.4.08 1.184.08 2.37.164 3.568.218.831.051 1.692.09 2.547.13.395.017.77.055 1.172.066 1.214.026 2.427.07 3.641.105.416.014.832.03 1.248.04 2.275.039 4.588.076 6.94.076a343.228 343.228 0 0 0 36.682-2.056q18.67-2.002 38.734-6.05c1.232-.249 2.446-.47 3.686-.73 2.038-.427 4.011-.794 5.932-1.112 61.43-10.129 64.62 35.804 99.547 110.828 11.434 24.53 34.767 39.772 61.467 45.443 33.779 7.179 72.963-1.003 100.405-25.501 16.38-14.62 28.569-35.027 32.913-61.4a287.408 287.408 0 0 0 3.52-34.939q.226-5.706.225-11.324c0-.452-.02-.904-.023-1.356a229.228 229.228 0 0 0-.085-5.596c0-1.202-.07-2.437-.106-3.673v-.425c-.141-2.33-.247-4.695-.388-6.991-.065-.991-.185-1.929-.259-2.91-.279-3.834-.574-7.647-.997-11.397-.18-1.481-.372-2.934-.562-4.393-.091-.71-.173-1.431-.266-2.134-.212-1.448-.423-2.825-.635-4.237-.124-.828-.265-1.62-.393-2.42-.09-.57-.158-1.15-.268-1.718-.103-.634-.231-1.248-.34-1.873-.167-.984-.323-1.966-.518-2.96-.106-.53-.212-1.059-.282-1.553l-.07-.336a137.78 137.78 0 0 0-.876-4.312c-.189-.987-.379-1.934-.607-2.844a140.422 140.422 0 0 0-.985-4.285l-.046-.177a241.787 241.787 0 0 0-2.254-8.88c-.246-.915-.504-1.816-.758-2.722-.145-.522-.278-1.055-.431-1.569-1.176-4.02-2.389-7.964-3.716-11.794-.327-.997-.69-1.944-1.032-2.923-.412-1.177-.808-2.386-1.232-3.522-.433-1.234-.9-2.4-1.366-3.568-.03-.074-.057-.151-.086-.225-.57-1.556-1.176-3.034-1.783-4.513-.354-.885-.734-1.744-1.106-2.611-.262-.62-.515-1.25-.78-1.867-.135-.307-.264-.578-.392-.87-.138-.316-.276-.65-.414-.947-.467-1.05-.948-2.074-1.424-3.104-.294-.638-.58-1.295-.876-1.929v-.035c.847.14 1.694.247 2.542.353 18.68 2.79 36.054 5.368 51.345 7.52l1.13 7.664s-.636 7.77-1.836 114.696c-.99 88 130.48 127.726 184.226 23.907 55.583-107.316 33.336-217.279 4.344-249.767Z" style="fill:#fff"></path>
  <path d="M990.93 1731.882a118.927 118.927 0 0 1-24.73-2.58c-29.463-6.258-51.79-22.791-62.866-46.553-6.814-14.634-12.48-28.304-17.478-40.364-20.642-49.802-32.007-77.227-79.931-69.336-1.893.312-3.838.674-5.848 1.096l-3.696.733c-13.386 2.697-26.48 4.743-38.92 6.079a357.124 357.124 0 0 1-43.87 1.99l-8.694-.345c-1.099-.049-2.217-.127-3.335-.202l-1.65-.098c-1.553-.098-3.12-.232-4.664-.364l-1.965-.168c-1.209-.096-2.41-.225-3.604-.354l-1.662-.176a87.2 87.2 0 0 1-2.957-.42l-3.755-.532c-1.887-.252-3.776-.503-5.632-.818-1.089-.178-2.195-.381-3.298-.596l-.977-.176-.461-2.124-.342 1.97a84.421 84.421 0 0 1-3.428-.646l-4.475-.93c-1.394-.32-2.742-.657-4.087-.997l-.835-.207c-3.117-.774-6.21-1.587-9.255-2.493a66.074 66.074 0 0 1-2.337-.708l-2.202-.669a113.277 113.277 0 0 1-4.839-1.601l-1.02-.357c-1.094-.38-2.202-.766-3.286-1.174a56.985 56.985 0 0 1-1.86-.725l-6.209-2.461c-1.653-.747-3.167-1.416-4.678-2.085q-2.71-1.242-5.227-2.468a218.496 218.496 0 0 1-5.098-2.603 107.046 107.046 0 0 1-4.462-2.446c-1.707-.965-3.389-2.002-5.074-3.04l-1.025-.632c-4.705-2.888-8.467-5.383-11.843-7.852a104.322 104.322 0 0 1-3.194-2.385 184.224 184.224 0 0 1-18.156-15.82 72.553 72.553 0 0 1-2.976-3.018l-4.759-5.102a205.331 205.331 0 0 1-21.57-29.036 257.58 257.58 0 0 1-4.934-8.413 173.018 173.018 0 0 1-4.6-8.784 92.194 92.194 0 0 1-2.18-4.397c-.952-1.99-1.85-4.063-2.749-6.133l-.637-1.462c-2.612-5.977-4.768-11.338-6.587-16.387-.53-1.45-1.027-2.876-1.528-4.339a208.821 208.821 0 0 1-1.636-4.982l-1.567-5.047 1.709-1.296-1.914.58c-.947-3.112-1.843-6.296-2.735-9.494-.217-.928-.439-1.782-.661-2.641l-1.538-6.414c-1.006-4.29-1.97-8.62-2.83-13.035a347.65 347.65 0 0 1-1.238-6.967l-.595-3.36c-.865-5.088-1.64-10.547-2.449-17.173l-1.333-12.949c-.132-1.526-.266-3.052-.369-4.578l-.158-2.431c-.318-4.334-.586-8.67-.801-13.098a7.58 7.58 0 0 1-.037-.945l-.056-1.631c-.08-1.865-.142-3.264-.168-4.673l-.164-6.167c-.037-2.873-.07-5.776-.07-8.647 0-4.78.082-9.62.212-14.492l.078-2.225q.19-6.25.525-12.592l.149-2.598q.37-6.497.888-13.103l.135-1.68c1.357-16.711 3.452-34.067 6.225-51.582l.444-2.788a863.663 863.663 0 0 1 22.354-98.928l1.006-3.499a992.995 992.995 0 0 1 5.903-19.665l.762-2.376c12.49-38.62 51.633-126.482 92.641-190.998 20.672-32.547 45.132-63.062 74.776-93.284l.852-.884c6.328-6.433 13.03-12.988 20.486-20.031l2.763-2.608 4.163 26.585c38.381 38.352 174.202 161.062 341.958 164.817 30.063 1.687 110.3 3.718 121.23-6.978l2.293-2.241 1.006 3.044c.039.117 3.86 11.729 8.97 29.456 9.763 33.989 26.235 98.074 26.884 145.415.42 29.277-5.432 102.832-15.666 197.019 58.22 1.335 89.885 27.146 103.652 42.544v.002c28.72 32.183 51.926 143.921-4.06 252.017-30.378 58.679-83.215 68.996-119.243 60.02-41.582-10.374-69.214-44.48-68.76-84.869 1.19-105.781 1.817-114.519 1.843-114.839l-.886-5.725c-14.638-2.068-31.133-4.514-48.816-7.155l2.605 5.94c.313.725.625 1.447.923 2.19.608 1.481 1.223 2.983 1.804 4.565.542 1.365 1.018 2.558 1.463 3.818.27.728.542 1.524.815 2.32l.796 2.265c.227.628.454 1.255.664 1.902 1.326 3.828 2.549 7.803 3.735 11.855l1.202 4.332a242.983 242.983 0 0 1 2.27 8.945c.388 1.58.733 3.042 1.04 4.502.22.876.42 1.86.615 2.886.306 1.357.591 2.82.877 4.309.144.85.234 1.3.325 1.753.183.94.317 1.743.451 2.546l.442 2.478c.071.356.132.784.193 1.21l1.941 13.773c.43 3.791.727 7.632 1.008 11.494l.117 1.284c.054.54.105 1.08.142 1.636l.437 8.75c.032.832.061 1.66.061 2.47.059 1.832.076 3.704.086 5.589l.021 1.365q0 5.658-.222 11.401a291.481 291.481 0 0 1-3.547 35.186c-4.121 25.02-15.725 46.653-33.557 62.568-20.64 18.425-48.823 28.545-77.42 28.545ZM821.053 1567.7c38.179 0 50.095 28.764 68.496 73.154 4.983 12.024 10.632 25.65 17.41 40.205 10.534 22.595 31.867 38.34 60.07 44.331 35.176 7.466 72.981-2.116 98.655-25.036 17.144-15.3 28.303-36.128 32.273-60.232a286.296 286.296 0 0 0 3.496-34.695q.224-5.665.222-11.245l-.022-1.345c-.01-1.851-.026-3.69-.085-5.545 0-.825-.03-1.601-.06-2.383l-.687-11.528c-.276-3.813-.569-7.6-.991-11.323l-1.929-13.672c-.051-.357-.1-.715-.17-1.067l-.45-2.527c-.127-.766-.254-1.533-.408-2.307a33.205 33.205 0 0 1-.3-1.655c-.33-1.69-.606-3.113-.916-4.492a52.064 52.064 0 0 0-.595-2.8c-.318-1.49-.652-2.913-.989-4.295a248.414 248.414 0 0 0-2.285-9.002l-1.18-4.253c-1.166-3.994-2.37-7.905-3.686-11.706-.21-.64-.422-1.228-.637-1.817l-.818-2.334c-.261-.761-.522-1.523-.793-2.25-.438-1.24-.894-2.38-1.35-3.523a123.126 123.126 0 0 0-1.863-4.72c-.288-.727-.589-1.416-.887-2.104l-4.255-9.986v-2.36l2.33.351c.82.137 1.64.24 2.46.342 18.723 2.795 36.091 5.374 51.377 7.527l1.482.207 1.345 9.143c-.01.796-.637 10.21-1.814 115.01-.432 38.499 25.982 71.028 65.728 80.943 34.616 8.63 85.42-1.372 114.726-57.979 55.14-106.465 32.688-216.067 4.627-247.515v.003c-13.501-15.103-44.824-40.542-102.918-41.25l-2.202-.027.24-2.19c10.36-95.073 16.298-169.358 15.878-198.706-.642-46.863-17.021-110.566-26.726-144.368-3.686-12.778-6.697-22.36-8.09-26.716-20.574 11.624-111.019 6.926-121.724 6.328-169.861-3.801-307.083-128.362-345.093-166.448l-.459-.461-3.188-20.354a748.296 748.296 0 0 0-17.627 17.314l-.845.877c-29.444 30.02-53.733 60.317-74.253 92.624-40.83 64.239-79.788 151.67-92.214 190.088l-.686 2.134a1014.427 1014.427 0 0 0-5.94 19.785l-1.001 3.487a858.93 858.93 0 0 0-22.251 98.471l-.445 2.766c-2.756 17.422-4.839 34.676-6.191 51.29l-.13 1.664q-.516 6.56-.883 13.025l-.15 2.576q-.332 6.295-.52 12.5l-.077 2.212a538.62 538.62 0 0 0-.213 14.385c0 2.851.034 5.74.071 8.591l.164 6.116c.026 1.408.085 2.776.144 4.138l.078 2.168a6.645 6.645 0 0 0 .017.679c.232 4.575.498 8.877.813 13.18l.12 1.97c.141 1.979.273 3.48.402 4.981l1.321 12.837c.798 6.538 1.568 11.939 2.422 16.973l.593 3.345c.393 2.307.789 4.621 1.223 6.882.848 4.358 1.802 8.64 2.798 12.88l1.514 6.324c.232.894.464 1.785.664 2.659.86 3.08 1.75 6.235 2.688 9.319l1.755 5.71c.523 1.64 1.048 3.284 1.607 4.895.493 1.44.981 2.842 1.506 4.273 1.792 4.975 3.916 10.256 6.494 16.152l.64 1.472c.879 2.027 1.758 4.055 2.698 6.023a89.862 89.862 0 0 0 2.129 4.29 171.334 171.334 0 0 0 4.524 8.64 251.16 251.16 0 0 0 4.804 8.19 201.375 201.375 0 0 0 21.184 28.54l1.795 1.983-1.12 1.746 1.662-1.157 2.329 2.431a74.936 74.936 0 0 0 2.888 2.93 180.234 180.234 0 0 0 17.8 15.508 95.334 95.334 0 0 0 3.098 2.317c3.304 2.414 6.983 4.85 11.595 7.683l1.03.634c1.64 1.011 3.281 2.024 4.968 2.979 1.446.845 2.866 1.606 4.324 2.368 1.609.842 3.286 1.716 5 2.554 1.645.805 3.362 1.611 5.112 2.417 1.5.661 3.023 1.335 4.583 2.043l5.757 2.278c.979.393 1.555.628 2.148.842 1.077.403 2.153.78 3.218 1.15l1.035.362c1.567.556 3.13 1.076 4.724 1.565l2.192.664c.74.234 1.48.468 2.234.678 3.02.896 6.055 1.695 9.117 2.454l.842.21c1.32.332 2.644.662 3.982.972l4.426.918a78.37 78.37 0 0 0 3.294.622l1.853.342c1.069.207 2.13.405 3.195.576 1.824.31 3.667.557 5.508.8l3.83.545c.926.142 1.851.284 2.794.398l1.653.174c1.154.127 2.316.251 3.49.344l1.988.168c1.514.132 3.05.264 4.585.36l1.401.08c1.346.093 2.434.166 3.533.217l8.562.34a351.487 351.487 0 0 0 43.362-1.97c12.32-1.322 25.29-3.348 38.555-6.021l3.667-.728c2.07-.432 4.07-.803 6.018-1.125a97.151 97.151 0 0 1 15.78-1.404ZM1036.664 2536.943a126.415 126.415 0 0 1 12.937 74.021 191.871 191.871 0 0 1-4.824 24.7 152.546 152.546 0 0 1-21.214 47.05 123.205 123.205 0 0 1-39.361 36.167c-15.663 9.044-33.11 14.292-50.347 16.64-17.299 2.508-34.478 2.208-51.245.64-8.405-.996-16.512-2.18-24.904-3.868a180.32 180.32 0 0 1-25.141-6.917 172.685 172.685 0 0 1-23.996-10.42 155.816 155.816 0 0 1-22.235-13.933 168.809 168.809 0 0 1-36.85-37.48 145.842 145.842 0 0 1-22.793-47.822c-9.5-34.44-4.998-72.67 12.703-103.298 17.267-31.009 46.437-53.368 78.13-64.85a163.49 163.49 0 0 1 98.039-3.855 5.383 5.383 0 0 1-2.008 10.54c-30.423-3.196-61.037 1.42-87.443 14.079-26.435 12.394-48.348 33.025-60.498 57.982-12.066 24.94-14.5 54.014-6.211 80.06 7.998 26.148 25.421 49.516 48.123 65.764a152.167 152.167 0 0 0 37.021 19.618 144.827 144.827 0 0 0 20.318 5.786c7.035 1.486 14.511 2.649 21.736 3.57 14.511 1.77 29.055 2.507 43.017.914a116.972 116.972 0 0 0 39.407-11.072c24.124-11.984 41.838-35.212 51.582-62.829a205.523 205.523 0 0 0 6.36-21.168 114.089 114.089 0 0 0 3.023-21.33 125.783 125.783 0 0 0-5.638-43.613l-.026-.085a6.68 6.68 0 0 1 12.338-4.99Z" style="fill:#371a45"></path>
  <g style="opacity:.35">
    <circle cx="524.337" cy="2200.718" r="157.597" style="fill:#371a45" transform="rotate(-45 524.337 2200.718)"></circle>
  </g>
  <g style="opacity:.4">
    <path d="M743.266 2138.194c34.81 100.542-18.488 210.288-119.03 245.098-100.575 34.821-210.32-18.476-245.13-119.018a185.11 185.11 0 0 1-1.957-5.974 157.545 157.545 0 1 0 34.136-178.15 191.52 191.52 0 0 1 86.872-61.018c100.542-34.81 210.287 18.487 245.109 119.062Z" style="fill:#fff"></path>
  </g>
  <path d="M404.375 2078.234c24.797-28.252 60.524-47.5 98.742-53.392 38.308-6.335 78.917 1.297 113.321 20.539a178.632 178.632 0 0 1 45.764 37.295l4.839 5.655a49.906 49.906 0 0 1 4.567 5.872c2.833 4.074 5.754 8.106 8.479 12.26l7.306 13.013c2.396 4.36 4.15 9.037 6.16 13.59a186.703 186.703 0 0 1 13.097 57.994 181.595 181.595 0 0 1-6.619 59.191 175.74 175.74 0 0 1-25.605 53.657 180.214 180.214 0 0 1-41.412 42.493 183.533 183.533 0 0 1-53.004 26.192 167.15 167.15 0 0 1-58.231 7.524c-19.563-.827-39.038-4.498-57.117-11.733a179.83 179.83 0 0 1-49.42-29.8c-29.55-24.726-49.011-59.922-55.901-96.41a5.374 5.374 0 0 1 10.36-2.756l.047.14c11.397 32.93 31.681 62.186 59.402 81.426a161.218 161.218 0 0 0 44.407 22.476 157.74 157.74 0 0 0 48.628 7.029c8.19.147 16.3-1.145 24.353-2.237l11.92-2.715c3.987-.814 7.765-2.428 11.655-3.573a150.462 150.462 0 0 0 42.574-22.791c25.127-20.019 44.775-47.493 52.895-78.664a159.615 159.615 0 0 0 5.42-47.526c-.716-16.031-4.52-31.882-10.223-46.853-11.002-30.337-33.328-55.776-60.52-73.464a153.684 153.684 0 0 0-44.986-18.876c-15.878-3.979-32.568-5.743-49.128-4.08-33.337 2.09-65.965 15.794-92.442 38.03a6.677 6.677 0 0 1-9.328-9.506Z" style="fill:#371a45"></path>
  <g style="opacity:.35">
    <circle cx="1039.084" cy="1995.296" r="90.91" style="fill:#371a45"></circle>
  </g>
  <g style="opacity:.4">
    <path d="M1164.974 1957.857a111.15 111.15 0 0 1-209.263 75.01 107.01 107.01 0 0 1-1.166-3.433 90.88 90.88 0 1 0 18.572-102.974 111.147 111.147 0 0 1 191.857 31.397Z" style="fill:#fff"></path>
  </g>
  <path d="M967.648 1923.93c13.854-17.388 34.815-29.584 57.578-33.824 22.85-4.441 47.465-.494 68.487 10.726a105.85 105.85 0 0 1 28.115 22.038 103.996 103.996 0 0 1 19.537 30.245 111.002 111.002 0 0 1 8.47 35.1 109.836 109.836 0 0 1-3.706 36.011 110.015 110.015 0 0 1-40.226 58.634c-19.559 14.006-43.46 21.827-67.182 20.556a102.708 102.708 0 0 1-34.351-7.13 106.606 106.606 0 0 1-29.49-18.012 97.03 97.03 0 0 1-32.327-57.605 4.79 4.79 0 0 1 9.163-2.578l.062.153c7.484 18.357 19.475 34.182 35.296 44.251a90.019 90.019 0 0 0 24.96 11.552 88.65 88.65 0 0 0 26.761 3.03 85.194 85.194 0 0 0 48.777-18.222c13.305-11.15 23.763-26.061 27.844-42.955a87.158 87.158 0 0 0 2.57-25.62 84.12 84.12 0 0 0-5.64-25.231c-5.914-16.395-18.047-30.05-32.75-39.808a84.448 84.448 0 0 0-24.474-10.467 78.612 78.612 0 0 0-26.964-2.594c-18.461.814-36.722 8.053-52.128 20.11l-.053.041a5.956 5.956 0 0 1-8.329-8.4ZM1422.59 2301.94a113.31 113.31 0 0 1 82.45 47.398 128.168 128.168 0 0 1 20.044 45.744 141.667 141.667 0 0 1 1.8 49.734 171.664 171.664 0 0 1-13.518 47.598 203.711 203.711 0 0 1-26.167 41.793 212.501 212.501 0 0 1-36.048 33.58 195.31 195.31 0 0 1-43.836 23.17 166.59 166.59 0 0 1-49.105 9.783c-16.818.698-34.056-1.057-50.36-6.662-32.785-10.606-60.878-35.782-74.19-67.223-13.509-31.43-13.122-66.414-3.565-96.967a177.433 177.433 0 0 1 20.622-42.892 186.394 186.394 0 0 1 31.161-34.805 5.376 5.376 0 0 1 7.713 7.433l-.131.16a213.079 213.079 0 0 0-23.833 35.99 171.544 171.544 0 0 0-13.83 39.791c-5.767 27.198-2.875 55.51 8.705 78.744a95.07 95.07 0 0 0 57.548 47.253c24.608 7.262 52.01 4.736 76.92-4.29 49.844-18.533 90.717-64.634 100.572-117.333.482-3.29 1.285-6.576 1.552-9.888l.76-9.962-.203-9.945c-.024-3.333-.765-6.55-1.005-9.864a101.217 101.217 0 0 0-12.594-37.264c-12.804-23.433-36.402-40.469-63.796-47.965l-.05-.014a6.682 6.682 0 0 1 2.384-13.097Z" style="fill:#371a45"></path>
  <g style="opacity:.3">
    <path d="M1496.972 1977.497c-14.056 16.956-35.099 19.717-55.483 9.985 10.452 2.202 20.748.64 29.603-5.287 24.905-16.669 29.152-61.535 9.504-100.21-19.635-38.65-55.747-56.504-80.651-39.835a38.992 38.992 0 0 0-4.16 3.228 52.122 52.122 0 0 1 3.607-4.92c22.31-26.92 62.233-18.087 89.18 19.76 26.961 37.872 30.71 90.358 8.4 117.279Z" style="fill:#fff"></path>
    <path d="M1464.594 1995.102a55.723 55.723 0 0 1-23.967-5.815l-15.115-7.215 16.39 3.453c10.263 2.168 19.972.434 28.078-4.993 24.048-16.091 28.01-59.893 8.835-97.64-11.43-22.5-29.187-38.786-47.5-43.569-11.086-2.898-21.548-1.342-30.256 4.49a36.324 36.324 0 0 0-3.948 3.062l-10.937 9.687 7.932-12.27a53.963 53.963 0 0 1 3.742-5.108c9.253-11.164 21.536-16.787 35.68-16.277 20.187.74 40.844 13.916 56.674 36.153 27.395 38.481 31.123 92.185 8.31 119.714-8.935 10.779-20.827 16.328-33.918 16.328Zm-9.172-4.975c15.49 3.127 29.873-1.678 40.01-13.907 21.73-26.223 17.924-77.741-8.487-114.841-15.105-21.216-34.629-33.78-53.564-34.475a38.463 38.463 0 0 0-27.752 9.936c8.128-3.369 17.222-3.864 26.697-1.386 19.402 5.066 38.113 22.124 50.054 45.627 20.063 39.49 15.498 85.593-10.174 102.776a38.53 38.53 0 0 1-16.784 6.27Z" style="fill:#371a45"></path>
  </g>
  <g style="opacity:.35">
    <ellipse cx="1435.518" cy="1912.168" rx="53.526" ry="79.031" style="fill:#293856" transform="rotate(-20.972 1435.519 1912.168)"></ellipse>
    <path d="M1450.392 1990.437a46.274 46.274 0 0 1-11.687-1.556c-19.402-5.065-38.115-22.124-50.056-45.632-20.058-39.477-15.488-85.574 10.186-102.759 9.692-6.486 21.264-8.227 33.498-5.036 19.402 5.068 38.113 22.126 50.054 45.632 20.059 39.478 15.488 85.576-10.186 102.759a38.684 38.684 0 0 1-21.809 6.592Zm-29.719-152.532a34.763 34.763 0 0 0-19.612 5.91c-24.05 16.097-28.017 59.888-8.847 97.623 11.433 22.502 29.191 38.791 47.502 43.574 11.082 2.89 21.545 1.34 30.259-4.492 24.05-16.094 28.02-59.888 8.847-97.622-11.43-22.503-29.187-38.792-47.5-43.572a42.043 42.043 0 0 0-10.649-1.421Z" style="fill:#371a45"></path>
  </g>
  <g style="opacity:.4">
    <path d="M1500.36 1978.474c-10.912 7.31-23.766 8.651-36.69 4.98a32.875 32.875 0 0 0 2.083-1.272c24.895-16.668 29.133-61.515 9.499-100.182-16.456-32.418-44.494-50.18-67.8-45.271a46.732 46.732 0 0 1 13.63-14.302c27.756-18.54 67.977 1.307 89.871 44.424 21.894 43.081 17.127 93.048-10.594 111.623Z" style="fill:#fff"></path>
  </g>
  <path d="M1402.985 1969.994c-11.803-10.109-20.699-23.52-26.743-38.122-5.913-14.67-9.316-30.919-7.809-47.853a75.592 75.592 0 0 1 6.426-25.463 58.343 58.343 0 0 1 17.934-22.66 51.39 51.39 0 0 1 28.847-10.001 60.52 60.52 0 0 1 28.096 6.202c16.548 8.035 28.657 20.674 37.516 34.547a117.742 117.742 0 0 1 17.01 45.38c2.501 15.958 1.59 32.701-4.244 48.29-3.025 7.697-7.278 15.202-13.436 21.175a41.082 41.082 0 0 1-22.078 11.69 4.82 4.82 0 0 1-3.023-9.012l.173-.09c11.279-6.01 17.233-17.26 19.245-29.426 2.238-12.165.818-25.06-2.424-37.258a110.12 110.12 0 0 0-16.317-33.782c-7.19-9.916-16.359-18.222-25.908-22.616-9.657-4.432-18.36-4.226-25.152.385-6.972 4.464-12.517 14.628-14.614 26.32a81.054 81.054 0 0 0-1.388 18.318 91.908 91.908 0 0 0 2.363 19.094 118.005 118.005 0 0 0 14.499 37.16l.089.152a5.987 5.987 0 0 1-9.062 7.57Z" style="fill:#371a45"></path>
  <path d="M456.023 1810.898c-5.212-20.637 18.522-58.418 58.466-77.218 39.943-18.8 77.07-10.224 86.182 9.137Z" style="fill:#ffa726"></path>
  <path d="M450.858 1812.203a33.37 33.37 0 0 1-2.36-14.85 57.042 57.042 0 0 1 2.583-14.085 87.978 87.978 0 0 1 12.535-24.539 116.112 116.112 0 0 1 41.009-35.296c16.128-8.355 34.548-13.383 53.432-12.271a70.819 70.819 0 0 1 27.763 7.031 49.374 49.374 0 0 1 12.182 8.835 31.486 31.486 0 0 1 7.961 13.298 5.911 5.911 0 0 1-10.085 5.537l-.499-.555c-4.227-4.7-10.14-7.437-16.681-8.884a67.821 67.821 0 0 0-20.566-1.174 116.636 116.636 0 0 0-41.148 12.298 137.143 137.143 0 0 0-35.474 25.881 100.434 100.434 0 0 0-13.504 17.142c-3.771 6.079-6.54 12.657-6.819 19.023l-.03.724a5.37 5.37 0 0 1-10.299 1.885Z" style="fill:#371a45"></path>
  <g style="opacity:.35">
    <ellipse cx="528.291" cy="1778.215" rx="86.79" ry="42.427" style="fill:#371a45" transform="rotate(-29.002 528.292 1778.215)"></ellipse>
  </g>
  <path d="M719.11 775.765s-164.131-37.218-216.302-10.263c-84.99 43.911-189.933 338.321-184.4 468.764 2.61 61.488 181.248 107.616 181.248 107.616Z" style="fill:#fff"></path>
  <path d="M499.154 1343.818c-7.35-1.897-180.102-47.214-182.744-109.468-5.632-132.793 100.662-426.802 185.479-470.625 52.224-26.977 210.935 8.565 217.663 10.09l-.883 3.902c-1.634-.374-164.01-36.748-214.944-10.437-83.86 43.328-188.911 335.032-183.32 466.9 2.52 59.313 177.978 105.307 179.75 105.766Z" style="fill:#371a45"></path>
  <g style="opacity:.35">
    <path d="m552.804 1204.775-53.164 137.12s-178.606-46.149-181.222-107.618c-4.703-110.804 70.266-339.881 145.084-433.28-43.533 103.333-92.922 218.498-72.239 301.81 11.77 47.408 115.051 87.937 161.541 101.968Z" style="fill:#371a45"></path>
  </g>
  <path d="M499.665 1355.461a13.64 13.64 0 0 1-3.404-.435c-31.457-8.122-188.527-52.092-191.418-120.185-5.378-126.843 96.201-432.041 191.733-481.399 54.983-28.41 208.243 5.161 225.537 9.084a13.576 13.576 0 0 1-6.003 26.48c-44.321-10.044-167.917-31.675-207.073-11.443-79.201 40.923-182.412 330.103-177.065 456.125 1.504 35.48 100.947 76.941 171.077 95.05a13.578 13.578 0 0 1-3.384 26.723Z" style="fill:#371a45"></path>
  <path d="M658.21 870.5a11.952 11.952 0 0 1-7.615-2.73c-105.379-86.642-166.743-74.506-167.346-74.374a12 12 0 1 1-5.122-23.448c2.94-.644 73.437-14.665 187.712 79.283a12 12 0 0 1-7.63 21.27Z" style="fill:#371a45"></path>
  <g style="opacity:.35">
    <path d="M853.177 1331.768h219.972l-33.042-140.415-222.275-44.13 35.345 184.545z" style="fill:#371a45"></path>
  </g>
  <g style="opacity:.35">
    <path d="M1195.824 1451.334c-1.527-25.813-27.019-56.172-71.253-47.672l-123.303-19.763 79.595 93.967c18.668 2.787 36.03 5.364 51.314 7.517l1.154 7.664s-.645 7.774-1.82 114.71c-.987 87.976 130.484 127.716 184.217 23.89q2.162-4.209 4.21-8.418l12.326-27.566c-132.166 52.492-131.007-52.43-136.44-144.329Z" style="fill:#371a45"></path>
  </g>
  <g style="opacity:.35">
    <path d="M1099.922 1640.445c-17.367 105.495-160.252 115.544-194.76 41.447-36.024-77.358-38.3-123.81-105.495-109.704-175.23 36.782-271.966-44.519-295.211-186 17.102 35.796 54.985 90.212 129.574 101.095 113.042 16.534 264.117-39.361 284.67 29.464 20.553 68.788 40.651 116.189 87.293 118.654 46.832 2.502 84.212-20.264 95.702-74.794.72 18.278 1.45 60.195-1.773 79.838Z" style="fill:#371a45"></path>
  </g>
  <path d="M863.395 1603.747a12.244 12.244 0 0 1-1.626-.11 12.003 12.003 0 0 1-10.28-13.503c.229-1.687 5.937-41.76 35.07-78.967 26.995-34.475 79.695-72.776 177.486-59.46a12 12 0 1 1-3.238 23.778c-69.44-9.45-121.72 7.53-155.351 50.479-25.166 32.139-30.137 67.043-30.183 67.393a12.005 12.005 0 0 1-11.878 10.39Z" style="fill:#371a45"></path>
  <path d="M1082.896 1397.222c-64.313-7.129-78.912-37.314-71.253-64.2 5.044-17.784 19.87-34.128 36.442-41.409l67.65-150.051 60.522-134.277 23.207-51.458s12.286 7.622 28.592 25.52c24.08 26.469 56.919 75.424 71.556 155.399 26.09 142.58-114.14 271.89-216.716 260.476Z" style="fill:#fff"></path>
  <g style="opacity:.35">
    <path d="M1228.056 981.347c-16.306-17.899-28.592-25.52-28.592-25.52l-5.557 12.322c-19.816 11.808-120.756 6.144-120.756 6.144-169.543-3.792-306.247-128.246-343.788-165.864l-3.679-23.473c-6.825 6.447-13.651 13.082-20.439 19.985 6.864 24.572 18.695 48.576 34.736 71.138 44.973 63.1 123.052 115.166 218.84 138.145 90.44 21.69 178.567 13.12 245.952-18.088-.202-.7 16.422-10.713 23.283-14.79Z" style="fill:#371a45"></path>
  </g>
  <g style="opacity:.35">
    <path d="M1158.683 1319.044c-80.037 43.419-130.355 22.13-147.04 13.978 5.044-17.784 19.87-34.128 36.442-41.409l67.65-150.051c25.18-6.295 49.866-9.784 66.968-5.84 50.434 11.604 89.565 121.704-24.02 183.322Z" style="fill:#371a45"></path>
  </g>
  <path d="M1095.739 1411.51a129.753 129.753 0 0 1-14.355-.778c-67.19-7.456-81.83-38.784-84.576-56.794-4.89-32.078 19.454-63.196 45.813-74.749a13.576 13.576 0 0 1 10.899 24.868c-16.338 7.16-32.625 27.725-29.87 45.789 2.716 17.817 24.281 29.856 60.727 33.899 44.922 5 101.296-21.155 143.633-66.582 48.24-51.765 69.47-116.641 58.247-177.991-22.986-125.662-93.28-171.404-93.985-171.85a13.575 13.575 0 0 1 14.368-23.038c3.296 2.046 81.028 51.71 106.326 190 12.783 69.88-10.943 143.284-65.093 201.39-44.466 47.714-101.487 75.837-152.134 75.837Z" style="fill:#371a45"></path>
  <path d="M1488.798 730.745a449.815 449.815 0 0 1-154.792 167.117 456.557 456.557 0 0 1-42.357 23.928c-7.13 3.564-14.448 6.938-21.88 10.2a452.647 452.647 0 0 1-68.22 23.283 449.555 449.555 0 0 1-131.546 13.576q-13.026-.625-25.937-1.934c-157.523-16.306-301.848-114.9-369.157-270.602-99.2-229.343 6.333-495.66 235.638-594.86a451.52 451.52 0 0 1 135.225-35.076c5.309-.57 10.656-.986 16.002-1.29q21.445-1.364 42.737-.682a454.917 454.917 0 0 1 187.593 47.477q13.822 6.882 27.189 14.714a452.07 452.07 0 0 1 186.114 210.535c57.07 131.924 46.377 276.06-16.61 393.614Z" style="fill:#fff"></path>
  <path d="M1090.136 971.298q-10.115 0-20.222-.451a492.691 492.691 0 0 1-26.05-1.944 455.355 455.355 0 0 1-370.791-271.796c-99.468-229.966 6.704-497.998 236.68-597.488a453.407 453.407 0 0 1 135.822-35.232 321.197 321.197 0 0 1 16.087-1.297 449.104 449.104 0 0 1 42.913-.683 456.884 456.884 0 0 1 188.422 47.685 451.07 451.07 0 0 1 27.31 14.78 454.09 454.09 0 0 1 186.936 211.466c55.4 128.066 49.321 272.165-16.682 395.351a453.38 453.38 0 0 1-155.481 167.859 459.915 459.915 0 0 1-42.542 24.033c-6.601 3.3-13.786 6.65-21.965 10.24a457.11 457.11 0 0 1-128.44 34.475 449.34 449.34 0 0 1-51.997 3.002Zm.198-905.12c-9.463 0-18.98.304-28.433.907-5.569.315-10.92.744-15.918 1.281a449.359 449.359 0 0 0-134.643 34.925C683.39 201.904 578.15 467.575 676.745 695.52a451.35 451.35 0 0 0 367.527 269.404c8.51.864 17.202 1.514 25.827 1.929a447.756 447.756 0 0 0 130.952-13.516 452.389 452.389 0 0 0 67.925-23.184c8.106-3.557 15.232-6.88 21.78-10.153a456.03 456.03 0 0 0 42.175-23.826 449.38 449.38 0 0 0 154.104-166.375l1.763.945-1.763-.945c65.423-122.102 71.45-264.934 16.536-391.875a450.098 450.098 0 0 0-185.29-209.604 448.479 448.479 0 0 0-27.068-14.648 452.87 452.87 0 0 0-186.766-47.266q-7.023-.227-14.113-.227Z" style="fill:#371a45"></path>
  <g style="opacity:.35">
    <path d="M1488.798 730.73a449.815 449.815 0 0 1-154.792 167.116 456.534 456.534 0 0 1-42.357 23.928c-7.13 3.564-14.448 6.939-21.88 10.2a452.658 452.658 0 0 1-68.22 23.283 449.56 449.56 0 0 1-131.546 13.576q-13.026-.625-25.937-1.934C886.543 950.593 742.218 852 674.909 696.298a450.314 450.314 0 0 1-31.02-254.257 453.842 453.842 0 0 0 31.02 104.622c25.24 58.388 69.502 81.419 113.038 122.417 72.56 68.332 157.667 137.994 256.119 148.185q12.911 1.308 25.937 1.934a449.56 449.56 0 0 0 131.547-13.576 452.76 452.76 0 0 0 68.219-23.283c7.432-3.261 14.75-6.636 21.88-10.201a456.32 456.32 0 0 0 42.357-23.927 449.821 449.821 0 0 0 154.792-167.117 455.335 455.335 0 0 0 47.628-139.434 452.532 452.532 0 0 1-47.628 289.069Z" style="fill:#293856"></path>
    <path d="M1090.153 971.281q-10.118 0-20.24-.451a491.941 491.941 0 0 1-26.049-1.941 454.686 454.686 0 0 1-401.946-527.18l1.97-11.695 1.975 11.695a452.502 452.502 0 0 0 30.882 104.16c18.325 42.387 47.258 66.347 77.893 91.711 11.323 9.378 23.032 19.075 34.683 30.044 75.131 70.757 158.02 137.617 254.95 147.652a492.24 492.24 0 0 0 25.828 1.926 447.756 447.756 0 0 0 130.952-13.516 452.764 452.764 0 0 0 67.925-23.181c8.115-3.562 15.242-6.885 21.778-10.156a456.19 456.19 0 0 0 42.177-23.823 450.49 450.49 0 0 0 201.521-305.196l1.966-11.706 1.98 11.704c16.67 98.572-.318 201.684-47.837 290.346a453.377 453.377 0 0 1-155.481 167.86 461.388 461.388 0 0 1-42.542 24.033c-6.601 3.3-13.786 6.65-21.965 10.239a456.72 456.72 0 0 1-68.53 23.39 451.25 451.25 0 0 1-111.89 14.085ZM644.052 454.062a450.722 450.722 0 0 0 400.22 510.847 489.15 489.15 0 0 0 25.827 1.927 447.655 447.655 0 0 0 130.953-13.514 452.588 452.588 0 0 0 67.924-23.183c8.106-3.557 15.232-6.88 21.78-10.154a457.493 457.493 0 0 0 42.175-23.826 449.379 449.379 0 0 0 154.104-166.374 452.9 452.9 0 0 0 49.239-276.067A454.448 454.448 0 0 1 1335.08 749.9a460.663 460.663 0 0 1-42.542 24.03c-6.591 3.299-13.776 6.648-21.965 10.242a456.516 456.516 0 0 1-68.53 23.389 451.538 451.538 0 0 1-132.13 13.635 495.528 495.528 0 0 1-26.049-1.941c-98.118-10.159-181.643-77.48-257.288-148.72-11.555-10.882-23.215-20.535-34.49-29.874-31.012-25.678-60.307-49.936-79.013-93.205a457.34 457.34 0 0 1-29.021-93.394Z" style="fill:#371a45"></path>
  </g>
  <path d="M1090.133 982.873q-10.367 0-20.734-.461a503.712 503.712 0 0 1-26.704-1.992c-167.74-17.364-313.433-124.163-380.247-278.721-102.002-235.82 6.877-510.681 242.707-612.703a464.945 464.945 0 0 1 139.297-36.13c5.127-.55 10.74-1.004 16.556-1.333a461.33 461.33 0 0 1 43.94-.696 468.466 468.466 0 0 1 193.215 48.897 463.059 463.059 0 0 1 28.006 15.156 465.625 465.625 0 0 1 191.699 216.855c56.811 131.326 50.578 279.092-17.105 405.41a464.97 464.97 0 0 1-159.46 172.154 471.76 471.76 0 0 1-43.62 24.64c-6.744 3.372-14.102 6.805-22.457 10.472a468.314 468.314 0 0 1-70.334 24.009 463.076 463.076 0 0 1-114.759 14.443Zm.198-905.117c-9.216 0-18.484.293-27.695.879-5.457.31-10.613.725-15.42 1.24a438.016 438.016 0 0 0-131.289 34.043C693.844 209.992 591.31 468.84 687.37 690.925a439.755 439.755 0 0 0 358.096 262.485 476.82 476.82 0 0 0 25.19 1.88 439.562 439.562 0 0 0 193.726-35.762c7.868-3.454 14.824-6.694 21.196-9.88a444.9 444.9 0 0 0 41.133-23.237 437.757 437.757 0 0 0 150.122-162.078c63.742-118.97 69.617-258.135 16.116-381.811a438.506 438.506 0 0 0-180.538-204.224 435.236 435.236 0 0 0-26.357-14.263 441.262 441.262 0 0 0-181.982-46.06q-6.834-.219-13.74-.22Zm398.467 652.988Z" style="fill:#371a45"></path>
  <path d="M1090.133 983.298q-10.378 0-20.751-.461a507.103 507.103 0 0 1-26.729-1.995c-167.895-17.38-313.718-124.275-380.596-278.975-102.094-236.035 6.883-511.145 242.93-613.261a465.424 465.424 0 0 1 139.424-36.163c5.132-.551 10.752-1.003 16.572-1.333a462.15 462.15 0 0 1 43.98-.695 468.902 468.902 0 0 1 193.388 48.938 462.547 462.547 0 0 1 28.032 15.173 465.996 465.996 0 0 1 191.875 217.05c56.863 131.446 50.623 279.346-17.119 405.78a465.4 465.4 0 0 1-159.607 172.31 471.764 471.764 0 0 1-43.662 24.665c-6.748 3.374-14.111 6.809-22.473 10.478a468.649 468.649 0 0 1-70.4 24.033 463.518 463.518 0 0 1-114.864 14.456Zm.2-905.12c-9.208 0-18.469.296-27.668.882-5.454.307-10.603.722-15.403 1.237a437.622 437.622 0 0 0-131.167 34.012C694.228 210.29 591.791 468.886 687.758 690.754a439.335 439.335 0 0 0 357.75 262.234 476.18 476.18 0 0 0 25.167 1.877 435.694 435.694 0 0 0 127.393-13.151 440.413 440.413 0 0 0 66.145-22.574c7.861-3.452 14.81-6.69 21.174-9.873a444.636 444.636 0 0 0 41.097-23.213 437.324 437.324 0 0 0 149.973-161.921c63.684-118.855 69.553-257.886 16.1-381.443a438.068 438.068 0 0 0-180.36-204.026 435.828 435.828 0 0 0-26.334-14.25 440.93 440.93 0 0 0-181.804-46.016q-6.83-.22-13.725-.22Zm398.465 652.566Z" style="fill:#371a45"></path>
  <path d="M1421.391 825.073c-264.22 186.408-625.376 55.98-645.842-263.633-13.924-217.446 188.229-398.962 397.93-398.962 152.623 0 301.626 66.767 366.382 303.642 0 0 12.473 109.288-16.837 182.218-29.31 72.93-70.125 138.913-70.125 138.913Z" style="fill:#293856"></path>
  <path d="M1156.791 912.97c-61.054 0-121.32-12.992-176.594-39.435-122.378-58.548-197.698-172.254-206.646-311.968-6.181-96.555 29.85-191.772 101.456-268.11 78.105-83.267 189.682-132.979 298.471-132.979 189.046 0 312.964 102.656 368.313 305.115.183 1.399 12.249 110.93-16.911 183.489-29.039 72.258-69.871 138.56-70.279 139.22l-32.058 38.404c-80.796 57.002-174.153 86.265-265.752 86.265Zm16.687-748.493c-107.702 0-218.19 49.24-295.554 131.716-70.842 75.523-106.492 169.678-100.378 265.12 8.85 138.225 83.342 250.71 204.377 308.613 136.821 65.452 304.663 47.688 438.1-46.335l31.341-37.62c.242-.432 40.898-66.452 69.805-138.379 28.779-71.613 16.83-180.156 16.706-181.245-54.758-200.205-177.378-301.87-364.397-301.87Z" style="fill:#371a45"></path>
  <path d="M1529.373 629.9a188.102 188.102 0 0 1-6.333 18.428c-29.312 72.922-70.153 138.942-70.153 138.942l-31.512 37.807c-264.192 186.417-625.348 55.97-645.825-263.624a331.044 331.044 0 0 1 1.706-60.825C895 759.702 1243.717 840.965 1510.11 653.031Z" style="opacity:.35;fill:#111a28"></path>
  <path d="M1157.646 969.275c-111.023 0-217.403-37.49-297.259-105.833-86.665-74.175-136.572-177.28-144.326-298.171-7.129-111.248 34.297-220.865 116.646-308.66 89.602-95.527 217.678-152.559 342.602-152.559 70.125 0 133.31 12.52 187.805 37.21l1.136.515 1.003.735a463.462 463.462 0 0 1 151.17 189.858c56.618 130.882 50.405 278.15-17.049 404.04a463.351 463.351 0 0 1-158.918 171.568 469.16 469.16 0 0 1-43.474 24.56c-6.724 3.363-14.058 6.783-22.39 10.44a466.554 466.554 0 0 1-70.086 23.926l-1.865.32q-22.566 2.058-44.995 2.05Zm17.663-841.224c-118.415 0-239.948 54.197-325.097 144.978-77.764 82.908-116.9 186.148-110.2 290.706 7.329 114.277 54.352 211.609 135.98 281.472 85.477 73.154 203.355 108.928 323.521 98.2a442.456 442.456 0 0 0 65.494-22.43c7.902-3.47 14.88-6.722 21.276-9.92a446.017 446.017 0 0 0 41.275-23.318 439.313 439.313 0 0 0 150.664-162.661c63.972-119.397 69.866-259.06 16.172-383.181a439.458 439.458 0 0 0-142.32-179.285c-51.108-22.935-110.568-34.56-176.765-34.56Zm313.49 602.693Z" style="fill:#371a45"></path>
  <path d="M1156.786 924.543c-62.756 0-124.731-13.37-181.584-40.566-126.27-60.408-203.98-177.652-213.2-321.67-6.39-99.783 30.744-198.074 104.562-276.77 80.254-85.557 194.988-136.634 306.914-136.634 194.907 0 322.583 105.523 379.48 313.638l.393 2.041c.525 4.6 12.512 113.565-17.732 188.816-29.406 73.176-69.482 138.26-71.174 140.994l-1.116 1.547-32.651 39.197-1.462 1.03c-82.781 58.402-178.475 88.377-272.43 88.377Zm16.692-748.491c-104.565 0-211.897 47.873-287.112 128.059-68.63 73.166-103.173 164.245-97.27 256.462 8.577 133.921 80.679 242.869 197.822 298.911C1119.543 922.932 1282.3 905.86 1412.113 815l29.725-35.68c4.658-7.646 41.78-69.33 68.59-136.044 26.27-65.369 17.169-163.696 16.05-174.626-53.405-194.166-172.165-292.598-353-292.598Zm247.913 649.02Z" style="fill:#371a45"></path>
  <ellipse cx="692.03" cy="554.586" rx="161.797" ry="117.566" style="fill:#fff" transform="rotate(-89.756 692.03 554.586)"></ellipse>
  <path d="M691.972 729.973a101.747 101.747 0 0 1-10.493-.545c-71.739-7.434-125.664-91.665-120.213-187.76 3.167-55.826 25.174-105.04 60.376-135.018 24.175-20.586 52.178-29.888 80.94-26.907 71.739 7.44 125.664 91.668 120.213 187.762-3.167 55.825-25.174 105.039-60.376 135.017-21.223 18.073-45.39 27.45-70.447 27.45Zm.273-323.614c-18.613 0-36.794 7.164-53 20.962-29.146 24.822-48.162 68.143-50.87 115.884-4.643 81.831 38.377 153.255 95.902 159.217 21.208 2.19 42.15-4.915 60.54-20.572 29.145-24.822 48.16-68.142 50.868-115.884 4.644-81.828-38.376-153.252-95.9-159.216a73.058 73.058 0 0 0-7.54-.39ZM574.821 542.436Z" style="fill:#371a45"></path>
  <ellipse cx="653.377" cy="564.04" rx="95.794" ry="126.543" style="fill:#fff" transform="rotate(-1.719 653.38 564.042)"></ellipse>
  <path d="M654.98 692.607a77.871 77.871 0 0 1-33.514-7.705c-28.334-13.46-50.327-42.564-60.339-79.851-18-67.031 8.565-140.047 59.216-162.761a76.347 76.347 0 0 1 64.944.888c28.335 13.457 50.327 42.564 60.342 79.851 17.998 67.032-8.567 140.047-59.219 162.764a76.602 76.602 0 0 1-31.43 6.814Zm-3.179-253.1a72.38 72.38 0 0 0-29.768 6.547c-48.887 21.922-74.421 92.769-56.921 157.928 9.697 36.118 30.883 64.255 58.122 77.194 20.137 9.566 41.4 9.861 61.487.852 48.884-21.923 74.421-92.77 56.924-157.93-9.7-36.12-30.887-64.255-58.128-77.194a73.562 73.562 0 0 0-31.716-7.398Z" style="fill:#371a45"></path>
  <g style="opacity:.35">
    <path d="M742.67 620.375c7.26-23.221 8.174-48.515 3.816-72.565-21.009 51.555-70.046 70.292-113.61 41.533-28.157-18.572-47.534-52.732-54.258-89.95-1.346 3.243-2.55 6.666-3.658 10.185-18.455 59.14.157 138.31 46.478 168.903 46.32 30.593 102.781 1 121.233-58.106Z" style="fill:#371a45"></path>
  </g>
  <path d="M652.98 706.489a73.474 73.474 0 0 1-8.135-.454c-55.905-6.245-96.381-73.894-92.148-154.007 2.483-47.016 20.793-89.36 48.982-113.266 17.988-15.257 38.65-22.066 59.726-19.72 55.906 6.246 96.382 73.895 92.149 154.007-2.483 47.017-20.794 89.36-48.982 113.267-15.667 13.286-33.355 20.173-51.592 20.173Zm.43-263.892c-12.559 0-24.973 4.942-36.206 14.468-23.245 19.714-38.401 55.689-40.542 96.228-3.443 65.19 29.001 124.216 70.847 128.89 14.365 1.606 28.718-3.3 41.538-14.17 23.245-19.715 38.401-55.69 40.542-96.229 3.442-65.19-29.001-124.216-70.847-128.889a48.205 48.205 0 0 0-5.332-.298ZM1171.508 1133.327a13.579 13.579 0 0 1-12.024-19.85c2.57-4.932 64.736-122.337 217.874-260.85 140.903-127.452 388.625-296.763 768.606-379.598a13.575 13.575 0 1 1 5.78 26.529c-373.456 81.41-616.777 247.375-755.138 372.268-149.966 135.366-212.44 253.04-213.052 254.211a13.581 13.581 0 0 1-12.046 7.29Z" style="fill:#371a45"></path>
  <path d="M1207.005 1219.576s48.245 32.55 55.48 76.178Z" style="fill:#fff"></path>
  <path d="M1262.47 1307.756a12.003 12.003 0 0 1-11.824-10.04c-6.284-37.897-49.926-67.904-50.366-68.202a12 12 0 0 1 13.435-19.888c2.146 1.448 52.622 35.996 60.608 84.165a12 12 0 0 1-9.876 13.801 12.125 12.125 0 0 1-1.977.164ZM2331.694 2204.008a9.944 9.944 0 0 1-5.635-1.745c-161.028-110.095-159.021-233.47-128.982-317.58 3.618-10.13 8.003-20.75 12.646-31.993 40.252-97.454 101.08-244.726-160.058-521.223C1821 1089.35 1975.02 726.606 2061.96 566.716c-40.591 33.962-104.927 61.597-207.034 32.36-5.747-1.647-11.555.904-13.799 6.063-61.445 141.445-169.094 124.28-212.515 110.34a13.217 13.217 0 0 0-11.135 1.672c-2.407 1.738-2.422 3.476-2.427 4.047-.783 87.84-35.292 130.078-64.104 150.044-47.62 33.003-108.947 28.567-150.466 13.418a6.31 6.31 0 0 0-5.857 1.223 11.956 11.956 0 0 0-4.895 9.632c3.123 84.565-16.938 145.041-59.624 179.746-57.388 46.66-133.479 28.555-136.692 27.756a10 10 0 0 1 4.785-19.419c.694.171 69.88 16.45 119.42-23.96 37.46-30.554 55-85.525 52.126-163.383a31.867 31.867 0 0 1 13.115-26.546c7.43-5.408 16.353-6.8 24.48-3.838 36.814 13.438 90.874 17.583 132.217-11.067 36.257-25.127 54.93-70.136 55.495-133.786a24.675 24.675 0 0 1 10.716-20.08 33.06 33.06 0 0 1 28.96-4.503c47.507 15.257 135.105 22.637 188.056-99.265 6.294-14.482 22.13-21.77 37.652-17.322 145.547 41.69 204.963-39.712 233.513-78.828l2.764-3.777a11.934 11.934 0 0 1 16.623-2.722 12.78 12.78 0 0 1 3.797 17.41c-54.524 86.181-313.333 530.078-52.925 805.805 118.623 125.599 183.557 236.766 198.508 339.852 12.795 88.215-13.43 151.716-34.504 202.739-4.549 11.01-8.846 21.41-12.3 31.084-40.25 112.7.608 211.733 121.438 294.343a10 10 0 0 1-5.654 18.254Z" style="fill:#371a45"></path>
  <g style="opacity:.35">
    <path d="M791.97 1354.947c-158.622 1.327-250.807-70.609-289.713-110.576a730.03 730.03 0 0 1 11.527-72.96c38.68 47.856 125.709 117.3 260.251 140.242l-.87-32.824c7.054.417 9.438-1.127 16.53-1.278Z" style="fill:#371a45"></path>
  </g>
  <path d="m782.677 1225.694 2.89 140.324c.15 7.33 4.937 13.526 10.596 13.716l50.849 1.702c4.283.143 7.617-4.154 7.526-9.7l-2.574-113.471s-40.974-20.376-69.769-54.781c-2.614-3.124.39 17.733.482 22.21Z" style="fill:#fff"></path>
  <path d="M847.214 1383.44c-.09 0-.179-.003-.271-.005l-50.845-1.702c-6.736-.227-12.359-7.258-12.532-15.674l-2.888-140.325c-.027-1.235-.283-3.747-.574-6.65-1.46-14.529-1.362-16.848.76-17.742a2.403 2.403 0 0 1 2.866.857c28.178 33.67 68.718 54.073 69.126 54.275l1.081.537 2.6 114.678a12.647 12.647 0 0 1-3.437 9.265 8.37 8.37 0 0 1-5.886 2.486Zm-64.053-175.757c.146 3.276.62 7.998.923 11 .305 3.04.566 5.675.593 6.968l2.888 140.325c.13 6.22 4.097 11.604 8.667 11.758l50.845 1.702a4.413 4.413 0 0 0 3.22-1.336 8.658 8.658 0 0 0 2.241-6.333l-2.546-112.27c-6.506-3.416-40.938-22.273-66.831-51.814Z" style="fill:#371a45"></path>
  <g style="opacity:.35">
    <path d="M851.96 1331.768s-43.988-12.835-72.694-46.318l3.413-48.901c-.076-4.475-3.11-25.331-.493-22.222 28.82 34.394 69.774 54.796 69.774 54.796Z" style="fill:#371a45"></path>
  </g>
  <path d="M1158.683 1027.661s-6.263 60.527-6.885 81.393Z" style="fill:#fff"></path>
  <path d="m1163.498 1028.16.438 40.982.473 20.406c.207 6.746.454 13.588.96 19.91a13.657 13.657 0 1 1-27.16-.676l.02-.132c.988-7.286 2.21-14.028 3.464-20.856l3.901-20.297 8.275-40.334a4.864 4.864 0 0 1 9.63.923Z" style="fill:#371a45"></path>
  <path d="m2386.544 2111.479 24.973 43.146a25.915 25.915 0 0 0 27.845 12.361l48.752-10.417c24.55-5.246 41.47 23.988 24.692 42.662l-33.318 37.084a25.915 25.915 0 0 0-3.151 30.3l24.973 43.148c12.575 21.727-10 46.853-32.944 36.667l-45.565-20.228a25.915 25.915 0 0 0-29.792 6.366l-33.318 37.084c-16.778 18.674-47.65 4.97-45.053-20l5.158-49.585a25.915 25.915 0 0 0-15.26-26.367l-45.566-20.228c-22.944-10.186-19.45-43.782 5.1-49.028l48.752-10.418a25.915 25.915 0 0 0 20.36-22.662l5.158-49.585c2.597-24.97 35.629-32.028 48.204-10.3Z" style="fill:#ffda00"></path>
  <path d="M2340.68 2392.36a40.485 40.485 0 0 1-16.462-3.544 39.327 39.327 0 0 1-23.506-40.613l5.159-49.585a11.88 11.88 0 0 0-7.014-12.12l-45.567-20.231a39.915 39.915 0 0 1 7.852-75.515l48.755-10.418a11.882 11.882 0 0 0 9.36-10.42l5.156-49.582a39.916 39.916 0 0 1 74.248-15.865v-.002l24.973 43.147a11.865 11.865 0 0 0 12.803 5.684l48.753-10.418a39.914 39.914 0 0 1 38.032 65.708l-33.318 37.085a11.88 11.88 0 0 0-1.45 13.93l24.973 43.148a39.916 39.916 0 0 1-50.742 56.477l-45.564-20.227a11.893 11.893 0 0 0-13.696 2.924l-33.318 37.085a39.385 39.385 0 0 1-29.427 13.352Zm23.628-279.826a13.138 13.138 0 0 0-2.683.273 11.565 11.565 0 0 0-9.36 10.42l-5.156 49.585a39.821 39.821 0 0 1-31.363 34.905l-48.752 10.417a11.915 11.915 0 0 0-2.344 22.542l45.566 20.23a39.813 39.813 0 0 1 23.506 40.605l-5.158 49.587a11.915 11.915 0 0 0 20.713 9.2l33.317-37.085a39.816 39.816 0 0 1 45.89-9.805l45.563 20.227a11.915 11.915 0 0 0 15.147-16.858l-24.974-43.147a39.807 39.807 0 0 1 4.856-46.672l33.316-37.083a11.913 11.913 0 0 0-11.35-19.614l-48.755 10.417a39.79 39.79 0 0 1-42.886-19.04l-24.973-43.145v-.002a11.228 11.228 0 0 0-10.12-5.957Z" style="fill:#371a45"></path>
  <path d="m911.713 1381.918 112.985-5.107Z" style="fill:#fff"></path>
  <path d="M911.703 1395.495a13.576 13.576 0 0 1-.603-27.138l112.986-5.108a13.576 13.576 0 1 1 1.226 27.124l-112.986 5.108c-.208.01-.418.014-.623.014Z" style="fill:#371a45"></path>
  <g style="opacity:.7">
    <path d="M1303.034 261.947c-2.361-3.687 13.058 1.083 13.058 1.083l11.083 1.32s19.652 3.215 29.27 5.507q14.564 3.469 28.655 8.299a61.664 61.664 0 0 1 28.69 20.104 339.667 339.667 0 0 1 65.022 140.07c22.24 106.042-2.94 185.046-62.644 259.374 0 0 13.106-54.846-3.088-165.45-9.058-61.866-24.807-137.172-110.046-270.307Z" style="fill:#fff"></path>
  </g>
  <g style="opacity:.7">
    <ellipse cx="960.319" cy="479.126" rx="60.476" ry="70.472" style="fill:#fff" transform="rotate(-1.719 960.317 479.126)"></ellipse>
  </g>
  <g style="opacity:.7">
    <ellipse cx="951.034" cy="627.36" rx="24.972" ry="29.1" style="fill:#fff" transform="rotate(-6.561 951.034 627.36)"></ellipse>
  </g>
  <path d="M1010.861 1309.184c-140.91 0-256.399-78.542-275.474-166.062a13.576 13.576 0 0 1 26.529-5.781c17.31 79.436 145.722 170.525 315.522 138.413 84.148-15.908 132.315-62.637 130.264-98.618-1.85-32.515-44.331-54.956-113.63-60.027-114.434-8.376-183.255-46.814-223.145-124.629a13.575 13.575 0 1 1 24.16-12.388c35.076 68.426 97.056 102.332 200.967 109.937 121.343 8.882 137.458 62.795 138.755 85.561 3.15 55.298-62.337 109.83-152.327 126.844a385.649 385.649 0 0 1-71.62 6.75Z" style="fill:#371a45"></path>
  <path d="M1221.306 1180.62c-1.024 43.57-55.25 92.185-141.33 108.49-168.026 31.74-308.673-55.591-330.705-146.259a64.311 64.311 0 0 1-.607-2.617l134.353-153.957c36.252 70.721 99.01 109.022 212.052 117.288 89.454 6.56 127.185 39.968 126.237 77.055Z" style="fill:#fff"></path>
  <g style="opacity:.35">
    <path d="M1221.306 1180.62c-1.024 43.57-55.25 92.185-141.33 108.49-116.113 21.918-223.58-12.513-286.186-65.83l-12.66 15.044-31.732 6.51s-54.357-28.414-58.257-38.393c-19.709-50.432 8.088-119.506 46.299-131.506 32.18-10.106 127.604 155.273 287.258 162.23 134.039 5.84 179.468-43.31 196.608-56.545Z" style="fill:#371a45"></path>
  </g>
  <path d="M1010.861 1309.184c-140.91 0-256.399-78.542-275.474-166.062a13.576 13.576 0 0 1 26.529-5.781c17.31 79.436 145.722 170.525 315.522 138.413 84.148-15.908 132.315-62.637 130.264-98.618-1.85-32.515-44.331-54.956-113.63-60.027-114.434-8.376-183.255-46.814-223.145-124.629a13.575 13.575 0 1 1 24.16-12.388c35.076 68.426 97.056 102.332 200.967 109.937 121.343 8.882 137.458 62.795 138.755 85.561 3.15 55.298-62.337 109.83-152.327 126.844a385.649 385.649 0 0 1-71.62 6.75Z" style="fill:#371a45"></path>
  <path d="M941.344 1301.191a12.003 12.003 0 0 1-11.899-10.566c-.666-5.537-15.38-136.465 68.552-211.704a12 12 0 0 1 16.02 17.87c-74.73 66.99-60.893 189.73-60.744 190.963a12 12 0 0 1-10.478 13.35 12.132 12.132 0 0 1-1.45.087Z" style="fill:#371a45"></path>
  <path d="M823.033 1043.389h57.853a28.442 28.442 0 0 1 28.442 28.441v32.051a28.442 28.442 0 0 1-28.442 28.442h-57.853a28.442 28.442 0 0 1-28.441-28.442v-32.05a28.442 28.442 0 0 1 28.441-28.442Z" style="fill:#22a7f0" transform="rotate(45 851.96 1087.856)"></path>
  <path d="M861.083 1160.063a40.314 40.314 0 0 1-28.596-11.824h-.002l-40.909-40.908a40.528 40.528 0 0 1 .003-57.195l22.661-22.663a40.492 40.492 0 0 1 57.195 0l40.908 40.908a40.492 40.492 0 0 1 0 57.195l-22.664 22.663a40.314 40.314 0 0 1-28.596 11.824Zm-11.628-28.796a16.46 16.46 0 0 0 23.252 0l22.663-22.664a16.456 16.456 0 0 0 0-23.25l-40.908-40.908a16.456 16.456 0 0 0-23.25 0l-22.663 22.664a16.519 16.519 0 0 0 0 23.25l40.908 40.908ZM946.779 1378.437a6.788 6.788 0 0 1-6.787-6.787v-75.84a6.787 6.787 0 0 1 13.574 0v75.84a6.788 6.788 0 0 1-6.787 6.787Z" style="fill:#371a45"></path>
  <path d="M735.002 794.83c-29.017 27.828-55.694 57.72-78.39 90.366-22.65 32.474-41.844 68.161-59.685 104.308q-13.306 27.182-25.226 54.986c-7.858 18.536-15.42 37.14-20.969 55.733a899.024 899.024 0 0 0-27.233 117.128c-6.207 39.465-9.307 79.364-7.496 118.79 1.922 39.313 8.757 78.393 23.672 113.636 14.753 35.164 38.46 65.95 70.068 85.46 31.39 19.918 69.545 28.243 108.001 28.506a356.965 356.965 0 0 0 58.123-4.693c4.845-.762 9.686-1.584 14.512-2.57l7.5-1.436c2.816-.532 5.625-1.07 8.571-1.422 11.513-1.54 24.619-1.949 38.165 2.6a60.562 60.562 0 0 1 18.524 10.307 75.887 75.887 0 0 1 13.422 14.406c7.278 10.08 12.026 20.143 16.46 29.883 8.628 19.509 15.719 38.24 23.946 56.46l3.09 6.799c.974 2.08 1.763 3.644 2.784 5.418a58.035 58.035 0 0 0 6.968 9.608 66.382 66.382 0 0 0 19.42 14.721c14.963 7.65 33.01 10.627 50.573 9.133a99.499 99.499 0 0 0 48.9-17.468 84.032 84.032 0 0 0 30.674-40.303c3.084-8.234 4.575-16.51 5.913-26.401a284.998 284.998 0 0 0 2.209-28.805 270.921 270.921 0 0 0-4.848-57.541 252 252 0 0 0-17.162-54.908c-7.8-17.234-17.818-34.045-30.045-46.046-1.507-1.5-3.05-2.795-4.573-4.058l-2.29-1.716-2.92-1.944c-3.874-2.611-7.924-5.032-12.05-7.341a216.775 216.775 0 0 0-25.835-12.204 294.57 294.57 0 0 0-55.48-15.653 241.133 241.133 0 0 0-57.395-3.391c-19.057 1.462-37.873 5.657-55.138 14.74l-.137.072a5.458 5.458 0 0 1-6.302-8.787c15.876-15.092 36.965-24.268 58.216-28.751 21.383-4.557 43.342-5.043 64.802-2.654a243.267 243.267 0 0 1 62.835 15.444 247.862 247.862 0 0 1 29.614 13.84c4.8 2.658 9.54 5.466 14.156 8.54l3.466 2.294 3.861 2.853c2.435 1.966 4.795 3.974 6.929 6.061 17.008 16.738 27.961 35.894 37.17 55.67a283.669 283.669 0 0 1 19.642 61.775 303.022 303.022 0 0 1 5.718 64.378 317.13 317.13 0 0 1-2.333 32.303c-1.317 10.35-3.355 22.336-7.445 33.293a116.895 116.895 0 0 1-42.198 55.932 132.34 132.34 0 0 1-65.065 23.721c-23.072 2.012-46.964-1.512-68.565-12.347a99.787 99.787 0 0 1-29.202-22.046 91.59 91.59 0 0 1-11.069-15.109c-1.555-2.64-3.073-5.638-4.267-8.183l-3.283-7.14c-8.672-19.003-16.18-38.48-24.183-56.31-4.018-8.829-8.26-17.271-13.034-23.735-4.84-6.58-9.65-10.493-15.518-12.466-5.923-2.01-13.859-2.211-22.477-.944-2.13.252-4.337.695-6.54 1.118l-7.547 1.48c-5.182 1.08-10.41 1.995-15.656 2.845a365.918 365.918 0 0 1-63.945 5.137 275.278 275.278 0 0 1-64.753-8.127 211.595 211.595 0 0 1-61.056-26.01 198.546 198.546 0 0 1-49.599-44.479 236.057 236.057 0 0 1-33.329-56.698c-16.846-40.266-23.944-83.056-25.897-125.231-1.798-42.283 1.66-84.284 8.274-125.511 6.662-41.244 16.903-81.683 29.287-121.295 6.388-20.515 14.494-39.75 22.774-58.743q12.534-28.479 26.494-56.17c18.725-36.898 38.703-73.27 63.191-107.637 24.505-34.152 53.147-64.997 83.578-93.22a13.576 13.576 0 0 1 18.633 19.749Z" style="fill:#371a45"></path>
  <path d="m774.981 1241.558-6.522 43.836-4.892 32.764c-134.542-22.942-211.104-90.63-249.783-138.486a304.607 304.607 0 0 1-24.269-34.622 41.294 41.294 0 0 1-4.247-32.157c5.081-18.05 20.401-28.174 35.987-28.174a36.162 36.162 0 0 1 28.25 13.727c44.405 54.226 126.997 127.679 225.476 143.112Z" style="fill:#fff"></path>
  <path d="m765.243 1320.473-2.014-.342c-132.761-22.639-209.773-88.193-251-139.201a307.026 307.026 0 0 1-24.43-34.854 43.312 43.312 0 0 1-4.458-33.723c4.99-17.727 20.225-29.634 37.913-29.634a38.037 38.037 0 0 1 29.8 14.46c23.638 28.868 109.668 124.449 224.238 142.403l1.96.308Zm-243.989-233.755c-15.874 0-29.563 10.738-34.06 26.717a39.29 39.29 0 0 0 4.038 30.59 302.857 302.857 0 0 0 24.11 34.393c40.583 50.21 116.256 114.677 246.55 137.421l10.822-72.622c-114.993-18.94-201.023-114.524-224.756-143.503a34.098 34.098 0 0 0-26.704-12.996Z" style="fill:#371a45"></path>
  <g style="opacity:.35">
    <path d="m769.18 1280.54-.721 4.854 4.417 32.764c-134.542-22.942-220.413-90.63-259.092-138.486a304.607 304.607 0 0 1-24.269-34.622 41.294 41.294 0 0 1-4.247-32.157 38.593 38.593 0 0 1 13.841-20.666 41.047 41.047 0 0 0 5.537 16.912 304.529 304.529 0 0 0 24.269 34.621c37.769 46.719 111.6 112.321 240.264 136.78Z" style="fill:#371a45"></path>
  </g>
  <path d="M763.6 1331.73a13.643 13.643 0 0 1-2.3-.195c-177.3-30.256-257.285-135.637-283.444-179.54a54.903 54.903 0 0 1-5.647-42.774c5.32-18.945 20.207-33.135 38.85-37.031 18.447-3.86 36.755 2.739 48.957 17.649 22.974 28.066 106.519 120.988 217.054 138.312a13.574 13.574 0 1 1-4.205 26.822c-120.036-18.811-209.345-117.989-233.86-147.937-5.749-7.024-13.908-10.044-22.392-8.27-8.826 1.844-15.654 8.5-18.267 17.799a27.654 27.654 0 0 0 2.835 21.533c24.23 40.669 98.53 138.32 264.685 166.675a13.576 13.576 0 0 1-2.266 26.958Z" style="fill:#371a45"></path>
  <path d="M840.441 1395.014c-.225 0-.45-.005-.674-.012l-50.844-1.702c-12.996-.437-23.414-12.297-23.716-27.002l-2.888-140.317c-.032-1.103-.271-3.26-.52-5.742-1.583-15.725-2.537-25.217 7.78-29.566a14.031 14.031 0 0 1 16.236 4.095c26.533 31.701 65.034 51.154 65.42 51.345l7.316 3.657 2.771 121.658a24.283 24.283 0 0 1-6.897 17.78 19.823 19.823 0 0 1-13.984 5.806Zm-48.044-28.762 41.682 1.394-2.295-101.196a277.1 277.1 0 0 1-42.083-29.507l2.65 128.796a4 4 0 0 0 .046.513Zm.356 1.001ZM1221.94 1707.009a109.824 109.824 0 0 1-26.49-3.198c-46.889-11.697-78.046-50.362-77.53-96.209 1.169-104.372 1.794-114.775 1.86-115.618a13.576 13.576 0 0 1 27.077 2.005c-.041.718-.659 13.059-1.79 113.916-.427 38.132 28.299 62.412 56.956 69.563 31.973 7.983 75.486-1.514 101.665-52.075 52.688-101.76 32.424-205.147 6.277-234.434-10.737-12.026-35.537-32.795-80.991-36.772a13.575 13.575 0 1 1 2.368-27.046c40.598 3.55 75.713 19.795 98.877 45.737 34.868 39.053 54.072 155.894-2.42 265-26.662 51.492-69.328 69.128-105.859 69.13Z" style="fill:#371a45"></path>
  <path d="M1133.327 1505.063a12 12 0 0 1-6.731-21.94c5.342-3.61 131.95-87.53 230.232-13.826a12 12 0 0 1-14.4 19.199c-84.543-63.396-201.237 13.733-202.407 14.519a11.95 11.95 0 0 1-6.694 2.048Z" style="fill:#371a45"></path>
  <path d="M1134.123 1505.576a13.52 13.52 0 0 1-8.78-3.228c-5.51-4.677-30.58-11.194-50.54-14.345a13.576 13.576 0 0 1 4.227-26.822c11.455 1.804 49.922 8.614 63.887 20.469a13.577 13.577 0 0 1-8.794 23.926Z" style="fill:#371a45"></path>
</svg>
