<svg xmlns="http://www.w3.org/2000/svg" viewBox="0 0 2410.12 3221.5" id="astronaut-sitting-on-ufo">
  <circle cx="1814.96" cy="779.05" r="53.5" fill="#fff"></circle>
  <path fill="#fff" d="M2004.46,91.75s-39.92-103.02-169-74.2c-103,23-119,113-119,113,0,0-113-37-108,71,0,0-68.44,40.8-47.72,122.4,20.72,81.6,112.72,103.6,112.72,103.6,0,0-12,65,21,96s77,27,77,27c0,0-14,62,44,77,0,0,2,45,56,45,43,0,45-34,45-34,0,0,83.9,92,223.95,34,140.05-58,132.3-188.09,132.3-188.09,0,0,111.75-33.91,122.75-111.91s-24-96-24-96c0,0,25.83-113.39-54-170-110-78-195.44.05-195.44.05,0,0-13.95-41.39-49.56-47.05-44-7-68,32.2-68,32.2Z"></path>
  <path fill="#17a8e2" d="M2229.46,378.55c0,12.4-1,24.57-2.94,36.42-16.73,102.83-103.17,182.26-209.23,188.22-4.25.24-8.52.36-12.83.36-19.25,0-37.93-2.42-55.76-6.96-97.29-24.81-169.24-113.03-169.24-218.04s75.23-197.2,175.87-219.62c15.81-3.52,32.25-5.38,49.13-5.38,39.62,0,76.85,10.24,109.19,28.22,27.12,15.09,50.8,35.61,69.55,60.1,29.02,37.89,46.26,85.27,46.26,136.68Z"></path>
  <path fill="#293" d="M1931.63 291.84c-19.92-13.12-46.59-8.38-61.74 10.04-11.55 14.04-22.1 32.65-16.43 49.67 11 33 7 85 65 99s45 39 69 33-5.4-63.38-25.7-83.19c-20.3-19.81-18.3-63.81-18.3-89.81 0-8.12-4.98-14.2-11.83-18.71ZM2113.65 181.77c-19.83 11.24-48.33 27.8-64.19 38.78-26 18-56 20-78-8-11.9-15.15-15.57-36.81-16.13-53.62 15.81-3.52 32.25-5.38 49.13-5.38 39.62 0 76.85 10.24 109.19 28.22ZM2017.29 578.05v25.14c-4.25.24-8.52.36-12.83.36-19.25 0-37.93-2.42-55.76-6.96 7.69-27.51 24.63-69.59 55.76-66.54 46 4.5 12.83 48 12.83 48Z"></path>
  <path fill="#71deff" d="M1370.46,2926.56c0,11.09-.84,22-2.46,32.71-18.64,123.17-141.17,218.29-289.54,218.29s-271.05-95.24-289.57-218.52c-1.61-10.63-2.43-21.47-2.43-32.48,0,0,130.73,14,292,14s292-14,292-14Z"></path>
  <path fill="#15296f" d="M1377.09,2926.88c-.01,11.09-.87,22-2.52,32.71-277.3,65.54-496.48,23.21-585.64-.87-1.62-10.63-2.43-21.47-2.42-32.48,0,0,132.19,14.14,295.28,14.32,163.09.18,295.31-13.68,295.31-13.68Z" opacity=".25"></path>
  <path fill="#fff" d="M1355.87,2927.98c-17.23,123.79-134.86,219.57-277.41,219.57s-260.19-95.78-277.41-219.57c-9.46-.88-14.59-1.43-14.59-1.43,0,138.62,130.73,251,292,251s292-112.38,292-251c0,0-5.13.55-14.59,1.43Z" opacity=".5"></path>
  <path fill="#15296f" d="M1078.46,3190.05c-80.98,0-157.21-27.18-214.62-76.54-57.96-49.82-89.88-116.22-89.88-186.96,0-3.55,1.51-6.93,4.15-9.3,2.64-2.37,6.16-3.51,9.69-3.13,1.3.14,131.99,13.93,290.67,13.93s289.37-13.79,290.67-13.93c3.52-.38,7.05.76,9.69,3.13,2.64,2.37,4.14,5.75,4.14,9.3,0,70.75-31.92,137.14-89.88,186.96-57.42,49.36-133.64,76.54-214.62,76.54ZM799.43,2940.37c8.42,125.1,130.36,224.68,279.04,224.68s270.62-99.58,279.04-224.68c-38.37,3.55-149.49,12.68-279.04,12.68s-240.67-9.12-279.04-12.68Z"></path>
  <path fill="#b9c5d3" d="M233.05,2625.16s267.11,342.09,853.26,342.09,837.53-313.66,837.53-313.66l-1690.79-28.43Z"></path>
  <path fill="#15296f" d="M266.05,2625.16s256.69,301.57,819.96,301.57,804.84-276.51,804.84-276.51l-1624.8-25.06Z" opacity=".25"></path>
  <path fill="#15296f" d="M1086.31,2979.75c-134.91,0-264.17-18.16-384.18-53.97-96.11-28.68-186.54-68.69-268.77-118.91-140.37-85.72-207.38-170.46-210.16-174.02-2.96-3.8-3.48-8.96-1.33-13.27,2.15-4.31,6.57-7.01,11.4-6.92l1690.79,28.43c4.77.08,9.08,2.87,11.1,7.18,2.03,4.32,1.42,9.41-1.56,13.13-2.63,3.28-65.89,81.16-202.47,159.85-79.94,46.05-168.54,82.74-263.33,109.04-118.31,32.82-246.66,49.46-381.49,49.46ZM261.14,2638.13c28.39,30.27,90.08,89.44,186.32,148.06,126.26,76.9,339.59,168.56,638.85,168.56s508.42-84,631.14-154.48c92.45-53.09,151.1-106.67,178.47-134.66l-1634.78-27.49Z"></path>
  <path fill="#b9c5d3" d="M2126.26,2463.41c-82,88.77-331.08,203.67-938.8,214.15-756.02,13.03-1107.28-158.18-1165.99-264.95l-8.33-22.84v-.02c-1.18-7.24-.72-14.01,1.32-20.19,25.87-78.46,212.75-151.89,273.83-174.03,12.11-4.38,19.27-6.75,19.27-6.75l358.2-145.88,748.45,21.71s427.55,123.42,502.79,148.12c2.1.69,3.93,1.3,5.46,1.83,145.84,50.43,199.23,117.86,218.68,163,12.5,29.01,6.55,62.64-14.88,85.85Z"></path>
  <path fill="#fff" d="M2141.14,2377.56c-19.45-45.14-72.84-112.57-218.68-163-1.53-.53-3.36-1.14-5.46-1.83-22.16-7.27-74.88-23.11-138.23-41.84l-20.17,14.63c52.03,14.75,94.39,26.98,113.27,32.91,1.99.62,3.72,1.18,5.17,1.66,137.98,45.64,188.49,106.66,206.89,147.51,11.83,26.25,6.2,56.69-14.08,77.69-77.58,80.34-313.23,184.32-888.18,193.81-715.26,11.79-1047.58-143.15-1103.12-239.78l-7.88-20.67v-.02c-1.12-6.55-.68-12.68,1.25-18.27,24.48-71.01,201.28-137.46,259.07-157.5,11.46-3.96,18.23-6.11,18.23-6.11l24.99-9.73-12.71-20.2-53.93,21.96s-7.16,2.37-19.27,6.75c-61.08,22.14-247.96,95.57-273.83,174.03-2.04,6.18-2.5,12.95-1.33,20.19v.02s8.34,22.84,8.34,22.84c58.71,106.77,409.97,277.98,1165.99,264.95,607.72-10.48,856.8-125.38,938.8-214.15,21.43-23.21,27.38-56.84,14.88-85.85Z" opacity=".5"></path>
  <path fill="#15296f" d="M1917,2212.73c-64.18,76.49-143.31,170.31-184.65,217.43-40.34,45.99-95.77,24.35-139.25-6.5-34.92-24.78-82.79-19.88-111.53,11.88-43.15,47.69-128.48,103.81-295.53,122.19-210.2,23.13-272.69-76.44-291.16-142.48-8.91-31.87-34.42-56.42-66.71-63.66-64.04-14.36-108.1-40.45-135.55-62.06-24.06-18.94-56-24.39-84.97-14.49-154.33,52.73-309.01-20.24-309.01-20.24l-10.36-59.27c12.11-4.38,19.27-6.75,19.27-6.75l358.2-145.88,748.45,21.71s427.55,123.42,502.79,148.12Z" opacity=".25"></path>
  <ellipse cx="1346.96" cy="2575.55" fill="#ffb000" rx="82.5" ry="54" transform="rotate(-3.69 1347.005 2575.471)"></ellipse>
  <ellipse cx="1773.96" cy="2520.55" fill="#ffb000" rx="82.5" ry="54" transform="rotate(-11.13 1774.352 2521.049)"></ellipse>
  <ellipse cx="2051.64" cy="2389.52" fill="#ffb000" rx="64.04" ry="54" transform="rotate(-42.39 2051.852 2389.637)"></ellipse>
  <ellipse cx="117.64" cy="2369.52" fill="#ffb000" rx="54" ry="64.04" transform="rotate(-60 117.638 2369.525)"></ellipse>
  <path fill="#fff" d="M143.05 2354.97c0 11.73-14.63 8.29-32.21 8.29s-31.48 3.44-31.48-8.29 14.26-21.24 31.85-21.24 31.85 9.51 31.85 21.24ZM2085.42 2361.84c3.62 11.16-11.36 12.39-28.09 17.82-16.73 5.42-28.89 12.98-32.5 1.82-3.62-11.16 7.02-24.6 23.75-30.02 16.73-5.42 33.23-.77 36.84 10.39Z" opacity=".5"></path>
  <ellipse cx="391.96" cy="2497.55" fill="#ffb000" rx="54" ry="82.5" transform="rotate(-79.55 392 2497.587)"></ellipse>
  <path fill="#fff" d="M428.57,2486.91c-.73,11.71-22.44,6.91-48.82,5.28-26.37-1.63-47.42.51-46.69-11.2s22.69-19.88,49.07-18.24c26.37,1.63,47.17,12.45,46.44,24.16Z" opacity=".5"></path>
  <ellipse cx="851.96" cy="2575.55" fill="#ffb000" rx="54" ry="82.5" transform="rotate(-86.46 851.81 2575.469)"></ellipse>
  <path fill="#fff" d="M900.57 2563.91c-.73 11.71-22.44 6.91-48.82 5.28-26.37-1.63-47.42.51-46.69-11.2s22.69-19.88 49.07-18.24c26.37 1.63 47.17 12.45 46.44 24.16ZM1406.94 2569.75c-1.43 11.64-22.82 5.55-49.05 2.33s-47.36-2.34-45.93-13.99 23.85-18.47 50.08-15.25 46.33 15.27 44.9 26.91ZM1833.27 2504.98c.49 11.72-21.61 9.19-48.01 10.28-26.4 1.09-47.11 5.4-47.6-6.33-.49-11.72 20.52-22.11 46.93-23.2 26.4-1.09 48.2 7.52 48.68 19.24Z" opacity=".5"></path>
  <path fill="#17a8e2" d="M2148.46,2421.55l-3.68,43.83c-9.01,47.78-36.24,90.31-76.2,118.02-347.09,240.67-1589.89,225.73-1953.54-18.5-32.73-21.98-57.64-53.76-71.14-90.8l-22.42-61.5c58.71,106.77,409.97,277.98,1165.99,264.95,696.56-12.01,927-166,961-256Z"></path>
  <path fill="#17a8e2" d="M2148.46,2421.56l-3.68,43.83c-9.01,47.78-36.25,90.31-76.21,118.02-347.09,240.66-1589.89,225.72-1953.54-18.5-32.72-21.98-57.64-53.77-71.14-90.8l-22.42-61.5c7.87,14.32,21,29.79,39.67,45.82,120.53,103.56,471.69,230.41,1126.32,219.13,605.67-10.44,858.92-128.23,937.05-217.96,11.73-13.46,19.51-26.3,23.95-38.04Z"></path>
  <path fill="#15296f" d="M2124.51,2459.6l-.07.8c-8.84,43.27-35.53,81.77-74.7,106.86-340.24,217.92-1558.5,204.39-1914.97-16.75-32.08-19.9-56.51-48.68-69.74-82.22l-3.89-9.86c120.53,103.56,471.69,230.41,1126.32,219.13,605.67-10.44,858.92-128.23,937.05-217.96Z" opacity=".25"></path>
  <path fill="#15296f" d="M1342.24 2642.21c-21.12 0-41.16-4.84-57.19-13.92-20-11.32-31.68-27.88-32.89-46.62-1.21-18.74 8.25-36.66 26.63-50.46 16.82-12.62 39.51-20.44 63.9-22.02 24.39-1.58 47.9 3.27 66.2 13.62 20 11.32 31.68 27.88 32.89 46.62h0c1.21 18.74-8.25 36.66-26.62 50.46-16.82 12.62-39.51 20.44-63.9 22.02-3.02.2-6.02.29-9 .29ZM1351.57 2533.9c-2.4 0-4.83.08-7.27.23-37.87 2.44-68.63 23.47-67.18 45.92 1.45 22.45 34.67 39.34 72.53 36.91 37.87-2.44 68.63-23.47 67.18-45.92-1.36-21-30.5-37.14-65.25-37.14ZM1760.57 2588.4c-14.76 0-28.85-2.54-41.17-7.53-21.3-8.64-35.02-23.54-38.65-41.97-3.63-18.43 3.43-37.42 19.87-53.48 15.04-14.7 36.53-25.39 60.51-30.11 23.98-4.72 47.92-2.97 67.4 4.94 21.3 8.64 35.02 23.54 38.65 41.97 3.63 18.43-3.43 37.42-19.87 53.48-15.04 14.7-36.53 25.39-60.51 30.11-8.82 1.74-17.64 2.6-26.23 2.6ZM1787.44 2477.69c-6.98 0-14.21.71-21.49 2.14-19.26 3.79-36.26 12.12-47.86 23.46-5.91 5.77-15.43 17.45-12.81 30.78 2.62 13.33 15.86 20.52 23.51 23.63 15.03 6.09 33.92 7.37 53.18 3.57 19.26-3.79 36.26-12.12 47.86-23.46 5.91-5.77 15.43-17.45 12.81-30.78h0c-2.62-13.33-15.86-20.52-23.51-23.63-9.35-3.79-20.2-5.72-31.69-5.72ZM2041.58 2460.73c-17.7 0-34.52-6.5-46.48-19.6-24.72-27.08-19.48-72.26 11.7-100.72 31.17-28.46 76.64-29.58 101.37-2.5 12.25 13.42 17.6 31.5 15.05 50.9-2.44 18.61-11.94 36.3-26.75 49.82-16.09 14.69-36 22.1-54.89 22.1ZM2061.7 2343.2c-12.8 0-26.69 5.3-38.05 15.67-20.99 19.16-25.52 48.5-10.09 65.4 15.43 16.9 45.06 15.06 66.05-4.1 10.46-9.55 17.14-21.84 18.82-34.61 1.57-11.97-1.53-22.91-8.73-30.79-7.08-7.75-17.15-11.56-28-11.56ZM126.58 2438.71c-14.37 0-28.97-3.97-42.19-11.6-36.55-21.1-51.37-64.11-33.04-95.86 9.09-15.74 24.7-26.3 43.96-29.74 18.48-3.3 38.21.4 55.58 10.43 36.55 21.1 51.37 64.11 33.04 95.86-9.09 15.74-24.7 26.3-43.96 29.74-4.41.79-8.88 1.18-13.38 1.18ZM108.71 2325.32c-3.04 0-6.05.26-9.01.79-11.89 2.13-21.37 8.39-26.71 17.63-11.44 19.82-.72 47.5 23.89 61.71 12.26 7.08 26 9.73 38.68 7.47 11.89-2.13 21.37-8.39 26.71-17.63 11.44-19.82.72-47.5-23.89-61.71-9.41-5.43-19.68-8.26-29.67-8.26Z"></path>
  <path fill="#15296f" d="M1107.25,2690.75c-148.04,0-286.99-7.26-414.07-21.66-131.83-14.94-250.82-37.51-353.66-67.07-89.86-25.83-165.12-56.22-223.7-90.34-52.1-30.34-88.51-62.51-105.3-93.05-.31-.56-.57-1.14-.79-1.74l-8.28-22.7c-.3-.79-.52-1.62-.66-2.45-1.49-9.2-.88-17.98,1.8-26.1,13.96-42.33,69.34-87.07,164.62-132.98,66.47-32.03,130.28-53.68,136.01-55.61l357.83-145.73c1.61-.66,3.34-.97,5.08-.92l748.45,21.71c1.05.03,2.09.19,3.1.49,18.46,5.33,452.68,130.72,508.87,150.15,148.48,51.35,204.9,120.72,226.07,169.87h0c14.4,33.42,7.66,72.39-17.18,99.28-35.65,38.6-112.84,94.22-278.09,140-170.18,47.14-395.48,73.44-669.67,78.16-27.08.47-53.91.7-80.43.7ZM32.88,2407.39c14.65,25.99,48.52,55.32,95.53,82.69,56.8,33.08,130.16,62.65,218.03,87.91,152.05,43.71,421.35,94.28,840.82,87.07,674.8-11.63,875.05-150.83,929.83-210.13,18.14-19.64,23.08-48.07,12.59-72.42,0,0,0,0,0,0-19.18-44.53-71.41-107.76-211.28-156.13-53.94-18.65-477.18-140.96-506.11-149.31l-744.23-21.59-355.76,144.89c-.26.11-.52.2-.79.29-.65.21-65.76,21.9-133.65,54.64-87.54,42.21-139.93,83.08-151.51,118.19-1.31,3.97-1.65,8.4-1.02,13.17l7.57,20.75Z"></path>
  <path fill="#15296f" d="M1139.77,2768.71c-13.93,0-27.88-.07-41.89-.22-205.59-2.15-404.51-19.97-575.27-51.52-89.16-16.48-169.04-36.47-237.44-59.42-72.44-24.31-132.03-51.99-177.1-82.26-35.16-23.62-61.42-57.12-75.92-96.9l-22.42-61.5c-2.24-6.14.63-12.96,6.58-15.66,5.95-2.7,12.97-.37,16.12,5.36,14.4,26.19,48.49,55.84,95.98,83.49,56.8,33.08,130.16,62.65,218.03,87.91,152.05,43.71,421.35,94.3,840.82,87.07,307.43-5.3,551.39-38.3,725.11-98.08,67.54-23.24,122.1-49.9,162.18-79.23,40.63-29.74,56.27-54.81,62.24-70.61,2.2-5.83,8.37-9.16,14.45-7.77,6.08,1.38,10.22,7.02,9.7,13.24l-3.68,43.83c-.04.43-.09.85-.17,1.27-9.73,51.6-38.63,96.34-81.36,125.97-43.11,29.89-100.96,56.79-171.93,79.93-66.86,21.81-145.48,40.35-233.66,55.11-156.85,26.26-339.42,39.99-530.33,39.99ZM55.81,2470.29c12.71,34.56,35.59,63.69,66.2,84.24,84.64,56.84,224.74,104.51,405.15,137.85,169.37,31.3,366.82,48.97,570.99,51.11,204.61,2.14,400.96-11.49,567.83-39.43,178.22-29.83,314.97-75.11,395.47-130.93,34.99-24.26,59.36-60.16,69.27-101.75-11.3,12.38-25.19,24.65-41.42,36.54-42.1,30.82-98.9,58.64-168.81,82.7-81.27,27.97-179.51,50.47-291.99,66.89-128.53,18.76-276.85,29.71-440.83,32.54-178.29,3.07-344.66-3.98-494.5-20.96-131.83-14.94-250.82-37.51-353.66-67.07-89.86-25.83-165.12-56.22-223.7-90.34-23.24-13.53-43.36-27.44-60.01-41.39Z"></path>
  <path fill="#15296f" d="M132.09 2588.31c-6.25 0-11.65-4.68-12.4-11.04l-8.74-74.21c-.58-4.95 1.83-9.77 6.14-12.27l584.1-339.05c5.97-3.47 13.62-1.44 17.09 4.54 3.47 5.97 1.43 13.62-4.54 17.09l-577 334.93 7.78 66.05c.81 6.86-4.1 13.07-10.95 13.88-.5.06-.99.09-1.48.09ZM565.01 2724.25c-6.09 0-11.43-4.46-12.35-10.67l-11.06-74.74c-.44-3 .22-6.06 1.86-8.6l268.5-416.45c3.74-5.8 11.48-7.47 17.28-3.73 5.8 3.74 7.47 11.48 3.73 17.28l-265.95 412.5 10.37 70.09c1.01 6.83-3.71 13.18-10.54 14.2-.62.09-1.24.14-1.85.14ZM1084.97 2768.33c-.07 0-.15 0-.22 0-6.9-.12-12.4-5.81-12.28-12.71l1.34-77.19-14.18-275.73c-.35-6.89 4.95-12.77 11.84-13.12 6.89-.37 12.77 4.95 13.12 11.84l14.2 276.16c.01.29.02.57.01.86l-1.35 77.62c-.12 6.83-5.69 12.28-12.49 12.28ZM1620.81 2736.3c-.62 0-1.24-.05-1.87-.14-6.83-1.02-11.53-7.39-10.51-14.21l11.09-73.99-326.88-478.34c-3.9-5.7-2.43-13.48 3.27-17.37 5.7-3.89 13.48-2.43 17.37 3.27l329.65 482.4c1.78 2.6 2.51 5.79 2.04 8.91l-11.82 78.85c-.93 6.2-6.26 10.65-12.35 10.65ZM2015.55 2627.3c-.63 0-1.27-.05-1.92-.15-6.82-1.05-11.5-7.43-10.45-14.26l11.19-72.69-280.28-183.19c-5.78-3.78-7.4-11.52-3.62-17.3 3.78-5.78 11.52-7.4 17.3-3.62l287.02 187.59c4.1 2.68 6.26 7.52 5.52 12.36l-12.41 80.65c-.95 6.18-6.28 10.6-12.34 10.6Z"></path>
  <path fill="#fff" d="M1282.87,1496.61c-.83,4.44-1.41,6.95-1.41,6.95l-865.5,207.3s-.41-4.9-1.07-13.52c-3.75-49.28-15.61-220.17-5.18-291.06,1.33-9.01,3.72-17.59,6.94-25.72,26.49-66.97,108.73-103.5,108.73-103.5,0,0,504.82,13.03,669.77,39.73,20.65,3.35,35.97,6.9,44.31,10.67,65.03,29.39,48.86,140.21,43.41,169.15Z"></path>
  <path fill="#15296f" d="m1282.87 1496.61-79.41-2.65-8.31-177.17c20.65 3.35 35.97 6.9 44.31 10.67 65.03 29.39 48.86 140.21 43.41 169.15ZM598.05 1463.73l-183.16 233.61c-3.75-49.28-15.61-220.17-5.18-291.06 1.33-9.01 3.72-17.59 6.94-25.72l181.4 83.17Z" opacity=".25"></path>
  <path fill="#15296f" d="M415.96,1723.35c-2.61,0-5.17-.82-7.33-2.37-2.95-2.14-4.83-5.46-5.13-9.09-.76-9.09-18.48-223.7-6.16-307.44,13.1-89.06,118.48-136.84,122.96-138.83,1.7-.75,3.54-1.12,5.4-1.07,1.6.04,161.85,4.22,329.21,12.5,98.37,4.86,179.94,10.17,242.45,15.77,80.44,7.21,128.6,14.81,147.25,23.24,83.39,37.69,50.47,184.1,49.03,190.32-1.07,4.61-4.66,8.23-9.27,9.33l-865.5,207.3c-.96.23-1.94.34-2.91.34ZM528.03,1289.63c-15.13,7.39-95.86,49.86-105.95,118.47-10.11,68.71,1.39,236.76,5.2,287.19l843.49-202.03c5.2-28.4,19.3-129.21-36.46-154.42-59.31-26.81-526.97-44.53-706.28-49.22Z"></path>
  <path fill="#fff" d="M1691.46,1959.56c-58.86,183.57-231,191-231,191l-31.5-33.54c-74.5,62.46-160.35,101.3-160.35,101.3-617.84,190.76-671.67-175.42-671.67-175.42-14.42-51.69-21.06-105.73-22.34-159.32-3.79-156.89,38.21-310,64.5-389.58,3.5-10.61,6.73-19.92,9.53-27.75,6.59-18.41,10.83-28.69,10.83-28.69l525-7,28.38,29.57,3.03,3.16,24.68,25.72,233.77,315.73,17.64,23.82c7.21-.44,14.32-.3,21.29.35,12.91,1.21,25.39,4.17,37.34,8.44,73.69,26.29,127.35,101.87,138.66,118.81,1.46,2.19,2.21,3.4,2.21,3.4Z"></path>
  <path fill="#15296f" d="M953.07,2285.86c-10.77,0-21.33-.25-31.69-.76-81.96-4.02-151.78-23.88-207.53-59.04-58.35-36.8-90.33-83.87-106.89-116.87-16.51-32.91-21.41-58.58-22.25-63.62-17.43-62.8-24.96-134.08-22.36-211.87,2.08-62.17,10.59-128.65,25.3-197.59,25.02-117.26,59.9-202.48,60.25-203.33,1.91-4.62,6.39-7.67,11.39-7.73l525-7c3.45-.05,6.79,1.35,9.19,3.84l56.09,58.45c.37.38.71.79,1.03,1.22l247.49,334.25c28.83-.42,58.24,7.55,87.44,23.79,69.42,38.54,114.65,110.31,116.55,113.34,1.94,3.12,2.41,6.93,1.29,10.43-13.98,43.61-35.39,81.27-63.63,111.94-22.65,24.59-49.67,44.71-80.32,59.8-52.15,25.67-96.55,27.85-98.41,27.93-3.64.17-7.16-1.28-9.65-3.93l-23.49-25.01c-72.53,58.4-150.67,94.06-154.09,95.61-.48.22-.96.4-1.46.55-119.66,36.95-226.87,55.6-319.23,55.61ZM668.02,1449.94c-8.89,23.11-35.74,96.68-56.01,191.88-22.51,105.7-41.31,260.5-3.02,397.72.14.51.25,1.02.33,1.54.03.22,3.97,25.32,20.55,58,15.2,29.96,44.53,72.7,97.86,106.18,118.19,74.19,298.66,74.65,536.41,1.37,8.17-3.79,88-41.5,156.79-99.18,5.08-4.26,12.61-3.81,17.14,1.02l27.35,29.12c12.82-1.43,46.44-6.74,83.88-25.36,61.56-30.61,104.73-81.33,128.39-150.82-11.1-16.26-50.45-70.04-104.31-99.94-27.3-15.17-54.43-22.05-80.65-20.42-4.23.26-8.31-1.64-10.83-5.06l-.14-.19-250.78-338.7-51.78-53.96-511.18,6.82Z"></path>
  <path fill="#e81718" d="M1579.45,1850.52c-.25,25.46-20.97,46.03-46.49,46.03s-46.5-20.82-46.5-46.5c0-7.83,1.94-15.21,5.36-21.69l.14.19c31.74-1.96,61.33,7.43,87.49,21.97Z"></path>
  <path fill="#15296f" d="M1532.96,1909.05c-32.53,0-59-26.47-59-59,0-9.57,2.35-19.09,6.81-27.52,2.01-3.8,5.83-6.31,10.12-6.63.83-.06,1.66-.04,2.48.06,30.37-1.42,61.36,6.52,92.16,23.64,4.01,2.23,6.47,6.47,6.43,11.05-.32,32.21-26.78,58.41-58.99,58.41ZM1500.23,1840.8c-.84,2.98-1.27,6.08-1.27,9.26,0,18.75,15.25,34,34,34,16.09,0,29.69-11.34,33.14-26.45-22.23-11.17-44.32-16.8-65.84-16.8h-.04Z"></path>
  <path fill="#fff" d="M1284.31,1891.31c-66.15,75.75-358.43,81-358.43,81,0,0-17.15-61.68,22.04-128.15,17.22-29.21,45.31-59.36,90.54-85.6,105.78-61.38,178.24-59.75,215.79-51.24,19.96,4.53,30.06,11.01,30.06,11.01,0,0,66.15,97.23,0,172.98Z"></path>
  <path fill="#15296f" d="M1284.31,1891.31c-66.15,75.75-358.43,81-358.43,81,0,0-17.15-61.68,22.04-128.15-.77,1.94-25.78,65.75,29.75,49.28,0,0,217.79-41.45,275.09-182.58.49-1.2.98-2.38,1.49-3.54,19.96,4.53,30.06,11.01,30.06,11.01,0,0,66.15,97.23,0,172.98Z" opacity=".25"></path>
  <path fill="#15296f" d="M1203.46 1877.05c-26.74 0-48.5-21.76-48.5-48.5s21.76-48.5 48.5-48.5 48.5 21.76 48.5 48.5-21.76 48.5-48.5 48.5ZM1203.46 1805.05c-12.96 0-23.5 10.54-23.5 23.5s10.54 23.5 23.5 23.5 23.5-10.54 23.5-23.5-10.54-23.5-23.5-23.5ZM1114.97 1937.55c-3.96 0-7.86-1.88-10.29-5.39l-31.5-45.5c-1.97-2.85-2.67-6.38-1.94-9.76.73-3.38 2.84-6.31 5.81-8.08l34.52-20.62-50.66-102.11c-3.07-6.18-.54-13.69 5.64-16.75 6.19-3.07 13.69-.54 16.75 5.64l55.8 112.47c2.9 5.85.81 12.94-4.79 16.29l-32.97 19.69 23.89 34.51c3.93 5.68 2.51 13.46-3.16 17.39-2.17 1.5-4.65 2.22-7.1 2.22Z"></path>
  <path fill="#15296f" d="M925.88,1984.8c-5.6,0-10.54-3.74-12.04-9.15-.4-1.43-9.61-35.5.6-80.75,5.97-26.46,17.35-51.37,33.84-74.05,20.38-28.03,48.61-52.63,83.91-73.12,166.68-96.72,255.18-42.3,258.87-39.94,1.42.91,2.64,2.1,3.59,3.49.73,1.07,17.91,26.58,26.61,62.14,11.83,48.32,2.31,91.92-27.53,126.09-29.49,33.77-100.75,58.36-211.79,73.08-81.11,10.75-155.09,12.19-155.83,12.2-.08,0-.15,0-.23,0ZM1213.75,1715.52c-36.09,0-93.26,9.89-169.01,53.85-57.83,33.56-93.37,77.24-105.64,129.84-6.12,26.24-4.63,48.37-2.94,60.3,23.01-.8,80.76-3.49,142.71-11.71,103.24-13.7,171.03-36.08,196.03-64.71,24.45-28,31.94-62.65,22.25-103-6.14-25.55-17.57-45.67-21.67-52.36-6.09-3.07-24.99-11.19-55.97-12.12-1.86-.06-3.78-.09-5.76-.09Z"></path>
  <path fill="#fff" d="M1513.25,1828.91c-.54,12.12-2.41,23.3-5.47,33.64-16.88,57.05-69.94,88.48-136.83,109.76,0,0-4.99,105.18-118.24,101.21-5.53-.19-10.93-.97-16.19-2.28-58.61-14.56-98.54-95.2-84.2-171.34.01-.04.01-.08.02-.12.01-.04.02-.09.03-.14,0-.07.03-.15.05-.24,2.16-11.31,5.53-22.51,10.21-33.38.01-.03.03-.07.04-.1.02-.05.04-.11.07-.16,4.19-9.69,9.42-19.1,15.8-28.09,22.19-31.36,58.15-57.48,111.37-71.39,0,0-9.63-162.42-78.04-220.57l-8.1-83.61s3.19-1.07,9.07-1.97c29.07-4.44,123.7-4.6,221.73,150.6h0c5.45,8.63,10.9,17.73,16.36,27.33,28.31,49.84,46.08,92.27,55.14,128.56,5.79,23.16,8.02,43.81,7.18,62.29Z"></path>
  <path fill="#15296f" d="M1215.87,1463.29c-.69,1.46-1.41,2.89-2.13,4.26-7.19,13.68-19.28,24.2-33.79,29.84-228.98,89-446.06,31.3-540.85-3.39,3.5-10.61,6.73-19.92,9.53-27.75,6.59-18.41,10.83-28.69,10.83-28.69l525-7,28.38,29.57,3.03,3.16Z" opacity=".25"></path>
  <path fill="#e81718" d="M1507.78,1862.54c-26.2-.36-47.32-21.71-47.32-47.99s20.21-46.7,45.61-47.94c9.58,38.34,9.43,69.82,1.71,95.93Z"></path>
  <path fill="#15296f" d="M1211.87,1545.7c2.9,1.38,5.89,2.83,8.66,4.55,6.05,3.84,11.83,8.39,16.88,13.5,14.94,14.65,25.81,33.1,34.06,52.21,18.24,42.35,27.92,88.11,30.6,134.05.25,5.21.4,10.27.32,15.52.35,6.05-3.68,11.36-9.32,12.83-34.06,8.88-66.97,24.95-91.34,50.69-7.83,8.36-14.92,17.75-20.55,27.73-28.74,50.24-24.84,117.59,8.15,164.96,14.82,21.3,37.6,38.42,63.93,39.27,2.18.04,6.54,0,8.72.05,17.52-.41,35.41-3.94,50.56-12.44,26.96-14.98,42.4-45.15,45.78-75.23.08-.69.12-1.42.15-1.8.3-5.32,3.91-9.67,8.69-11.21,53.47-16.97,113.98-45.37,129.35-104.02,21.58-79.08-41.84-193.73-85.7-258.8-4.85-7.27-11.41-15.95-16.69-22.92-7.94-10.01-16.79-20.77-25.66-29.98-25.08-26.68-55.02-50.36-89.37-63.5-19.73-7.51-41.35-11.5-62.35-8.97-2.64.35-5.77.86-8.33,1.55-16.14,5.43-24.52-17.31-8.63-23.51,2.32-.72,4.86-1.33,7.23-1.8,14.74-2.78,30.05-2.46,44.75-.3,51.03,7.94,95.41,38.71,130.73,75.02,2.1,2.17,6.18,6.54,8.27,8.71,2.53,2.82,9.23,10.49,11.85,13.5,4.92,6.07,10.18,12.41,14.84,18.69,1.4,1.89,7.63,10.29,8.87,11.95,2.99,4.35,8.73,12.68,11.77,17.14,45.9,72.24,105.76,182.13,82.55,269.74-17.24,67.3-84.6,102.34-145.91,121.32,0,0,8.7-11.32,8.7-11.32-.07,1.28-.15,2.04-.24,2.99l-.3,2.66c-7.68,57.4-46.3,100.53-105.17,106.47-2.98.51-7.16.63-10.16.82-3.04.32-7.06.19-10.11.2-36.22,1-68.69-21.14-88.52-49.85-34.79-49.87-41.72-117.54-18.45-173.57,7.85-18.68,19.17-36.01,33.09-50.75,16.22-17.1,35.68-30.62,56.8-40.85,14.87-7.12,30.55-12.71,46.38-16.85,0,0-9.32,12.84-9.32,12.83-9.05-56.9-18.21-115.1-39.66-168.83-6.9-18.24-15.45-35.94-25.9-52.48h0Z"></path>
  <path fill="#fff" d="M956.96,2070.85l6.25,79.7c153.75,86,282.6,0,282.6,0,0,0,29.76-134.87-33.94-203.52-7.21-7.77-15.62-14.7-25.41-20.48-40.18-23.74-77.95-31.43-112.34-29.16-116.24,7.66-193.66,129.16-193.66,129.16l76.5,44.3Z"></path>
  <path fill="#e81718" d="M1211.87,1947.03c-4.66,36.95-36.2,65.52-74.41,65.52-41.42,0-75-33.58-75-75,0-14.78,4.28-28.55,11.66-40.16,34.39-2.27,72.16,5.42,112.34,29.16,9.79,5.78,18.2,12.71,25.41,20.48Z"></path>
  <path fill="#15296f" d="M956.96,2070.85c6.39,12.55,10.27,25.6,13.42,39.04,2.91,13.08,5.28,26.27,5.29,39.68,0,0-6.36-9.94-6.36-9.93,32.38,18.03,67.71,30.31,104.44,34.78,33.65,3.9,68.06,1.41,100.77-7.45,22.2-6.02,43.93-14.47,63.63-26.37,0,0,.71-.45.71-.45,0,0-5.27,7.71-5.27,7.7,8.36-54.52,9.03-125.25-20.19-173.26-5.8-9.26-12.84-17.97-21.18-25.01-5.99-5.37-13.87-9.92-20.89-13.88-32.94-18.23-71.32-27.82-108.89-22.45-49.39,6.06-92.01,34.96-128.98,66.83-17.77,14.94-35.43,30.95-53.02,46.47,4.1-12.38,10.35-23.83,17.31-34.78,35.86-55.87,103.87-101.97,170.66-108.49,34.73-3.85,70.18,3.15,101.87,17.51,21.71,9.97,41.76,21.66,57.01,40.5,46.25,54.84,45.69,145.52,30.67,212.12-.8,3.79-3.32,6.57-6.47,8.34-1.08.64-2.22,1.4-3.29,2-9.84,5.76-20.15,10.68-30.64,15.02-59.55,24.71-127.26,29.39-189.43,12.06-24.81-6.93-48.67-16.92-71.04-29.37-3.24-1.34-5.39-4.21-5.94-7.43l-.42-2.5c-2.08-13.25-1.8-26.64-.96-40.02,1.03-13.77,2.79-27.26,7.17-40.66h0Z"></path>
  <path fill="#fff" d="M566.02,1298.67s-45.81,65.61,13.41,132.58c6.37,7.2,14.38,12.87,23.33,16.73,59.07,25.44,317.25,123.03,592.06,18.81,14.85-5.63,27.22-16.15,34.56-29.82,12.06-22.45,21.83-57.8-12.54-85.99,0,0-337.03,107.81-650.83-52.31Z"></path>
  <path fill="#15296f" d="M566.02,1298.67s-45.81,65.61,13.41,132.58c6.37,7.2,14.38,12.87,23.33,16.73,59.07,25.44,317.25,123.03,592.06,18.81,14.85-5.63,27.22-16.15,34.56-29.82,12.06-22.45,21.83-57.8-12.54-85.99,0,0-337.03,107.81-650.83-52.31Z" opacity=".25"></path>
  <path fill="#15296f" d="M930.99,1526.4c-38.19,0-76.93-2.67-115.79-7.99-107.91-14.77-188.67-46.13-218.38-58.93-10.71-4.61-20.3-11.5-27.75-19.93-33.84-38.27-36.02-76.43-31.88-101.71,4.46-27.27,17.06-45.55,17.59-46.31,3.57-5.12,10.37-6.81,15.93-3.98,159.35,81.31,325.02,91.05,435.95,84.9,120.66-6.69,204.56-33.09,205.39-33.36,4.04-1.29,8.45-.44,11.73,2.24,18.26,14.98,27.77,33.32,28.25,54.53.34,14.99-3.91,30.82-12.63,47.05-8.7,16.19-23.31,28.83-41.14,35.59-64.48,24.45-132.98,39.72-203.57,45.38-21,1.68-42.26,2.52-63.7,2.52ZM570.08,1315.19c-8.89,18.73-22.24,62.61,17.72,107.8,5.03,5.69,11.57,10.37,18.92,13.53,49.39,21.27,309.62,122.15,582.69,18.6,12.2-4.63,22.14-13.17,27.99-24.05,14.29-26.59,12.71-48.79-4.66-66.09-22.76,6.57-98.93,26.48-203.91,32.38-72.6,4.08-143.84.5-211.73-10.62-80.86-13.25-157.16-37.31-227-71.56Z"></path>
  <ellipse cx="921.09" cy="804.61" fill="#fff" rx="667.21" ry="620.14" transform="rotate(-.52 919.707 804.122)"></ellipse>
  <path fill="#15296f" d="M1109.71,209.38s0,0,0,0c273.8,104.95,261.27,233.54,78.96,216.18-182.3-17.35-513.75,200.57-513.75,200.57,0,0-174.96,164.96-278.46,20.22-78.57-109.88,63.99-273.67,137.22-346.2-170.95,113.73-281.68,300.42-279.77,510.52,3.1,342.48,304.33,617.41,672.8,614.07,368.48-3.34,664.67-283.68,661.56-626.16-2.54-279.76-204.01-514.44-478.56-589.19Z" opacity=".25"></path>
  <path fill="#15296f" d="M919.99,1437.26c-89.24,0-175.96-15.88-257.89-47.23-81.2-31.07-154.29-75.96-217.24-133.41-63.02-57.51-112.7-124.73-147.67-199.77-36.24-77.77-55.01-160.56-55.79-246.07-.78-85.51,16.49-168.63,51.32-247.04,33.61-75.66,82.07-143.76,144.03-202.41,61.9-58.59,134.16-104.79,214.78-137.33,83.42-33.67,172.18-51.16,263.82-51.99,91.64-.82,180.71,15.05,264.72,47.2,81.2,31.07,154.29,75.96,217.24,133.41,63.01,57.51,112.7,124.73,147.67,199.77,36.24,77.77,55.01,160.56,55.79,246.07.78,85.51-16.49,168.63-51.32,247.04-33.61,75.66-82.07,143.76-144.03,202.41-61.9,58.59-134.16,104.79-214.78,137.33-83.42,33.67-172.18,51.16-263.82,51.99-2.28.02-4.56.03-6.83.03ZM922.16,196.97c-2.2,0-4.37,0-6.57.03-360.99,3.27-652.21,278.51-649.18,613.55,1.47,162.13,70.83,313.98,195.32,427.6,123.17,112.42,285.71,174.11,458.3,174.11,2.2,0,4.37,0,6.57-.03,360.99-3.27,652.21-278.51,649.18-613.55-1.47-162.13-70.83-313.98-195.32-427.6-123.17-112.42-285.71-174.11-458.3-174.11Z"></path>
  <path fill="#e81718" d="M1583.44,667.2c46.27,252.87-91.02,505.91-436.76,560.37-296.51,46.71-572.12-107.17-618.39-360.04-46.27-252.87,158.89-485.83,450.84-555.67,408.25-97.67,558.04,102.47,604.31,355.34Z"></path>
  <path fill="#fff" d="M987.71,336.2c304.07-72.64,465.53,18.03,547.67,172.56-77.79-168.82-238.95-272.8-556.25-196.89-291.95,69.84-497.1,302.81-450.84,555.67,1.34,7.3,2.87,14.52,4.59,21.66-43.87-251.59,162.28-483.11,454.82-553Z" opacity=".5"></path>
  <path fill="#15296f" d="M1140.31,1139.85c-296.17,46.66-571.48-106.82-618.22-359.18-1.13,28.54.85,57.57,6.21,86.86,46.27,252.87,321.88,406.75,618.39,360.04,339.62-53.5,478.1-298.61,439.04-546.95-2.91,215.95-145.98,412.06-445.41,459.23Z" opacity=".25"></path>
  <path fill="#15296f" d="M1553.25,673.48c41,224.06-85.36,449.13-400.85,499.06-270.56,42.82-521.13-92.36-562.12-316.42-41-224.06,147.16-431.64,413.67-494.96,372.69-88.54,508.31,88.26,549.31,312.32Z"></path>
  <path fill="#15296f" d="M1040.76,1248.43c-109.4,0-214.35-26.55-303.34-77.7-119.88-68.92-198.52-175.8-221.42-300.95-11.63-63.54-8.2-127.29,10.18-189.47,17.56-59.42,48.21-115.68,91.1-167.24,85.38-102.64,212.85-178.41,358.95-213.37,94.11-22.52,179.08-30.2,252.53-22.84,68.63,6.87,129.01,27.03,179.49,59.92,51.13,33.31,93.27,80.46,125.26,140.12,28.03,52.28,48.97,115.55,62.23,188.05,24.43,133.5-1.86,263.08-74.03,364.85-79.04,111.47-208.05,184.12-373.08,210.12-36.16,5.7-72.25,8.51-107.87,8.51ZM1171.86,299.27c-57.48,0-120.82,8.24-189.82,24.75-295.2,70.62-484.99,303.32-441.45,541.27,39.06,213.51,249.33,358.17,499.86,358.19,34.14,0,68.98-2.68,104.29-8.24,158.23-24.92,281.53-94.05,356.58-199.89,68.23-96.23,93.03-219.07,69.83-345.89-27.11-148.17-86.51-253.05-176.55-311.72-59.77-38.95-134.31-58.46-222.73-58.46Z"></path>
  <path fill="#e81718" d="M454.38,1101c-5.43,1.5-10.95,2.3-16.53,2.43-9.28.23-18.71-1.37-28.14-4.62,1.05-.24,2.1-.5,3.14-.78,6.77-1.86,13.08-4.81,18.9-8.74,33.76-22.67,51.19-77.83,46.65-143.08-1.44-20.81-5.12-42.66-11.21-64.8-1.65-6-3.45-11.91-5.39-17.69-18.33-54.96-48.51-99.01-81.46-123-23.27-16.93-47.89-23.87-70.7-17.59-1.03.29-2.07.59-3.09.94,10.31-12.2,22.8-20.77,37.25-24.74,47.63-13.12,102.71,27.57,139.81,96.54,0,0,0,0,0,.02,4.46,8.28,8.65,16.97,12.55,26.02h0c2.84,6.59,5.52,13.38,8.01,20.34,3.09,8.64,5.92,17.53,8.44,26.68,30.53,110.92,4.47,214.83-58.22,232.09Z"></path>
  <path fill="#fff" d="M483.6,795.86c-38.09-51.12-74.78-60.2-103.26-55.14-23.27-16.93-47.89-23.87-70.7-17.59-1.03.29-2.07.59-3.09.94,10.31-12.2,22.8-20.77,37.25-24.74,47.63-13.12,102.71,27.57,139.81,96.54Z" opacity=".5"></path>
  <path fill="#15296f" d="M436.08,1115.97c-9.95,0-20.12-1.78-30.44-5.34-5.3-1.83-8.74-6.96-8.4-12.56.33-5.6,4.35-10.29,9.83-11.47.72-.15,1.52-.36,2.46-.61,23.76-6.54,41.87-30.17,50.99-66.52,9.75-38.86,7.84-86.71-5.39-134.73-13.22-48.02-36.07-90.11-64.33-118.5-26.44-26.56-54.09-37.59-77.85-31.05-.94.26-1.73.5-2.43.73-5.32,1.78-11.17-.19-14.32-4.83-3.15-4.64-2.83-10.81.79-15.09,12.24-14.49,26.87-24.15,43.48-28.73,34.85-9.59,73.44,4.59,108.64,39.96,33.38,33.53,60.21,82.67,75.54,138.36,15.33,55.69,17.44,111.63,5.92,157.53-12.14,48.4-38.02,80.34-72.88,89.93-7.05,1.94-14.27,2.91-21.61,2.91ZM348.13,711.11c20.34,5.26,40.92,17.93,60.4,37.49,31.26,31.4,56.37,77.39,70.72,129.5,14.35,52.11,16.31,104.47,5.53,147.45-6.72,26.77-17.92,48.19-32.7,63.12,25.29-7.48,44.53-32.87,54.25-71.62,10.48-41.78,8.43-93.21-5.78-144.81-14.21-51.6-38.77-96.83-69.15-127.36-28.19-28.32-57.71-40.28-83.26-33.76Z"></path>
  <path fill="#e81718" d="M467.19,881.41c28.5,103.52,4.17,200.51-54.34,216.62-1.04.29-2.08.55-3.13.78-57.88,12.79-126.43-57.38-154.42-159.06-27.99-101.68-5.02-197.05,51.25-215.68,1.02-.34,2.05-.65,3.09-.93,58.51-16.11,129.06,54.76,157.55,158.28Z"></path>
  <path fill="#fff" d="M308.91,756.61c1.02-.34,2.05-.65,3.09-.93,58.51-16.11,129.06,54.76,157.55,158.28,4.42,16.06,7.57,31.96,9.52,47.43-.44-25.26-4.28-52.38-11.88-79.97-28.5-103.52-99.05-174.39-157.55-158.28-1.04.29-2.07.59-3.09.93-47.39,15.7-71.16,85.82-60.76,168.3-1.2-67.83,22.12-122.17,63.12-135.76Z" opacity=".5"></path>
  <path fill="#15296f" d="M407.47,765.73c12.72,20.7,23.44,45.16,30.88,72.18,25.01,90.84,3.66,175.96-47.69,190.09-.91.25-1.83.48-2.75.69-50.79,11.22-110.95-50.35-135.51-139.58-4.26-15.47-7.14-30.75-8.79-45.56-1.25,29.69,2.43,62.6,11.69,96.21,27.99,101.68,96.54,171.85,154.42,159.06,1.05-.23,2.1-.49,3.13-.78,58.51-16.11,82.84-113.1,54.34-216.62-12.93-46.98-34.53-87.23-59.73-115.68Z" opacity=".25"></path>
  <path fill="#15296f" d="M395.72,1112.83c-27.64,0-56.69-14.47-83.38-41.91-30.49-31.34-55.03-76.75-69.1-127.85-14.07-51.11-16.23-102.67-6.08-145.2,10.69-44.8,33.94-75.23,65.45-85.67,1.1-.37,2.32-.74,3.71-1.12,32.83-9.04,69.13,4.28,102.21,37.51,31.26,31.4,56.37,77.39,70.72,129.5,14.35,52.11,16.31,104.47,5.53,147.45-11.41,45.48-35.77,75.5-68.61,84.54-1.39.38-2.64.69-3.81.95-5.46,1.21-11.02,1.8-16.64,1.8ZM326.75,733.34c-4.72,0-9.32.61-13.8,1.84-.94.26-1.73.5-2.43.73-23.04,7.63-40.44,31.69-49.04,67.75-9.19,38.5-7.1,85.65,5.87,132.76,12.97,47.11,35.31,88.68,62.91,117.06,25.85,26.58,53.11,38.34,76.76,33.12.77-.17,1.57-.37,2.51-.63,23.76-6.54,41.87-30.17,50.99-66.52,9.75-38.86,7.84-86.71-5.39-134.73-13.22-48.02-36.07-90.11-64.33-118.5-21.46-21.56-43.73-32.89-64.06-32.89Z"></path>
  <path fill="#fff" d="M1182.31,401.08c8.57-1.35,18.25-.37,25.71-.37,138.68.02,254.37,113.88,286.99,243.82,4.52,18,.91,58.85-28.15,41.31-64.16-38.73-192.13-124.37-299.96-248.43-7.59-8.73-6.99-22.25,1.43-30.24,3.68-3.49,8.61-5.25,13.98-6.09Z" opacity=".5"></path>
  <path fill="#15296f" d="M454.38,1101c-5.43,1.5-10.95,2.3-16.53,2.43-9.28.23-18.71-1.37-28.14-4.62,1.05-.24,2.1-.5,3.14-.78,6.77-1.86,13.08-4.81,18.9-8.74,33.76-22.67,51.19-77.83,46.65-143.08,11.19-17.05,22.42-52.19,17.75-124.3,2.84,6.59,5.52,13.37,8.01,20.33,3.09,8.64,5.92,17.53,8.44,26.68,30.53,110.92,4.47,214.83-58.22,232.09Z" opacity=".25"></path>
  <path fill="#fff" d="M680.16,1513.91l-4.31,165.97-1.39,53.68c-32.65,112.9-59.79,228.56-77.52,309.34-14.3,65.18-22.48,107.66-22.48,107.66,31,28,46,88,15,96s-34-41-119-37-186,98-217,0c-31-98,88-115,88-115,0,0,16.27-129.17,49.11-270.89,34.31-148.03,86.71-309.75,157.55-352.21,48.06-28.81,80.07-21.31,100.51-5.21,23.21,18.28,31.53,47.66,31.53,47.66Z"></path>
  <path fill="#e81718" d="M478.46,1829.05c0,38.94-31.56,70.5-70.5,70.5-52.5,0-18.5-31.06-18.5-70,9-41,19-71,18.5-71,38.67-4.55,70.5,31.56,70.5,70.5Z"></path>
  <path fill="#15296f" d="M680.16,1513.9c-7.53-5.26-14.37-11.36-20.38-17.83-5.32-5.6-9.62-11.7-15.3-16.71-5.44-4.84-11.49-8.6-17.99-10.93-25.01-8.86-51.79,2.94-73.84,16.89-9.63,6.59-17.8,14.71-25.41,23.87-20.89,25.47-36.28,55.97-49.59,86.39-33.63,78.74-55.56,162.59-75.04,245.99-19.28,84.19-35.19,169.23-48.75,254.54,0,0-.5,3.16-.5,3.16-.75,4.72-5.06,8.01-9.76,7.59,0,0-.93.18-.93.18-32.58,7.26-73.2,25.45-80.65,61-4.18,20.52,3.89,49.67,18.42,64.1,17.14,16.11,44.93,7.59,65.15,1.36,25.69-8.45,50.84-19.64,77.24-27.55,20.2-6.3,42.74-10.11,64.45-9,14.86.53,29.86,2.92,43.96,8.27,7.17,2.7,14.11,6.23,20.48,10.29,9.02,5.56,16.22,12.36,24.43,17.32,4.8,2.88,9.94,2.82,13.92-.33,2.44-2.54,3.51-6.3,3.83-10.33.81-10.89-2.7-23.06-7.33-33.35-5-11-12.02-21.32-20.48-29-3.22-2.67-4.62-6.72-4.06-10.57,5.35-35.93,12.29-71.38,19.81-106.86,15.18-70.04,32.45-139.71,53.49-208.24,5.35-16.85,11.39-34.36,17.73-50.88,6.43-16.89,13.41-33.49,21.4-49.73-2.16,22.47-6.01,44.57-9.86,66.76-4.03,21.87-8.41,44-13.19,65.67-21.33,95.12-41.85,192.29-64.68,286.93,0,0-3.91-11.66-3.89-11.63,21.61,19.89,37.91,53.22,35.96,83.02-.82,9.46-4.08,19.46-11.68,26.48-11.52,10.86-30.24,11.77-43.19,3.87-9.38-5.34-17.21-12.9-25.61-18.02-5.12-3.25-10.38-5.93-15.96-8.03-11.41-4.34-23.69-6.2-36.02-6.66-19.24-.92-37.5,2.17-56.34,7.96-25.84,7.73-50.59,18.84-76.69,27.38-13.98,4.47-28.1,8.35-43.23,9.01-27.07,1.48-49.09-11.32-61.34-35.6-8.74-17.41-13.66-36.18-12.76-55.72,1.2-28.58,18.69-52.87,41.99-68.04,18.62-12.28,39.6-20.27,61.34-24.68,0,0-10.26,10.75-10.26,10.75,1.85-16.97,4.05-35.26,6.34-52.09,18.91-138.18,84.47-524.16,214.12-586.35,25.98-13.82,57.67-21.88,86.26-10.47,18.12,7.24,35.67,22.57,43.16,40.36,3.56,9.29,4.83,19.87,1.23,29.45h0Z"></path>
  <path fill="#15296f" d="M341.8 2082.06c38.54 5.03 90.79 18.23 120.44 44.04 4.59 4.04 8.77 8.52 12.21 13.45-4.25-4.27-9.03-7.86-14.07-10.94-25.15-14.88-55.82-19.31-84.56-21.28-10.88-.64-21.83-.83-32.71-.4-7.62 1.25-14.91-3.38-15.62-11.33-.79-7.96 6.42-14.73 14.3-13.55h0ZM568.76 2161.68l-35.3-32.13 46.7 9.87c7 1.48 11.47 8.35 9.99 15.35-1.91 9.7-14.22 13.61-21.39 6.9h0ZM407.96 1912.05c-12.87 0-28.71-1.42-36.95-12.48-8.42-11.31-4.35-24.95-.03-39.39 2.8-9.37 5.98-19.99 5.98-30.63 0-.9.1-1.8.29-2.68 6.48-29.53 13.44-53.3 16.78-64.72.63-2.14 1.27-4.35 1.56-5.41.8-5.49 5.2-9.93 10.91-10.6 19.98-2.35 39.72 4.12 55.57 18.21 18.09 16.09 28.89 40.28 28.89 64.7 0 45.77-37.23 83-83 83ZM391.17 1884.66c.88.54 4.77 2.39 16.8 2.39 31.98 0 58-26.02 58-58 0-17.4-7.67-34.6-20.5-46.02-8.22-7.31-17.91-11.53-27.9-12.25-3.36 11.51-9.67 33.39-15.6 60.19-.25 13.73-3.98 26.25-7.01 36.37-1.73 5.8-4.32 14.46-3.77 17.32ZM1137.46 2025.05c-48.25 0-87.5-39.25-87.5-87.5 0-16.65 4.71-32.86 13.61-46.87 2.14-3.36 5.75-5.51 9.73-5.77 40.16-2.65 80.37 7.74 119.52 30.87 10.44 6.16 19.93 13.82 28.21 22.74 2.52 2.71 3.7 6.4 3.24 10.07-5.5 43.59-42.82 76.46-86.81 76.46ZM1081.57 1909.57c-4.34 8.65-6.61 18.21-6.61 27.99 0 34.46 28.04 62.5 62.5 62.5 29.45 0 54.72-20.62 61.01-48.82-5.57-5.33-11.73-10-18.36-13.91-32.55-19.23-65.68-28.54-98.54-27.75ZM1288.13 1753.9c19.15-.29 38.4 2.52 56.88 7.16 8.9 2.23 18.08 5.16 26.59 8.59 8.66 3.28 16.88 7.53 24.86 11.9-17.34-5.09-35.17-7.84-53.16-8.11-17.37-.29-34.77 1.07-51.6 5.2-6.6 2.4-13.9-1-16.3-7.61-3.16-8.66 3.66-17.46 12.73-17.14h0ZM1358.5 1973.36l7.96-53.81 16.95 51.69c2.21 6.74-1.46 14-8.2 16.21-8.88 3.09-18.23-4.88-16.71-14.08h0ZM1507.79 1875.04c-.06 0-.12 0-.17 0-32.89-.45-59.65-27.59-59.65-60.49s25.26-58.85 57.5-60.42c5.98-.29 11.29 3.67 12.74 9.45 9.69 38.77 10.22 73.26 1.57 102.5-1.57 5.32-6.46 8.96-11.99 8.96ZM1496.54 1781.09c-13.81 4.89-23.58 18.06-23.58 33.46s10.75 29.63 25.39 34.02c3.91-19.76 3.3-42.37-1.81-67.48ZM979.42 1942.17c-6.09 0-11.43-4.46-12.35-10.67-6.53-44.07 2.23-89.49 25.32-131.34 17.37-31.48 36.67-49.91 37.48-50.68 5.01-4.74 12.93-4.53 17.67.49 4.74 5.01 4.52 12.91-.48 17.66h0c-.18.17-17.71 17.03-33.19 45.35-20.41 37.33-27.83 75.98-22.07 114.87 1.01 6.83-3.7 13.18-10.53 14.2-.62.09-1.24.14-1.85.14ZM1418.62 2124.03l-19.16-50.48 39.84 36.44c5.24 4.79 5.6 12.92.81 18.15-6.23 7.06-18.33 4.69-21.49-4.11h0ZM437.46 1390.55c27.57-2.84 58.76 12.02 76.85 32.49 4.64 5.37 8.45 10.9 11.07 17.81-5.88-.44-11.35-1.68-16.93-3.17-26.45-7.32-55.37-24.03-70.99-47.13h0ZM404.62 2565.24c-8.1 0-16.4-.76-24.72-2.29-24.04-4.43-45.65-14.87-60.86-29.38-16.63-15.86-23.91-34.77-20.5-53.24 3.41-18.47 16.95-33.54 38.15-42.43 19.39-8.13 43.3-10.17 67.34-5.74 24.04 4.43 45.65 14.87 60.86 29.38 16.63 15.86 23.91 34.77 20.5 53.24-3.41 18.47-16.95 33.54-38.15 42.43-12.68 5.32-27.3 8.03-42.62 8.03ZM379.41 2454.88c-29 0-52.95 11.9-56.28 29.97-4.08 22.12 24 46.62 61.31 53.51 19.31 3.56 38.18 2.07 53.13-4.21 7.62-3.2 20.77-10.55 23.23-23.91h0c4.08-22.12-24-46.62-61.31-53.51-6.83-1.26-13.58-1.86-20.08-1.86ZM856.51 2642.2c-2.87 0-5.75-.09-8.65-.27-24.39-1.51-47.11-9.27-63.95-21.85-18.41-13.75-27.91-31.65-26.75-50.39 1.16-18.75 12.8-35.33 32.77-46.71 18.27-10.41 41.77-15.3 66.16-13.79 24.39 1.51 47.11 9.27 63.95 21.85 18.41 13.75 27.91 31.65 26.75 50.39h0c-1.16 18.75-12.8 35.33-32.77 46.71-16.1 9.17-36.26 14.06-57.51 14.06ZM847.54 2533.92c-34.88 0-64.14 16.25-65.44 37.31-1.39 22.45 29.43 43.4 67.3 45.75 37.88 2.36 71.04-14.64 72.43-37.09 1.39-22.45-29.43-43.4-67.3-45.75-2.35-.14-4.68-.22-6.99-.22ZM934.31 2580.65h0 0Z"></path>
  <path fill="#ffb000" d="M815.07,3035.02s-59.6,105.53,29.4,159.53c75.08,45.55,136.73-31.26,136.73-31.26,0,0-1.52-127.79-166.13-128.26Z"></path>
  <path fill="#15296f" d="M814.71,3040.73s-.99,1.88-2.5,5.23c64.27,6.16,90.77,44.67,101.69,74.97,8.52,23.64.39,50.43-19.54,64.26-9.65,6.69-21.43,12.34-34.65,13.57,31.04,10.62,58.2-2,76.41-15.56,17.22-12.83,24.41-35.17,17.72-55.58-11.57-35.27-44.64-86.6-139.12-86.89Z" opacity=".25"></path>
  <path fill="#15296f" d="M893.35 3221.5c-18.87 0-37.51-5.42-55.37-16.26-40.87-24.79-59.54-63.56-54.01-112.12 4.02-35.25 19.55-63.08 20.21-64.25 2.22-3.93 6.38-6.35 10.88-6.35h.04c90.59.26 134.41 38.19 155.21 69.96 22.69 34.66 23.36 69.2 23.38 70.65.03 2.9-.94 5.71-2.75 7.97-.69.86-17.29 21.33-43.98 35.87-17.77 9.68-35.79 14.52-53.62 14.52ZM822.74 3047.64c-4.32 9.36-11.71 27.85-14.01 48.99-4.16 38.36 10.04 67.71 42.21 87.23 26.85 16.29 54.91 16.8 83.41 1.51 16.43-8.81 28.58-20.63 33.99-26.43-1-9.32-4.87-31.72-19.57-53.71-24.44-36.55-66.83-55.91-126.04-57.6ZM2004.46 616.05c-19.9 0-39.7-2.47-58.84-7.35-105.19-26.82-178.66-121.47-178.66-230.15 0-54.33 18.82-107.44 52.99-149.55 33.67-41.5 80.79-70.72 132.66-82.27 16.92-3.77 34.37-5.68 51.85-5.68 40.35 0 80.21 10.3 115.26 29.79 28.72 15.98 53.41 37.32 73.4 63.43 31.95 41.71 48.83 91.6 48.83 144.28 0 12.92-1.04 25.86-3.1 38.44-8.58 52.73-35.24 101.63-75.06 137.68-40.11 36.3-91.89 57.97-145.8 61-4.46.25-9.02.38-13.53.38ZM2004.46 166.05c-15.65 0-31.27 1.71-46.41 5.08-96.24 21.44-166.09 108.67-166.09 207.42s65.72 181.93 159.83 205.93c17.13 4.36 34.85 6.57 52.67 6.57 4.05 0 8.13-.11 12.13-.34 98.64-5.54 181.74-80.3 197.6-177.75 1.84-11.26 2.78-22.84 2.78-34.41 0-47.13-15.11-91.77-43.68-129.08-17.9-23.37-40-42.48-65.7-56.78-31.35-17.43-67.01-26.64-103.11-26.64Z"></path>
  <path fill="#293" d="M2178.46,240.55s-58-15-83,27-55,66-69,76-17,70,28,68,47,13,74,28,78.13,5.84,98.06-24.58c4.06-135.58-48.06-174.42-48.06-174.42Z"></path>
  <path fill="#fff" d="M2138.64,274.55c0,6.68-.54,13.23-1.58,19.61-9.01,55.38-55.56,98.16-112.68,101.37-2.29.13-4.59.19-6.91.19-10.37,0-20.43-1.3-30.03-3.75-52.4-13.36-91.14-60.87-91.14-117.43s40.52-106.2,94.71-118.28c8.51-1.9,17.37-2.9,26.46-2.9,21.34,0,41.39,5.51,58.8,15.2,14.61,8.13,27.36,19.18,37.46,32.37,15.63,20.41,24.91,45.92,24.91,73.61Z" opacity=".5"></path>
  <path fill="#15296f" d="M2203.45,273.47c7.51,21.64,11.6,44.89,11.6,69.08,0,11.61-.94,23-2.75,34.09-15.66,96.24-96.56,170.59-195.83,176.16-3.98.22-7.97.34-12.01.34-18.02,0-35.5-2.27-52.19-6.51-91.06-23.22-158.4-105.79-158.4-204.07,0-24.21,4.1-47.47,11.62-69.12-16.61,31.38-26.03,67.15-26.03,105.12,0,105.01,71.95,193.23,169.24,218.04,17.83,4.54,36.51,6.96,55.76,6.96,4.31,0,8.58-.12,12.83-.36,106.06-5.96,192.5-85.39,209.23-188.22,1.94-11.85,2.94-24.02,2.94-36.42,0-37.96-9.41-73.72-26.01-105.08Z" opacity=".25"></path>
  <path fill="#15296f" d="M2159.73 459.11c-13.99 0-27.1-2.94-37.34-8.63-8.16-4.54-14.15-9-19.44-12.94-12.34-9.2-19.77-14.75-47.94-13.5-22.48.99-39.52-10.41-46.74-31.31-7.6-22.03-2.5-49.76 10.92-59.35 17.88-12.77 43.77-35.67 65.52-72.22 12.37-20.78 33.31-32.99 60.56-35.31 19.52-1.66 35.64 2.43 36.31 2.6 1.57.41 3.04 1.11 4.34 2.08 2.34 1.74 57.29 44.34 53.09 184.82-.07 2.31-.77 4.55-2.04 6.48-10.97 16.74-30.68 29.37-54.08 34.66-7.77 1.76-15.6 2.62-23.17 2.62ZM2062.13 398.88c30.8 0 42.45 8.69 55.77 18.62 4.88 3.64 9.93 7.41 16.63 11.13 10.39 5.77 26.81 7.11 42.85 3.48 15.75-3.56 28.93-11.23 36.74-21.27 1.42-63.85-10.27-103.95-20.44-126.46-8.52-18.85-17.37-28.7-21.04-32.28-4.64-.87-14.66-2.32-25.89-1.27-18.81 1.75-32.45 9.54-40.54 23.13-23.91 40.18-52.5 65.49-72.33 79.67-3.25 3.37-6.71 20.3-1.08 33.21 3.85 8.82 10.55 12.71 21.12 12.24 2.88-.13 5.62-.19 8.22-.19ZM2011.76 246.34c-18.98 0-36.55-8.78-50.13-26.06-14.47-18.42-18.21-43.3-18.79-60.93-.2-6.01 3.91-11.31 9.78-12.62 16.92-3.77 34.37-5.68 51.85-5.68 40.35 0 80.21 10.3 115.26 29.79 3.95 2.2 6.41 6.35 6.43 10.87.02 4.52-2.4 8.7-6.34 10.93-16.66 9.44-47.03 26.96-63.24 38.18-14.99 10.38-30.32 15.51-44.82 15.51ZM1968.62 169.06c1.34 11.32 4.65 25.56 12.67 35.77 21.13 26.89 47.32 14.95 61.05 5.44 11.24-7.78 28.29-18.08 44.63-27.6-25.97-10.92-54.1-16.62-82.51-16.62-12.04 0-24.05 1.01-35.84 3.01ZM2004.46 616.05c-19.9 0-39.7-2.47-58.84-7.35-3.26-.83-6.05-2.94-7.74-5.85-1.68-2.91-2.12-6.38-1.22-9.62 5.52-19.75 12.5-36 20.74-48.32 16.62-24.84 35.43-28.56 48.28-27.3 21.3 2.08 29.82 11.82 33.22 19.62 7.33 16.83-3.41 36.28-9.11 44.81v21.16c0 6.63-5.18 12.11-11.8 12.48-4.47.25-9.02.38-13.53.38ZM2017.29 603.19h0 0ZM1964.69 587.34c13.06 2.47 26.39 3.71 39.77 3.71.11 0 .22 0 .33 0v-13c0-2.73.89-5.39 2.55-7.56 5.63-7.47 10.52-19.01 8.64-23.29-.77-1.75-4.52-3.91-12.73-4.71-18.71-1.84-31.63 24.95-38.55 44.84Z"></path>
  <path fill="#15296f" d="M2049.83 704.15c-32.1 0-58.69-7.11-78.64-15.27-21.85-8.94-38.43-20.09-49.24-28.65-.49.81-1.02 1.62-1.58 2.44-7.06 10.22-21.28 22.39-48.91 22.39-33.53 0-50.46-15.35-58.76-28.23-4.6-7.14-7.03-14.23-8.31-19.6-30.07-10.73-41.06-33.36-44.9-51.16-1.84-8.51-2.17-16.63-1.94-23.18-17.51-1.31-47.11-7.17-71.65-30.22-28.98-27.22-28.28-74.65-26.2-96.22-9.78-3.33-25.07-9.44-41.36-19.44-36.31-22.28-60.42-53.39-69.71-89.98-11.88-46.79 3.24-81.36 18.02-102.12 10.45-14.68 22.15-24.61 29.15-29.81-.07-30.86 9.31-53.65 27.93-67.82 26.6-20.24 64.36-16 83.89-11.88 3.22-9.86 9.1-24.29 19.3-39.64 16.67-25.06 48.55-57.62 105.81-70.4 71.7-16.01 117.72 6.91 143.71 28.96 14.23 12.07 24.07 25.12 30.4 35.25 13.08-12.6 35.81-27.41 67.57-22.35 27.46 4.37 43.95 25.33 52.37 40.19 10.59-7.04 27.15-16.22 48.34-22.11 34.65-9.63 88.72-12.06 149.55 31.07 35.68 25.3 57.17 65.13 62.14 115.19 2.59 26.02.1 48.34-1.7 59.74 4.08 3.77 9.07 9.61 13.55 18.28 11 21.26 14.08 49.77 9.15 84.74-10.18 72.22-94.62 108.86-122.65 119.11-.49 13.27-3.06 38.76-14.47 67.9-15.09 38.55-49.12 91.14-125.53 122.79-35.45 14.68-67.49 20.04-95.37 20.04ZM1916.29 625.91c3.51 0 6.96 1.52 9.41 4.22.17.19 20.23 21.65 56.02 36.04 47.63 19.14 99.41 17.41 153.91-5.16 54.82-22.7 92.44-59.31 111.81-108.8 14.4-36.79 12.81-66.7 12.79-66.99-.34-5.77 3.32-11.03 8.85-12.7 1.03-.31 104.26-32.6 114-101.7 5-35.43-.29-56.38-5.6-67.72-5.05-10.79-10.87-14.83-11.88-15.48-5.33-2.47-7.64-8.07-6.33-13.83.06-.25 6.03-27.36 2.61-60.47-4.42-42.9-21.8-75.39-51.66-96.56-42.05-29.81-84.9-39.12-127.37-27.66-32.13 8.67-52.24 26.59-52.44 26.77-3.13 2.82-7.48 3.89-11.55 2.83-4.07-1.06-7.35-4.1-8.7-8.09-.11-.3-12.13-34.31-39.68-38.7-34.94-5.56-54.59 25.12-55.41 26.43-2.48 4.05-7.05 6.32-11.77 5.9-4.72-.43-8.78-3.51-10.51-7.93-.22-.54-9.77-23.96-33.36-43.62-31.41-26.17-72.22-33.88-121.27-22.93-93.79 20.94-109.27 102.17-109.42 102.99-.63 3.56-2.78 6.68-5.89 8.54-3.11 1.86-6.87 2.28-10.31 1.15-.46-.15-47.69-15.11-73.75 4.78-13.05 9.96-19.06 28.05-17.87 53.76.21 4.61-2.13 8.95-6.09 11.32-.12.07-15.6 9.57-28.38 27.87-16.61 23.77-21.19 50.93-13.63 80.72 7.71 30.35 27.19 55.4 57.92 74.43 23.66 14.66 45.4 20.04 45.62 20.09 6.45 1.57 10.57 7.9 9.36 14.42-.1.57-10.3 58.72 17.27 84.62 28.3 26.59 66.96 23.69 67.35 23.66 3.97-.33 7.88 1.25 10.49 4.25 2.61 3 3.66 7.07 2.79 10.96-.02.09-2.9 13.64.43 28.18 4.1 17.91 15.38 29.02 34.51 33.96 5.39 1.39 9.19 5.95 9.36 11.5.25 3.71 3.51 33.1 43.51 33.1 28.84 0 32.15-18.34 32.52-22.3.18-5.06 3.39-9.34 8.15-11.1 1.36-.5 2.76-.74 4.15-.74ZM2365.74 287.67h0 0ZM1814.96 845.05c-36.39 0-66-29.61-66-66s29.61-66 66-66 66 29.61 66 66-29.61 66-66 66ZM1814.96 738.05c-22.61 0-41 18.39-41 41s18.39 41 41 41 41-18.39 41-41-18.39-41-41-41Z"></path>
  <circle cx="1761.21" cy="920.8" r="40.75" fill="#fff"></circle>
  <path fill="#15296f" d="M1761.21,974.05c-29.36,0-53.25-23.89-53.25-53.25s23.89-53.25,53.25-53.25,53.25,23.89,53.25,53.25-23.89,53.25-53.25,53.25ZM1761.21,892.55c-15.58,0-28.25,12.67-28.25,28.25s12.67,28.25,28.25,28.25,28.25-12.67,28.25-28.25-12.67-28.25-28.25-28.25Z"></path>
  <circle cx="1637.21" cy="949.8" r="28.75" fill="#fff"></circle>
  <path fill="#15296f" d="M1637.21,991.05c-22.75,0-41.25-18.5-41.25-41.25s18.5-41.25,41.25-41.25,41.25,18.5,41.25,41.25-18.5,41.25-41.25,41.25ZM1637.21,933.55c-8.96,0-16.25,7.29-16.25,16.25s7.29,16.25,16.25,16.25,16.25-7.29,16.25-16.25-7.29-16.25-16.25-16.25Z"></path>
  <path fill="#15296f" d="M1691.46,1959.56c-58.86,183.57-231,191-231,191l-31.5-33.54c-74.5,62.46-160.35,101.3-160.35,101.3-617.84,190.76-671.67-175.42-671.67-175.42-14.3,65.18-22.48,107.66-22.48,107.66,31,28,46,88,15,96s-34-41-119-37-186,98-217,0c-7.52-23.77-6.21-42.77.08-57.92,3.59,16.23,14.03,27.09,35.51,27.09,85,0,173.4-51.5,173.4-51.5-41.81-30.16-83.15-37.75-120.93-33.11,1.06-8.32,17.32-133.53,49.05-270.45l9.48-2.94s-59.9,182.34,43.05,222.17c49.07,18.98,93.08-66.53,131.5-159.32,40.05-96.72,74.01-201.35,101.25-203.7,1.46-.14,2.89.03,4.31.5,53.39,17.85-10.21,264,99.09,291.93,109.3,27.92,151.09-88.53,151.09-88.53l-4.46,88.53s6.44,46.92,51.56,46.92,47.26,110,171.95,100.11c57.59-4.57,79.22-28.28,87.13-48.1,6.12-15.33,4.03-28.34,4.03-28.34,0,0,7.54-99.34-88.23-143,0,0,.01-.04.02-.12.01-.04.02-.09.03-.14,0-.07.03-.15.05-.24.62-2.89,3.92-17.7,10.21-33.38.01-.03.03-.07.04-.1.02-.05.04-.11.07-.16,4.02-10,9.26-20.32,15.8-28.09.03,1.3,2.33,93.28,111.37,108.26,41.78,5.74,55.85-22.2,60.49-44.41,2.42-11.54,13.41-19.34,25.07-17.57,16.61,2.52,41.07.6,69.33-19.39,16.57-11.72,25.87-33.29,29.52-59.82,7.98-57.91-10.93-139.47-39.75-194,5.45,8.62,10.9,17.72,16.36,27.32,28.31,49.84,46.08,92.27,55.14,128.56,5.79,23.16,8.02,43.81,7.18,62.29,12.91,1.21,25.39,4.17,37.34,8.44-19.83,21.79-36.8,52.13-37.16,92.32-.88,97.56,107.68,122.62,107.68,122.62,0,0,40.64-37.19,68.14-96.13,1.46,2.19,2.21,3.4,2.21,3.4Z" opacity=".25"></path>
  <path fill="#fff" d="M1350.46,2521.56s-34,27-79,26l-2-28-31,5-5,27h-88.9l-4.1-33-64-2-9,31-105-17s-16.19-152.11-16.1-276.14c.03-39.38,1.7-75.91,6.05-103.86,0,0,170.1,70,313.05-10l6,148s35.22,1.64,63.46,26.93c15.9,14.23,29.58,35.94,33.54,69.07,11,92-18,137-18,137Z"></path>
  <path fill="#15296f" d="M1233.46,2564.05h-88.9c-6.31,0-11.63-4.7-12.4-10.96l-2.78-22.38-43.61-1.36-6.3,21.69c-1.76,6.06-7.77,9.86-14,8.85l-105-17c-5.56-.9-9.84-5.41-10.43-11.02-1.15-10.85-28.07-266.96-9.97-383.25.59-3.78,2.88-7.09,6.22-8.97,3.34-1.88,7.35-2.13,10.89-.67.78.32,42.47,17.14,100.41,24.24,53.05,6.5,131.12,5.95,201.78-33.59,3.79-2.12,8.41-2.12,12.21,0,3.79,2.12,6.21,6.06,6.39,10.4l5.58,137.51c9.45,1.75,23.63,5.51,38.3,13.53,23.45,12.81,52.73,39.17,59.04,91.98,11.4,95.37-18.62,143.26-19.9,145.26-.74,1.15-1.66,2.17-2.73,3.02-1.53,1.22-38.13,29.81-87.05,28.71-6.45-.14-11.73-5.17-12.19-11.61l-1.03-14.38-8.82,1.42-3.4,18.34c-1.1,5.92-6.27,10.22-12.29,10.22ZM1155.61,2539.05h67.46l3.11-16.78c.96-5.19,5.08-9.22,10.3-10.06l31-5c3.46-.56,7,.36,9.75,2.54,2.75,2.18,4.46,5.41,4.71,8.91l1.14,15.99c28.94-2.68,51.51-17.15,57.85-21.6,4.67-8.8,24.21-51.05,15.12-127.01-9.57-80.02-82.13-84.83-85.21-85-6.44-.35-11.6-5.54-11.86-11.98l-5.21-128.43c-29.37,13.88-61.54,23.16-95.91,27.63-32.94,4.28-67.95,4.18-104.06-.3-40.58-5.04-73.12-14.39-91.02-20.37-11.81,106,6.64,306.32,11.16,352.16l84.61,13.7,5.92-20.38c1.59-5.48,6.67-9.17,12.4-9.01l64,2c6.16.19,11.25,4.84,12.01,10.95l2.74,22.04Z"></path>
  <path fill="#15296f" d="M1272.1 2301.04c-23.44-.42-47.87 7.1-68.49 18.33-13.27 7.27-25.28 16.45-36.15 27.18 5.65-8.52 12.12-16.61 19.35-24.13 21.48-22.09 49.17-38.48 79.35-45.51 1.04-.24 2.22-.45 3.3-.65 7.25-1.37 14.17 4.31 14.49 11.65.35 6.89-4.95 12.77-11.85 13.12h0ZM1159.67 2457.24c-32.34 0-61.17-1.94-85.4-4.58-76.37-8.3-123.74-24.67-125.72-25.36-6.52-2.28-9.95-9.41-7.67-15.93 2.28-6.51 9.41-9.95 15.92-7.67.69.24 47.4 16.27 120.98 24.19 67.88 7.31 173.22 9 289.57-24.41 6.64-1.91 13.56 1.93 15.46 8.56 1.91 6.64-1.93 13.56-8.56 15.46-79.02 22.69-153.12 29.72-214.58 29.72Z"></path>
  <path fill="#15296f" d="M1159.93,2498.24c-31.73,0-60.02-1.95-83.8-4.58-74.94-8.31-121.43-24.69-123.37-25.38-6.5-2.32-9.89-9.47-7.57-15.97,2.32-6.5,9.47-9.89,15.97-7.57.73.26,46.5,16.27,118.55,24.17,66.51,7.3,169.73,8.99,283.74-24.39,6.62-1.94,13.57,1.86,15.51,8.48,1.94,6.62-1.86,13.57-8.48,15.51-77.53,22.71-150.23,29.74-210.54,29.74Z"></path>
  <path fill="#fff" d="M1992.73,2200.75s-10.41,42.15-46.64,68.86l-18.7-20.94-21.48,22.9,12.55,24.43-70.37,54.33-23.41-23.62-51.88,37.53,11.82,30.04-93.5,50.72s-183.58-191.79-240.19-294.64c0,0,83.42-22.83,156.57-85.75h0c33.53-28.85,64.9-66.12,85.1-113.48l95.2,113.47s70.52-49.39,135.45,16.71c2.17,2.21,4.28,4.41,6.31,6.59,58.92,63.02,63.17,112.85,63.17,112.85Z"></path>
  <path fill="#15296f" d="M1691.13,2457.49c-3.33,0-6.61-1.33-9.04-3.86-7.54-7.88-185.37-194.16-242.11-297.25-1.85-3.36-2.05-7.37-.56-10.9,1.49-3.52,4.51-6.17,8.2-7.18h0c.43-.12,43.88-12.26,94.3-42.18,45.97-27.28,107.42-75.42,139.19-149.91,1.7-4,5.36-6.82,9.66-7.46,4.3-.64,8.62,1,11.41,4.33l88.45,105.44c8.55-4.39,22.07-10.08,38.58-12.7,26.39-4.19,65.68-1.22,102.95,36.72,67.31,68.52,72.82,124.77,73.02,127.14.12,1.36,0,2.73-.32,4.06-.47,1.9-11.95,46.87-51.36,75.92-5.19,3.83-12.45,3.08-16.74-1.74l-9.6-10.75-6.11,6.51,8.52,16.59c2.75,5.36,1.29,11.92-3.48,15.6l-70.37,54.33c-4.99,3.86-12.07,3.39-16.52-1.09l-15.88-16.02-35.35,25.58,8.27,21.02c2.31,5.88-.12,12.55-5.67,15.56l-93.5,50.71c-1.88,1.02-3.92,1.51-5.96,1.51ZM1469.54,2157.52c55.43,91.12,192.46,238.4,224.06,271.91l75.34-40.87-7.77-19.75c-2.09-5.31-.32-11.36,4.31-14.71l51.88-37.53c4.99-3.61,11.87-3.05,16.2,1.33l15.64,15.77,53.4-41.23-7.79-15.18c-2.41-4.7-1.61-10.41,2-14.26l21.48-22.9c2.4-2.56,5.74-3.99,9.27-3.95,3.51.04,6.83,1.56,9.17,4.17l10.68,11.96c21.27-19.8,30.29-45.05,32.59-52.46-1.68-9.82-12.04-55.2-65.65-109.77-56.48-57.49-116.85-16.96-119.39-15.2-5.31,3.66-12.57,2.71-16.71-2.23l-82.61-98.47c-14.76,28.94-34.56,55.94-59.03,80.48-23.46,23.52-51.23,44.84-82.55,63.36-35.2,20.81-66.67,33.29-84.49,39.51Z"></path>
  <path fill="#15296f" d="M1795.94 2074.09c-18.8 13.97-33.56 34.89-43 56.37-6.06 13.87-9.96 28.47-12 43.61-.73-10.2-.56-20.56.57-30.92 3.61-31.3 15.92-61.99 36.44-86.19 4.74-6.24 14.3-6.49 19.36-.49 4.49 5.24 3.88 13.13-1.36 17.62h0ZM1613.07 2372.41c-5.24 0-10.12-3.32-11.86-8.56-2.18-6.55 1.37-13.63 7.92-15.8.82-.27 47.55-16.14 110.54-54.78 58.2-35.7 142.61-98.74 214.28-196.29 4.09-5.56 11.91-6.76 17.47-2.67 5.56 4.09 6.76 11.91 2.67 17.47-74.28 101.1-161.77 166.32-222.07 203.23-65.52 40.1-113.01 56.1-115 56.76-1.31.43-2.64.64-3.94.64Z"></path>
  <path fill="#15296f" d="M1641.51,2402.25c-5.27,0-10.16-3.35-11.88-8.63-2.14-6.56,1.45-13.62,8.02-15.75.82-.27,46.8-15.58,108.61-53.32,57.11-34.87,139.84-96.62,209.67-192.71,4.06-5.59,11.88-6.82,17.46-2.76,5.58,4.06,6.82,11.88,2.76,17.46-72.47,99.73-158.33,163.7-217.6,199.8-64.39,39.22-111.2,54.67-113.17,55.31-1.29.42-2.59.62-3.87.62Z"></path>
  <path fill="#15296f" d="M1350.46 2521.56s-34 27-79 26l-2-28-31 5-5 27h-88.9l-4.1-33-64-2-9 31-105-17s-16.19-152.11-16.1-276.14l6.32-9.29s-.13 184.1 191.87 193.1 194.71-81.8 186.86-113.9c-1.2-4.88.23-7.66 3.51-8.84 15.9 14.23 29.58 35.94 33.54 69.07 11 92-18 137-18 137ZM1992.73 2200.75s-10.41 42.15-46.64 68.86l-18.7-20.94-21.48 22.9 12.55 24.43-70.37 54.33-23.41-23.62-51.88 37.53 11.82 30.04-93.5 50.72s-183.58-191.79-240.19-294.64c0 0 83.42-22.83 156.57-85.75.4 1.73 41.04 177.75 141.05 189.4 92.8 10.82 194.2-103.75 181.01-166.11 58.92 63.02 63.17 112.85 63.17 112.85Z" opacity=".25"></path>
  <path fill="#fff" d="M855.89,3120.23c9.08,24.43,23.58,40.91,8.78,46.41-14.8,5.5-34.15-9.84-43.24-34.27-9.08-24.43-4.45-48.69,10.35-54.19,14.8-5.5,15.02,17.63,24.11,42.06Z" opacity=".5"></path>
  <path fill="#ffb000" d="M1346.65,3035.02s59.6,105.53-29.4,159.53c-75.08,45.55-136.73-31.26-136.73-31.26,0,0,1.52-127.79,166.13-128.26Z"></path>
  <path fill="#15296f" d="M1347.01,3040.73s.99,1.88,2.5,5.23c-64.27,6.16-90.77,44.67-101.69,74.97-8.52,23.64-.39,50.43,19.54,64.26,9.65,6.69,21.43,12.34,34.65,13.57-31.04,10.62-58.2-2-76.41-15.56-17.22-12.83-24.41-35.17-17.72-55.58,11.57-35.27,44.64-86.6,139.12-86.89Z" opacity=".25"></path>
  <path fill="#15296f" d="M1268.37,3221.5c-17.83,0-35.85-4.83-53.62-14.52-26.69-14.54-43.28-35-43.98-35.87-1.81-2.26-2.78-5.08-2.75-7.97.02-1.45.69-35.99,23.38-70.65,20.8-31.77,64.62-69.7,155.21-69.96h.04c4.51,0,8.67,2.43,10.88,6.35.66,1.17,16.2,29,20.21,64.25,5.53,48.55-13.14,87.32-54.01,112.12-17.85,10.83-36.5,16.26-55.37,16.26ZM1193.37,3158.95c5.4,5.79,17.55,17.61,33.99,26.42,28.5,15.29,56.56,14.78,83.41-1.51,32.17-19.52,46.38-48.87,42.21-87.23-2.29-21.14-9.69-39.64-14.01-48.99-59.21,1.69-101.59,21.05-126.04,57.6-14.7,21.97-18.56,44.36-19.57,53.71Z"></path>
  <path fill="#fff" d="M1305.83,3120.23c-9.08,24.43-23.58,40.91-8.78,46.41,14.8,5.5,34.15-9.84,43.24-34.27,9.08-24.43,4.45-48.69-10.35-54.19-14.8-5.5-15.02,17.63-24.11,42.06Z" opacity=".5"></path>
  <path fill="#15296f" d="M1226.85,1561.11s77.47,32.32,116.33,205.97l-45.54-.81s-36-173.77-70.8-205.16Z" opacity=".25"></path>
  <path fill="#15296f" d="M1981.01,496.95c-11.4,0-17.37-6.36-22.36-11.68-6.22-6.63-14.75-15.72-43.12-22.56-53.29-12.86-62.11-54.79-68.56-85.4-1.67-7.94-3.25-15.43-5.37-21.8-6.04-18.12.4-39.41,18.63-61.57,19.5-23.7,53.15-29.09,78.27-12.54h0c14.42,9.5,17.45,21.1,17.45,29.15,0,2.07-.01,4.26-.03,6.54-.14,23.81-.34,59.79,14.56,74.33,9.32,9.09,19.86,24.48,27.51,40.15,6.61,13.55,13.69,32.68,9.84,46.92-2.37,8.76-8.69,15.03-17.35,17.19-3.54.88-6.68,1.27-9.49,1.27ZM1980.76,471.95c.25.02,1.14.05,3.07-.38.63-3.01-.37-12.22-7.39-27.17-6.36-13.54-15.77-27.64-23.4-35.09-22.5-21.96-22.26-64.33-22.09-92.36.01-2.23.03-4.37.03-6.39,0-1.04,0-4.18-6.21-8.27-14.42-9.5-33.86-6.26-45.21,7.54-7.13,8.66-18.45,25.09-14.22,37.78,2.57,7.72,4.29,15.9,6.12,24.56,6.18,29.36,12.01,57.09,49.96,66.25,35.62,8.6,48.05,21.84,55.48,29.76,1.33,1.41,3.13,3.33,3.88,3.79Z"></path>
</svg>
