<svg id="SvgjsSvg1019" width="288" height="288" xmlns="http://www.w3.org/2000/svg" version="1.1" xmlns:xlink="http://www.w3.org/1999/xlink" xmlns:svgjs="http://svgjs.com/svgjs"><defs id="SvgjsDefs1020"></defs><g id="SvgjsG1021"><svg xmlns="http://www.w3.org/2000/svg" viewBox="0 0 48 48" width="288" height="288"><path fill="#1f54bf" d="M45.5 36.7c2-3.2 2.6-7.2 1.2-11l-3.9-11.1c-.7-2.1-3-3.4-5.1-2.8-2.3.7-3.5 3.1-2.7 5.3l-.5-1.3c-.7-2.1-3-3.4-5.1-2.8-2.3.7-3.5 3.1-2.7 5.3l-.3-.8c-.7-2.1-3-3.4-5.1-2.8-2.3.7-3.5 3.1-2.7 5.3L12.9 3.4C12.2 1.3 10 0 7.9.7c-2.3.6-3.5 3-2.7 5.2l7.9 22.2-7.2-2.9c-2.1-.7-4.4.4-5.1 2.6-.7 2.1.4 4.4 2.6 5.1l13.5 5.3c1.5 3 4.1 5.1 7.2 6.2l.7 2c.3.9 1.3 1.3 2.2 1l18.4-6.5c.9-.3 1.3-1.3 1-2.2l-.9-2z" class="color696969 svgShape"></path></svg></g></svg>