<svg xmlns="http://www.w3.org/2000/svg" xmlns:xlink="http://www.w3.org/1999/xlink" viewBox="0 0 256 256" width="256" height="256" preserveAspectRatio="xMidYMid meet" style="width: 100%; height: 100%; transform: translate3d(0px, 0px, 0px); content-visibility: visible;" id="Note"><defs><clipPath id="__lottie_element_5266"><rect width="256" height="256" x="0" y="0"/></clipPath><g id="__lottie_element_5270"><g transform="matrix(1,0,0,1,0,0)" opacity="1" style="display: block;"><path fill="rgb(255,0,0)" fill-opacity="1" d=" M183.81,90.31 C183.46,90.85 182.34,92.26 183.16,92.77 C183.18,92.8 183.2,92.8 183.23,92.8 C183.69,93.04 184.14,92.43 184.71,92.56 C185.38,92.72 185.86,93.27 186.1,93.87 C186.2,94.13 186.25,94.42 186.26,94.68 C186.35,96.08 185.41,97.47 184.02,97.75 C182.52,98.04 181.09,97.03 180.38,95.66 C180.36,95.63 180.36,95.61 180.37,95.59 C180.13,95.14 179.98,94.69 179.94,94.21 C179.78,92.24 180.79,90.35 181.9,88.68 C184.83,84.31 188.64,80.61 192.36,76.87 C192.99,76.23 193.5,75.53 193.46,74.6 C193.44,74.43 193.41,74.31 193.36,74.18 C193.42,74.12 193.47,74.08 193.53,74.02 C193.95,73.61 194.35,73.17 194.77,72.76 C195.65,71.88 196.52,70.99 197.13,69.97 C197.24,69.87 197.31,69.74 197.38,69.61 C197.56,69.8 197.72,70.04 197.82,70.27 C198.15,70.89 198.3,71.61 198.26,72.19 C198.19,73.68 197.36,75 196.48,76.22 C192.74,81.28 187.32,85.06 183.81,90.31z M171.45,70.59 C170.18,71.84 168.94,73.09 167.69,74.34 C167.69,74.34 171.36,70.5 171.36,70.5 C171.36,70.5 171.45,70.59 171.45,70.59z M165.4,78.24 C165.4,78.24 164.75,78.89 164.75,78.89 C164.75,78.89 153.46,90.23 153.46,90.23 C153.2,90.48 152.97,90.75 152.76,91.03 C152.76,91.03 142.12,104.27 142.12,104.27 C141.98,104.25 141.84,104.25 141.72,104.26 C141.72,104.26 151.77,91.15 151.77,91.15 C151.98,90.88 152.18,90.63 152.44,90.36 C152.44,90.36 164.16,78.07 164.16,78.07 C164.16,78.07 165.44,76.72 165.44,76.72 C165.21,77.16 165.22,77.71 165.4,78.24z M188.32,56.21 C189.78,56.46 191.16,57.04 192.39,57.85 C191.62,57.44 190.79,57.14 189.92,56.96 C188.72,56.72 187.48,56.72 186.28,56.98 C184.55,57.35 183.1,58.88 181.86,60.13 C178.56,63.44 175.26,66.77 171.95,70.07 C171.79,70.24 171.61,70.42 171.45,70.59 C170.18,71.84 168.94,73.09 167.69,74.35 C167.69,74.35 165.47,76.68 165.47,76.68 C165.45,76.7 165.44,76.72 165.44,76.72 C165.21,77.16 165.22,77.71 165.39,78.24 C165.39,78.24 164.74,78.89 164.74,78.89 C164.47,78.66 164.28,78.37 164.16,78.07 C163.86,77.4 163.93,76.67 164.39,76.18 C166.43,74.05 168.48,71.9 170.5,69.77 C173.75,66.39 176.99,62.98 180.23,59.59 C181.46,58.31 182.87,56.75 184.62,56.31 C185.83,56.03 187.1,55.99 188.32,56.21z M169.3,75.63 C165.78,75.64 142.31,104.09 142.31,104.09 C142.31,104.09 151.06,112.88 151.06,112.88 C151.06,112.88 164.1,102.31 164.1,102.31 C164.37,102.1 164.62,101.85 164.88,101.61 C164.88,101.61 176.93,89.51 176.93,89.51 M142.12,104.27 C142.12,104.27 152.76,91.03 152.76,91.03 C152.97,90.75 153.2,90.48 153.46,90.23 C153.46,90.23 164.75,78.89 164.75,78.89 C164.75,78.89 165.4,78.23 165.4,78.23 M175.73,88.82 C175.85,88.93 175.98,89.05 176.13,89.14 C176.39,89.33 176.65,89.44 176.93,89.51 C177.53,89.63 178.11,89.5 178.51,89.09 C180.62,87 182.72,84.88 184.83,82.77 C187.66,79.91 190.53,77.06 193.36,74.18 C193.42,74.12 193.47,74.08 193.53,74.02 C193.95,73.61 194.35,73.17 194.77,72.76 C195.65,71.88 196.52,70.99 197.13,69.97 C197.24,69.87 197.31,69.74 197.38,69.61 C197.89,68.79 198.18,67.86 198.2,66.79 C198.25,64.57 197.33,62.4 195.93,60.71 C195.02,59.57 193.86,58.6 192.54,57.94 C192.5,57.89 192.46,57.86 192.39,57.85 C191.62,57.44 190.79,57.14 189.92,56.96 C188.72,56.72 187.48,56.72 186.28,56.98 C184.56,57.35 183.1,58.88 181.86,60.13 C178.56,63.44 175.26,66.77 171.96,70.07 C171.79,70.24 171.62,70.42 171.45,70.59 C170.18,71.84 168.94,73.09 167.69,74.34 C167.04,75.03 166.37,75.68 165.72,76.34 C165.61,76.44 165.54,76.55 165.47,76.68 C165.45,76.7 165.44,76.72 165.44,76.72 C165.21,77.16 165.22,77.71 165.4,78.23 C165.54,78.54 165.73,78.86 165.99,79.14 C165.99,79.14 171.99,85.09 171.99,85.09 M143.09,104.76 C142.82,104.5 142.49,104.33 142.14,104.28 C142.14,104.28 142.12,104.27 142.12,104.27 C141.98,104.25 141.84,104.25 141.72,104.26 C141.22,104.27 140.71,104.48 140.29,104.86 C140.21,104.92 140.16,104.96 140.1,105.02 C139.2,105.93 139.09,107.26 139.84,108.02 C139.84,108.02 141.44,109.63 141.44,109.63 C141.44,109.63 145.53,113.7 145.53,113.7 C145.53,113.7 147.46,115.62 147.46,115.62 C147.73,115.87 148.06,116.04 148.41,116.1 C148.76,116.15 149.12,116.11 149.47,115.98 C149.6,115.95 149.73,115.88 149.86,115.8 C150.07,115.69 150.28,115.54 150.48,115.35 C151.18,114.63 151.39,113.64 151.06,112.88 C150.97,112.67 150.85,112.51 150.71,112.35 C150.71,112.35 147.01,108.68 147.01,108.68 M145.53,113.7 C145.45,113.78 145.41,113.89 145.37,113.98 C145.27,114.18 145.17,114.37 145.09,114.57 C144.58,115.83 144.36,117.22 144.34,118.69 C144.34,118.85 144.32,119.02 144.25,119.15 C144.24,119.22 144.2,119.28 144.16,119.37 C143.96,119.74 143.59,119.97 143.14,119.99 C140.37,120.2 137.67,121.22 134.98,123.1 C134.94,123.36 134.19,123.41 133.94,123.37 C133.65,123.35 133.44,123.17 133.23,123.02 C132.79,122.67 132.32,122.31 132.04,121.81 C131.87,121.43 131.79,121.01 131.9,120.62 C131.92,120.46 131.99,120.33 132.08,120.2 C132.39,119.78 132.64,119.36 132.88,118.93 C134.25,116.67 134.97,114.36 135.15,112.04 C135.16,111.85 135.21,111.67 135.31,111.49 C135.53,111.1 135.96,110.83 136.46,110.82 C138.08,110.81 139.57,110.55 140.9,109.9 C141.1,109.84 141.26,109.74 141.44,109.63 M141.02,117.4 C140.16,118.26 138.74,118.22 137.84,117.33 C136.94,116.43 136.9,115.01 137.75,114.15 C138.6,113.3 140.03,113.33 140.93,114.23 C141.83,115.13 141.87,116.55 141.02,117.4z M139.58,115.59 C139.58,115.59 132.81,122.38 132.81,122.38"/><g opacity="1" transform="matrix(0.9878328442573547,0.15551944077014923,-0.15551944077014923,0.9878328442573547,16.89704132080078,-50.373260498046875)"><g opacity="1" transform="matrix(1,0,0,1,190.8179931640625,105.4739990234375)"><path fill="rgb(0,0,0)" fill-opacity="1" d=" M-4.058000087738037,7.534999847412109 C-4.315999984741211,8.121999740600586 -5.208000183105469,9.694999694824219 -4.315999984741211,10.069999694824219 C-4.293000221252441,10.093000411987305 -4.26800012588501,10.093999862670898 -4.244999885559082,10.093999862670898 C-3.752000093460083,10.258000373840332 -3.4000000953674316,9.57699966430664 -2.812999963760376,9.62399959564209 C-2.131999969482422,9.670999526977539 -1.5700000524520874,10.140999794006348 -1.2410000562667847,10.704000473022461 C-1.100000023841858,10.939000129699707 -1.00600004196167,11.220999717712402 -0.9589999914169312,11.479000091552734 C-0.6539999842643738,12.84000015258789 -1.3580000400543213,14.364999771118164 -2.696000099182129,14.857999801635742 C-4.127999782562256,15.37399959564209 -5.701000213623047,14.600000381469727 -6.616000175476074,13.355999946594238 C-6.638999938964844,13.333000183105469 -6.638999938964844,13.309000015258789 -6.638999938964844,13.28600025177002 C-6.943999767303467,12.88700008392334 -7.156000137329102,12.46399974822998 -7.2729997634887695,11.994999885559082 C-7.742000102996826,10.069999694824219 -7.038000106811523,8.052000045776367 -6.192999839782715,6.2210001945495605 C-3.986999988555908,1.4559999704360962 -0.7950000166893005,-2.7920000553131104 2.302999973297119,-7.064000129699707 C2.819000005722046,-7.791999816894531 3.2190001010894775,-8.565999984741211 3.0309998989105225,-9.480999946594238 C2.9839999675750732,-9.645000457763672 2.937000036239624,-9.762999534606934 2.867000102996826,-9.880000114440918 C2.9140000343322754,-9.949999809265137 2.9600000381469727,-9.998000144958496 3.006999969482422,-10.067999839782715 C3.3589999675750732,-10.536999702453613 3.687999963760376,-11.031000137329102 4.039999961853027,-11.5 C4.76800012588501,-12.508999824523926 5.494999885559082,-13.519000053405762 5.940999984741211,-14.621999740600586 C6.034999847412109,-14.73900032043457 6.081999778747559,-14.880000114440918 6.129000186920166,-15.020999908447266 C6.340000152587891,-14.857000350952148 6.5279998779296875,-14.645000457763672 6.669000148773193,-14.434000015258789 C7.091000080108643,-13.871000289916992 7.348999977111816,-13.1899995803833 7.395999908447266,-12.602999687194824 C7.559999942779541,-11.12399959564209 6.951000213623047,-9.692999839782715 6.269999980926514,-8.354999542236328 C3.359999895095825,-2.7690000534057617 -1.406000018119812,1.8079999685287476 -4.058000087738037,7.534999847412109z"/></g><g opacity="1" transform="matrix(1,0,0,1,169.9199981689453,97.56500244140625)"><path fill="rgb(0,0,0)" fill-opacity="1" d=" M1.5609999895095825,-2.111999988555908 C0.5049999952316284,-0.6800000071525574 -0.527999997138977,0.7509999871253967 -1.5609999895095825,2.183000087738037 C-1.5609999895095825,2.183000087738037 1.4670000076293945,-2.183000087738037 1.4670000076293945,-2.183000087738037 C1.4670000076293945,-2.183000087738037 1.5609999895095825,-2.111999988555908 1.5609999895095825,-2.111999988555908z"/></g><g opacity="1" transform="matrix(1,0,0,1,157.0229949951172,117.89199829101562)"><path fill="rgb(0,0,0)" fill-opacity="1" d=" M9.670000076293945,-13.942000389099121 C9.670000076293945,-13.942000389099121 9.130000114440918,-13.190999984741211 9.130000114440918,-13.190999984741211 C9.130000114440918,-13.190999984741211 -0.257999986410141,-0.23499999940395355 -0.257999986410141,-0.23499999940395355 C-0.4690000116825104,0.04699999839067459 -0.6570000052452087,0.35199999809265137 -0.8209999799728394,0.6570000052452087 C-0.8209999799728394,0.6570000052452087 -9.270999908447266,15.397000312805176 -9.270999908447266,15.397000312805176 C-9.411999702453613,15.397000312805176 -9.553000450134277,15.420999526977539 -9.670000076293945,15.444000244140625 C-9.670000076293945,15.444000244140625 -1.784000039100647,0.9390000104904175 -1.784000039100647,0.9390000104904175 C-1.6200000047683716,0.6340000033378601 -1.4550000429153442,0.35199999809265137 -1.24399995803833,0.04699999839067459 C-1.24399995803833,0.04699999839067459 8.425999641418457,-13.918999671936035 8.425999641418457,-13.918999671936035 C8.425999641418457,-13.918999671936035 9.482000350952148,-15.444000244140625 9.482000350952148,-15.444000244140625 C9.317999839782715,-14.975000381469727 9.411999702453613,-14.4350004196167 9.670000076293945,-13.942000389099121z"/></g><g opacity="1" transform="matrix(1,0,0,1,177.6540069580078,91.66200256347656)"><path fill="rgb(0,0,0)" fill-opacity="1" d=" M8.26099967956543,-13.036999702453613 C9.739999771118164,-13.013999938964844 11.194999694824219,-12.661999702453613 12.532999992370605,-12.052000045776367 C11.711000442504883,-12.333999633789062 10.843000411987305,-12.498000144958496 9.951000213623047,-12.545000076293945 C8.730999946594238,-12.592000007629395 7.510000228881836,-12.404000282287598 6.360000133514404,-11.958000183105469 C4.7170000076293945,-11.324000358581543 3.5199999809265137,-9.586999893188477 2.486999988555908,-8.154999732971191 C-0.2590000033378601,-4.375999927520752 -3.005000114440918,-0.5740000009536743 -5.750999927520752,3.2049999237060547 C-5.892000198364258,3.3929998874664307 -6.0329999923706055,3.6029999256134033 -6.173999786376953,3.7909998893737793 C-7.230000019073486,5.2230000495910645 -8.26200008392334,6.65500020980835 -9.295000076293945,8.086999893188477 C-9.295000076293945,8.086999893188477 -11.12600040435791,10.73900032043457 -11.12600040435791,10.73900032043457 C-11.14900016784668,10.76200008392334 -11.149999618530273,10.78600025177002 -11.149999618530273,10.78600025177002 C-11.314000129699707,11.255000114440918 -11.220000267028809,11.795000076293945 -10.961999893188477,12.288000106811523 C-10.961999893188477,12.288000106811523 -11.501999855041504,13.038999557495117 -11.501999855041504,13.038999557495117 C-11.807000160217285,12.85099983215332 -12.041999816894531,12.593000411987305 -12.206000328063965,12.310999870300293 C-12.604999542236328,11.701000213623047 -12.651000022888184,10.972999572753906 -12.276000022888184,10.40999984741211 C-10.586000442504883,7.993000030517578 -8.897000312805176,5.551000118255615 -7.230000019073486,3.134000062942505 C-4.553999900817871,-0.7149999737739563 -1.878999948501587,-4.5879998207092285 0.796999990940094,-8.437000274658203 C1.805999994277954,-9.892000198364258 2.9560000896453857,-11.652999877929688 4.623000144958496,-12.357000350952148 C5.7729997634887695,-12.826000213623047 7.017000198364258,-13.0600004196167 8.26099967956543,-13.036999702453613z"/></g><g opacity="1" transform="matrix(1,0,0,1,168.87600708007812,126.84600067138672)"><path stroke-linecap="round" stroke-linejoin="round" fill-opacity="0" stroke="rgb(0,0,0)" stroke-opacity="1" stroke-width="1.758" d=" M1.2730000019073486,-26.077999114990234 C-2.203000068664551,-25.523000717163086 -20.961999893188477,6.23799991607666 -20.961999893188477,6.23799991607666 C-20.961999893188477,6.23799991607666 -10.961000442504883,13.555000305175781 -10.961000442504883,13.555000305175781 C-10.961000442504883,13.555000305175781 0.28200000524520874,1.090999960899353 0.28200000524520874,1.090999960899353 C0.5170000195503235,0.8330000042915344 0.7279999852180481,0.5519999861717224 0.9390000104904175,0.27000001072883606 C0.9390000104904175,0.27000001072883606 10.961000442504883,-13.555000305175781 10.961000442504883,-13.555000305175781"/></g><g opacity="1" transform="matrix(1,0,0,1,157.2220001220703,118.61900329589844)"><path stroke-linecap="round" stroke-linejoin="round" fill-opacity="0" stroke="rgb(0,0,0)" stroke-opacity="1" stroke-width="1.758" d=" M-9.470999717712402,14.670000076293945 C-9.470999717712402,14.670000076293945 -1.0210000276565552,-0.07000000029802322 -1.0210000276565552,-0.07000000029802322 C-0.8569999933242798,-0.375 -0.6690000295639038,-0.6800000071525574 -0.4580000042915344,-0.9620000123977661 C-0.4580000042915344,-0.9620000123977661 8.930999755859375,-13.918000221252441 8.930999755859375,-13.918000221252441 C8.930999755859375,-13.918000221252441 9.470999717712402,-14.670000076293945 9.470999717712402,-14.670000076293945"/></g><g opacity="1" transform="matrix(1,0,0,1,181.89999389648438,96.20099639892578)"><path stroke-linecap="round" stroke-linejoin="round" fill-opacity="0" stroke="rgb(0,0,0)" stroke-opacity="1" stroke-width="1.758" d=" M-3.3540000915527344,16.597000122070312 C-3.2130000591278076,16.69099998474121 -3.072000026702881,16.78499984741211 -2.9079999923706055,16.854999542236328 C-2.625999927520752,16.996000289916992 -2.3450000286102295,17.066999435424805 -2.062999963760376,17.09000015258789 C-1.4529999494552612,17.113000869750977 -0.8899999856948853,16.902000427246094 -0.5609999895095825,16.433000564575195 C1.1990000009536743,14.038999557495117 2.937000036239624,11.621000289916992 4.697000026702881,9.20300006866455 C7.044000148773193,5.940000057220459 9.437999725341797,2.677999973297119 11.78499984741211,-0.6079999804496765 C11.831999778747559,-0.6779999732971191 11.878999710083008,-0.7250000238418579 11.925999641418457,-0.7950000166893005 C12.277999877929688,-1.2640000581741333 12.607000350952148,-1.7580000162124634 12.958999633789062,-2.2269999980926514 C13.687000274658203,-3.2360000610351562 14.413999557495117,-4.245999813079834 14.859999656677246,-5.348999977111816 C14.954000473022461,-5.466000080108643 15,-5.60699987411499 15.04699993133545,-5.748000144958496 C15.42300033569336,-6.639999866485596 15.564000129699707,-7.6020002365112305 15.42300033569336,-8.657999992370605 C15.118000030517578,-10.86400032043457 13.87399959564209,-12.859999656677246 12.230999946594238,-14.3149995803833 C11.151000022888184,-15.300999641418457 9.859999656677246,-16.075000762939453 8.45199966430664,-16.520999908447266 C8.404999732971191,-16.56800079345703 8.357999801635742,-16.591999053955078 8.288000106811523,-16.591999053955078 C7.466000080108643,-16.874000549316406 6.5980000495910645,-17.03700065612793 5.705999851226807,-17.083999633789062 C4.485000133514404,-17.131000518798828 3.265000104904175,-16.944000244140625 2.115000009536743,-16.49799919128418 C0.47200000286102295,-15.86400032043457 -0.7250000238418579,-14.126999855041504 -1.7580000162124634,-12.694999694824219 C-4.504000186920166,-8.916000366210938 -7.25,-5.113999843597412 -9.996000289916992,-1.3350000381469727 C-10.13700008392334,-1.1469999551773071 -10.277999877929688,-0.9359999895095825 -10.418999671936035,-0.7480000257492065 C-11.475000381469727,0.6840000152587891 -12.508000373840332,2.115000009536743 -13.541000366210938,3.546999931335449 C-14.081000328063965,4.322000026702881 -14.644000053405762,5.072999954223633 -15.184000015258789,5.823999881744385 C-15.277999877929688,5.940999984741211 -15.324000358581543,6.058000087738037 -15.371000289916992,6.198999881744385 C-15.394000053405762,6.2220001220703125 -15.395000457763672,6.245999813079834 -15.395000457763672,6.245999813079834 C-15.559000015258789,6.715000152587891 -15.46500015258789,7.255000114440918 -15.206999778747559,7.748000144958496 C-15.019000053405762,8.029999732971191 -14.784000396728516,8.310999870300293 -14.479000091552734,8.545999526977539 C-14.479000091552734,8.545999526977539 -7.625999927520752,13.49899959564209 -7.625999927520752,13.49899959564209"/></g><g opacity="1" transform="matrix(1,0,0,1,151.7899932861328,138.63999938964844)"><path stroke-linecap="round" stroke-linejoin="round" fill-opacity="0" stroke="rgb(0,0,0)" stroke-opacity="1" stroke-width="1.758" d=" M-3.00600004196167,-5.0229997634887695 C-3.311000108718872,-5.234000205993652 -3.6630001068115234,-5.35099983215332 -4.014999866485596,-5.35099983215332 C-4.014999866485596,-5.35099983215332 -4.038000106811523,-5.35099983215332 -4.038000106811523,-5.35099983215332 C-4.178999900817871,-5.35099983215332 -4.320000171661377,-5.328000068664551 -4.436999797821045,-5.304999828338623 C-4.929999828338623,-5.210999965667725 -5.400000095367432,-4.928999900817871 -5.751999855041504,-4.482999801635742 C-5.822000026702881,-4.413000106811523 -5.86899995803833,-4.364999771118164 -5.915999889373779,-4.295000076293945 C-6.666999816894531,-3.26200008392334 -6.572999954223633,-1.9249999523162842 -5.704999923706055,-1.2910000085830688 C-5.704999923706055,-1.2910000085830688 -3.874000072479248,0.04699999839067459 -3.874000072479248,0.04699999839067459 C-3.874000072479248,0.04699999839067459 0.796999990940094,3.427000045776367 0.796999990940094,3.427000045776367 C0.796999990940094,3.427000045776367 3.003000020980835,5.0229997634887695 3.003000020980835,5.0229997634887695 C3.308000087738037,5.234000205993652 3.6600000858306885,5.35099983215332 4.01200008392334,5.35099983215332 C4.363999843597412,5.35099983215332 4.716000080108643,5.257999897003174 5.045000076293945,5.070000171661377 C5.1620001792907715,5.0229997634887695 5.28000020980835,4.928999900817871 5.396999835968018,4.835000038146973 C5.585000038146973,4.693999767303467 5.7729997634887695,4.50600004196167 5.936999797821045,4.295000076293945 C6.52400016784668,3.4730000495910645 6.571000099182129,2.4639999866485596 6.125,1.7599999904632568 C6.007999897003174,1.5720000267028809 5.866000175476074,1.4320000410079956 5.702000141143799,1.2910000085830688 C5.702000141143799,1.2910000085830688 1.4769999980926514,-1.7599999904632568 1.4769999980926514,-1.7599999904632568"/></g><g opacity="1" transform="matrix(1,0,0,1,0,0)"><g opacity="1" transform="matrix(1,0,0,1,146.38600158691406,146.05799865722656)"><path stroke-linecap="round" stroke-linejoin="round" fill-opacity="0" stroke="rgb(0,0,0)" stroke-opacity="1" stroke-width="1.758" d=" M6.201000213623047,-3.990999937057495 C6.13100004196167,-3.8970000743865967 6.10699987411499,-3.7799999713897705 6.084000110626221,-3.686000108718872 C6.013999938964844,-3.4749999046325684 5.942999839782715,-3.2639999389648438 5.895999908447266,-3.052999973297119 C5.591000080108643,-1.7389999628067017 5.591000080108643,-0.33000001311302185 5.802000045776367,1.125 C5.824999809265137,1.2890000343322754 5.824999809265137,1.4539999961853027 5.7779998779296875,1.5950000286102295 C5.7779998779296875,1.6649999618530273 5.754000186920166,1.7350000143051147 5.730999946594238,1.8289999961853027 C5.590000152587891,2.2279999256134033 5.26200008392334,2.509999990463257 4.815999984741211,2.6040000915527344 C2.117000102996826,3.23799991607666 -0.39399999380111694,4.669000148773193 -2.765000104904175,6.946000099182129 C-2.765000104904175,7.203999996185303 -3.493000030517578,7.36899995803833 -3.750999927520752,7.36899995803833 C-4.0329999923706055,7.392000198364258 -4.267000198364258,7.250999927520752 -4.501999855041504,7.133999824523926 C-4.994999885559082,6.8520002365112305 -5.511000156402588,6.571000099182129 -5.86299991607666,6.125 C-6.0980000495910645,5.7729997634887695 -6.238999843597412,5.374000072479248 -6.191999912261963,4.974999904632568 C-6.191999912261963,4.810999870300293 -6.144999980926514,4.670000076293945 -6.074999809265137,4.5289998054504395 C-5.840000152587891,4.059999942779541 -5.6519999504089355,3.61299991607666 -5.48799991607666,3.1440000534057617 C-4.479000091552734,0.703000009059906 -4.125999927520752,-1.690999984741211 -4.314000129699707,-4.014999866485596 C-4.336999893188477,-4.203000068664551 -4.314000129699707,-4.389999866485596 -4.24399995803833,-4.578000068664551 C-4.079999923706055,-5 -3.7039999961853027,-5.328999996185303 -3.2109999656677246,-5.422999858856201 C-1.6150000095367432,-5.681000232696533 -0.18400000035762787,-6.173999786376953 1.0369999408721924,-7.019000053405762 C1.225000023841858,-7.11299991607666 1.3660000562667847,-7.230000019073486 1.5299999713897705,-7.370999813079834"/></g><g opacity="1" transform="matrix(1,0,0,1,146.83700561523438,145.08099365234375)"><path fill="rgb(0,0,0)" fill-opacity="1" d=" M1.8639999628067017,1.3509999513626099 C1.156000018119812,2.328000068664551 -0.2529999911785126,2.515000104904175 -1.2829999923706055,1.7690000534057617 C-2.312999963760376,1.0230000019073486 -2.572000026702881,-0.37400001287460327 -1.8639999628067017,-1.3509999513626099 C-1.156000018119812,-2.328000068664551 0.2529999911785126,-2.515000104904175 1.2829999923706055,-1.7690000534057617 C2.312999963760376,-1.0230000019073486 2.572000026702881,0.37400001287460327 1.8639999628067017,1.3509999513626099z"/></g><g opacity="1" transform="matrix(1,0,0,1,144.1820068359375,148.7429962158203)"><path stroke-linecap="round" stroke-linejoin="round" fill-opacity="0" stroke="rgb(0,0,0)" stroke-opacity="1" stroke-width="1.758" d=" M2.815000057220459,-3.882999897003174 C2.815000057220459,-3.882999897003174 -2.815000057220459,3.882999897003174 -2.815000057220459,3.882999897003174"/></g></g></g></g></g><filter id="__lottie_element_5277" filterUnits="objectBoundingBox" x="0%" y="0%" width="100%" height="100%"><feComponentTransfer in="SourceGraphic"><feFuncA type="table" tableValues="1.0 0.0"/></feComponentTransfer></filter><mask id="__lottie_element_5270_2" mask-type="alpha"><g filter="url(#__lottie_element_5277)"><rect width="256" height="256" x="0" y="0" fill="#ffffff" opacity="0"/><use xmlns:ns1="http://www.w3.org/1999/xlink" ns1:href="#__lottie_element_5270"/></g></mask></defs><g clip-path="url(#__lottie_element_5266)"><g mask="url(#__lottie_element_5270_2)" style="display: block;"><g transform="matrix(1,0,0,1,0,0)" opacity="1"><g opacity="0" transform="matrix(1,0,0,1,0,0)"><g opacity="1" transform="matrix(1,0,0,1,156.70399475097656,62.45600128173828)"><path stroke-linecap="round" stroke-linejoin="round" fill-opacity="0" stroke="rgb(0,0,0)" stroke-opacity="1" stroke-width="1.758" d=" M2.0179998874664307,-2.5850000381469727 C0.6729999780654907,-0.8619999885559082 -0.6729999780654907,0.8619999885559082 -2.0179998874664307,2.5850000381469727"/></g><g opacity="1" transform="matrix(1,0,0,1,161.0330047607422,66.63300323486328)"><path stroke-linecap="round" stroke-linejoin="round" fill-opacity="0" stroke="rgb(0,0,0)" stroke-opacity="1" stroke-width="1.758" d=" M4.063000202178955,-1.8009999990463257 C1.430999994277954,-0.4259999990463257 -1.2860000133514404,0.777999997138977 -4.063000202178955,1.8009999990463257"/></g><g opacity="1" transform="matrix(1,0,0,1,161.8090057373047,72.9000015258789)"><path stroke-linecap="round" stroke-linejoin="round" fill-opacity="0" stroke="rgb(0,0,0)" stroke-opacity="1" stroke-width="1.758" d=" M3.994999885559082,0.5230000019073486 C1.5390000343322754,0.20999999344348907 -1.1130000352859497,-0.15299999713897705 -3.994999885559082,-0.5230000019073486"/></g></g><g opacity="1" transform="matrix(1,0,0,1,0,0)"><g opacity="1" transform="matrix(1,0,0,1,0,0)"><g opacity="1" transform="matrix(1,0,0,1,123.625,149.95399475097656)"><path fill="rgb(0,0,0)" fill-opacity="1" d=" M65.9990005493164,7.533999919891357 C48.48899841308594,25.18400001525879 25.792999267578125,39.9010009765625 -0.16599999368190765,52.76300048828125 C-1.1519999504089355,53.231998443603516 -2.3489999771118164,53.1150016784668 -3.194000005722046,52.433998107910156 C-25.538999557495117,34.66600036621094 -40.27899932861328,15.303000450134277 -44.08100128173828,-6.3379998207092285 C-47.64899826049805,-24.599000930786133 -54.409000396728516,-38.071998596191406 -65.48699951171875,-45.112998962402344 C-67.24700164794922,-46.2400016784668 -67.27100372314453,-48.797000885009766 -65.48699951171875,-49.87699890136719 C-63.72700119018555,-50.957000732421875 -61.965999603271484,-52.01300048828125 -60.20600128173828,-53.04600143432617 C-50.88800048828125,-45.60599899291992 -45.02000045776367,-33.00199890136719 -41.78099822998047,-16.430999755859375 C-37.979000091552734,5.209000110626221 -23.23900032043457,24.572999954223633 -0.8709999918937683,42.340999603271484 C-0.026000000536441803,43.02199935913086 1.1480000019073486,43.138999938964844 2.134000062942505,42.66999816894531 C25.886999130249023,30.910999298095703 46.89400100708008,17.60300064086914 63.67599868774414,1.9240000247955322 C64.30999755859375,2.3929998874664307 64.96700286865234,2.8389999866485596 65.6240005493164,3.2850000858306885 C67.05599975585938,4.270999908447266 67.21900177001953,6.313000202178955 65.9990005493164,7.533999919891357z"/></g><g opacity="1" transform="matrix(1,0,0,1,125.93399810791016,122.9540023803711)"><path stroke-linecap="round" stroke-linejoin="round" fill-opacity="0" stroke="rgb(0,0,0)" stroke-opacity="1" stroke-width="1.758" d=" M52.5880012512207,9.090999603271484 C56.38999938964844,13.197999954223633 60.75600051879883,16.884000778198242 65.61499786376953,20.19300079345703 C67.06999969482422,21.179000854492188 67.23400115966797,23.219999313354492 65.98999786376953,24.44099998474121 C64.48799896240234,25.94300079345703 62.939998626708984,27.44499969482422 61.367000579833984,28.923999786376953 C44.584999084472656,44.60300064086914 23.577999114990234,57.9119987487793 -0.17499999701976776,69.6709976196289 C-1.1610000133514404,70.13999938964844 -2.3350000381469727,70.02300262451172 -3.180000066757202,69.34200286865234 C-25.54800033569336,51.57400131225586 -40.28799819946289,32.21099853515625 -44.09000015258789,10.569999694824219 C-47.32899856567383,-6.000999927520752 -53.196998596191406,-18.604999542236328 -62.51499938964844,-26.045000076293945 C-63.47700119018555,-26.843000411987305 -64.46299743652344,-27.54800033569336 -65.49600219726562,-28.204999923706055 C-67.25599670410156,-29.332000732421875 -67.27999877929688,-31.889999389648438 -65.49600219726562,-32.970001220703125 C-42.54100036621094,-46.95899963378906 -20.267000198364258,-59.422000885009766 1.0449999570846558,-69.67900085449219 C1.6549999713897705,-69.96099853515625 2.3359999656677246,-70.02999877929688 2.9700000286102295,-69.86599731445312 C17.615999221801758,-65.97000122070312 26.371000289916992,-48.50699996948242 31.20599937438965,-22.14900016784668"/></g></g><g opacity="1" transform="matrix(1,0,0,1,0,0)"><g opacity="1" transform="matrix(1,0,0,1,132.7899932861328,157.0489959716797)"><path stroke-linecap="round" stroke-linejoin="round" fill-opacity="0" stroke="rgb(0,0,0)" stroke-opacity="1" stroke-width="1.758" d="M0 0"/></g><g opacity="1" transform="matrix(1,0,0,1,118.41000366210938,120.40599822998047)"><path stroke-linecap="round" stroke-linejoin="round" fill-opacity="0" stroke="rgb(0,0,0)" stroke-opacity="1" stroke-width="1.758" d=" M-18.378000259399414,10.187000274658203 C-16.052000045776367,10.626999855041504 -13.543000221252441,9.970999717712402 -11.729999542236328,8.449999809265137 C-9.795999526977539,6.828000068664551 -8.739999771118164,4.4019999504089355 -7.942999839782715,2.006999969482422 C-6.993000030517578,-0.8479999899864197 -6.311999797821045,-3.9040000438690186 -6.894000053405762,-6.85699987411499 C-7.085999965667725,-7.833000183105469 -7.439000129699707,-8.819000244140625 -8.157999992370605,-9.505999565124512 C-8.876999855041504,-10.192999839782715 -10.03499984741211,-10.493000030517578 -10.895999908447266,-9.994999885559082 C-11.420000076293945,-9.692000389099121 -11.76200008392334,-9.151000022888184 -12.017000198364258,-8.60200023651123 C-13.72599983215332,-4.927000045776367 -12.307000160217285,-0.5049999952316284 -10.013999938964844,2.8369998931884766 C-8.29800033569336,5.3379998207092285 -5.539000034332275,7.699999809265137 -2.568000078201294,7.089000225067139 C-0.3619999885559082,6.635000228881836 1.225000023841858,4.625999927520752 1.9950000047683716,2.509000062942505 C2.765000104904175,0.3919999897480011 2.9070000648498535,-1.8930000066757202 3.380000114440918,-4.09499979019165 C3.5840001106262207,-5.043000221252441 3.874000072479248,-6.021999835968018 4.558000087738037,-6.709000110626221 C5.796999931335449,-7.953999996185303 7.797999858856201,-7.815000057220459 9.555000305175781,-7.84499979019165 C12.642999649047852,-7.8979997634887695 15.71399974822998,-8.758999824523926 18.378000259399414,-10.321000099182129"/></g></g></g></g></g><g transform="matrix(1,0,0,1,0,0)" opacity="1" style="display: block;"><g opacity="1" transform="matrix(0.9878328442573547,0.15551944077014923,-0.15551944077014923,0.9878328442573547,16.89704132080078,-50.373260498046875)"><g opacity="1" transform="matrix(1,0,0,1,190.8179931640625,105.4739990234375)"><path fill="rgb(0,0,0)" fill-opacity="1" d=" M-4.058000087738037,7.534999847412109 C-4.315999984741211,8.121999740600586 -5.208000183105469,9.694999694824219 -4.315999984741211,10.069999694824219 C-4.293000221252441,10.093000411987305 -4.26800012588501,10.093999862670898 -4.244999885559082,10.093999862670898 C-3.752000093460083,10.258000373840332 -3.4000000953674316,9.57699966430664 -2.812999963760376,9.62399959564209 C-2.131999969482422,9.670999526977539 -1.5700000524520874,10.140999794006348 -1.2410000562667847,10.704000473022461 C-1.100000023841858,10.939000129699707 -1.00600004196167,11.220999717712402 -0.9589999914169312,11.479000091552734 C-0.6539999842643738,12.84000015258789 -1.3580000400543213,14.364999771118164 -2.696000099182129,14.857999801635742 C-4.127999782562256,15.37399959564209 -5.701000213623047,14.600000381469727 -6.616000175476074,13.355999946594238 C-6.638999938964844,13.333000183105469 -6.638999938964844,13.309000015258789 -6.638999938964844,13.28600025177002 C-6.943999767303467,12.88700008392334 -7.156000137329102,12.46399974822998 -7.2729997634887695,11.994999885559082 C-7.742000102996826,10.069999694824219 -7.038000106811523,8.052000045776367 -6.192999839782715,6.2210001945495605 C-3.986999988555908,1.4559999704360962 -0.7950000166893005,-2.7920000553131104 2.302999973297119,-7.064000129699707 C2.819000005722046,-7.791999816894531 3.2190001010894775,-8.565999984741211 3.0309998989105225,-9.480999946594238 C2.9839999675750732,-9.645000457763672 2.937000036239624,-9.762999534606934 2.867000102996826,-9.880000114440918 C2.9140000343322754,-9.949999809265137 2.9600000381469727,-9.998000144958496 3.006999969482422,-10.067999839782715 C3.3589999675750732,-10.536999702453613 3.687999963760376,-11.031000137329102 4.039999961853027,-11.5 C4.76800012588501,-12.508999824523926 5.494999885559082,-13.519000053405762 5.940999984741211,-14.621999740600586 C6.034999847412109,-14.73900032043457 6.081999778747559,-14.880000114440918 6.129000186920166,-15.020999908447266 C6.340000152587891,-14.857000350952148 6.5279998779296875,-14.645000457763672 6.669000148773193,-14.434000015258789 C7.091000080108643,-13.871000289916992 7.348999977111816,-13.1899995803833 7.395999908447266,-12.602999687194824 C7.559999942779541,-11.12399959564209 6.951000213623047,-9.692999839782715 6.269999980926514,-8.354999542236328 C3.359999895095825,-2.7690000534057617 -1.406000018119812,1.8079999685287476 -4.058000087738037,7.534999847412109z"/></g><g opacity="1" transform="matrix(1,0,0,1,169.9199981689453,97.56500244140625)"><path fill="rgb(0,0,0)" fill-opacity="1" d=" M1.5609999895095825,-2.111999988555908 C0.5049999952316284,-0.6800000071525574 -0.527999997138977,0.7509999871253967 -1.5609999895095825,2.183000087738037 C-1.5609999895095825,2.183000087738037 1.4670000076293945,-2.183000087738037 1.4670000076293945,-2.183000087738037 C1.4670000076293945,-2.183000087738037 1.5609999895095825,-2.111999988555908 1.5609999895095825,-2.111999988555908z"/></g><g opacity="1" transform="matrix(1,0,0,1,157.0229949951172,117.89199829101562)"><path fill="rgb(0,0,0)" fill-opacity="1" d=" M9.670000076293945,-13.942000389099121 C9.670000076293945,-13.942000389099121 9.130000114440918,-13.190999984741211 9.130000114440918,-13.190999984741211 C9.130000114440918,-13.190999984741211 -0.257999986410141,-0.23499999940395355 -0.257999986410141,-0.23499999940395355 C-0.4690000116825104,0.04699999839067459 -0.6570000052452087,0.35199999809265137 -0.8209999799728394,0.6570000052452087 C-0.8209999799728394,0.6570000052452087 -9.270999908447266,15.397000312805176 -9.270999908447266,15.397000312805176 C-9.411999702453613,15.397000312805176 -9.553000450134277,15.420999526977539 -9.670000076293945,15.444000244140625 C-9.670000076293945,15.444000244140625 -1.784000039100647,0.9390000104904175 -1.784000039100647,0.9390000104904175 C-1.6200000047683716,0.6340000033378601 -1.4550000429153442,0.35199999809265137 -1.24399995803833,0.04699999839067459 C-1.24399995803833,0.04699999839067459 8.425999641418457,-13.918999671936035 8.425999641418457,-13.918999671936035 C8.425999641418457,-13.918999671936035 9.482000350952148,-15.444000244140625 9.482000350952148,-15.444000244140625 C9.317999839782715,-14.975000381469727 9.411999702453613,-14.4350004196167 9.670000076293945,-13.942000389099121z"/></g><g opacity="1" transform="matrix(1,0,0,1,177.6540069580078,91.66200256347656)"><path fill="rgb(0,0,0)" fill-opacity="1" d=" M8.26099967956543,-13.036999702453613 C9.739999771118164,-13.013999938964844 11.194999694824219,-12.661999702453613 12.532999992370605,-12.052000045776367 C11.711000442504883,-12.333999633789062 10.843000411987305,-12.498000144958496 9.951000213623047,-12.545000076293945 C8.730999946594238,-12.592000007629395 7.510000228881836,-12.404000282287598 6.360000133514404,-11.958000183105469 C4.7170000076293945,-11.324000358581543 3.5199999809265137,-9.586999893188477 2.486999988555908,-8.154999732971191 C-0.2590000033378601,-4.375999927520752 -3.005000114440918,-0.5740000009536743 -5.750999927520752,3.2049999237060547 C-5.892000198364258,3.3929998874664307 -6.0329999923706055,3.6029999256134033 -6.173999786376953,3.7909998893737793 C-7.230000019073486,5.2230000495910645 -8.26200008392334,6.65500020980835 -9.295000076293945,8.086999893188477 C-9.295000076293945,8.086999893188477 -11.12600040435791,10.73900032043457 -11.12600040435791,10.73900032043457 C-11.14900016784668,10.76200008392334 -11.149999618530273,10.78600025177002 -11.149999618530273,10.78600025177002 C-11.314000129699707,11.255000114440918 -11.220000267028809,11.795000076293945 -10.961999893188477,12.288000106811523 C-10.961999893188477,12.288000106811523 -11.501999855041504,13.038999557495117 -11.501999855041504,13.038999557495117 C-11.807000160217285,12.85099983215332 -12.041999816894531,12.593000411987305 -12.206000328063965,12.310999870300293 C-12.604999542236328,11.701000213623047 -12.651000022888184,10.972999572753906 -12.276000022888184,10.40999984741211 C-10.586000442504883,7.993000030517578 -8.897000312805176,5.551000118255615 -7.230000019073486,3.134000062942505 C-4.553999900817871,-0.7149999737739563 -1.878999948501587,-4.5879998207092285 0.796999990940094,-8.437000274658203 C1.805999994277954,-9.892000198364258 2.9560000896453857,-11.652999877929688 4.623000144958496,-12.357000350952148 C5.7729997634887695,-12.826000213623047 7.017000198364258,-13.0600004196167 8.26099967956543,-13.036999702453613z"/></g><g opacity="1" transform="matrix(1,0,0,1,168.87600708007812,126.84600067138672)"><path stroke-linecap="round" stroke-linejoin="round" fill-opacity="0" stroke="rgb(0,0,0)" stroke-opacity="1" stroke-width="1.758" d=" M-10.961000442504883,13.555000305175781 C-10.961000442504883,13.555000305175781 0.28200000524520874,1.090999960899353 0.28200000524520874,1.090999960899353 C0.5170000195503235,0.8330000042915344 0.7279999852180481,0.5519999861717224 0.9390000104904175,0.27000001072883606 C0.9390000104904175,0.27000001072883606 10.961000442504883,-13.555000305175781 10.961000442504883,-13.555000305175781"/></g><g opacity="1" transform="matrix(1,0,0,1,157.2220001220703,118.61900329589844)"><path stroke-linecap="round" stroke-linejoin="round" fill-opacity="0" stroke="rgb(0,0,0)" stroke-opacity="1" stroke-width="1.758" d=" M-9.470999717712402,14.670000076293945 C-9.470999717712402,14.670000076293945 -1.0210000276565552,-0.07000000029802322 -1.0210000276565552,-0.07000000029802322 C-0.8569999933242798,-0.375 -0.6690000295639038,-0.6800000071525574 -0.4580000042915344,-0.9620000123977661 C-0.4580000042915344,-0.9620000123977661 8.930999755859375,-13.918000221252441 8.930999755859375,-13.918000221252441 C8.930999755859375,-13.918000221252441 9.470999717712402,-14.670000076293945 9.470999717712402,-14.670000076293945"/></g><g opacity="1" transform="matrix(1,0,0,1,181.89999389648438,96.20099639892578)"><path stroke-linecap="round" stroke-linejoin="round" fill-opacity="0" stroke="rgb(0,0,0)" stroke-opacity="1" stroke-width="1.758" d=" M-3.3540000915527344,16.597000122070312 C-3.2130000591278076,16.69099998474121 -3.072000026702881,16.78499984741211 -2.9079999923706055,16.854999542236328 C-2.625999927520752,16.996000289916992 -2.3450000286102295,17.066999435424805 -2.062999963760376,17.09000015258789 C-1.4529999494552612,17.113000869750977 -0.8899999856948853,16.902000427246094 -0.5609999895095825,16.433000564575195 C1.1990000009536743,14.038999557495117 2.937000036239624,11.621000289916992 4.697000026702881,9.20300006866455 C7.044000148773193,5.940000057220459 9.437999725341797,2.677999973297119 11.78499984741211,-0.6079999804496765 C11.831999778747559,-0.6779999732971191 11.878999710083008,-0.7250000238418579 11.925999641418457,-0.7950000166893005 C12.277999877929688,-1.2640000581741333 12.607000350952148,-1.7580000162124634 12.958999633789062,-2.2269999980926514 C13.687000274658203,-3.2360000610351562 14.413999557495117,-4.245999813079834 14.859999656677246,-5.348999977111816 C14.954000473022461,-5.466000080108643 15,-5.60699987411499 15.04699993133545,-5.748000144958496 C15.42300033569336,-6.639999866485596 15.564000129699707,-7.6020002365112305 15.42300033569336,-8.657999992370605 C15.118000030517578,-10.86400032043457 13.87399959564209,-12.859999656677246 12.230999946594238,-14.3149995803833 C11.151000022888184,-15.300999641418457 9.859999656677246,-16.075000762939453 8.45199966430664,-16.520999908447266 C8.404999732971191,-16.56800079345703 8.357999801635742,-16.591999053955078 8.288000106811523,-16.591999053955078 C7.466000080108643,-16.874000549316406 6.5980000495910645,-17.03700065612793 5.705999851226807,-17.083999633789062 C4.485000133514404,-17.131000518798828 3.265000104904175,-16.944000244140625 2.115000009536743,-16.49799919128418 C0.47200000286102295,-15.86400032043457 -0.7250000238418579,-14.126999855041504 -1.7580000162124634,-12.694999694824219 C-4.504000186920166,-8.916000366210938 -7.25,-5.113999843597412 -9.996000289916992,-1.3350000381469727 C-10.13700008392334,-1.1469999551773071 -10.277999877929688,-0.9359999895095825 -10.418999671936035,-0.7480000257492065 C-11.475000381469727,0.6840000152587891 -12.508000373840332,2.115000009536743 -13.541000366210938,3.546999931335449 C-14.081000328063965,4.322000026702881 -14.644000053405762,5.072999954223633 -15.184000015258789,5.823999881744385 C-15.277999877929688,5.940999984741211 -15.324000358581543,6.058000087738037 -15.371000289916992,6.198999881744385 C-15.394000053405762,6.2220001220703125 -15.395000457763672,6.245999813079834 -15.395000457763672,6.245999813079834 C-15.559000015258789,6.715000152587891 -15.46500015258789,7.255000114440918 -15.206999778747559,7.748000144958496 C-15.019000053405762,8.029999732971191 -14.784000396728516,8.310999870300293 -14.479000091552734,8.545999526977539 C-14.479000091552734,8.545999526977539 -7.625999927520752,13.49899959564209 -7.625999927520752,13.49899959564209"/></g><g opacity="1" transform="matrix(1,0,0,1,151.7899932861328,138.63999938964844)"><path stroke-linecap="round" stroke-linejoin="round" fill-opacity="0" stroke="rgb(0,0,0)" stroke-opacity="1" stroke-width="1.758" d=" M-3.00600004196167,-5.0229997634887695 C-3.311000108718872,-5.234000205993652 -3.6630001068115234,-5.35099983215332 -4.014999866485596,-5.35099983215332 C-4.014999866485596,-5.35099983215332 -4.038000106811523,-5.35099983215332 -4.038000106811523,-5.35099983215332 C-4.178999900817871,-5.35099983215332 -4.320000171661377,-5.328000068664551 -4.436999797821045,-5.304999828338623 C-4.929999828338623,-5.210999965667725 -5.400000095367432,-4.928999900817871 -5.751999855041504,-4.482999801635742 C-5.822000026702881,-4.413000106811523 -5.86899995803833,-4.364999771118164 -5.915999889373779,-4.295000076293945 C-6.666999816894531,-3.26200008392334 -6.572999954223633,-1.9249999523162842 -5.704999923706055,-1.2910000085830688 C-5.704999923706055,-1.2910000085830688 -3.874000072479248,0.04699999839067459 -3.874000072479248,0.04699999839067459 C-3.874000072479248,0.04699999839067459 0.796999990940094,3.427000045776367 0.796999990940094,3.427000045776367 C0.796999990940094,3.427000045776367 3.003000020980835,5.0229997634887695 3.003000020980835,5.0229997634887695 C3.308000087738037,5.234000205993652 3.6600000858306885,5.35099983215332 4.01200008392334,5.35099983215332 C4.363999843597412,5.35099983215332 4.716000080108643,5.257999897003174 5.045000076293945,5.070000171661377 C5.1620001792907715,5.0229997634887695 5.28000020980835,4.928999900817871 5.396999835968018,4.835000038146973 C5.585000038146973,4.693999767303467 5.7729997634887695,4.50600004196167 5.936999797821045,4.295000076293945 C6.52400016784668,3.4730000495910645 6.571000099182129,2.4639999866485596 6.125,1.7599999904632568 C6.007999897003174,1.5720000267028809 5.866000175476074,1.4320000410079956 5.702000141143799,1.2910000085830688 C5.702000141143799,1.2910000085830688 1.4769999980926514,-1.7599999904632568 1.4769999980926514,-1.7599999904632568"/></g><g opacity="1" transform="matrix(1,0,0,1,0,0)"><g opacity="1" transform="matrix(1,0,0,1,146.38600158691406,146.05799865722656)"><path stroke-linecap="round" stroke-linejoin="round" fill-opacity="0" stroke="rgb(0,0,0)" stroke-opacity="1" stroke-width="1.758" d=" M6.201000213623047,-3.990999937057495 C6.13100004196167,-3.8970000743865967 6.10699987411499,-3.7799999713897705 6.084000110626221,-3.686000108718872 C6.013999938964844,-3.4749999046325684 5.942999839782715,-3.2639999389648438 5.895999908447266,-3.052999973297119 C5.591000080108643,-1.7389999628067017 5.591000080108643,-0.33000001311302185 5.802000045776367,1.125 C5.824999809265137,1.2890000343322754 5.824999809265137,1.4539999961853027 5.7779998779296875,1.5950000286102295 C5.7779998779296875,1.6649999618530273 5.754000186920166,1.7350000143051147 5.730999946594238,1.8289999961853027 C5.590000152587891,2.2279999256134033 5.26200008392334,2.509999990463257 4.815999984741211,2.6040000915527344 C2.117000102996826,3.23799991607666 -0.39399999380111694,4.669000148773193 -2.765000104904175,6.946000099182129 C-2.765000104904175,7.203999996185303 -3.493000030517578,7.36899995803833 -3.750999927520752,7.36899995803833 C-4.0329999923706055,7.392000198364258 -4.267000198364258,7.250999927520752 -4.501999855041504,7.133999824523926 C-4.994999885559082,6.8520002365112305 -5.511000156402588,6.571000099182129 -5.86299991607666,6.125 C-6.0980000495910645,5.7729997634887695 -6.238999843597412,5.374000072479248 -6.191999912261963,4.974999904632568 C-6.191999912261963,4.810999870300293 -6.144999980926514,4.670000076293945 -6.074999809265137,4.5289998054504395 C-5.840000152587891,4.059999942779541 -5.6519999504089355,3.61299991607666 -5.48799991607666,3.1440000534057617 C-4.479000091552734,0.703000009059906 -4.125999927520752,-1.690999984741211 -4.314000129699707,-4.014999866485596 C-4.336999893188477,-4.203000068664551 -4.314000129699707,-4.389999866485596 -4.24399995803833,-4.578000068664551 C-4.079999923706055,-5 -3.7039999961853027,-5.328999996185303 -3.2109999656677246,-5.422999858856201 C-1.6150000095367432,-5.681000232696533 -0.18400000035762787,-6.173999786376953 1.0369999408721924,-7.019000053405762 C1.225000023841858,-7.11299991607666 1.3660000562667847,-7.230000019073486 1.5299999713897705,-7.370999813079834"/></g><g opacity="1" transform="matrix(1,0,0,1,146.83700561523438,145.08099365234375)"><path fill="rgb(0,0,0)" fill-opacity="1" d=" M1.8639999628067017,1.3509999513626099 C1.156000018119812,2.328000068664551 -0.2529999911785126,2.515000104904175 -1.2829999923706055,1.7690000534057617 C-2.312999963760376,1.0230000019073486 -2.572000026702881,-0.37400001287460327 -1.8639999628067017,-1.3509999513626099 C-1.156000018119812,-2.328000068664551 0.2529999911785126,-2.515000104904175 1.2829999923706055,-1.7690000534057617 C2.312999963760376,-1.0230000019073486 2.572000026702881,0.37400001287460327 1.8639999628067017,1.3509999513626099z"/></g><g opacity="1" transform="matrix(1,0,0,1,144.1820068359375,148.7429962158203)"><path stroke-linecap="round" stroke-linejoin="round" fill-opacity="0" stroke="rgb(0,0,0)" stroke-opacity="1" stroke-width="1.758" d=" M2.815000057220459,-3.882999897003174 C2.815000057220459,-3.882999897003174 -2.815000057220459,3.882999897003174 -2.815000057220459,3.882999897003174"/></g></g></g></g></g></svg>